<svg width="555" height="555" viewBox="0 0 555 555" fill="none" xmlns="http://www.w3.org/2000/svg">
<mask id="mask0" mask-type="alpha" maskUnits="userSpaceOnUse" x="0" y="0" width="555" height="555">
<rect x="117.918" width="452.417" height="452.417" rx="10" transform="rotate(15 117.918 0)" fill="#C4C4C4"/>
</mask>
<g mask="url(#mask0)">
<rect x="117.918" width="452.417" height="452.417" rx="10" transform="rotate(15 117.918 0)" fill="#C0D1FC"/>
<circle cx="361.38" cy="88.033" r="124.88" transform="rotate(15 361.38 88.033)" fill="#E36767"/>
<circle cx="63.5906" cy="0.086742" r="211.342" transform="rotate(15 63.5906 0.086742)" fill="url(#paint0_linear)"/>
<circle cx="574.348" cy="144.41" r="172.369" transform="rotate(15 574.348 144.41)" fill="#9A7BCB"/>
<circle cx="70.823" cy="454.915" r="211.342" transform="rotate(15 70.823 454.915)" fill="url(#paint1_linear)"/>
<path d="M707.03 672.39C666.639 823.129 511.698 912.584 360.959 872.194C210.897 831.985 76.5668 678.928 115.212 528.837C115.555 527.505 116.201 526.233 117.062 525.159C238.069 374.28 373.282 326.633 505.91 326.32C506.784 326.318 507.66 326.434 508.503 326.664C658.47 367.586 747.306 522.077 707.03 672.39Z" fill="url(#paint2_linear)"/>
<path d="M459.269 282.46C452.372 308.199 395.198 300.043 348.776 320.228C312.607 335.955 254.712 377.259 221.408 368.845C157.267 352.641 136.228 346.685 100.468 337.103C17.6992 314.925 83.594 218.734 131.005 209.736C272.838 182.815 297.309 115.196 381.723 137.815C466.138 160.434 481.887 198.045 459.269 282.46Z" fill="url(#paint3_linear)"/>
</g>
<defs>
<linearGradient id="paint0_linear" x1="63.5906" y1="-211.256" x2="63.5906" y2="211.429" gradientUnits="userSpaceOnUse">
<stop stop-color="#6278E5"/>
<stop offset="1" stop-color="#5163BB"/>
</linearGradient>
<linearGradient id="paint1_linear" x1="70.823" y1="243.573" x2="70.823" y2="666.257" gradientUnits="userSpaceOnUse">
<stop stop-color="#A172D3"/>
<stop offset="1" stop-color="#6D4993"/>
</linearGradient>
<linearGradient id="paint2_linear" x1="486.127" y1="320.665" x2="-44.1681" y2="528.011" gradientUnits="userSpaceOnUse">
<stop stop-color="#FFAB5E"/>
<stop offset="1" stop-color="#CF731D"/>
</linearGradient>
<linearGradient id="paint3_linear" x1="463.688" y1="174.78" x2="94.0399" y2="336.3" gradientUnits="userSpaceOnUse">
<stop stop-color="#FF7C37"/>
<stop offset="1" stop-color="#CD5E23"/>
</linearGradient>
</defs>
</svg>
