<svg width="1098" height="637" viewBox="0 0 1098 637" fill="none" xmlns="http://www.w3.org/2000/svg">
<mask id="mask0" mask-type="alpha" maskUnits="userSpaceOnUse" x="0" y="0" width="1098" height="637">
<rect width="1098" height="637" fill="#C4C4C4"/>
</mask>
<g mask="url(#mask0)">
<g filter="url(#filter0_ii)">
<path d="M83.6719 366.973H37.4414L28.6523 393.34H0.615234L48.252 265.371H72.6855L120.586 393.34H92.5488L83.6719 366.973ZM44.5605 345.615H76.5527L60.4688 297.715L44.5605 345.615ZM162.169 298.242L162.96 308.877C169.698 300.615 178.809 296.485 190.294 296.485C202.54 296.485 210.948 301.319 215.518 310.987C222.198 301.319 231.72 296.485 244.083 296.485C254.395 296.485 262.071 299.502 267.11 305.537C272.149 311.514 274.669 320.537 274.669 332.608V393.34H249.18V332.696C249.18 327.305 248.126 323.379 246.016 320.918C243.907 318.399 240.186 317.139 234.854 317.139C227.237 317.139 221.964 320.772 219.034 328.037L219.122 393.34H193.721V332.783C193.721 327.276 192.637 323.291 190.47 320.83C188.302 318.369 184.61 317.139 179.395 317.139C172.188 317.139 166.973 320.127 163.751 326.104V393.34H138.35V298.242H162.169ZM349.738 395.098C335.793 395.098 324.425 390.821 315.636 382.266C306.906 373.711 302.541 362.315 302.541 348.076V345.615C302.541 336.065 304.386 327.539 308.078 320.039C311.769 312.481 316.984 306.68 323.722 302.637C330.519 298.535 338.254 296.485 346.925 296.485C359.933 296.485 370.158 300.586 377.599 308.789C385.099 316.992 388.849 328.623 388.849 343.682V354.053H328.293C329.113 360.264 331.574 365.244 335.675 368.994C339.836 372.744 345.08 374.619 351.408 374.619C361.193 374.619 368.839 371.074 374.347 363.985L386.828 377.959C383.019 383.35 377.863 387.569 371.359 390.615C364.855 393.604 357.648 395.098 349.738 395.098ZM346.837 317.051C341.798 317.051 337.697 318.75 334.533 322.149C331.427 325.547 329.435 330.41 328.556 336.739H363.888V334.717C363.771 329.092 362.248 324.756 359.318 321.709C356.388 318.604 352.228 317.051 346.837 317.051ZM441.858 393.34H416.37V258.34H441.858V393.34ZM501.37 393.34H475.882V258.34H501.37V393.34ZM589.184 393.34C588.012 391.055 587.162 388.213 586.635 384.815C580.482 391.67 572.484 395.098 562.641 395.098C553.324 395.098 545.59 392.403 539.438 387.012C533.344 381.621 530.297 374.824 530.297 366.621C530.297 356.543 534.018 348.809 541.459 343.418C548.959 338.028 559.77 335.303 573.891 335.244H585.58V329.795C585.58 325.401 584.438 321.885 582.152 319.248C579.926 316.612 576.381 315.293 571.518 315.293C567.24 315.293 563.871 316.319 561.41 318.369C559.008 320.42 557.807 323.233 557.807 326.807H532.406C532.406 321.299 534.105 316.201 537.504 311.514C540.902 306.826 545.707 303.164 551.918 300.528C558.129 297.832 565.102 296.485 572.836 296.485C584.555 296.485 593.842 299.444 600.697 305.362C607.611 311.221 611.068 319.483 611.068 330.147V371.367C611.127 380.391 612.387 387.217 614.848 391.846V393.34H589.184ZM568.178 375.674C571.928 375.674 575.385 374.854 578.549 373.213C581.713 371.514 584.057 369.258 585.58 366.446V350.098H576.088C563.373 350.098 556.605 354.492 555.785 363.281L555.697 364.776C555.697 367.94 556.811 370.547 559.037 372.598C561.264 374.649 564.311 375.674 568.178 375.674ZM766.832 359.766C766.832 354.785 765.074 350.977 761.558 348.34C758.043 345.645 751.714 342.832 742.574 339.903C733.433 336.914 726.197 333.985 720.865 331.114C706.334 323.262 699.068 312.686 699.068 299.385C699.068 292.471 701.002 286.319 704.869 280.928C708.795 275.479 714.39 271.231 721.656 268.184C728.98 265.137 737.183 263.614 746.265 263.614C755.406 263.614 763.55 265.283 770.699 268.623C777.847 271.905 783.384 276.563 787.31 282.598C791.295 288.633 793.287 295.489 793.287 303.164H766.92C766.92 297.305 765.074 292.764 761.382 289.541C757.691 286.26 752.505 284.619 745.826 284.619C739.38 284.619 734.371 285.996 730.797 288.75C727.222 291.446 725.435 295.02 725.435 299.473C725.435 303.633 727.515 307.119 731.675 309.932C735.894 312.744 742.076 315.381 750.22 317.842C765.22 322.354 776.148 327.949 783.004 334.629C789.859 341.309 793.287 349.629 793.287 359.59C793.287 370.664 789.097 379.365 780.718 385.694C772.339 391.963 761.06 395.098 746.88 395.098C737.037 395.098 728.072 393.311 719.986 389.737C711.9 386.104 705.718 381.153 701.441 374.883C697.222 368.614 695.113 361.348 695.113 353.086H721.568C721.568 367.207 730.005 374.268 746.88 374.268C753.15 374.268 758.043 373.008 761.558 370.489C765.074 367.91 766.832 364.336 766.832 359.766ZM878.2 383.672C871.93 391.289 863.258 395.098 852.184 395.098C841.989 395.098 834.196 392.168 828.805 386.309C823.473 380.449 820.748 371.865 820.631 360.557V298.242H846.032V359.678C846.032 369.58 850.543 374.531 859.567 374.531C868.18 374.531 874.098 371.543 877.321 365.567V298.242H902.809V393.34H878.903L878.2 383.672ZM957.048 298.242L957.839 309.229C964.636 300.733 973.747 296.485 985.173 296.485C995.251 296.485 1002.75 299.444 1007.67 305.362C1012.59 311.28 1015.11 320.127 1015.23 331.905V393.34H989.831V332.52C989.831 327.129 988.659 323.233 986.316 320.83C983.972 318.369 980.075 317.139 974.626 317.139C967.478 317.139 962.116 320.186 958.542 326.28V393.34H933.142V298.242H957.048Z" fill="#1C334F"/>
</g>
<path fill-rule="evenodd" clip-rule="evenodd" d="M254.492 5.59359C254.492 8.68285 252 11.1872 248.927 11.1872C245.854 11.1872 243.362 8.68285 243.362 5.59359C243.362 2.50434 245.854 0 248.927 0C252 0 254.492 2.50434 254.492 5.59359ZM218.108 11.1872C221.181 11.1872 223.672 8.68287 223.672 5.59361C223.672 2.50436 221.181 2.27928e-05 218.108 2.27928e-05C215.035 2.27928e-05 212.543 2.50436 212.543 5.59361C212.543 8.68287 215.035 11.1872 218.108 11.1872ZM218.107 42.167C221.18 42.167 223.672 39.6627 223.672 36.5734C223.672 33.4842 221.18 30.9798 218.107 30.9798C215.034 30.9798 212.542 33.4842 212.542 36.5734C212.542 39.6627 215.034 42.167 218.107 42.167ZM223.672 66.6927C223.672 69.782 221.18 72.2863 218.107 72.2863C215.034 72.2863 212.542 69.782 212.542 66.6927C212.542 63.6035 215.034 61.0991 218.107 61.0991C221.18 61.0991 223.672 63.6035 223.672 66.6927ZM218.107 103.266C221.18 103.266 223.672 100.762 223.672 97.6725C223.672 94.5833 221.18 92.0789 218.107 92.0789C215.034 92.0789 212.542 94.5833 212.542 97.6725C212.542 100.762 215.034 103.266 218.107 103.266ZM223.672 128.652C223.672 131.742 221.18 134.246 218.107 134.246C215.034 134.246 212.542 131.742 212.542 128.652C212.542 125.563 215.034 123.059 218.107 123.059C221.18 123.059 223.672 125.563 223.672 128.652ZM218.107 165.226C221.18 165.226 223.672 162.722 223.672 159.632C223.672 156.543 221.18 154.039 218.107 154.039C215.034 154.039 212.542 156.543 212.542 159.632C212.542 162.722 215.034 165.226 218.107 165.226ZM248.927 42.167C252 42.167 254.492 39.6627 254.492 36.5734C254.492 33.4842 252 30.9798 248.927 30.9798C245.854 30.9798 243.362 33.4842 243.362 36.5734C243.362 39.6627 245.854 42.167 248.927 42.167ZM254.492 66.6927C254.492 69.782 252 72.2863 248.927 72.2863C245.854 72.2863 243.362 69.782 243.362 66.6927C243.362 63.6035 245.854 61.0991 248.927 61.0991C252 61.0991 254.492 63.6035 254.492 66.6927ZM248.927 103.266C252 103.266 254.492 100.762 254.492 97.6725C254.492 94.5833 252 92.0789 248.927 92.0789C245.854 92.0789 243.362 94.5833 243.362 97.6725C243.362 100.762 245.854 103.266 248.927 103.266ZM254.492 128.652C254.492 131.742 252 134.246 248.927 134.246C245.854 134.246 243.362 131.742 243.362 128.652C243.362 125.563 245.854 123.059 248.927 123.059C252 123.059 254.492 125.563 254.492 128.652ZM248.927 165.226C252 165.226 254.492 162.722 254.492 159.632C254.492 156.543 252 154.039 248.927 154.039C245.854 154.039 243.362 156.543 243.362 159.632C243.362 162.722 245.854 165.226 248.927 165.226ZM285.31 5.59359C285.31 8.68285 282.819 11.1872 279.746 11.1872C276.672 11.1872 274.181 8.68285 274.181 5.59359C274.181 2.50434 276.672 0 279.746 0C282.819 0 285.31 2.50434 285.31 5.59359ZM279.746 42.167C282.819 42.167 285.31 39.6627 285.31 36.5734C285.31 33.4842 282.819 30.9798 279.746 30.9798C276.672 30.9798 274.181 33.4842 274.181 36.5734C274.181 39.6627 276.672 42.167 279.746 42.167ZM285.31 66.6927C285.31 69.782 282.819 72.2863 279.746 72.2863C276.672 72.2863 274.181 69.782 274.181 66.6927C274.181 63.6035 276.672 61.0991 279.746 61.0991C282.819 61.0991 285.31 63.6035 285.31 66.6927ZM279.746 103.266C282.819 103.266 285.31 100.762 285.31 97.6725C285.31 94.5833 282.819 92.0789 279.746 92.0789C276.672 92.0789 274.181 94.5833 274.181 97.6725C274.181 100.762 276.672 103.266 279.746 103.266ZM285.31 128.652C285.31 131.742 282.819 134.246 279.746 134.246C276.672 134.246 274.181 131.742 274.181 128.652C274.181 125.563 276.672 123.059 279.746 123.059C282.819 123.059 285.31 125.563 285.31 128.652ZM279.746 165.226C282.819 165.226 285.31 162.722 285.31 159.632C285.31 156.543 282.819 154.039 279.746 154.039C276.672 154.039 274.181 156.543 274.181 159.632C274.181 162.722 276.672 165.226 279.746 165.226ZM346.093 5.59359C346.093 8.68285 343.602 11.1872 340.528 11.1872C337.455 11.1872 334.964 8.68285 334.964 5.59359C334.964 2.50434 337.455 0 340.528 0C343.602 0 346.093 2.50434 346.093 5.59359ZM340.528 42.167C343.602 42.167 346.093 39.6627 346.093 36.5734C346.093 33.4842 343.602 30.9798 340.528 30.9798C337.455 30.9798 334.964 33.4842 334.964 36.5734C334.964 39.6627 337.455 42.167 340.528 42.167ZM346.093 66.6927C346.093 69.782 343.602 72.2863 340.528 72.2863C337.455 72.2863 334.964 69.782 334.964 66.6927C334.964 63.6035 337.455 61.0991 340.528 61.0991C343.602 61.0991 346.093 63.6035 346.093 66.6927ZM340.528 103.266C343.602 103.266 346.093 100.762 346.093 97.6725C346.093 94.5833 343.602 92.0789 340.528 92.0789C337.455 92.0789 334.964 94.5833 334.964 97.6725C334.964 100.762 337.455 103.266 340.528 103.266ZM346.093 128.652C346.093 131.742 343.602 134.246 340.528 134.246C337.455 134.246 334.964 131.742 334.964 128.652C334.964 125.563 337.455 123.059 340.528 123.059C343.602 123.059 346.093 125.563 346.093 128.652ZM340.528 165.226C343.602 165.226 346.093 162.722 346.093 159.632C346.093 156.543 343.602 154.039 340.528 154.039C337.455 154.039 334.964 156.543 334.964 159.632C334.964 162.722 337.455 165.226 340.528 165.226ZM315.274 5.59359C315.274 8.68285 312.782 11.1872 309.709 11.1872C306.636 11.1872 304.145 8.68285 304.145 5.59359C304.145 2.50434 306.636 0 309.709 0C312.782 0 315.274 2.50434 315.274 5.59359ZM309.709 42.167C312.782 42.167 315.274 39.6627 315.274 36.5734C315.274 33.4842 312.782 30.9798 309.709 30.9798C306.636 30.9798 304.145 33.4842 304.145 36.5734C304.145 39.6627 306.636 42.167 309.709 42.167ZM315.274 66.6927C315.274 69.782 312.782 72.2863 309.709 72.2863C306.636 72.2863 304.145 69.782 304.145 66.6927C304.145 63.6035 306.636 61.0991 309.709 61.0991C312.782 61.0991 315.274 63.6035 315.274 66.6927ZM309.709 103.266C312.782 103.266 315.274 100.762 315.274 97.6725C315.274 94.5833 312.782 92.0789 309.709 92.0789C306.636 92.0789 304.145 94.5833 304.145 97.6725C304.145 100.762 306.636 103.266 309.709 103.266ZM315.274 128.652C315.274 131.742 312.782 134.246 309.709 134.246C306.636 134.246 304.145 131.742 304.145 128.652C304.145 125.563 306.636 123.059 309.709 123.059C312.782 123.059 315.274 125.563 315.274 128.652ZM309.709 165.226C312.782 165.226 315.274 162.722 315.274 159.632C315.274 156.543 312.782 154.039 309.709 154.039C306.636 154.039 304.145 156.543 304.145 159.632C304.145 162.722 306.636 165.226 309.709 165.226ZM376.056 5.59359C376.056 8.68285 373.565 11.1872 370.491 11.1872C367.418 11.1872 364.927 8.68285 364.927 5.59359C364.927 2.50434 367.418 0 370.491 0C373.565 0 376.056 2.50434 376.056 5.59359ZM370.491 42.167C373.565 42.167 376.056 39.6627 376.056 36.5734C376.056 33.4842 373.565 30.9798 370.491 30.9798C367.418 30.9798 364.927 33.4842 364.927 36.5734C364.927 39.6627 367.418 42.167 370.491 42.167ZM376.056 66.6927C376.056 69.782 373.565 72.2863 370.491 72.2863C367.418 72.2863 364.927 69.782 364.927 66.6927C364.927 63.6035 367.418 61.0991 370.491 61.0991C373.565 61.0991 376.056 63.6035 376.056 66.6927ZM370.491 103.266C373.565 103.266 376.056 100.762 376.056 97.6725C376.056 94.5833 373.565 92.0789 370.491 92.0789C367.418 92.0789 364.927 94.5833 364.927 97.6725C364.927 100.762 367.418 103.266 370.491 103.266ZM376.056 128.652C376.056 131.742 373.565 134.246 370.491 134.246C367.418 134.246 364.927 131.742 364.927 128.652C364.927 125.563 367.418 123.059 370.491 123.059C373.565 123.059 376.056 125.563 376.056 128.652ZM370.491 165.226C373.565 165.226 376.056 162.722 376.056 159.632C376.056 156.543 373.565 154.039 370.491 154.039C367.418 154.039 364.927 156.543 364.927 159.632C364.927 162.722 367.418 165.226 370.491 165.226Z" fill="#B4C0D5"/>
<mask id="mask1" mask-type="alpha" maskUnits="userSpaceOnUse" x="300" y="82" width="499" height="499">
<rect x="300.057" y="82.2009" width="498.341" height="498.341" rx="10" fill="#C4C4C4"/>
</mask>
<g mask="url(#mask1)">
<circle cx="366.443" cy="157.439" r="232.795" fill="#DA5252"/>
<circle cx="584.191" cy="82.2011" r="113.299" fill="#A8B4FF"/>
<circle cx="808.577" cy="198.598" r="189.865" fill="url(#paint0_linear)"/>
<circle cx="699.703" cy="410.149" r="247.4" fill="url(#paint1_linear)"/>
<circle cx="366.443" cy="563.723" r="232.795" fill="#A72B8C"/>
</g>
<mask id="mask2" mask-type="alpha" maskUnits="userSpaceOnUse" x="251" y="25" width="611" height="611">
<rect x="379.98" y="25" width="498.341" height="498.341" rx="15" transform="rotate(15 379.98 25)" fill="#C4C4C4"/>
</mask>
<g mask="url(#mask2)">
<rect x="379.98" y="25" width="498.341" height="498.341" rx="15" transform="rotate(15 379.98 25)" fill="#D0E6FF"/>
<circle cx="648.154" cy="121.969" r="137.556" transform="rotate(15 648.154 121.969)" fill="url(#paint2_linear)"/>
<path d="M567.341 60.3229C566.643 63.1402 566.749 66.1969 567.554 68.9857C605.828 201.716 399.542 275.998 276.683 243.078C152.495 209.802 78.7963 82.1519 112.072 -42.0364C145.349 -166.225 272.999 -239.923 397.187 -206.647C519.93 -173.758 597.676 -62.1726 567.341 60.3229Z" fill="url(#paint3_linear)"/>
<circle cx="882.739" cy="184.069" r="189.865" transform="rotate(15 882.739 184.069)" fill="url(#paint4_linear)"/>
<path d="M557.166 583.045C554.555 585.239 552.497 588.16 551.541 591.434C516.183 712.537 390.334 783.773 267.852 750.954C143.664 717.678 69.9648 590.028 103.241 465.84C136.517 341.652 264.167 267.953 388.355 301.229C510.554 333.972 639.674 513.685 557.166 583.045Z" fill="url(#paint5_linear)"/>
<path d="M1028.89 765.641C984.4 931.682 813.73 1030.22 647.69 985.727C482.409 941.44 419.32 791.638 462.629 626.497C463.023 624.997 463.651 623.589 464.453 622.262C502.445 559.448 488.163 406.165 806.262 384.611C807.897 384.5 809.624 384.659 811.203 385.095C975.792 430.579 1073.17 600.402 1028.89 765.641Z" fill="url(#paint6_linear)"/>
<g filter="url(#filter1_d)">
<path d="M755.979 336.132C748.382 364.483 684.55 368.466 633.416 390.7C593.576 408.024 509.832 476.523 473.147 467.255C402.495 449.406 400.148 406.876 360.759 396.322C269.588 371.893 342.171 265.937 394.395 256.025C608.081 231.533 536.483 165.61 639.474 162.689C755.979 159.384 771.019 279.999 755.979 336.132Z" fill="url(#paint7_linear)"/>
</g>
<path d="M940.883 829.631C938.273 831.825 936.215 834.746 935.259 838.02C899.901 959.123 774.052 1030.36 651.57 997.541C527.381 964.265 453.683 836.615 486.959 712.426C520.235 588.238 647.885 514.539 772.073 547.815C894.272 580.559 1023.39 760.272 940.883 829.631Z" fill="url(#paint8_linear)"/>
</g>
<path d="M348.636 397.269C334.129 397.269 322.303 392.82 313.16 383.92C304.077 375.021 299.536 363.165 299.536 348.353V345.792C299.536 335.857 301.456 326.988 305.296 319.185C309.137 311.322 314.562 305.287 321.572 301.081C328.642 296.814 336.689 294.681 345.71 294.681C359.242 294.681 369.879 298.948 377.62 307.482C385.423 316.015 389.324 328.115 389.324 343.781V354.57H326.326C327.18 361.031 329.74 366.213 334.007 370.114C338.334 374.015 343.79 375.965 350.373 375.965C360.553 375.965 368.508 372.278 374.237 364.902L387.221 379.44C383.259 385.048 377.895 389.437 371.129 392.606C364.363 395.715 356.865 397.269 348.636 397.269ZM345.619 316.076C340.376 316.076 336.11 317.844 332.818 321.38C329.587 324.915 327.515 329.974 326.6 336.558H363.357V334.455C363.235 328.603 361.65 324.092 358.602 320.922C355.554 317.692 351.227 316.076 345.619 316.076Z" fill="white"/>
<path d="M440.724 395.441H414.209V254.999H440.724V395.441Z" fill="white"/>
<path d="M498.891 395.441H472.375V254.999H498.891V395.441Z" fill="white"/>
<path d="M586.499 395.441C585.28 393.064 584.396 390.107 583.847 386.572C577.447 393.704 569.126 397.269 558.886 397.269C549.194 397.269 541.148 394.466 534.747 388.858C528.408 383.25 525.238 376.179 525.238 367.645C525.238 357.161 529.109 349.114 536.85 343.507C544.653 337.899 555.899 335.064 570.589 335.003H582.75V329.334C582.75 324.763 581.561 321.105 579.184 318.362C576.868 315.619 573.18 314.248 568.121 314.248C563.671 314.248 560.166 315.314 557.606 317.448C555.106 319.581 553.857 322.507 553.857 326.226H527.433C527.433 320.496 529.2 315.193 532.736 310.316C536.271 305.44 541.27 301.63 547.731 298.887C554.192 296.083 561.446 294.681 569.492 294.681C581.683 294.681 591.345 297.759 598.477 303.916C605.669 310.011 609.266 318.606 609.266 329.7V372.582C609.327 381.97 610.637 389.071 613.197 393.886V395.441H586.499ZM564.646 377.063C568.547 377.063 572.144 376.209 575.435 374.503C578.727 372.735 581.165 370.388 582.75 367.462V350.455H572.875C559.648 350.455 552.607 355.027 551.754 364.171L551.662 365.725C551.662 369.016 552.821 371.729 555.137 373.862C557.453 375.996 560.623 377.063 564.646 377.063Z" fill="white"/>
<path d="M763.818 360.513C763.818 355.332 761.989 351.37 758.332 348.627C754.674 345.823 748.091 342.897 738.582 339.849C729.073 336.74 721.545 333.693 715.998 330.706C700.881 322.538 693.322 311.535 693.322 297.698C693.322 290.506 695.334 284.105 699.357 278.497C703.441 272.828 709.262 268.409 716.821 265.239C724.44 262.07 732.974 260.485 742.422 260.485C751.931 260.485 760.404 262.222 767.841 265.697C775.277 269.11 781.038 273.956 785.122 280.234C789.267 286.513 791.339 293.645 791.339 301.63H763.909C763.909 295.534 761.989 290.81 758.149 287.458C754.309 284.044 748.914 282.337 741.965 282.337C735.26 282.337 730.048 283.77 726.33 286.635C722.612 289.439 720.753 293.157 720.753 297.79C720.753 302.118 722.916 305.744 727.244 308.67C731.633 311.596 738.064 314.339 746.537 316.899C762.141 321.593 773.51 327.414 780.642 334.363C787.773 341.312 791.339 349.968 791.339 360.33C791.339 371.851 786.981 380.903 778.264 387.486C769.548 394.008 757.814 397.269 743.062 397.269C732.822 397.269 723.496 395.41 715.084 391.692C706.672 387.913 700.241 382.762 695.791 376.24C691.402 369.717 689.208 362.159 689.208 353.564H716.729C716.729 368.255 725.507 375.6 743.062 375.6C749.585 375.6 754.674 374.289 758.332 371.668C761.989 368.986 763.818 365.268 763.818 360.513Z" fill="white"/>
</g>
<defs>
<filter id="filter0_ii" x="0.615234" y="258.34" width="1014.62" height="140.758" filterUnits="userSpaceOnUse" color-interpolation-filters="sRGB">
<feFlood flood-opacity="0" result="BackgroundImageFix"/>
<feBlend mode="normal" in="SourceGraphic" in2="BackgroundImageFix" result="shape"/>
<feColorMatrix in="SourceAlpha" type="matrix" values="0 0 0 0 0 0 0 0 0 0 0 0 0 0 0 0 0 0 127 0" result="hardAlpha"/>
<feOffset dy="4"/>
<feGaussianBlur stdDeviation="10.5"/>
<feComposite in2="hardAlpha" operator="arithmetic" k2="-1" k3="1"/>
<feColorMatrix type="matrix" values="0 0 0 0 0 0 0 0 0 0 0 0 0 0 0 0 0 0 0.47 0"/>
<feBlend mode="normal" in2="shape" result="effect1_innerShadow"/>
<feColorMatrix in="SourceAlpha" type="matrix" values="0 0 0 0 0 0 0 0 0 0 0 0 0 0 0 0 0 0 127 0" result="hardAlpha"/>
<feOffset dy="4"/>
<feGaussianBlur stdDeviation="2"/>
<feComposite in2="hardAlpha" operator="arithmetic" k2="-1" k3="1"/>
<feColorMatrix type="matrix" values="0 0 0 0 0 0 0 0 0 0 0 0 0 0 0 0 0 0 0.36 0"/>
<feBlend mode="normal" in2="effect1_innerShadow" result="effect2_innerShadow"/>
</filter>
<filter id="filter1_d" x="278.247" y="74.262" width="564.855" height="508.937" filterUnits="userSpaceOnUse" color-interpolation-filters="sRGB">
<feFlood flood-opacity="0" result="BackgroundImageFix"/>
<feColorMatrix in="SourceAlpha" type="matrix" values="0 0 0 0 0 0 0 0 0 0 0 0 0 0 0 0 0 0 127 0"/>
<feOffset dx="16" dy="20"/>
<feGaussianBlur stdDeviation="17"/>
<feColorMatrix type="matrix" values="0 0 0 0 0 0 0 0 0 0.07 0 0 0 0 0.25 0 0 0 0.09 0"/>
<feBlend mode="normal" in2="BackgroundImageFix" result="effect1_dropShadow"/>
<feBlend mode="normal" in="SourceGraphic" in2="effect1_dropShadow" result="shape"/>
</filter>
<linearGradient id="paint0_linear" x1="745.121" y1="82.6131" x2="771.006" y2="204.33" gradientUnits="userSpaceOnUse">
<stop stop-color="#D54B4B"/>
<stop offset="1" stop-color="#7D1A1A"/>
</linearGradient>
<linearGradient id="paint1_linear" x1="786.978" y1="353.033" x2="781.471" y2="588.755" gradientUnits="userSpaceOnUse">
<stop stop-color="#FFD600"/>
<stop offset="1" stop-color="#FF5757"/>
</linearGradient>
<linearGradient id="paint2_linear" x1="615.961" y1="99.1975" x2="647.123" y2="228.262" gradientUnits="userSpaceOnUse">
<stop stop-color="#FF2257"/>
<stop offset="1" stop-color="#C42847"/>
</linearGradient>
<linearGradient id="paint3_linear" x1="369.054" y1="18.391" x2="500.134" y2="178.109" gradientUnits="userSpaceOnUse">
<stop stop-color="#3725A5"/>
<stop offset="1" stop-color="#4C5FBC"/>
</linearGradient>
<linearGradient id="paint4_linear" x1="875.188" y1="121.194" x2="856.038" y2="364.661" gradientUnits="userSpaceOnUse">
<stop stop-color="#C749E7"/>
<stop offset="1" stop-color="#D8436F"/>
</linearGradient>
<linearGradient id="paint5_linear" x1="388.355" y1="301.229" x2="308.471" y2="559.231" gradientUnits="userSpaceOnUse">
<stop stop-color="#7F1BFF"/>
<stop offset="1" stop-color="#C19BFF"/>
</linearGradient>
<linearGradient id="paint6_linear" x1="787.627" y1="391.802" x2="483.611" y2="579.058" gradientUnits="userSpaceOnUse">
<stop stop-color="#5EF5FF"/>
<stop offset="0.9999" stop-color="#1758FF"/>
</linearGradient>
<linearGradient id="paint7_linear" x1="760.089" y1="207.3" x2="353.677" y2="395.437" gradientUnits="userSpaceOnUse">
<stop stop-color="#EA5627"/>
<stop offset="1" stop-color="#FF9D42"/>
</linearGradient>
<linearGradient id="paint8_linear" x1="772.073" y1="547.815" x2="692.189" y2="805.817" gradientUnits="userSpaceOnUse">
<stop stop-color="#FBFF37"/>
<stop offset="1" stop-color="#FF7A00"/>
</linearGradient>
</defs>
</svg>
