<svg width="1015" height="712" viewBox="0 0 1015 712" fill="none" xmlns="http://www.w3.org/2000/svg">
<rect x="284.385" y="96.366" width="508" height="508" rx="35" fill="#DFECFC" stroke="#DFECFC" stroke-width="10"/>
<path d="M83.0566 384.999H36.8262L28.0371 411.366H0L47.6367 283.397H72.0703L119.971 411.366H91.9336L83.0566 384.999ZM43.9453 363.641H75.9375L59.8535 315.741L43.9453 363.641Z" fill="url(#paint0_linear)"/>
<path d="M161.554 316.268L162.345 326.903C169.083 318.641 178.194 314.51 189.679 314.51C201.925 314.51 210.333 319.344 214.903 329.012C221.583 319.344 231.104 314.51 243.468 314.51C253.78 314.51 261.456 317.528 266.495 323.563C271.534 329.54 274.054 338.563 274.054 350.634V411.366H248.565V350.721C248.565 345.331 247.511 341.405 245.401 338.944C243.292 336.425 239.571 335.165 234.239 335.165C226.622 335.165 221.348 338.798 218.419 346.063L218.507 411.366H193.106V350.809C193.106 345.302 192.022 341.317 189.854 338.856C187.686 336.395 183.995 335.165 178.78 335.165C171.573 335.165 166.358 338.153 163.136 344.13V411.366H137.735V316.268H161.554Z" fill="url(#paint1_linear)"/>
<path d="M349.123 413.124C335.177 413.124 323.81 408.846 315.021 400.292C306.291 391.737 301.925 380.341 301.925 366.102V363.641C301.925 354.091 303.771 345.565 307.462 338.065C311.154 330.507 316.369 324.706 323.107 320.663C329.904 316.561 337.638 314.51 346.31 314.51C359.318 314.51 369.543 318.612 376.984 326.815C384.484 335.018 388.234 346.649 388.234 361.708V372.079H327.677C328.498 378.29 330.959 383.27 335.06 387.02C339.22 390.77 344.464 392.645 350.793 392.645C360.578 392.645 368.224 389.1 373.732 382.01L386.212 395.985C382.404 401.376 377.248 405.594 370.744 408.641C364.24 411.63 357.033 413.124 349.123 413.124ZM346.222 335.077C341.183 335.077 337.082 336.776 333.918 340.175C330.812 343.573 328.82 348.436 327.941 354.764H363.273V352.743C363.156 347.118 361.632 342.782 358.703 339.735C355.773 336.63 351.613 335.077 346.222 335.077Z" fill="url(#paint2_linear)"/>
<path d="M441.243 411.366H415.754V276.366H441.243V411.366Z" fill="url(#paint3_linear)"/>
<path d="M500.755 411.366H475.267V276.366H500.755V411.366Z" fill="url(#paint4_linear)"/>
<path d="M588.568 411.366C587.396 409.081 586.547 406.239 586.02 402.841C579.867 409.696 571.869 413.124 562.025 413.124C552.709 413.124 544.975 410.428 538.822 405.038C532.729 399.647 529.682 392.85 529.682 384.647C529.682 374.569 533.402 366.835 540.844 361.444C548.344 356.053 559.154 353.329 573.275 353.27H584.965V347.821C584.965 343.427 583.822 339.911 581.537 337.274C579.311 334.637 575.766 333.319 570.902 333.319C566.625 333.319 563.256 334.344 560.795 336.395C558.393 338.446 557.191 341.259 557.191 344.833H531.791C531.791 339.325 533.49 334.227 536.889 329.54C540.287 324.852 545.092 321.19 551.303 318.553C557.514 315.858 564.486 314.51 572.221 314.51C583.939 314.51 593.227 317.469 600.082 323.387C606.996 329.247 610.453 337.509 610.453 348.173V389.393C610.512 398.417 611.771 405.243 614.232 409.872V411.366H588.568ZM567.562 393.7C571.312 393.7 574.77 392.88 577.934 391.239C581.098 389.54 583.441 387.284 584.965 384.471V368.124H575.473C562.758 368.124 555.99 372.518 555.17 381.307L555.082 382.802C555.082 385.966 556.195 388.573 558.422 390.624C560.648 392.675 563.695 393.7 567.562 393.7Z" fill="url(#paint5_linear)"/>
<path d="M766.216 377.792C766.216 372.811 764.459 369.003 760.943 366.366C757.427 363.671 751.099 360.858 741.959 357.928C732.818 354.94 725.582 352.01 720.25 349.139C705.718 341.288 698.453 330.712 698.453 317.411C698.453 310.497 700.386 304.344 704.254 298.954C708.179 293.505 713.775 289.257 721.041 286.21C728.365 283.163 736.568 281.639 745.65 281.639C754.791 281.639 762.935 283.309 770.084 286.649C777.232 289.93 782.769 294.589 786.695 300.624C790.679 306.659 792.672 313.514 792.672 321.19H766.304C766.304 315.331 764.459 310.79 760.767 307.567C757.076 304.286 751.89 302.645 745.211 302.645C738.765 302.645 733.755 304.022 730.181 306.776C726.607 309.471 724.82 313.046 724.82 317.499C724.82 321.659 726.9 325.145 731.06 327.958C735.279 330.77 741.461 333.407 749.605 335.868C764.605 340.38 775.533 345.975 782.388 352.655C789.244 359.335 792.672 367.655 792.672 377.616C792.672 388.69 788.482 397.391 780.103 403.719C771.724 409.989 760.445 413.124 746.265 413.124C736.422 413.124 727.457 411.337 719.371 407.762C711.285 404.13 705.103 399.178 700.826 392.909C696.607 386.639 694.498 379.374 694.498 371.112H720.953C720.953 385.233 729.39 392.294 746.265 392.294C752.535 392.294 757.427 391.034 760.943 388.514C764.459 385.936 766.216 382.362 766.216 377.792Z" fill="url(#paint6_linear)"/>
<path d="M877.584 401.698C871.315 409.315 862.643 413.124 851.569 413.124C841.373 413.124 833.58 410.194 828.19 404.335C822.858 398.475 820.133 389.891 820.016 378.583V316.268H845.416V377.704C845.416 387.606 849.928 392.557 858.952 392.557C867.565 392.557 873.483 389.569 876.705 383.593V316.268H902.194V411.366H878.287L877.584 401.698Z" fill="url(#paint7_linear)"/>
<path d="M956.433 316.268L957.224 327.255C964.021 318.759 973.132 314.51 984.558 314.51C994.636 314.51 1002.14 317.469 1007.06 323.387C1011.98 329.305 1014.5 338.153 1014.62 349.93V411.366H989.216V350.546C989.216 345.155 988.044 341.259 985.7 338.856C983.357 336.395 979.46 335.165 974.011 335.165C966.862 335.165 961.501 338.212 957.927 344.305V411.366H932.527V316.268H956.433Z" fill="url(#paint8_linear)"/>
<mask id="mask0" mask-type="alpha" maskUnits="userSpaceOnUse" x="268" y="84" width="500" height="500">
<rect x="269" y="84.9998" width="498.341" height="498.341" rx="40" fill="#C4C4C4"/>
</mask>
<g mask="url(#mask0)">
<rect x="269" y="84.9998" width="498.341" height="498.341" rx="40" fill="#D0E6FF"/>
<circle cx="553.133" cy="109.256" r="137.556" fill="url(#paint9_linear)"/>
<circle cx="795.798" cy="108.525" r="189.865" fill="url(#paint10_linear)"/>
<path d="M589.179 570.716C584.867 578.722 581.501 587.418 580.96 596.495C573.695 718.522 472.434 815.239 348.582 815.239C220.013 815.239 115.788 711.013 115.788 582.444C115.788 453.875 220.013 349.649 348.583 349.649C471.589 349.649 636.876 482.165 589.179 570.716Z" fill="url(#paint11_linear)"/>
<path d="M1087.49 632.454C1087.49 804.352 948.14 943.702 776.242 943.702C606.441 943.702 506.951 817.292 504.55 648.524C504.491 644.389 505.201 640.276 506.189 636.261C523.767 564.801 477.87 424.634 769.845 323.4C773.972 321.969 778.494 321.184 782.861 321.275C951.703 324.798 1087.49 462.769 1087.49 632.454Z" fill="url(#paint12_linear)"/>
<path d="M954.99 525.451C955.384 533.181 957.709 540.707 961.313 547.556C1022.54 663.924 846.692 784.59 721.795 784.59C593.226 784.59 489 680.364 489 551.795C489 423.226 593.226 319 721.795 319C846.374 319 948.755 403.255 954.99 525.451Z" fill="url(#paint13_linear)"/>
<g filter="url(#filter0_d)">
<path d="M712.713 288.214C712.713 317.566 652.087 337.934 608.45 372.645C574.451 399.69 511.289 487.529 473.455 488.072C400.592 489.117 387.317 448.644 346.538 448.644C252.151 448.644 294.838 327.513 342.717 304.422C542.783 225.458 456.563 180.312 555.288 150.835C666.967 117.489 712.713 230.101 712.713 288.214Z" fill="url(#paint14_linear)"/>
</g>
<path d="M-0.636077 63.749C5.43272 57.0969 10.867 49.6382 13.7296 41.1009C50.2025 -67.6722 164.342 -130.938 275.198 -101.234C390.507 -70.3372 458.598 49.4459 427.284 166.309C395.971 283.172 277.111 352.862 161.803 321.965C51.771 292.482 -63.8769 133.068 -0.636077 63.749Z" fill="url(#paint15_linear)"/>
</g>
<g filter="url(#filter1_d)">
<mask id="mask1" mask-type="alpha" maskUnits="userSpaceOnUse" x="228" y="31" width="636" height="636">
<rect x="392.772" y="31" width="498.341" height="498.341" rx="40" transform="rotate(19.3055 392.772 31)" fill="#C4C4C4"/>
</mask>
<g mask="url(#mask1)">
<rect x="392.772" y="31" width="498.341" height="498.341" rx="40" transform="rotate(19.3055 392.772 31)" fill="#D0E6FF"/>
<circle cx="652.91" cy="147.828" r="137.556" transform="rotate(19.3055 652.91 147.828)" fill="url(#paint16_linear)"/>
<path d="M579.336 73.1484C577.153 80.5737 576.859 88.4454 577.996 96.1011C597.308 226.167 391.456 281.912 273.582 240.621C152.242 198.115 88.3347 65.2923 130.84 -56.0473C173.346 -177.387 306.168 -241.295 427.508 -198.789C545.082 -157.603 613.851 -44.238 579.336 73.1484Z" fill="url(#paint17_linear)"/>
<circle cx="882.171" cy="227.364" r="189.865" transform="rotate(19.3055 882.171 227.364)" fill="url(#paint18_linear)"/>
<path d="M534.368 595.257C527.651 601.387 521.6 608.481 518.089 616.87C470.89 729.633 343.347 787.434 226.46 746.488C105.121 703.982 41.2131 571.16 83.7186 449.82C126.224 328.48 259.047 264.573 380.386 307.078C496.476 347.745 608.659 527.454 534.368 595.257Z" fill="url(#paint19_linear)"/>
<path d="M984.249 818.267C927.419 980.499 749.834 1065.94 587.602 1009.11C427.349 952.976 375.245 800.783 428.774 640.711C430.086 636.789 432.116 633.142 434.376 629.679C474.59 568.049 477.613 420.59 786.639 421.576C791.008 421.59 795.534 422.345 799.626 423.874C957.809 483.019 1040.35 658.123 984.249 818.267Z" fill="url(#paint20_linear)"/>
<g filter="url(#filter2_d)">
<path d="M744.353 369.481C734.649 397.182 685.659 411.667 633 430C591.972 444.283 539.5 487.561 475 466C405.888 442.897 306.5 447.5 246 394C185.5 340.5 336.982 268.419 389.803 262.455C604.725 254.074 538.278 182.962 641.198 187.781C757.622 193.232 763.565 314.636 744.353 369.481Z" fill="url(#paint21_linear)"/>
</g>
<path d="M898.492 869.955C891.774 876.085 885.723 883.178 882.212 891.567C835.013 1004.33 707.47 1062.13 590.583 1021.19C469.244 978.68 405.336 845.857 447.842 724.518C490.347 603.178 623.17 539.271 744.509 581.776C860.599 622.442 972.782 802.151 898.492 869.955Z" fill="url(#paint22_linear)"/>
</g>
</g>
<path d="M348.485 411.637C333.977 411.637 322.152 407.187 313.008 398.287C303.926 389.388 299.385 377.532 299.385 362.72V360.16C299.385 350.224 301.305 341.355 305.145 333.552C308.985 325.689 314.41 319.654 321.42 315.449C328.491 311.182 336.537 309.048 345.559 309.048C359.091 309.048 369.728 313.315 377.469 321.849C385.271 330.383 389.173 342.482 389.173 358.148V368.937H326.175C327.028 375.398 329.588 380.58 333.855 384.481C338.183 388.382 343.639 390.333 350.222 390.333C360.401 390.333 368.356 386.645 374.086 379.269L387.07 393.807C383.107 399.415 377.743 403.804 370.977 406.974C364.211 410.082 356.714 411.637 348.485 411.637ZM345.467 330.444C340.225 330.444 335.958 332.211 332.667 335.747C329.436 339.282 327.363 344.342 326.449 350.925H363.205V348.822C363.084 342.97 361.499 338.459 358.451 335.29C355.403 332.059 351.075 330.444 345.467 330.444Z" fill="white"/>
<path d="M440.573 409.808H414.057V269.366H440.573V409.808Z" fill="white"/>
<path d="M498.739 409.808H472.224V269.366H498.739V409.808Z" fill="white"/>
<path d="M586.347 409.808C585.128 407.431 584.244 404.474 583.696 400.939C577.295 408.071 568.975 411.637 558.734 411.637C549.042 411.637 540.996 408.833 534.596 403.225C528.257 397.617 525.087 390.546 525.087 382.012C525.087 371.528 528.958 363.482 536.699 357.874C544.501 352.266 555.748 349.431 570.438 349.37H582.599V343.701C582.599 339.13 581.41 335.472 579.033 332.729C576.716 329.986 573.029 328.615 567.969 328.615C563.519 328.615 560.014 329.682 557.454 331.815C554.955 333.949 553.706 336.874 553.706 340.593H527.281C527.281 334.863 529.049 329.56 532.584 324.683C536.12 319.807 541.118 315.997 547.579 313.254C554.041 310.45 561.294 309.048 569.341 309.048C581.532 309.048 591.193 312.126 598.325 318.283C605.518 324.379 609.114 332.973 609.114 344.067V386.95C609.175 396.337 610.486 403.438 613.046 408.254V409.808H586.347ZM564.495 391.43C568.396 391.43 571.992 390.576 575.284 388.87C578.575 387.102 581.014 384.755 582.599 381.829V364.823H572.724C559.496 364.823 552.456 369.394 551.603 378.538L551.511 380.092C551.511 383.384 552.669 386.096 554.986 388.23C557.302 390.363 560.472 391.43 564.495 391.43Z" fill="white"/>
<path d="M763.666 374.88C763.666 369.699 761.838 365.737 758.18 362.994C754.523 360.19 747.94 357.264 738.431 354.216C728.922 351.108 721.394 348.06 715.847 345.073C700.73 336.905 693.171 325.902 693.171 312.065C693.171 304.873 695.183 298.472 699.206 292.864C703.29 287.196 709.111 282.776 716.669 279.607C724.289 276.437 732.823 274.852 742.271 274.852C751.78 274.852 760.253 276.589 767.689 280.064C775.126 283.477 780.886 288.323 784.97 294.602C789.115 300.88 791.188 308.012 791.188 315.997H763.758C763.758 309.902 761.838 305.177 757.997 301.825C754.157 298.411 748.763 296.705 741.814 296.705C735.109 296.705 729.897 298.137 726.179 301.002C722.46 303.806 720.601 307.524 720.601 312.157C720.601 316.485 722.765 320.112 727.093 323.037C731.482 325.963 737.913 328.706 746.385 331.267C761.99 335.96 773.358 341.781 780.49 348.73C787.622 355.679 791.188 364.335 791.188 374.697C791.188 386.218 786.83 395.27 778.113 401.853C769.396 408.376 757.662 411.637 742.911 411.637C732.67 411.637 723.344 409.778 714.932 406.059C706.52 402.28 700.09 397.129 695.64 390.607C691.251 384.085 689.057 376.526 689.057 367.931H716.578C716.578 382.622 725.356 389.967 742.911 389.967C749.433 389.967 754.523 388.656 758.18 386.035C761.838 383.353 763.666 379.635 763.666 374.88Z" fill="white"/>
<defs>
<filter id="filter0_d" x="272.321" y="130.78" width="490.393" height="411.311" filterUnits="userSpaceOnUse" color-interpolation-filters="sRGB">
<feFlood flood-opacity="0" result="BackgroundImageFix"/>
<feColorMatrix in="SourceAlpha" type="matrix" values="0 0 0 0 0 0 0 0 0 0 0 0 0 0 0 0 0 0 127 0"/>
<feOffset dx="16" dy="20"/>
<feGaussianBlur stdDeviation="17"/>
<feColorMatrix type="matrix" values="0 0 0 0 0 0 0 0 0 0.07 0 0 0 0 0.25 0 0 0 0.09 0"/>
<feBlend mode="normal" in2="BackgroundImageFix" result="effect1_dropShadow"/>
<feBlend mode="normal" in="SourceGraphic" in2="effect1_dropShadow" result="shape"/>
</filter>
<filter id="filter1_d" x="168.019" y="0" width="711.072" height="711.072" filterUnits="userSpaceOnUse" color-interpolation-filters="sRGB">
<feFlood flood-opacity="0" result="BackgroundImageFix"/>
<feColorMatrix in="SourceAlpha" type="matrix" values="0 0 0 0 0 0 0 0 0 0 0 0 0 0 0 0 0 0 127 0"/>
<feOffset dx="-22" dy="7"/>
<feGaussianBlur stdDeviation="19"/>
<feColorMatrix type="matrix" values="0 0 0 0 0 0 0 0 0 0 0 0 0 0 0 0 0 0 0.18 0"/>
<feBlend mode="normal" in2="BackgroundImageFix" result="effect1_dropShadow"/>
<feBlend mode="normal" in="SourceGraphic" in2="effect1_dropShadow" result="shape"/>
</filter>
<filter id="filter2_d" x="201.337" y="59.347" width="640.435" height="552.773" filterUnits="userSpaceOnUse" color-interpolation-filters="sRGB">
<feFlood flood-opacity="0" result="BackgroundImageFix"/>
<feColorMatrix in="SourceAlpha" type="matrix" values="0 0 0 0 0 0 0 0 0 0 0 0 0 0 0 0 0 0 127 0"/>
<feOffset dx="16" dy="20"/>
<feGaussianBlur stdDeviation="17"/>
<feColorMatrix type="matrix" values="0 0 0 0 0 0 0 0 0 0.07 0 0 0 0 0.25 0 0 0 0.09 0"/>
<feBlend mode="normal" in2="BackgroundImageFix" result="effect1_dropShadow"/>
<feBlend mode="normal" in="SourceGraphic" in2="effect1_dropShadow" result="shape"/>
</filter>
<linearGradient id="paint0_linear" x1="36.3848" y1="376.866" x2="1065.88" y2="349.366" gradientUnits="userSpaceOnUse">
<stop stop-color="#1C334F"/>
<stop offset="1" stop-color="#142B46"/>
</linearGradient>
<linearGradient id="paint1_linear" x1="36.3848" y1="376.866" x2="1065.88" y2="349.366" gradientUnits="userSpaceOnUse">
<stop stop-color="#1C334F"/>
<stop offset="1" stop-color="#142B46"/>
</linearGradient>
<linearGradient id="paint2_linear" x1="36.3848" y1="376.866" x2="1065.88" y2="349.366" gradientUnits="userSpaceOnUse">
<stop stop-color="#1C334F"/>
<stop offset="1" stop-color="#142B46"/>
</linearGradient>
<linearGradient id="paint3_linear" x1="36.3848" y1="376.866" x2="1065.88" y2="349.366" gradientUnits="userSpaceOnUse">
<stop stop-color="#1C334F"/>
<stop offset="1" stop-color="#142B46"/>
</linearGradient>
<linearGradient id="paint4_linear" x1="36.3848" y1="376.866" x2="1065.88" y2="349.366" gradientUnits="userSpaceOnUse">
<stop stop-color="#1C334F"/>
<stop offset="1" stop-color="#142B46"/>
</linearGradient>
<linearGradient id="paint5_linear" x1="36.3848" y1="376.866" x2="1065.88" y2="349.366" gradientUnits="userSpaceOnUse">
<stop stop-color="#1C334F"/>
<stop offset="1" stop-color="#142B46"/>
</linearGradient>
<linearGradient id="paint6_linear" x1="36.3848" y1="376.866" x2="1065.88" y2="349.366" gradientUnits="userSpaceOnUse">
<stop stop-color="#1C334F"/>
<stop offset="1" stop-color="#142B46"/>
</linearGradient>
<linearGradient id="paint7_linear" x1="36.3848" y1="376.866" x2="1065.88" y2="349.366" gradientUnits="userSpaceOnUse">
<stop stop-color="#1C334F"/>
<stop offset="1" stop-color="#142B46"/>
</linearGradient>
<linearGradient id="paint8_linear" x1="36.3848" y1="376.866" x2="1065.88" y2="349.366" gradientUnits="userSpaceOnUse">
<stop stop-color="#1C334F"/>
<stop offset="1" stop-color="#142B46"/>
</linearGradient>
<linearGradient id="paint9_linear" x1="520.94" y1="86.4846" x2="552.102" y2="215.549" gradientUnits="userSpaceOnUse">
<stop stop-color="#C81943"/>
<stop offset="1" stop-color="#93172F"/>
</linearGradient>
<linearGradient id="paint10_linear" x1="556.339" y1="50.8401" x2="812.629" y2="153.805" gradientUnits="userSpaceOnUse">
<stop stop-color="#FF3D00"/>
<stop offset="1" stop-color="#FF7A00"/>
</linearGradient>
<linearGradient id="paint11_linear" x1="350.339" y1="496.34" x2="321.702" y2="618.549" gradientUnits="userSpaceOnUse">
<stop stop-color="#2C9AFF"/>
<stop offset="1" stop-color="#70E5FF"/>
</linearGradient>
<linearGradient id="paint12_linear" x1="879.339" y1="325.84" x2="639.511" y2="450.334" gradientUnits="userSpaceOnUse">
<stop stop-color="#00B85E"/>
<stop offset="1" stop-color="#237FD0"/>
</linearGradient>
<linearGradient id="paint13_linear" x1="752.865" y1="543.652" x2="920.816" y2="664.002" gradientUnits="userSpaceOnUse">
<stop stop-color="#FB2256"/>
<stop offset="1" stop-color="#DC254E"/>
</linearGradient>
<linearGradient id="paint14_linear" x1="712.713" y1="173.844" x2="300.114" y2="556.905" gradientUnits="userSpaceOnUse">
<stop stop-color="#FF7A00"/>
<stop offset="1" stop-color="#F9DA35"/>
</linearGradient>
<linearGradient id="paint15_linear" x1="536" y1="-32" x2="228.422" y2="396.869" gradientUnits="userSpaceOnUse">
<stop offset="0.0375265" stop-color="#34EB92"/>
<stop offset="1" stop-color="#237FD0"/>
</linearGradient>
<linearGradient id="paint16_linear" x1="615.713" y1="115.478" x2="702.048" y2="271.192" gradientUnits="userSpaceOnUse">
<stop stop-color="#D20E3D"/>
<stop offset="1" stop-color="#94001E"/>
</linearGradient>
<linearGradient id="paint17_linear" x1="401.5" y1="52" x2="508" y2="227" gradientUnits="userSpaceOnUse">
<stop stop-color="#D50937"/>
<stop offset="1" stop-color="#F92C59"/>
</linearGradient>
<linearGradient id="paint18_linear" x1="935.077" y1="407.646" x2="786.939" y2="-37.9673" gradientUnits="userSpaceOnUse">
<stop stop-color="#30A8FF"/>
<stop offset="1" stop-color="#2440D1"/>
</linearGradient>
<linearGradient id="paint19_linear" x1="149.5" y1="442.5" x2="308.511" y2="760.153" gradientUnits="userSpaceOnUse">
<stop stop-color="#FF9900"/>
<stop offset="1" stop-color="#FFD600"/>
</linearGradient>
<linearGradient id="paint20_linear" x1="811" y1="627" x2="454.516" y2="591.274" gradientUnits="userSpaceOnUse">
<stop stop-color="#5EB1FF"/>
<stop offset="0.9999" stop-color="#276DF5"/>
</linearGradient>
<linearGradient id="paint21_linear" x1="188" y1="535.5" x2="851" y2="194.5" gradientUnits="userSpaceOnUse">
<stop stop-color="#EB2351"/>
<stop offset="1" stop-color="#FFB13C"/>
</linearGradient>
<linearGradient id="paint22_linear" x1="649" y1="542.5" x2="678.673" y2="766.584" gradientUnits="userSpaceOnUse">
<stop stop-color="#49C7FE"/>
<stop offset="1" stop-color="#2F79E8"/>
</linearGradient>
</defs>
</svg>
