<svg width="1040" height="617" viewBox="0 0 1040 617" fill="none" xmlns="http://www.w3.org/2000/svg">
<mask id="mask0" mask-type="alpha" maskUnits="userSpaceOnUse" x="0" y="0" width="1040" height="617">
<rect width="1040" height="617" fill="#C4C4C4"/>
</mask>
<g mask="url(#mask0)">
<path d="M827 530C827 560.376 802.376 585 772 585L593 585L593 401L827 401L827 530Z" fill="url(#paint0_linear)"/>
<path d="M270 105H413V254H270V105Z" fill="url(#paint1_linear)"/>
<rect x="295" y="56" width="508" height="508" rx="35" fill="#DFECFC" stroke="#DFECFC" stroke-width="10"/>
<path d="M93.6719 344.633H47.4414L38.6523 371H10.6152L58.252 243.031H82.6855L130.586 371H102.549L93.6719 344.633ZM54.5605 323.275H86.5527L70.4688 275.375L54.5605 323.275Z" fill="url(#paint2_linear)"/>
<path d="M172.169 275.902L172.96 286.537C179.698 278.275 188.809 274.145 200.294 274.145C212.54 274.145 220.948 278.979 225.518 288.646C232.198 278.979 241.72 274.145 254.083 274.145C264.395 274.145 272.071 277.162 277.11 283.197C282.149 289.174 284.669 298.197 284.669 310.268V371H259.18V310.355C259.18 304.965 258.126 301.039 256.016 298.578C253.907 296.059 250.186 294.799 244.854 294.799C237.237 294.799 231.964 298.432 229.034 305.697L229.122 371H203.721V310.443C203.721 304.936 202.637 300.951 200.47 298.49C198.302 296.029 194.61 294.799 189.395 294.799C182.188 294.799 176.973 297.787 173.751 303.764V371H148.35V275.902H172.169Z" fill="url(#paint3_linear)"/>
<path d="M359.738 372.758C345.793 372.758 334.425 368.48 325.636 359.926C316.906 351.371 312.541 339.975 312.541 325.736V323.275C312.541 313.725 314.386 305.199 318.078 297.699C321.769 290.141 326.984 284.34 333.722 280.297C340.519 276.195 348.254 274.145 356.925 274.145C369.933 274.145 380.158 278.246 387.599 286.449C395.099 294.652 398.849 306.283 398.849 321.342V331.713H338.293C339.113 337.924 341.574 342.904 345.675 346.654C349.836 350.404 355.08 352.279 361.408 352.279C371.193 352.279 378.839 348.734 384.347 341.645L396.828 355.619C393.019 361.01 387.863 365.229 381.359 368.275C374.855 371.264 367.648 372.758 359.738 372.758ZM356.837 294.711C351.798 294.711 347.697 296.41 344.533 299.809C341.427 303.207 339.435 308.07 338.556 314.398H373.888V312.377C373.771 306.752 372.248 302.416 369.318 299.369C366.388 296.264 362.228 294.711 356.837 294.711Z" fill="url(#paint4_linear)"/>
<path d="M451.858 371H426.37V236H451.858V371Z" fill="url(#paint5_linear)"/>
<path d="M511.37 371H485.882V236H511.37V371Z" fill="url(#paint6_linear)"/>
<path d="M599.184 371C598.012 368.715 597.162 365.873 596.635 362.475C590.482 369.33 582.484 372.758 572.641 372.758C563.324 372.758 555.59 370.062 549.438 364.672C543.344 359.281 540.297 352.484 540.297 344.281C540.297 334.203 544.018 326.469 551.459 321.078C558.959 315.688 569.77 312.963 583.891 312.904H595.58V307.455C595.58 303.061 594.438 299.545 592.152 296.908C589.926 294.271 586.381 292.953 581.518 292.953C577.24 292.953 573.871 293.979 571.41 296.029C569.008 298.08 567.807 300.893 567.807 304.467H542.406C542.406 298.959 544.105 293.861 547.504 289.174C550.902 284.486 555.707 280.824 561.918 278.188C568.129 275.492 575.102 274.145 582.836 274.145C594.555 274.145 603.842 277.104 610.697 283.021C617.611 288.881 621.068 297.143 621.068 307.807V349.027C621.127 358.051 622.387 364.877 624.848 369.506V371H599.184ZM578.178 353.334C581.928 353.334 585.385 352.514 588.549 350.873C591.713 349.174 594.057 346.918 595.58 344.105V327.758H586.088C573.373 327.758 566.605 332.152 565.785 340.941L565.697 342.436C565.697 345.6 566.811 348.207 569.037 350.258C571.264 352.309 574.311 353.334 578.178 353.334Z" fill="url(#paint7_linear)"/>
<path d="M776.832 337.426C776.832 332.445 775.074 328.637 771.558 326C768.043 323.305 761.714 320.492 752.574 317.562C743.433 314.574 736.197 311.645 730.865 308.773C716.334 300.922 709.068 290.346 709.068 277.045C709.068 270.131 711.002 263.979 714.869 258.588C718.795 253.139 724.39 248.891 731.656 245.844C738.98 242.797 747.183 241.273 756.265 241.273C765.406 241.273 773.55 242.943 780.699 246.283C787.847 249.564 793.384 254.223 797.31 260.258C801.295 266.293 803.287 273.148 803.287 280.824H776.92C776.92 274.965 775.074 270.424 771.382 267.201C767.691 263.92 762.505 262.279 755.826 262.279C749.38 262.279 744.371 263.656 740.797 266.41C737.222 269.105 735.435 272.68 735.435 277.133C735.435 281.293 737.515 284.779 741.675 287.592C745.894 290.404 752.076 293.041 760.22 295.502C775.22 300.014 786.148 305.609 793.004 312.289C799.859 318.969 803.287 327.289 803.287 337.25C803.287 348.324 799.097 357.025 790.718 363.354C782.339 369.623 771.06 372.758 756.88 372.758C747.037 372.758 738.072 370.971 729.986 367.396C721.9 363.764 715.718 358.812 711.441 352.543C707.222 346.273 705.113 339.008 705.113 330.746H731.568C731.568 344.867 740.005 351.928 756.88 351.928C763.15 351.928 768.043 350.668 771.558 348.148C775.074 345.57 776.832 341.996 776.832 337.426Z" fill="url(#paint8_linear)"/>
<path d="M888.2 361.332C881.93 368.949 873.258 372.758 862.184 372.758C851.989 372.758 844.196 369.828 838.805 363.969C833.473 358.109 830.748 349.525 830.631 338.217V275.902H856.032V337.338C856.032 347.24 860.543 352.191 869.567 352.191C878.18 352.191 884.098 349.203 887.321 343.227V275.902H912.809V371H888.903L888.2 361.332Z" fill="url(#paint9_linear)"/>
<path d="M967.048 275.902L967.839 286.889C974.636 278.393 983.747 274.145 995.173 274.145C1005.25 274.145 1012.75 277.104 1017.67 283.021C1022.59 288.939 1025.11 297.787 1025.23 309.564V371H999.831V310.18C999.831 304.789 998.659 300.893 996.316 298.49C993.972 296.029 990.075 294.799 984.626 294.799C977.478 294.799 972.116 297.846 968.542 303.939V371H943.142V275.902H967.048Z" fill="url(#paint10_linear)"/>
<mask id="mask1" mask-type="alpha" maskUnits="userSpaceOnUse" x="300" y="61" width="498" height="498">
<rect x="300.057" y="61" width="497.943" height="498" rx="31" fill="#C4C4C4"/>
</mask>
<g mask="url(#mask1)">
<ellipse cx="366.609" cy="136.636" rx="232.609" ry="232.636" fill="url(#paint11_linear)"/>
<ellipse cx="583.965" cy="61.0001" rx="113.209" ry="113.222" fill="#A8B4FF"/>
<ellipse cx="808.171" cy="177.318" rx="189.714" ry="189.735" fill="url(#paint12_linear)"/>
<ellipse cx="699.384" cy="388.725" rx="247.203" ry="247.231" fill="url(#paint13_linear)"/>
<ellipse cx="366.39" cy="542.193" rx="232.609" ry="232.636" fill="#A72B8C"/>
</g>
<mask id="mask2" mask-type="alpha" maskUnits="userSpaceOnUse" x="238" y="-10" width="636" height="636">
<rect x="403.388" y="-9.36597" width="498.341" height="498.341" rx="40" transform="rotate(19.3055 403.388 -9.36597)" fill="#C4C4C4"/>
</mask>
<g mask="url(#mask2)">
<rect x="403.388" y="-9.36597" width="498.341" height="498.341" rx="40" transform="rotate(19.3055 403.388 -9.36597)" fill="#D0E6FF"/>
<circle cx="663.525" cy="107.462" r="137.556" transform="rotate(19.3055 663.525 107.462)" fill="url(#paint14_linear)"/>
<path d="M589.952 32.7824C587.768 40.2077 587.474 48.0794 588.611 55.7351C607.924 185.801 402.071 241.546 284.197 200.255C162.858 157.749 98.9499 24.9264 141.455 -96.4132C183.961 -217.753 316.784 -281.661 438.123 -239.155C555.697 -197.969 624.466 -84.6039 589.952 32.7824Z" fill="url(#paint15_linear)"/>
<circle cx="892.786" cy="186.998" r="189.865" transform="rotate(19.3055 892.786 186.998)" fill="url(#paint16_linear)"/>
<path d="M544.984 554.891C538.267 561.021 532.216 568.115 528.704 576.504C481.505 689.267 353.963 747.068 237.076 706.122C115.736 663.616 51.8283 530.794 94.3338 409.454C136.839 288.114 269.662 224.207 391.002 266.712C507.091 307.379 619.274 487.088 544.984 554.891Z" fill="url(#paint17_linear)"/>
<path d="M994.864 777.901C938.034 940.133 760.449 1025.58 598.217 968.747C437.964 912.61 385.86 760.417 439.389 600.345C440.701 596.423 442.731 592.776 444.991 589.313C485.205 527.683 488.229 380.224 797.254 381.21C801.623 381.224 806.149 381.979 810.241 383.509C968.424 442.653 1050.96 617.757 994.864 777.901Z" fill="url(#paint18_linear)"/>
<g filter="url(#filter0_d)">
<path d="M754.968 329.115C745.264 356.817 681.313 355.996 628.654 374.329C587.626 388.612 498.976 450.631 463.09 438.635C393.978 415.533 394.83 372.946 356.344 359.465C267.264 328.26 347.598 228.053 400.418 222.09C615.34 213.708 548.893 142.597 651.813 147.415C768.237 152.866 774.18 274.27 754.968 329.115Z" fill="url(#paint19_linear)"/>
</g>
<path d="M909.107 829.589C902.39 835.719 896.339 842.812 892.827 851.201C845.628 963.964 718.086 1021.77 601.199 980.82C479.859 938.314 415.951 805.491 458.457 684.152C500.962 562.812 633.785 498.905 755.125 541.41C871.214 582.076 983.397 761.785 909.107 829.589Z" fill="url(#paint20_linear)"/>
</g>
<path d="M359.1 371.271C344.592 371.271 332.767 366.821 323.624 357.921C314.541 349.022 310 337.166 310 322.354V319.794C310 309.858 311.92 300.989 315.76 293.186C319.601 285.323 325.026 279.288 332.036 275.083C339.106 270.816 347.153 268.682 356.174 268.682C369.706 268.682 380.343 272.949 388.084 281.483C395.887 290.017 399.788 302.116 399.788 317.782V328.571H336.79C337.643 335.033 340.204 340.214 344.47 344.115C348.798 348.016 354.254 349.967 360.837 349.967C371.017 349.967 378.971 346.279 384.701 338.903L397.685 353.441C393.723 359.049 388.359 363.438 381.593 366.608C374.826 369.716 367.329 371.271 359.1 371.271ZM356.083 290.078C350.84 290.078 346.573 291.845 343.282 295.381C340.051 298.916 337.979 303.976 337.064 310.559H373.821V308.456C373.699 302.604 372.114 298.093 369.066 294.924C366.018 291.693 361.69 290.078 356.083 290.078Z" fill="white"/>
<path d="M451.188 369.442H424.672V229H451.188V369.442Z" fill="white"/>
<path d="M509.355 369.442H482.839V229H509.355V369.442Z" fill="white"/>
<path d="M596.963 369.442C595.743 367.065 594.86 364.108 594.311 360.573C587.911 367.705 579.59 371.271 569.35 371.271C559.658 371.271 551.611 368.467 545.211 362.859C538.872 357.251 535.702 350.18 535.702 341.646C535.702 331.162 539.573 323.116 547.314 317.508C555.116 311.9 566.363 309.065 581.053 309.004H593.214V303.336C593.214 298.764 592.025 295.107 589.648 292.363C587.332 289.62 583.644 288.249 578.584 288.249C574.135 288.249 570.63 289.316 568.07 291.449C565.57 293.583 564.321 296.508 564.321 300.227H537.896C537.896 294.497 539.664 289.194 543.2 284.317C546.735 279.441 551.733 275.631 558.195 272.888C564.656 270.084 571.91 268.682 579.956 268.682C592.147 268.682 601.809 271.76 608.94 277.917C616.133 284.013 619.73 292.607 619.73 303.701V346.584C619.791 355.971 621.101 363.072 623.661 367.888V369.442H596.963ZM575.11 351.064C579.011 351.064 582.607 350.21 585.899 348.504C589.191 346.736 591.629 344.389 593.214 341.463V324.457H583.339C570.112 324.457 563.071 329.028 562.218 338.172L562.126 339.726C562.126 343.018 563.285 345.73 565.601 347.864C567.917 349.997 571.087 351.064 575.11 351.064Z" fill="white"/>
<path d="M774.282 334.514C774.282 329.333 772.453 325.371 768.796 322.628C765.138 319.824 758.555 316.898 749.046 313.85C739.537 310.742 732.009 307.694 726.462 304.707C711.345 296.539 703.786 285.536 703.786 271.699C703.786 264.507 705.798 258.106 709.821 252.498C713.905 246.83 719.726 242.41 727.285 239.241C734.904 236.071 743.438 234.486 752.886 234.486C762.395 234.486 770.868 236.223 778.305 239.698C785.741 243.111 791.502 247.957 795.586 254.236C799.731 260.514 801.803 267.646 801.803 275.631H774.373C774.373 269.536 772.453 264.811 768.613 261.459C764.772 258.045 759.378 256.339 752.429 256.339C745.724 256.339 740.512 257.771 736.794 260.636C733.076 263.44 731.216 267.158 731.216 271.791C731.216 276.119 733.38 279.746 737.708 282.672C742.097 285.597 748.528 288.34 757.001 290.901C772.605 295.594 783.974 301.415 791.105 308.364C798.237 315.313 801.803 323.969 801.803 334.332C801.803 345.852 797.445 354.904 788.728 361.487C780.011 368.01 768.277 371.271 753.526 371.271C743.286 371.271 733.959 369.412 725.547 365.693C717.136 361.914 710.705 356.763 706.255 350.241C701.866 343.719 699.672 336.16 699.672 327.565H727.193C727.193 342.256 735.971 349.601 753.526 349.601C760.048 349.601 765.138 348.29 768.796 345.669C772.453 342.987 774.282 339.269 774.282 334.514Z" fill="white"/>
</g>
<defs>
<filter id="filter0_d" x="272.246" y="40.1021" width="580.141" height="531.652" filterUnits="userSpaceOnUse" color-interpolation-filters="sRGB">
<feFlood flood-opacity="0" result="BackgroundImageFix"/>
<feColorMatrix in="SourceAlpha" type="matrix" values="0 0 0 0 0 0 0 0 0 0 0 0 0 0 0 0 0 0 127 0"/>
<feOffset dx="16" dy="20"/>
<feGaussianBlur stdDeviation="17"/>
<feColorMatrix type="matrix" values="0 0 0 0 0 0 0 0 0 0.07 0 0 0 0 0.25 0 0 0 0.09 0"/>
<feBlend mode="normal" in2="BackgroundImageFix" result="effect1_dropShadow"/>
<feBlend mode="normal" in="SourceGraphic" in2="effect1_dropShadow" result="shape"/>
</filter>
<linearGradient id="paint0_linear" x1="827" y1="357.339" x2="498.909" y2="479.11" gradientUnits="userSpaceOnUse">
<stop stop-color="#37FF87"/>
<stop offset="0.800406" stop-color="#162EFF"/>
</linearGradient>
<linearGradient id="paint1_linear" x1="287.5" y1="123.849" x2="217.533" y2="233.433" gradientUnits="userSpaceOnUse">
<stop stop-color="#FF2257"/>
<stop offset="1" stop-color="#C42847"/>
</linearGradient>
<linearGradient id="paint2_linear" x1="47" y1="336.5" x2="1076.5" y2="309" gradientUnits="userSpaceOnUse">
<stop stop-color="#1C334F"/>
<stop offset="1" stop-color="#142B46"/>
</linearGradient>
<linearGradient id="paint3_linear" x1="47" y1="336.5" x2="1076.5" y2="309" gradientUnits="userSpaceOnUse">
<stop stop-color="#1C334F"/>
<stop offset="1" stop-color="#142B46"/>
</linearGradient>
<linearGradient id="paint4_linear" x1="47" y1="336.5" x2="1076.5" y2="309" gradientUnits="userSpaceOnUse">
<stop stop-color="#1C334F"/>
<stop offset="1" stop-color="#142B46"/>
</linearGradient>
<linearGradient id="paint5_linear" x1="47" y1="336.5" x2="1076.5" y2="309" gradientUnits="userSpaceOnUse">
<stop stop-color="#1C334F"/>
<stop offset="1" stop-color="#142B46"/>
</linearGradient>
<linearGradient id="paint6_linear" x1="47" y1="336.5" x2="1076.5" y2="309" gradientUnits="userSpaceOnUse">
<stop stop-color="#1C334F"/>
<stop offset="1" stop-color="#142B46"/>
</linearGradient>
<linearGradient id="paint7_linear" x1="47" y1="336.5" x2="1076.5" y2="309" gradientUnits="userSpaceOnUse">
<stop stop-color="#1C334F"/>
<stop offset="1" stop-color="#142B46"/>
</linearGradient>
<linearGradient id="paint8_linear" x1="47" y1="336.5" x2="1076.5" y2="309" gradientUnits="userSpaceOnUse">
<stop stop-color="#1C334F"/>
<stop offset="1" stop-color="#142B46"/>
</linearGradient>
<linearGradient id="paint9_linear" x1="47" y1="336.5" x2="1076.5" y2="309" gradientUnits="userSpaceOnUse">
<stop stop-color="#1C334F"/>
<stop offset="1" stop-color="#142B46"/>
</linearGradient>
<linearGradient id="paint10_linear" x1="47" y1="336.5" x2="1076.5" y2="309" gradientUnits="userSpaceOnUse">
<stop stop-color="#1C334F"/>
<stop offset="1" stop-color="#142B46"/>
</linearGradient>
<linearGradient id="paint11_linear" x1="366.609" y1="-96" x2="366.609" y2="369.272" gradientUnits="userSpaceOnUse">
<stop stop-color="#DA5252"/>
<stop offset="1" stop-color="#D64A37"/>
</linearGradient>
<linearGradient id="paint12_linear" x1="744.766" y1="61.4119" x2="770.636" y2="183.044" gradientUnits="userSpaceOnUse">
<stop stop-color="#D54B4B"/>
<stop offset="1" stop-color="#7D1A1A"/>
</linearGradient>
<linearGradient id="paint13_linear" x1="786.59" y1="331.647" x2="781.085" y2="567.208" gradientUnits="userSpaceOnUse">
<stop stop-color="#FFD600"/>
<stop offset="1" stop-color="#FF5757"/>
</linearGradient>
<linearGradient id="paint14_linear" x1="631.332" y1="84.6907" x2="662.494" y2="213.755" gradientUnits="userSpaceOnUse">
<stop stop-color="#FF2257"/>
<stop offset="1" stop-color="#C42847"/>
</linearGradient>
<linearGradient id="paint15_linear" x1="393.176" y1="-16.8638" x2="511.894" y2="152.245" gradientUnits="userSpaceOnUse">
<stop stop-color="#3725A5"/>
<stop offset="1" stop-color="#4C5FBC"/>
</linearGradient>
<linearGradient id="paint16_linear" x1="885.235" y1="124.123" x2="866.085" y2="367.59" gradientUnits="userSpaceOnUse">
<stop stop-color="#C749E7"/>
<stop offset="1" stop-color="#D8436F"/>
</linearGradient>
<linearGradient id="paint17_linear" x1="322" y1="265.5" x2="488" y2="628.5" gradientUnits="userSpaceOnUse">
<stop stop-color="#7F1BFF"/>
<stop offset="1" stop-color="#C19BFF"/>
</linearGradient>
<linearGradient id="paint18_linear" x1="782.347" y1="387.004" x2="465.131" y2="550.908" gradientUnits="userSpaceOnUse">
<stop stop-color="#5EF5FF"/>
<stop offset="0.9999" stop-color="#1758FF"/>
</linearGradient>
<linearGradient id="paint19_linear" x1="768.738" y1="200.956" x2="349.349" y2="358.051" gradientUnits="userSpaceOnUse">
<stop stop-color="#FF335F"/>
<stop offset="1" stop-color="#FF9D42"/>
</linearGradient>
<linearGradient id="paint20_linear" x1="755.125" y1="541.41" x2="656.097" y2="792.686" gradientUnits="userSpaceOnUse">
<stop stop-color="#FBFF37"/>
<stop offset="1" stop-color="#FF7A00"/>
</linearGradient>
</defs>
</svg>
