<svg width="945" height="579" viewBox="0 0 945 579" fill="none" xmlns="http://www.w3.org/2000/svg">
<path d="M79.0234 334.098H35.3613L27.0605 359H0.581055L45.5713 238.141H68.6475L113.887 359H87.4072L79.0234 334.098ZM42.085 313.927H72.2998L57.1094 268.688L42.085 313.927ZM149.759 269.186L150.506 279.229C156.87 271.427 165.476 267.525 176.322 267.525C187.888 267.525 195.829 272.091 200.145 281.222C206.454 272.091 215.446 267.525 227.123 267.525C236.862 267.525 244.112 270.375 248.871 276.075C253.63 281.72 256.009 290.242 256.009 301.642V359H231.937V301.725C231.937 296.633 230.941 292.926 228.949 290.602C226.957 288.222 223.443 287.032 218.407 287.032C211.213 287.032 206.232 290.463 203.465 297.325L203.548 359H179.559V301.808C179.559 296.606 178.535 292.843 176.488 290.519C174.44 288.194 170.954 287.032 166.029 287.032C159.222 287.032 154.297 289.854 151.254 295.499V359H127.264V269.186H149.759ZM323.508 360.66C310.337 360.66 299.602 356.62 291.301 348.541C283.056 340.462 278.933 329.698 278.933 316.251V313.927C278.933 304.907 280.676 296.855 284.162 289.771C287.649 282.633 292.574 277.154 298.938 273.336C305.357 269.462 312.662 267.525 320.852 267.525C333.137 267.525 342.793 271.399 349.821 279.146C356.905 286.894 360.446 297.879 360.446 312.101V321.896H303.254C304.029 327.761 306.353 332.465 310.227 336.007C314.156 339.549 319.109 341.319 325.085 341.319C334.327 341.319 341.548 337.971 346.75 331.275L358.537 344.474C354.94 349.565 350.07 353.549 343.928 356.427C337.785 359.249 330.979 360.66 323.508 360.66ZM320.769 286.949C316.01 286.949 312.136 288.554 309.148 291.764C306.215 294.973 304.333 299.566 303.503 305.543H336.872V303.634C336.762 298.321 335.323 294.226 332.556 291.349C329.789 288.416 325.86 286.949 320.769 286.949ZM407.11 359H383.038V231.5H407.11V359ZM459.916 359H435.844V231.5H459.916V359ZM539.451 359C538.344 356.842 537.542 354.158 537.044 350.948C531.233 357.423 523.68 360.66 514.383 360.66C505.584 360.66 498.279 358.115 492.469 353.023C486.714 347.932 483.836 341.513 483.836 333.766C483.836 324.247 487.35 316.943 494.378 311.852C501.461 306.76 511.671 304.187 525.008 304.132H536.048V298.985C536.048 294.835 534.969 291.515 532.811 289.024C530.708 286.534 527.36 285.289 522.767 285.289C518.727 285.289 515.545 286.257 513.221 288.194C510.952 290.131 509.817 292.787 509.817 296.163H485.828C485.828 290.961 487.433 286.147 490.643 281.72C493.852 277.293 498.39 273.834 504.256 271.344C510.122 268.798 516.707 267.525 524.012 267.525C535.079 267.525 543.851 270.32 550.325 275.909C556.855 281.443 560.12 289.246 560.12 299.317V338.248C560.175 346.77 561.365 353.217 563.689 357.589V359H539.451ZM519.612 342.315C523.154 342.315 526.419 341.541 529.407 339.991C532.396 338.386 534.609 336.256 536.048 333.6V318.16H527.083C515.075 318.16 508.683 322.311 507.908 330.611L507.825 332.022C507.825 335.011 508.877 337.473 510.979 339.41C513.082 341.347 515.96 342.315 519.612 342.315ZM700.43 327.291C700.43 322.587 698.77 318.99 695.449 316.5C692.129 313.954 686.153 311.298 677.52 308.531C668.887 305.709 662.053 302.942 657.017 300.23C643.293 292.815 636.431 282.826 636.431 270.265C636.431 263.735 638.257 257.924 641.909 252.833C645.617 247.687 650.902 243.674 657.764 240.797C664.681 237.919 672.429 236.48 681.006 236.48C689.639 236.48 697.331 238.058 704.082 241.212C710.834 244.311 716.063 248.71 719.771 254.41C723.534 260.11 725.415 266.585 725.415 273.834H700.513C700.513 268.3 698.77 264.011 695.283 260.968C691.797 257.869 686.9 256.319 680.591 256.319C674.504 256.319 669.772 257.62 666.397 260.221C663.021 262.766 661.333 266.142 661.333 270.348C661.333 274.277 663.298 277.569 667.227 280.226C671.211 282.882 677.049 285.372 684.741 287.696C698.908 291.957 709.229 297.242 715.703 303.551C722.178 309.859 725.415 317.717 725.415 327.125C725.415 337.584 721.459 345.802 713.545 351.778C705.632 357.7 694.979 360.66 681.587 360.66C672.29 360.66 663.823 358.972 656.187 355.597C648.55 352.166 642.712 347.49 638.672 341.568C634.688 335.647 632.695 328.785 632.695 320.982H657.681C657.681 334.319 665.65 340.987 681.587 340.987C687.508 340.987 692.129 339.798 695.449 337.418C698.77 334.983 700.43 331.607 700.43 327.291ZM802.211 349.869C796.29 357.063 788.099 360.66 777.64 360.66C768.012 360.66 760.652 357.893 755.56 352.359C750.525 346.826 747.951 338.718 747.841 328.038V269.186H771.83V327.208C771.83 336.56 776.091 341.236 784.613 341.236C792.748 341.236 798.337 338.414 801.381 332.77V269.186H825.453V359H802.875L802.211 349.869ZM873.279 269.186L874.026 279.562C880.445 271.537 889.05 267.525 899.841 267.525C909.359 267.525 916.443 270.32 921.091 275.909C925.74 281.498 928.119 289.854 928.23 300.978V359H904.241V301.559C904.241 296.467 903.134 292.787 900.92 290.519C898.707 288.194 895.027 287.032 889.88 287.032C883.129 287.032 878.065 289.91 874.69 295.665V359H850.701V269.186H873.279Z" fill="#1B1B1B"/>
<path fill-rule="evenodd" clip-rule="evenodd" d="M207.052 10.1563C209.842 10.1563 212.104 7.8827 212.104 5.07813C212.104 2.27356 209.842 0 207.052 0C204.262 0 202 2.27356 202 5.07813C202 7.8827 204.262 10.1563 207.052 10.1563ZM207.052 38.2813C209.842 38.2813 212.104 36.0077 212.104 33.2031C212.104 30.3986 209.842 28.125 207.052 28.125C204.262 28.125 202 30.3986 202 33.2031C202 36.0077 204.262 38.2813 207.052 38.2813ZM212.104 60.547C212.104 63.3516 209.842 65.6251 207.052 65.6251C204.262 65.6251 202 63.3516 202 60.547C202 57.7424 204.262 55.4689 207.052 55.4689C209.842 55.4689 212.104 57.7424 212.104 60.547ZM207.052 93.7501C209.842 93.7501 212.104 91.4766 212.104 88.672C212.104 85.8674 209.842 83.5939 207.052 83.5939C204.262 83.5939 202 85.8674 202 88.672C202 91.4766 204.262 93.7501 207.052 93.7501ZM212.104 116.797C212.104 119.601 209.842 121.875 207.052 121.875C204.262 121.875 202 119.601 202 116.797C202 113.992 204.262 111.719 207.052 111.719C209.842 111.719 212.104 113.992 212.104 116.797ZM207.052 150C209.842 150 212.104 147.726 212.104 144.922C212.104 142.117 209.842 139.844 207.052 139.844C204.262 139.844 202 142.117 202 144.922C202 147.726 204.262 150 207.052 150ZM240.083 5.07813C240.083 7.8827 237.822 10.1563 235.031 10.1563C232.241 10.1563 229.98 7.8827 229.98 5.07813C229.98 2.27356 232.241 0 235.031 0C237.822 0 240.083 2.27356 240.083 5.07813ZM235.031 38.2813C237.822 38.2813 240.083 36.0077 240.083 33.2031C240.083 30.3986 237.822 28.125 235.031 28.125C232.241 28.125 229.98 30.3986 229.98 33.2031C229.98 36.0077 232.241 38.2813 235.031 38.2813ZM240.083 60.547C240.083 63.3516 237.822 65.6251 235.031 65.6251C232.241 65.6251 229.98 63.3516 229.98 60.547C229.98 57.7424 232.241 55.4689 235.031 55.4689C237.822 55.4689 240.083 57.7424 240.083 60.547ZM235.031 93.7501C237.822 93.7501 240.083 91.4766 240.083 88.672C240.083 85.8674 237.822 83.5939 235.031 83.5939C232.241 83.5939 229.98 85.8674 229.98 88.672C229.98 91.4766 232.241 93.7501 235.031 93.7501ZM240.083 116.797C240.083 119.601 237.822 121.875 235.031 121.875C232.241 121.875 229.98 119.601 229.98 116.797C229.98 113.992 232.241 111.719 235.031 111.719C237.822 111.719 240.083 113.992 240.083 116.797ZM235.031 150C237.822 150 240.083 147.726 240.083 144.922C240.083 142.117 237.822 139.844 235.031 139.844C232.241 139.844 229.98 142.117 229.98 144.922C229.98 147.726 232.241 150 235.031 150ZM268.062 5.07813C268.062 7.8827 265.8 10.1563 263.01 10.1563C260.22 10.1563 257.959 7.8827 257.959 5.07813C257.959 2.27356 260.22 0 263.01 0C265.8 0 268.062 2.27356 268.062 5.07813ZM263.01 38.2813C265.8 38.2813 268.062 36.0077 268.062 33.2031C268.062 30.3986 265.8 28.125 263.01 28.125C260.22 28.125 257.959 30.3986 257.959 33.2031C257.959 36.0077 260.22 38.2813 263.01 38.2813ZM268.062 60.547C268.062 63.3516 265.8 65.6251 263.01 65.6251C260.22 65.6251 257.959 63.3516 257.959 60.547C257.959 57.7424 260.22 55.4689 263.01 55.4689C265.8 55.4689 268.062 57.7424 268.062 60.547ZM263.01 93.7501C265.8 93.7501 268.062 91.4766 268.062 88.672C268.062 85.8674 265.8 83.5939 263.01 83.5939C260.22 83.5939 257.959 85.8674 257.959 88.672C257.959 91.4766 260.22 93.7501 263.01 93.7501ZM268.062 116.797C268.062 119.601 265.8 121.875 263.01 121.875C260.22 121.875 257.959 119.601 257.959 116.797C257.959 113.992 260.22 111.719 263.01 111.719C265.8 111.719 268.062 113.992 268.062 116.797ZM263.01 150C265.8 150 268.062 147.726 268.062 144.922C268.062 142.117 265.8 139.844 263.01 139.844C260.22 139.844 257.959 142.117 257.959 144.922C257.959 147.726 260.22 150 263.01 150ZM323.244 5.07813C323.244 7.8827 320.982 10.1563 318.192 10.1563C315.402 10.1563 313.14 7.8827 313.14 5.07813C313.14 2.27356 315.402 0 318.192 0C320.982 0 323.244 2.27356 323.244 5.07813ZM318.192 38.2813C320.982 38.2813 323.244 36.0077 323.244 33.2031C323.244 30.3986 320.982 28.125 318.192 28.125C315.402 28.125 313.14 30.3986 313.14 33.2031C313.14 36.0077 315.402 38.2813 318.192 38.2813ZM323.244 60.547C323.244 63.3516 320.982 65.6251 318.192 65.6251C315.402 65.6251 313.14 63.3516 313.14 60.547C313.14 57.7424 315.402 55.4689 318.192 55.4689C320.982 55.4689 323.244 57.7424 323.244 60.547ZM318.192 93.7501C320.982 93.7501 323.244 91.4766 323.244 88.672C323.244 85.8674 320.982 83.5939 318.192 83.5939C315.402 83.5939 313.14 85.8674 313.14 88.672C313.14 91.4766 315.402 93.7501 318.192 93.7501ZM323.244 116.797C323.244 119.601 320.982 121.875 318.192 121.875C315.402 121.875 313.14 119.601 313.14 116.797C313.14 113.992 315.402 111.719 318.192 111.719C320.982 111.719 323.244 113.992 323.244 116.797ZM318.192 150C320.982 150 323.244 147.726 323.244 144.922C323.244 142.117 320.982 139.844 318.192 139.844C315.402 139.844 313.14 142.117 313.14 144.922C313.14 147.726 315.402 150 318.192 150ZM295.264 5.07813C295.264 7.8827 293.003 10.1563 290.213 10.1563C287.422 10.1563 285.161 7.8827 285.161 5.07813C285.161 2.27356 287.422 0 290.213 0C293.003 0 295.264 2.27356 295.264 5.07813ZM290.213 38.2813C293.003 38.2813 295.264 36.0077 295.264 33.2031C295.264 30.3986 293.003 28.125 290.213 28.125C287.422 28.125 285.161 30.3986 285.161 33.2031C285.161 36.0077 287.422 38.2813 290.213 38.2813ZM295.264 60.547C295.264 63.3516 293.003 65.6251 290.213 65.6251C287.422 65.6251 285.161 63.3516 285.161 60.547C285.161 57.7424 287.422 55.4689 290.213 55.4689C293.003 55.4689 295.264 57.7424 295.264 60.547ZM290.213 93.7501C293.003 93.7501 295.264 91.4766 295.264 88.672C295.264 85.8674 293.003 83.5939 290.213 83.5939C287.422 83.5939 285.161 85.8674 285.161 88.672C285.161 91.4766 287.422 93.7501 290.213 93.7501ZM295.264 116.797C295.264 119.601 293.003 121.875 290.213 121.875C287.422 121.875 285.161 119.601 285.161 116.797C285.161 113.992 287.422 111.719 290.213 111.719C293.003 111.719 295.264 113.992 295.264 116.797ZM290.213 150C293.003 150 295.264 147.726 295.264 144.922C295.264 142.117 293.003 139.844 290.213 139.844C287.422 139.844 285.161 142.117 285.161 144.922C285.161 147.726 287.422 150 290.213 150ZM350.445 5.07813C350.445 7.8827 348.184 10.1563 345.394 10.1563C342.603 10.1563 340.342 7.8827 340.342 5.07813C340.342 2.27356 342.603 0 345.394 0C348.184 0 350.445 2.27356 350.445 5.07813ZM345.394 38.2813C348.184 38.2813 350.445 36.0077 350.445 33.2031C350.445 30.3986 348.184 28.125 345.394 28.125C342.603 28.125 340.342 30.3986 340.342 33.2031C340.342 36.0077 342.603 38.2813 345.394 38.2813ZM350.445 60.547C350.445 63.3516 348.184 65.6251 345.394 65.6251C342.603 65.6251 340.342 63.3516 340.342 60.547C340.342 57.7424 342.603 55.4689 345.394 55.4689C348.184 55.4689 350.445 57.7424 350.445 60.547ZM345.394 93.7501C348.184 93.7501 350.445 91.4766 350.445 88.672C350.445 85.8674 348.184 83.5939 345.394 83.5939C342.603 83.5939 340.342 85.8674 340.342 88.672C340.342 91.4766 342.603 93.7501 345.394 93.7501ZM350.445 116.797C350.445 119.601 348.184 121.875 345.394 121.875C342.603 121.875 340.342 119.601 340.342 116.797C340.342 113.992 342.603 111.719 345.394 111.719C348.184 111.719 350.445 113.992 350.445 116.797ZM345.394 150C348.184 150 350.445 147.726 350.445 144.922C350.445 142.117 348.184 139.844 345.394 139.844C342.603 139.844 340.342 142.117 340.342 144.922C340.342 147.726 342.603 150 345.394 150Z" fill="#B4C0D5"/>
<mask id="mask0" mask-type="alpha" maskUnits="userSpaceOnUse" x="281" y="74" width="453" height="454">
<rect x="281.45" y="74.6257" width="452.417" height="452.417" rx="10" fill="#C4C4C4"/>
</mask>
<g mask="url(#mask0)">
<circle cx="341.718" cy="142.93" r="211.342" fill="#DA5252"/>
<circle cx="539.4" cy="74.6257" r="102.859" fill="#A8B4FF"/>
<circle cx="743.108" cy="180.297" r="172.369" fill="url(#paint0_linear)"/>
<circle cx="644.268" cy="372.353" r="224.602" fill="url(#paint1_linear)"/>
<circle cx="341.718" cy="511.775" r="211.342" fill="#A72B8C"/>
</g>
<mask id="mask1" mask-type="alpha" maskUnits="userSpaceOnUse" x="230" y="24" width="555" height="555">
<rect x="347.918" y="24" width="452.417" height="452.417" rx="15" transform="rotate(15 347.918 24)" fill="#C4C4C4"/>
</mask>
<g mask="url(#mask1)">
<rect x="347.918" y="24" width="452.417" height="452.417" rx="15" transform="rotate(15 347.918 24)" fill="#D0E6FF"/>
<circle cx="591.38" cy="112.033" r="124.88" transform="rotate(15 591.38 112.033)" fill="url(#paint2_linear)"/>
<path d="M518.112 55.6691C517.42 58.4877 517.526 61.5377 518.321 64.3292C552.543 184.58 365.555 251.835 254.141 221.982C141.397 191.772 74.4898 75.8851 104.699 -36.8589C134.909 -149.603 250.796 -216.51 363.54 -186.301C474.839 -156.478 545.384 -55.3815 518.112 55.6691Z" fill="url(#paint3_linear)"/>
<circle cx="804.348" cy="168.41" r="172.369" transform="rotate(15 804.348 168.41)" fill="url(#paint4_linear)"/>
<path d="M509.146 530.306C506.551 532.518 504.497 535.43 503.534 538.701C471.248 648.361 357.161 712.809 246.124 683.056C133.38 652.846 66.4722 536.96 96.6819 424.216C126.892 311.472 242.778 244.564 355.522 274.774C466.277 304.45 583.294 467.113 509.146 530.306Z" fill="url(#paint5_linear)"/>
<path d="M937.031 696.39C896.64 847.129 741.698 936.584 590.959 896.193C440.979 856.006 383.687 720.118 422.897 570.277C423.29 568.777 423.919 567.369 424.718 566.04C459.062 508.915 446.448 370.094 734.685 350.488C736.319 350.377 738.046 350.535 739.624 350.972C888.912 392.356 977.206 546.452 937.031 696.39Z" fill="url(#paint6_linear)"/>
<path d="M689.269 306.46C682.372 332.199 624.422 335.815 578 356C541.831 371.727 465.805 433.914 432.5 425.5C368.359 409.296 366.228 370.685 330.469 361.104C247.699 338.926 313.594 242.734 361.006 233.736C555 211.5 490 151.652 583.5 149C689.269 146 702.923 255.5 689.269 306.46Z" fill="url(#paint7_linear)"/>
</g>
<path d="M325.552 360.66C312.381 360.66 301.646 356.62 293.345 348.541C285.099 340.462 280.977 329.698 280.977 316.251V313.927C280.977 304.907 282.72 296.855 286.206 289.771C289.692 282.633 294.618 277.154 300.981 273.336C307.401 269.462 314.705 267.525 322.896 267.525C335.181 267.525 344.837 271.399 351.865 279.146C358.949 286.894 362.49 297.879 362.49 312.101V321.896H305.298C306.073 327.761 308.397 332.465 312.271 336.007C316.2 339.549 321.152 341.319 327.129 341.319C336.37 341.319 343.592 337.971 348.794 331.275L360.581 344.474C356.984 349.565 352.114 353.549 345.972 356.427C339.829 359.249 333.022 360.66 325.552 360.66ZM322.812 286.949C318.053 286.949 314.18 288.554 311.191 291.764C308.258 294.973 306.377 299.566 305.547 305.543H338.916V303.634C338.805 298.321 337.367 294.226 334.6 291.349C331.833 288.416 327.904 286.949 322.812 286.949ZM409.154 359H385.082V231.5H409.154V359ZM461.96 359H437.888V231.5H461.96V359ZM541.495 359C540.388 356.842 539.586 354.158 539.088 350.948C533.277 357.423 525.723 360.66 516.427 360.66C507.628 360.66 500.323 358.115 494.512 353.023C488.757 347.932 485.88 341.513 485.88 333.766C485.88 324.247 489.394 316.943 496.422 311.852C503.505 306.76 513.715 304.187 527.052 304.132H538.092V298.985C538.092 294.835 537.012 291.515 534.854 289.024C532.751 286.534 529.403 285.289 524.81 285.289C520.771 285.289 517.589 286.257 515.264 288.194C512.996 290.131 511.861 292.787 511.861 296.163H487.872C487.872 290.961 489.477 286.147 492.686 281.72C495.896 277.293 500.434 273.834 506.3 271.344C512.165 268.798 518.751 267.525 526.055 267.525C537.123 267.525 545.894 270.32 552.369 275.909C558.899 281.443 562.164 289.246 562.164 299.317V338.248C562.219 346.77 563.409 353.217 565.733 357.589V359H541.495ZM521.656 342.315C525.198 342.315 528.463 341.541 531.451 339.991C534.439 338.386 536.653 336.256 538.092 333.6V318.16H529.127C517.118 318.16 510.727 322.311 509.952 330.611L509.869 332.022C509.869 335.011 510.92 337.473 513.023 339.41C515.126 341.347 518.004 342.315 521.656 342.315ZM702.474 327.291C702.474 322.587 700.813 318.99 697.493 316.5C694.173 313.954 688.196 311.298 679.563 308.531C670.931 305.709 664.096 302.942 659.061 300.23C645.337 292.815 638.475 282.826 638.475 270.265C638.475 263.735 640.301 257.924 643.953 252.833C647.661 247.687 652.946 243.674 659.808 240.797C666.725 237.919 674.472 236.48 683.05 236.48C691.683 236.48 699.375 238.058 706.126 241.212C712.877 244.311 718.107 248.71 721.814 254.41C725.577 260.11 727.459 266.585 727.459 273.834H702.557C702.557 268.3 700.813 264.011 697.327 260.968C693.841 257.869 688.943 256.319 682.635 256.319C676.548 256.319 671.816 257.62 668.44 260.221C665.065 262.766 663.377 266.142 663.377 270.348C663.377 274.277 665.341 277.569 669.271 280.226C673.255 282.882 679.093 285.372 686.785 287.696C700.952 291.957 711.272 297.242 717.747 303.551C724.222 309.859 727.459 317.717 727.459 327.125C727.459 337.584 723.502 345.802 715.589 351.778C707.675 357.7 697.023 360.66 683.631 360.66C674.334 360.66 665.867 358.972 658.23 355.597C650.594 352.166 644.756 347.49 640.716 341.568C636.731 335.647 634.739 328.785 634.739 320.982H659.725C659.725 334.319 667.693 340.987 683.631 340.987C689.552 340.987 694.173 339.798 697.493 337.418C700.813 334.983 702.474 331.607 702.474 327.291Z" fill="white"/>
<defs>
<linearGradient id="paint0_linear" x1="685.5" y1="75" x2="709" y2="185.5" gradientUnits="userSpaceOnUse">
<stop stop-color="#D54B4B"/>
<stop offset="1" stop-color="#7D1A1A"/>
</linearGradient>
<linearGradient id="paint1_linear" x1="723.5" y1="320.5" x2="718.5" y2="534.5" gradientUnits="userSpaceOnUse">
<stop stop-color="#FFD600"/>
<stop offset="1" stop-color="#FF5757"/>
</linearGradient>
<linearGradient id="paint2_linear" x1="562.154" y1="91.3599" x2="590.443" y2="208.53" gradientUnits="userSpaceOnUse">
<stop stop-color="#ED3E7A"/>
<stop offset="1" stop-color="#E94969"/>
</linearGradient>
<linearGradient id="paint3_linear" x1="338" y1="18" x2="457" y2="163" gradientUnits="userSpaceOnUse">
<stop stop-color="#4F6CFF"/>
<stop offset="1" stop-color="#4C5FBC"/>
</linearGradient>
<linearGradient id="paint4_linear" x1="797.493" y1="111.329" x2="780.107" y2="332.36" gradientUnits="userSpaceOnUse">
<stop stop-color="#C749E7"/>
<stop offset="1" stop-color="#D8436F"/>
</linearGradient>
<linearGradient id="paint5_linear" x1="355.522" y1="274.774" x2="283" y2="509" gradientUnits="userSpaceOnUse">
<stop stop-color="#7F1BFF"/>
<stop offset="1" stop-color="#C19BFF"/>
</linearGradient>
<linearGradient id="paint6_linear" x1="718" y1="357" x2="442" y2="527" gradientUnits="userSpaceOnUse">
<stop stop-color="#5EF5FF"/>
<stop offset="0.9999" stop-color="#1758FF"/>
</linearGradient>
<linearGradient id="paint7_linear" x1="693" y1="189.5" x2="324.04" y2="360.3" gradientUnits="userSpaceOnUse">
<stop stop-color="#EA5627"/>
<stop offset="1" stop-color="#FF9D42"/>
</linearGradient>
</defs>
</svg>
