<svg width="939" height="633" viewBox="0 0 939 633" fill="none" xmlns="http://www.w3.org/2000/svg">
<path d="M79.0234 317.098H35.3613L27.0605 342H0.581055L45.5713 221.141H68.6475L113.887 342H87.4072L79.0234 317.098ZM42.085 296.927H72.2998L57.1094 251.688L42.085 296.927ZM149.759 252.186L150.506 262.229C156.87 254.427 165.476 250.525 176.322 250.525C187.888 250.525 195.829 255.091 200.145 264.222C206.454 255.091 215.446 250.525 227.123 250.525C236.862 250.525 244.112 253.375 248.871 259.075C253.63 264.72 256.009 273.242 256.009 284.642V342H231.937V284.725C231.937 279.633 230.941 275.926 228.949 273.602C226.957 271.222 223.443 270.032 218.407 270.032C211.213 270.032 206.232 273.463 203.465 280.325L203.548 342H179.559V284.808C179.559 279.606 178.535 275.843 176.488 273.519C174.44 271.194 170.954 270.032 166.029 270.032C159.222 270.032 154.297 272.854 151.254 278.499V342H127.264V252.186H149.759ZM323.508 343.66C310.337 343.66 299.602 339.62 291.301 331.541C283.056 323.462 278.933 312.698 278.933 299.251V296.927C278.933 287.907 280.676 279.855 284.162 272.771C287.649 265.633 292.574 260.154 298.938 256.336C305.357 252.462 312.662 250.525 320.852 250.525C333.137 250.525 342.793 254.399 349.821 262.146C356.905 269.894 360.446 280.879 360.446 295.101V304.896H303.254C304.029 310.761 306.353 315.465 310.227 319.007C314.156 322.549 319.109 324.319 325.085 324.319C334.327 324.319 341.548 320.971 346.75 314.275L358.537 327.474C354.94 332.565 350.07 336.549 343.928 339.427C337.785 342.249 330.979 343.66 323.508 343.66ZM320.769 269.949C316.01 269.949 312.136 271.554 309.148 274.764C306.215 277.973 304.333 282.566 303.503 288.543H336.872V286.634C336.762 281.321 335.323 277.226 332.556 274.349C329.789 271.416 325.86 269.949 320.769 269.949ZM407.11 342H383.038V214.5H407.11V342ZM459.916 342H435.844V214.5H459.916V342ZM539.451 342C538.344 339.842 537.542 337.158 537.044 333.948C531.233 340.423 523.68 343.66 514.383 343.66C505.584 343.66 498.279 341.115 492.469 336.023C486.714 330.932 483.836 324.513 483.836 316.766C483.836 307.247 487.35 299.943 494.378 294.852C501.461 289.76 511.671 287.187 525.008 287.132H536.048V281.985C536.048 277.835 534.969 274.515 532.811 272.024C530.708 269.534 527.36 268.289 522.767 268.289C518.727 268.289 515.545 269.257 513.221 271.194C510.952 273.131 509.817 275.787 509.817 279.163H485.828C485.828 273.961 487.433 269.147 490.643 264.72C493.852 260.293 498.39 256.834 504.256 254.344C510.122 251.798 516.707 250.525 524.012 250.525C535.079 250.525 543.851 253.32 550.325 258.909C556.855 264.443 560.12 272.246 560.12 282.317V321.248C560.175 329.77 561.365 336.217 563.689 340.589V342H539.451ZM519.612 325.315C523.154 325.315 526.419 324.541 529.407 322.991C532.396 321.386 534.609 319.256 536.048 316.6V301.16H527.083C515.075 301.16 508.683 305.311 507.908 313.611L507.825 315.022C507.825 318.011 508.877 320.473 510.979 322.41C513.082 324.347 515.96 325.315 519.612 325.315ZM700.43 310.291C700.43 305.587 698.77 301.99 695.449 299.5C692.129 296.954 686.153 294.298 677.52 291.531C668.887 288.709 662.053 285.942 657.017 283.23C643.293 275.815 636.431 265.826 636.431 253.265C636.431 246.735 638.257 240.924 641.909 235.833C645.617 230.687 650.902 226.674 657.764 223.797C664.681 220.919 672.429 219.48 681.006 219.48C689.639 219.48 697.331 221.058 704.082 224.212C710.834 227.311 716.063 231.71 719.771 237.41C723.534 243.11 725.415 249.585 725.415 256.834H700.513C700.513 251.3 698.77 247.011 695.283 243.968C691.797 240.869 686.9 239.319 680.591 239.319C674.504 239.319 669.772 240.62 666.397 243.221C663.021 245.766 661.333 249.142 661.333 253.348C661.333 257.277 663.298 260.569 667.227 263.226C671.211 265.882 677.049 268.372 684.741 270.696C698.908 274.957 709.229 280.242 715.703 286.551C722.178 292.859 725.415 300.717 725.415 310.125C725.415 320.584 721.459 328.802 713.545 334.778C705.632 340.7 694.979 343.66 681.587 343.66C672.29 343.66 663.823 341.972 656.187 338.597C648.55 335.166 642.712 330.49 638.672 324.568C634.688 318.647 632.695 311.785 632.695 303.982H657.681C657.681 317.319 665.65 323.987 681.587 323.987C687.508 323.987 692.129 322.798 695.449 320.418C698.77 317.983 700.43 314.607 700.43 310.291ZM802.211 332.869C796.29 340.063 788.099 343.66 777.64 343.66C768.012 343.66 760.652 340.893 755.56 335.359C750.525 329.826 747.951 321.718 747.841 311.038V252.186H771.83V310.208C771.83 319.56 776.091 324.236 784.613 324.236C792.748 324.236 798.337 321.414 801.381 315.77V252.186H825.453V342H802.875L802.211 332.869ZM873.279 252.186L874.026 262.562C880.445 254.537 889.05 250.525 899.841 250.525C909.359 250.525 916.443 253.32 921.091 258.909C925.74 264.498 928.119 272.854 928.23 283.978V342H904.241V284.559C904.241 279.467 903.134 275.787 900.92 273.519C898.707 271.194 895.027 270.032 889.88 270.032C883.129 270.032 878.065 272.91 874.69 278.665V342H850.701V252.186H873.279Z" fill="#1B1B1B"/>
<path fill-rule="evenodd" clip-rule="evenodd" d="M250.364 5.30504C250.364 7.94935 248.231 10.093 245.601 10.093C242.97 10.093 240.838 7.94935 240.838 5.30504C240.838 2.66073 242.97 0.51709 245.601 0.51709C248.231 0.51709 250.364 2.66073 250.364 5.30504ZM219.22 10.0931C221.851 10.0931 223.983 7.94942 223.983 5.3051C223.983 2.66079 221.851 0.517154 219.22 0.517154C216.59 0.517154 214.457 2.66079 214.457 5.3051C214.457 7.94942 216.59 10.0931 219.22 10.0931ZM219.22 36.6108C221.851 36.6108 223.983 34.4672 223.983 31.8229C223.983 29.1786 221.851 27.0349 219.22 27.0349C216.59 27.0349 214.457 29.1786 214.457 31.8229C214.457 34.4672 216.59 36.6108 219.22 36.6108ZM223.983 57.6041C223.983 60.2485 221.851 62.3921 219.22 62.3921C216.59 62.3921 214.457 60.2485 214.457 57.6041C214.457 54.9598 216.59 52.8162 219.22 52.8162C221.851 52.8162 223.983 54.9598 223.983 57.6041ZM219.22 88.91C221.851 88.91 223.983 86.7663 223.983 84.122C223.983 81.4777 221.851 79.3341 219.22 79.3341C216.59 79.3341 214.457 81.4777 214.457 84.122C214.457 86.7663 216.59 88.91 219.22 88.91ZM223.983 110.64C223.983 113.284 221.851 115.428 219.22 115.428C216.59 115.428 214.457 113.284 214.457 110.64C214.457 107.996 216.59 105.852 219.22 105.852C221.851 105.852 223.983 107.996 223.983 110.64ZM219.22 141.946C221.851 141.946 223.983 139.802 223.983 137.158C223.983 134.513 221.851 132.37 219.22 132.37C216.59 132.37 214.457 134.513 214.457 137.158C214.457 139.802 216.59 141.946 219.22 141.946ZM245.601 36.6108C248.231 36.6108 250.364 34.4672 250.364 31.8229C250.364 29.1786 248.231 27.0349 245.601 27.0349C242.97 27.0349 240.838 29.1786 240.838 31.8229C240.838 34.4672 242.97 36.6108 245.601 36.6108ZM250.364 57.6041C250.364 60.2485 248.231 62.3921 245.601 62.3921C242.97 62.3921 240.838 60.2485 240.838 57.6041C240.838 54.9598 242.97 52.8162 245.601 52.8162C248.231 52.8162 250.364 54.9598 250.364 57.6041ZM245.601 88.91C248.231 88.91 250.364 86.7663 250.364 84.122C250.364 81.4777 248.231 79.3341 245.601 79.3341C242.97 79.3341 240.838 81.4777 240.838 84.122C240.838 86.7663 242.97 88.91 245.601 88.91ZM250.364 110.64C250.364 113.284 248.231 115.428 245.601 115.428C242.97 115.428 240.838 113.284 240.838 110.64C240.838 107.996 242.97 105.852 245.601 105.852C248.231 105.852 250.364 107.996 250.364 110.64ZM245.601 141.946C248.231 141.946 250.364 139.802 250.364 137.158C250.364 134.513 248.231 132.37 245.601 132.37C242.97 132.37 240.838 134.513 240.838 137.158C240.838 139.802 242.97 141.946 245.601 141.946ZM276.744 5.30504C276.744 7.94935 274.612 10.093 271.981 10.093C269.35 10.093 267.218 7.94935 267.218 5.30504C267.218 2.66073 269.35 0.51709 271.981 0.51709C274.612 0.51709 276.744 2.66073 276.744 5.30504ZM271.981 36.6108C274.612 36.6108 276.744 34.4672 276.744 31.8229C276.744 29.1786 274.612 27.0349 271.981 27.0349C269.35 27.0349 267.218 29.1786 267.218 31.8229C267.218 34.4672 269.35 36.6108 271.981 36.6108ZM276.744 57.6041C276.744 60.2485 274.612 62.3921 271.981 62.3921C269.35 62.3921 267.218 60.2485 267.218 57.6041C267.218 54.9598 269.35 52.8162 271.981 52.8162C274.612 52.8162 276.744 54.9598 276.744 57.6041ZM271.981 88.91C274.612 88.91 276.744 86.7663 276.744 84.122C276.744 81.4777 274.612 79.3341 271.981 79.3341C269.35 79.3341 267.218 81.4777 267.218 84.122C267.218 86.7663 269.35 88.91 271.981 88.91ZM276.744 110.64C276.744 113.284 274.612 115.428 271.981 115.428C269.35 115.428 267.218 113.284 267.218 110.64C267.218 107.996 269.35 105.852 271.981 105.852C274.612 105.852 276.744 107.996 276.744 110.64ZM271.981 141.946C274.612 141.946 276.744 139.802 276.744 137.158C276.744 134.513 274.612 132.37 271.981 132.37C269.35 132.37 267.218 134.513 267.218 137.158C267.218 139.802 269.35 141.946 271.981 141.946ZM328.773 5.30504C328.773 7.94935 326.64 10.093 324.009 10.093C321.379 10.093 319.246 7.94935 319.246 5.30504C319.246 2.66073 321.379 0.51709 324.009 0.51709C326.64 0.51709 328.773 2.66073 328.773 5.30504ZM324.009 36.6108C326.64 36.6108 328.773 34.4672 328.773 31.8229C328.773 29.1786 326.64 27.0349 324.009 27.0349C321.379 27.0349 319.246 29.1786 319.246 31.8229C319.246 34.4672 321.379 36.6108 324.009 36.6108ZM328.773 57.6041C328.773 60.2485 326.64 62.3921 324.009 62.3921C321.379 62.3921 319.246 60.2485 319.246 57.6041C319.246 54.9598 321.379 52.8162 324.009 52.8162C326.64 52.8162 328.773 54.9598 328.773 57.6041ZM324.009 88.91C326.64 88.91 328.773 86.7663 328.773 84.122C328.773 81.4777 326.64 79.3341 324.009 79.3341C321.379 79.3341 319.246 81.4777 319.246 84.122C319.246 86.7663 321.379 88.91 324.009 88.91ZM328.773 110.64C328.773 113.284 326.64 115.428 324.009 115.428C321.379 115.428 319.246 113.284 319.246 110.64C319.246 107.996 321.379 105.852 324.009 105.852C326.64 105.852 328.773 107.996 328.773 110.64ZM324.009 141.946C326.64 141.946 328.773 139.802 328.773 137.158C328.773 134.513 326.64 132.37 324.009 132.37C321.379 132.37 319.246 134.513 319.246 137.158C319.246 139.802 321.379 141.946 324.009 141.946ZM302.392 5.30504C302.392 7.94935 300.259 10.093 297.629 10.093C294.998 10.093 292.866 7.94935 292.866 5.30504C292.866 2.66073 294.998 0.51709 297.629 0.51709C300.259 0.51709 302.392 2.66073 302.392 5.30504ZM297.629 36.6108C300.259 36.6108 302.392 34.4672 302.392 31.8229C302.392 29.1786 300.259 27.0349 297.629 27.0349C294.998 27.0349 292.866 29.1786 292.866 31.8229C292.866 34.4672 294.998 36.6108 297.629 36.6108ZM302.392 57.6041C302.392 60.2485 300.259 62.3921 297.629 62.3921C294.998 62.3921 292.866 60.2485 292.866 57.6041C292.866 54.9598 294.998 52.8162 297.629 52.8162C300.259 52.8162 302.392 54.9598 302.392 57.6041ZM297.629 88.91C300.259 88.91 302.392 86.7663 302.392 84.122C302.392 81.4777 300.259 79.3341 297.629 79.3341C294.998 79.3341 292.866 81.4777 292.866 84.122C292.866 86.7663 294.998 88.91 297.629 88.91ZM302.392 110.64C302.392 113.284 300.259 115.428 297.629 115.428C294.998 115.428 292.866 113.284 292.866 110.64C292.866 107.996 294.998 105.852 297.629 105.852C300.259 105.852 302.392 107.996 302.392 110.64ZM297.629 141.946C300.259 141.946 302.392 139.802 302.392 137.158C302.392 134.513 300.259 132.37 297.629 132.37C294.998 132.37 292.866 134.513 292.866 137.158C292.866 139.802 294.998 141.946 297.629 141.946ZM354.42 5.30504C354.42 7.94935 352.287 10.093 349.657 10.093C347.026 10.093 344.894 7.94935 344.894 5.30504C344.894 2.66073 347.026 0.51709 349.657 0.51709C352.287 0.51709 354.42 2.66073 354.42 5.30504ZM349.657 36.6108C352.287 36.6108 354.42 34.4672 354.42 31.8229C354.42 29.1786 352.287 27.0349 349.657 27.0349C347.026 27.0349 344.894 29.1786 344.894 31.8229C344.894 34.4672 347.026 36.6108 349.657 36.6108ZM354.42 57.6041C354.42 60.2485 352.287 62.3921 349.657 62.3921C347.026 62.3921 344.894 60.2485 344.894 57.6041C344.894 54.9598 347.026 52.8162 349.657 52.8162C352.287 52.8162 354.42 54.9598 354.42 57.6041ZM349.657 88.91C352.287 88.91 354.42 86.7663 354.42 84.122C354.42 81.4777 352.287 79.3341 349.657 79.3341C347.026 79.3341 344.894 81.4777 344.894 84.122C344.894 86.7663 347.026 88.91 349.657 88.91ZM354.42 110.64C354.42 113.284 352.287 115.428 349.657 115.428C347.026 115.428 344.894 113.284 344.894 110.64C344.894 107.996 347.026 105.852 349.657 105.852C352.287 105.852 354.42 107.996 354.42 110.64ZM349.657 141.946C352.287 141.946 354.42 139.802 354.42 137.158C354.42 134.513 352.287 132.37 349.657 132.37C347.026 132.37 344.894 134.513 344.894 137.158C344.894 139.802 347.026 141.946 349.657 141.946Z" fill="#B4C0D5"/>
<g filter="url(#filter0_d)">
<mask id="mask0" mask-type="alpha" maskUnits="userSpaceOnUse" x="289" y="70" width="427" height="428">
<rect x="289.367" y="70.8787" width="426.565" height="426.565" rx="10" fill="#C4C4C4"/>
</mask>
<g mask="url(#mask0)">
<circle cx="346.191" cy="135.28" r="199.266" fill="#DA5252"/>
<circle cx="532.577" cy="70.8787" r="96.981" fill="#A8B4FF"/>
<circle cx="724.645" cy="170.511" r="162.519" fill="url(#paint0_linear)"/>
<circle cx="631.452" cy="351.593" r="211.767" fill="url(#paint1_linear)"/>
<circle cx="346.191" cy="483.048" r="199.266" fill="#A72B8C"/>
</g>
</g>
<mask id="mask1" mask-type="alpha" maskUnits="userSpaceOnUse" x="241" y="23" width="524" height="523">
<rect x="352.038" y="23.1458" width="426.565" height="426.565" rx="15" transform="rotate(15 352.038 23.1458)" fill="#C4C4C4"/>
</mask>
<g mask="url(#mask1)">
<rect x="352.038" y="23.1458" width="426.565" height="426.565" rx="15" transform="rotate(15 352.038 23.1458)" fill="#D0E6FF"/>
<circle cx="581.587" cy="106.148" r="117.744" transform="rotate(15 581.587 106.148)" fill="url(#paint2_linear)"/>
<path d="M512.566 52.7581C511.878 55.5775 511.984 58.6232 512.772 61.4166C544.714 174.641 368.59 237.941 263.619 209.814C157.317 181.331 94.2334 72.0661 122.717 -34.2354C151.2 -140.537 260.465 -203.621 366.766 -175.138C471.623 -147.041 538.115 -51.8496 512.566 52.7581Z" fill="url(#paint3_linear)"/>
<circle cx="782.385" cy="159.304" r="162.519" transform="rotate(15 782.385 159.304)" fill="url(#paint4_linear)"/>
<path d="M504.28 500.326C501.694 502.549 499.643 505.455 498.675 508.725C468.119 611.943 360.655 672.568 256.059 644.542C149.758 616.058 86.6738 506.793 115.157 400.492C143.641 294.19 252.905 231.106 359.207 259.59C463.519 287.54 573.722 440.604 504.28 500.326Z" fill="url(#paint5_linear)"/>
<path d="M907.486 657.113C869.403 799.239 723.316 883.582 581.19 845.5C439.824 807.621 385.795 679.564 422.697 538.337C423.089 536.837 423.72 535.428 424.517 534.098C456.807 480.177 445.133 349.497 716.558 330.987C718.192 330.876 719.918 331.034 721.497 331.472C862.171 370.547 945.354 515.789 907.486 657.113Z" fill="url(#paint6_linear)"/>
<path d="M673.882 289.465C667.379 313.733 612.741 317.143 568.971 336.175C534.869 351.003 463.187 409.636 431.786 401.703C371.31 386.425 369.301 350.02 335.585 340.986C257.545 320.076 319.674 229.381 364.377 220.897C547.286 199.932 486 143.504 574.157 141.003C673.882 138.174 686.756 241.417 673.882 289.465Z" fill="url(#paint7_linear)"/>
</g>
<path d="M330.949 340.568C318.531 340.568 308.409 336.759 300.582 329.142C292.808 321.524 288.921 311.375 288.921 298.697V296.505C288.921 288 290.564 280.409 293.852 273.73C297.139 267 301.782 261.834 307.783 258.234C313.835 254.582 320.722 252.755 328.444 252.755C340.028 252.755 349.132 256.408 355.759 263.712C362.437 271.017 365.777 281.374 365.777 294.783V304.019H311.852C312.583 309.549 314.774 313.984 318.427 317.324C322.131 320.663 326.801 322.333 332.436 322.333C341.149 322.333 347.958 319.176 352.863 312.863L363.977 325.307C360.585 330.107 355.994 333.863 350.202 336.577C344.41 339.238 337.993 340.568 330.949 340.568ZM328.366 271.069C323.879 271.069 320.227 272.582 317.409 275.609C314.644 278.635 312.87 282.965 312.087 288.601H343.55V286.8C343.445 281.792 342.089 277.93 339.48 275.217C336.871 272.452 333.166 271.069 328.366 271.069Z" fill="white"/>
<path d="M409.774 339.003H387.077V218.789H409.774V339.003Z" fill="white"/>
<path d="M459.563 339.003H436.866V218.789H459.563V339.003Z" fill="white"/>
<path d="M534.553 339.003C533.509 336.968 532.752 334.437 532.283 331.411C526.804 337.516 519.682 340.568 510.917 340.568C502.621 340.568 495.733 338.168 490.255 333.368C484.828 328.568 482.115 322.515 482.115 315.21C482.115 306.236 485.428 299.349 492.055 294.549C498.733 289.748 508.36 287.322 520.934 287.27H531.344V282.418C531.344 278.504 530.326 275.374 528.291 273.026C526.309 270.678 523.152 269.504 518.821 269.504C515.012 269.504 512.012 270.417 509.821 272.243C507.682 274.069 506.612 276.574 506.612 279.757H483.994C483.994 274.852 485.507 270.313 488.533 266.139C491.559 261.964 495.838 258.703 501.368 256.356C506.899 253.955 513.108 252.755 519.995 252.755C530.431 252.755 538.701 255.39 544.805 260.66C550.962 265.878 554.04 273.235 554.04 282.731V319.437C554.093 327.472 555.214 333.55 557.406 337.672V339.003H534.553ZM515.847 323.272C519.187 323.272 522.265 322.541 525.082 321.08C527.9 319.567 529.987 317.558 531.344 315.054V300.497H522.891C511.569 300.497 505.542 304.41 504.812 312.236L504.734 313.567C504.734 316.384 505.725 318.706 507.708 320.532C509.69 322.359 512.404 323.272 515.847 323.272Z" fill="white"/>
<path d="M686.332 309.106C686.332 304.671 684.767 301.279 681.637 298.931C678.506 296.531 672.871 294.027 664.731 291.418C656.592 288.757 650.148 286.148 645.4 283.592C632.46 276.6 625.99 267.182 625.99 255.338C625.99 249.181 627.712 243.703 631.156 238.903C634.652 234.05 639.635 230.267 646.104 227.554C652.627 224.841 659.931 223.484 668.019 223.484C676.158 223.484 683.411 224.971 689.776 227.946C696.142 230.867 701.072 235.015 704.568 240.39C708.116 245.764 709.89 251.868 709.89 258.703H686.411C686.411 253.486 684.767 249.442 681.48 246.572C678.193 243.651 673.575 242.19 667.627 242.19C661.888 242.19 657.427 243.416 654.244 245.868C651.061 248.268 649.47 251.451 649.47 255.416C649.47 259.121 651.322 262.225 655.027 264.73C658.783 267.234 664.288 269.582 671.54 271.774C684.898 275.791 694.628 280.774 700.733 286.722C706.838 292.67 709.89 300.079 709.89 308.949C709.89 318.811 706.159 326.559 698.698 332.194C691.237 337.777 681.193 340.568 668.566 340.568C659.801 340.568 651.818 338.977 644.617 335.794C637.417 332.559 631.913 328.15 628.104 322.567C624.347 316.984 622.469 310.515 622.469 303.158H646.026C646.026 315.732 653.54 322.019 668.566 322.019C674.149 322.019 678.506 320.898 681.637 318.654C684.767 316.358 686.332 313.176 686.332 309.106Z" fill="white"/>
<defs>
<filter id="filter0_d" x="166.367" y="70.8787" width="549.565" height="561.565" filterUnits="userSpaceOnUse" color-interpolation-filters="sRGB">
<feFlood flood-opacity="0" result="BackgroundImageFix"/>
<feColorMatrix in="SourceAlpha" type="matrix" values="0 0 0 0 0 0 0 0 0 0 0 0 0 0 0 0 0 0 127 0"/>
<feOffset dx="-83" dy="95"/>
<feGaussianBlur stdDeviation="20"/>
<feColorMatrix type="matrix" values="0 0 0 0 0 0 0 0 0 0 0 0 0 0 0 0 0 0 0.15 0"/>
<feBlend mode="normal" in2="BackgroundImageFix" result="effect1_dropShadow"/>
<feBlend mode="normal" in="SourceGraphic" in2="effect1_dropShadow" result="shape"/>
</filter>
<linearGradient id="paint0_linear" x1="670.329" y1="71.2315" x2="692.486" y2="175.417" gradientUnits="userSpaceOnUse">
<stop stop-color="#D54B4B"/>
<stop offset="1" stop-color="#7D1A1A"/>
</linearGradient>
<linearGradient id="paint1_linear" x1="706.157" y1="302.703" x2="701.443" y2="504.474" gradientUnits="userSpaceOnUse">
<stop stop-color="#FFD600"/>
<stop offset="1" stop-color="#FF5757"/>
</linearGradient>
<linearGradient id="paint2_linear" x1="554.031" y1="86.6567" x2="580.704" y2="197.132" gradientUnits="userSpaceOnUse">
<stop stop-color="#ED3E7A"/>
<stop offset="1" stop-color="#E94969"/>
</linearGradient>
<linearGradient id="paint3_linear" x1="342.686" y1="17.4887" x2="454.886" y2="154.203" gradientUnits="userSpaceOnUse">
<stop stop-color="#4F6CFF"/>
<stop offset="1" stop-color="#4C5FBC"/>
</linearGradient>
<linearGradient id="paint4_linear" x1="775.922" y1="105.485" x2="759.53" y2="313.885" gradientUnits="userSpaceOnUse">
<stop stop-color="#C749E7"/>
<stop offset="1" stop-color="#D8436F"/>
</linearGradient>
<linearGradient id="paint5_linear" x1="359.207" y1="259.59" x2="290.829" y2="480.432" gradientUnits="userSpaceOnUse">
<stop stop-color="#7F1BFF"/>
<stop offset="1" stop-color="#C19BFF"/>
</linearGradient>
<linearGradient id="paint6_linear" x1="700.971" y1="337.117" x2="440.743" y2="497.403" gradientUnits="userSpaceOnUse">
<stop stop-color="#5EF5FF"/>
<stop offset="0.9999" stop-color="#1758FF"/>
</linearGradient>
<linearGradient id="paint7_linear" x1="677.4" y1="179.189" x2="329.523" y2="340.229" gradientUnits="userSpaceOnUse">
<stop stop-color="#EA5627"/>
<stop offset="1" stop-color="#FF9D42"/>
</linearGradient>
</defs>
</svg>
