<svg width="1015" height="708" viewBox="0 0 1015 708" fill="none" xmlns="http://www.w3.org/2000/svg">
<rect x="299.385" y="93.366" width="508" height="508" rx="35" fill="#DFECFC" stroke="#DFECFC" stroke-width="10"/>
<path d="M83.0566 380.633H36.8262L28.0371 407H0L47.6367 279.031H72.0703L119.971 407H91.9336L83.0566 380.633ZM43.9453 359.275H75.9375L59.8535 311.375L43.9453 359.275Z" fill="url(#paint0_linear)"/>
<path d="M161.554 311.902L162.345 322.537C169.083 314.275 178.194 310.145 189.679 310.145C201.925 310.145 210.333 314.979 214.903 324.646C221.583 314.979 231.104 310.145 243.468 310.145C253.78 310.145 261.456 313.162 266.495 319.197C271.534 325.174 274.054 334.197 274.054 346.268V407H248.565V346.355C248.565 340.965 247.511 337.039 245.401 334.578C243.292 332.059 239.571 330.799 234.239 330.799C226.622 330.799 221.348 334.432 218.419 341.697L218.507 407H193.106V346.443C193.106 340.936 192.022 336.951 189.854 334.49C187.686 332.029 183.995 330.799 178.78 330.799C171.573 330.799 166.358 333.787 163.136 339.764V407H137.735V311.902H161.554Z" fill="url(#paint1_linear)"/>
<path d="M349.123 408.758C335.177 408.758 323.81 404.48 315.021 395.926C306.291 387.371 301.925 375.975 301.925 361.736V359.275C301.925 349.725 303.771 341.199 307.462 333.699C311.154 326.141 316.369 320.34 323.107 316.297C329.904 312.195 337.638 310.145 346.31 310.145C359.318 310.145 369.543 314.246 376.984 322.449C384.484 330.652 388.234 342.283 388.234 357.342V367.713H327.677C328.498 373.924 330.959 378.904 335.06 382.654C339.22 386.404 344.464 388.279 350.793 388.279C360.578 388.279 368.224 384.734 373.732 377.645L386.212 391.619C382.404 397.01 377.248 401.229 370.744 404.275C364.24 407.264 357.033 408.758 349.123 408.758ZM346.222 330.711C341.183 330.711 337.082 332.41 333.918 335.809C330.812 339.207 328.82 344.07 327.941 350.398H363.273V348.377C363.156 342.752 361.632 338.416 358.703 335.369C355.773 332.264 351.613 330.711 346.222 330.711Z" fill="url(#paint2_linear)"/>
<path d="M441.243 407H415.754V272H441.243V407Z" fill="url(#paint3_linear)"/>
<path d="M500.755 407H475.267V272H500.755V407Z" fill="url(#paint4_linear)"/>
<path d="M588.568 407C587.396 404.715 586.547 401.873 586.02 398.475C579.867 405.33 571.869 408.758 562.025 408.758C552.709 408.758 544.975 406.062 538.822 400.672C532.729 395.281 529.682 388.484 529.682 380.281C529.682 370.203 533.402 362.469 540.844 357.078C548.344 351.688 559.154 348.963 573.275 348.904H584.965V343.455C584.965 339.061 583.822 335.545 581.537 332.908C579.311 330.271 575.766 328.953 570.902 328.953C566.625 328.953 563.256 329.979 560.795 332.029C558.393 334.08 557.191 336.893 557.191 340.467H531.791C531.791 334.959 533.49 329.861 536.889 325.174C540.287 320.486 545.092 316.824 551.303 314.188C557.514 311.492 564.486 310.145 572.221 310.145C583.939 310.145 593.227 313.104 600.082 319.021C606.996 324.881 610.453 333.143 610.453 343.807V385.027C610.512 394.051 611.771 400.877 614.232 405.506V407H588.568ZM567.562 389.334C571.312 389.334 574.77 388.514 577.934 386.873C581.098 385.174 583.441 382.918 584.965 380.105V363.758H575.473C562.758 363.758 555.99 368.152 555.17 376.941L555.082 378.436C555.082 381.6 556.195 384.207 558.422 386.258C560.648 388.309 563.695 389.334 567.562 389.334Z" fill="url(#paint5_linear)"/>
<path d="M766.216 373.426C766.216 368.445 764.459 364.637 760.943 362C757.427 359.305 751.099 356.492 741.959 353.562C732.818 350.574 725.582 347.645 720.25 344.773C705.718 336.922 698.453 326.346 698.453 313.045C698.453 306.131 700.386 299.979 704.254 294.588C708.179 289.139 713.775 284.891 721.041 281.844C728.365 278.797 736.568 277.273 745.65 277.273C754.791 277.273 762.935 278.943 770.084 282.283C777.232 285.564 782.769 290.223 786.695 296.258C790.679 302.293 792.672 309.148 792.672 316.824H766.304C766.304 310.965 764.459 306.424 760.767 303.201C757.076 299.92 751.89 298.279 745.211 298.279C738.765 298.279 733.755 299.656 730.181 302.41C726.607 305.105 724.82 308.68 724.82 313.133C724.82 317.293 726.9 320.779 731.06 323.592C735.279 326.404 741.461 329.041 749.605 331.502C764.605 336.014 775.533 341.609 782.388 348.289C789.244 354.969 792.672 363.289 792.672 373.25C792.672 384.324 788.482 393.025 780.103 399.354C771.724 405.623 760.445 408.758 746.265 408.758C736.422 408.758 727.457 406.971 719.371 403.396C711.285 399.764 705.103 394.812 700.826 388.543C696.607 382.273 694.498 375.008 694.498 366.746H720.953C720.953 380.867 729.39 387.928 746.265 387.928C752.535 387.928 757.427 386.668 760.943 384.148C764.459 381.57 766.216 377.996 766.216 373.426Z" fill="url(#paint6_linear)"/>
<path d="M877.584 397.332C871.315 404.949 862.643 408.758 851.569 408.758C841.373 408.758 833.58 405.828 828.19 399.969C822.858 394.109 820.133 385.525 820.016 374.217V311.902H845.416V373.338C845.416 383.24 849.928 388.191 858.952 388.191C867.565 388.191 873.483 385.203 876.705 379.227V311.902H902.194V407H878.287L877.584 397.332Z" fill="url(#paint7_linear)"/>
<path d="M956.433 311.902L957.224 322.889C964.021 314.393 973.132 310.145 984.558 310.145C994.636 310.145 1002.14 313.104 1007.06 319.021C1011.98 324.939 1014.5 333.787 1014.62 345.564V407H989.216V346.18C989.216 340.789 988.044 336.893 985.7 334.49C983.357 332.029 979.46 330.799 974.011 330.799C966.862 330.799 961.501 333.846 957.927 339.939V407H932.527V311.902H956.433Z" fill="url(#paint8_linear)"/>
<mask id="mask0" mask-type="alpha" maskUnits="userSpaceOnUse" x="283" y="81" width="500" height="500">
<rect x="284" y="81.9998" width="498.341" height="498.341" rx="40" fill="#C4C4C4"/>
</mask>
<g mask="url(#mask0)">
<rect x="284" y="81.9998" width="498.341" height="498.341" rx="40" fill="#D0E6FF"/>
<circle cx="568.133" cy="106.256" r="137.556" fill="url(#paint9_linear)"/>
<circle cx="810.798" cy="105.525" r="189.865" fill="url(#paint10_linear)"/>
<path d="M604.179 567.716C599.867 575.722 596.501 584.418 595.96 593.495C588.695 715.522 487.434 812.239 363.582 812.239C235.013 812.239 130.788 708.013 130.788 579.444C130.788 450.875 235.013 346.649 363.583 346.649C486.589 346.649 651.876 479.165 604.179 567.716Z" fill="url(#paint11_linear)"/>
<path d="M1102.49 629.454C1102.49 801.352 963.14 940.702 791.242 940.702C621.441 940.702 521.951 814.292 519.55 645.524C519.491 641.389 520.201 637.276 521.189 633.261C538.767 561.801 492.87 421.634 784.845 320.4C788.972 318.969 793.494 318.184 797.861 318.275C966.703 321.798 1102.49 459.769 1102.49 629.454Z" fill="url(#paint12_linear)"/>
<path d="M969.99 522.451C970.384 530.181 972.709 537.707 976.313 544.556C1037.54 660.924 861.692 781.59 736.795 781.59C608.226 781.59 504 677.364 504 548.795C504 420.226 608.226 316 736.795 316C861.374 316 963.755 400.255 969.99 522.451Z" fill="url(#paint13_linear)"/>
<g filter="url(#filter0_d)">
<path d="M727.713 285.214C727.713 314.566 667.087 334.934 623.45 369.645C589.451 396.69 526.289 484.529 488.455 485.072C415.592 486.117 402.317 445.644 361.538 445.644C267.151 445.644 309.838 324.513 357.717 301.422C557.783 222.458 471.563 177.312 570.288 147.835C681.967 114.489 727.713 227.101 727.713 285.214Z" fill="url(#paint14_linear)"/>
</g>
<path d="M14.3639 60.749C20.4327 54.0969 25.867 46.6382 28.7296 38.1009C65.2025 -70.6722 179.342 -133.938 290.198 -104.234C405.507 -73.3372 473.598 46.4459 442.284 163.309C410.971 280.172 292.111 349.862 176.803 318.965C66.771 289.482 -48.8769 130.068 14.3639 60.749Z" fill="url(#paint15_linear)"/>
</g>
<g filter="url(#filter1_d)">
<mask id="mask1" mask-type="alpha" maskUnits="userSpaceOnUse" x="239" y="32" width="630" height="630">
<rect x="394.986" y="32" width="498.341" height="498.341" rx="40" transform="rotate(18.2407 394.986 32)" fill="#C4C4C4"/>
</mask>
<g mask="url(#mask1)">
<rect x="394.986" y="32" width="498.341" height="498.341" rx="40" transform="rotate(18.2407 394.986 32)" fill="#D0E6FF"/>
<circle cx="657.249" cy="143.974" r="137.556" transform="rotate(18.2407 657.249 143.974)" fill="url(#paint16_linear)"/>
<path d="M530.142 573.135C523.54 579.389 517.621 586.594 514.267 595.046C469.171 708.667 342.725 768.828 225.097 730.061C102.988 689.818 36.6238 558.205 76.8672 436.097C117.111 313.988 248.723 247.624 370.831 287.867C487.656 326.369 603.16 503.963 530.142 573.135Z" fill="url(#paint17_linear)"/>
<path d="M1014.11 825.088C960.309 988.348 784.342 1077.08 621.082 1023.27C459.814 970.122 404.891 818.923 455.436 657.884C456.675 653.938 458.637 650.255 460.832 646.75C499.894 584.383 500.177 436.894 809.167 432.137C813.535 432.07 818.075 432.74 822.195 434.194C981.449 490.388 1067.23 663.929 1014.11 825.088Z" fill="url(#paint18_linear)"/>
<circle cx="887.949" cy="219.236" r="189.865" transform="rotate(18.2407 887.949 219.236)" fill="url(#paint19_linear)"/>
<path d="M649.159 -26.6294C663.429 41.3852 593.5 238.5 466.636 260.345C340.387 284.657 218.333 202.02 194.021 75.7708C169.709 -50.4787 252.345 -172.533 378.595 -196.845C504.845 -221.157 624.847 -152.879 649.159 -26.6294Z" fill="url(#paint20_linear)"/>
<path d="M916.207 861.413C909.605 867.667 903.687 874.871 900.332 883.324C855.237 996.945 728.79 1057.11 611.162 1018.34C489.054 978.096 422.689 846.483 462.933 724.375C503.176 602.266 634.788 535.902 756.897 576.145C873.722 614.647 989.225 792.241 916.207 861.413Z" fill="url(#paint21_linear)"/>
<g filter="url(#filter2_d)">
<path d="M762.353 389.481C752.649 417.183 688.698 416.362 636.039 434.695C595.011 448.978 506.361 510.997 470.475 499.001C401.363 475.899 402.214 433.312 363.729 419.831C274.649 388.626 354.982 288.419 407.803 282.456C622.725 274.074 556.278 202.962 659.198 207.781C775.622 213.232 781.565 334.636 762.353 389.481Z" fill="url(#paint22_linear)"/>
</g>
</g>
</g>
<path d="M361.921 409C347.762 409 336.221 404.527 327.297 395.582C318.432 386.637 314 374.72 314 359.832V357.259C314 347.272 315.874 338.358 319.622 330.515C323.37 322.612 328.665 316.546 335.507 312.319C342.408 308.03 350.261 305.886 359.066 305.886C372.273 305.886 382.655 310.174 390.21 318.752C397.825 327.329 401.633 339.491 401.633 355.237V366.082H340.147C340.98 372.576 343.479 377.784 347.643 381.705C351.867 385.626 357.192 387.587 363.617 387.587C373.552 387.587 381.316 383.88 386.908 376.467L399.58 391.079C395.713 396.716 390.478 401.127 383.874 404.313C377.271 407.438 369.953 409 361.921 409ZM358.977 327.391C353.86 327.391 349.696 329.168 346.483 332.721C343.33 336.275 341.307 341.36 340.415 347.977H376.289V345.863C376.17 339.981 374.623 335.448 371.649 332.262C368.674 329.014 364.45 327.391 358.977 327.391Z" fill="white"/>
<path d="M451.8 407.162H425.92V266H451.8V407.162Z" fill="white"/>
<path d="M508.57 407.162H482.691V266H508.57V407.162Z" fill="white"/>
<path d="M594.076 407.162C592.886 404.772 592.023 401.801 591.488 398.247C585.241 405.416 577.12 409 567.125 409C557.666 409 549.813 406.182 543.566 400.545C537.379 394.908 534.285 387.801 534.285 379.224C534.285 368.686 538.063 360.598 545.619 354.961C553.234 349.325 564.21 346.476 578.548 346.415H590.417V340.717C590.417 336.121 589.257 332.445 586.936 329.688C584.676 326.931 581.076 325.553 576.138 325.553C571.795 325.553 568.375 326.625 565.876 328.769C563.437 330.914 562.217 333.855 562.217 337.592H536.427C536.427 331.833 538.152 326.502 541.603 321.601C545.053 316.699 549.932 312.87 556.238 310.113C562.544 307.295 569.624 305.886 577.477 305.886C589.376 305.886 598.805 308.98 605.766 315.168C612.786 321.295 616.296 329.933 616.296 341.084V384.186C616.356 393.622 617.635 400.759 620.133 405.6V407.162H594.076ZM572.747 388.69C576.555 388.69 580.065 387.832 583.278 386.116C586.49 384.34 588.87 381.981 590.417 379.04V361.946H580.779C567.869 361.946 560.998 366.541 560.165 375.731L560.075 377.294C560.075 380.602 561.206 383.329 563.466 385.473C565.727 387.617 568.821 388.69 572.747 388.69Z" fill="white"/>
<path d="M767.139 372.055C767.139 366.847 765.354 362.865 761.785 360.108C758.215 357.29 751.79 354.349 742.509 351.285C733.228 348.161 725.881 345.097 720.467 342.095C705.713 333.885 698.336 322.826 698.336 308.918C698.336 301.689 700.299 295.256 704.225 289.619C708.211 283.921 713.893 279.479 721.27 276.293C728.707 273.107 737.036 271.514 746.257 271.514C755.538 271.514 763.807 273.26 771.066 276.753C778.324 280.184 783.946 285.054 787.932 291.365C791.977 297.676 794 304.844 794 312.87H767.228C767.228 306.743 765.354 301.995 761.606 298.625C757.858 295.194 752.593 293.479 745.811 293.479C739.267 293.479 734.18 294.919 730.551 297.798C726.922 300.617 725.107 304.354 725.107 309.01C725.107 313.36 727.219 317.006 731.443 319.947C735.727 322.888 742.003 325.645 750.273 328.218C765.503 332.936 776.598 338.787 783.559 345.771C790.52 352.756 794 361.456 794 371.871C794 383.451 789.746 392.549 781.239 399.166C772.731 405.722 761.279 409 746.882 409C736.887 409 727.784 407.131 719.574 403.394C711.364 399.595 705.088 394.418 700.745 387.862C696.462 381.307 694.32 373.71 694.32 365.071H721.181C721.181 379.836 729.748 387.219 746.882 387.219C753.247 387.219 758.215 385.902 761.785 383.267C765.354 380.572 767.139 376.834 767.139 372.055Z" fill="white"/>
<defs>
<filter id="filter0_d" x="287.321" y="127.78" width="490.393" height="411.311" filterUnits="userSpaceOnUse" color-interpolation-filters="sRGB">
<feFlood flood-opacity="0" result="BackgroundImageFix"/>
<feColorMatrix in="SourceAlpha" type="matrix" values="0 0 0 0 0 0 0 0 0 0 0 0 0 0 0 0 0 0 127 0"/>
<feOffset dx="16" dy="20"/>
<feGaussianBlur stdDeviation="17"/>
<feColorMatrix type="matrix" values="0 0 0 0 0 0 0 0 0 0.07 0 0 0 0 0.25 0 0 0 0.09 0"/>
<feBlend mode="normal" in2="BackgroundImageFix" result="effect1_dropShadow"/>
<feBlend mode="normal" in="SourceGraphic" in2="effect1_dropShadow" result="shape"/>
</filter>
<filter id="filter1_d" x="178" y="0" width="707.284" height="707.284" filterUnits="userSpaceOnUse" color-interpolation-filters="sRGB">
<feFlood flood-opacity="0" result="BackgroundImageFix"/>
<feColorMatrix in="SourceAlpha" type="matrix" values="0 0 0 0 0 0 0 0 0 0 0 0 0 0 0 0 0 0 127 0"/>
<feOffset dx="-22" dy="7"/>
<feGaussianBlur stdDeviation="19.5"/>
<feColorMatrix type="matrix" values="0 0 0 0 0 0 0 0 0 0 0 0 0 0 0 0 0 0 0.11 0"/>
<feBlend mode="normal" in2="BackgroundImageFix" result="effect1_dropShadow"/>
<feBlend mode="normal" in="SourceGraphic" in2="effect1_dropShadow" result="shape"/>
</filter>
<filter id="filter2_d" x="279.631" y="100.468" width="580.141" height="531.652" filterUnits="userSpaceOnUse" color-interpolation-filters="sRGB">
<feFlood flood-opacity="0" result="BackgroundImageFix"/>
<feColorMatrix in="SourceAlpha" type="matrix" values="0 0 0 0 0 0 0 0 0 0 0 0 0 0 0 0 0 0 127 0"/>
<feOffset dx="16" dy="20"/>
<feGaussianBlur stdDeviation="17"/>
<feColorMatrix type="matrix" values="0 0 0 0 0 0 0 0 0 0.07 0 0 0 0 0.25 0 0 0 0.09 0"/>
<feBlend mode="normal" in2="BackgroundImageFix" result="effect1_dropShadow"/>
<feBlend mode="normal" in="SourceGraphic" in2="effect1_dropShadow" result="shape"/>
</filter>
<linearGradient id="paint0_linear" x1="36.3848" y1="372.5" x2="1065.88" y2="345" gradientUnits="userSpaceOnUse">
<stop stop-color="#1C334F"/>
<stop offset="1" stop-color="#142B46"/>
</linearGradient>
<linearGradient id="paint1_linear" x1="36.3848" y1="372.5" x2="1065.88" y2="345" gradientUnits="userSpaceOnUse">
<stop stop-color="#1C334F"/>
<stop offset="1" stop-color="#142B46"/>
</linearGradient>
<linearGradient id="paint2_linear" x1="36.3848" y1="372.5" x2="1065.88" y2="345" gradientUnits="userSpaceOnUse">
<stop stop-color="#1C334F"/>
<stop offset="1" stop-color="#142B46"/>
</linearGradient>
<linearGradient id="paint3_linear" x1="36.3848" y1="372.5" x2="1065.88" y2="345" gradientUnits="userSpaceOnUse">
<stop stop-color="#1C334F"/>
<stop offset="1" stop-color="#142B46"/>
</linearGradient>
<linearGradient id="paint4_linear" x1="36.3848" y1="372.5" x2="1065.88" y2="345" gradientUnits="userSpaceOnUse">
<stop stop-color="#1C334F"/>
<stop offset="1" stop-color="#142B46"/>
</linearGradient>
<linearGradient id="paint5_linear" x1="36.3848" y1="372.5" x2="1065.88" y2="345" gradientUnits="userSpaceOnUse">
<stop stop-color="#1C334F"/>
<stop offset="1" stop-color="#142B46"/>
</linearGradient>
<linearGradient id="paint6_linear" x1="36.3848" y1="372.5" x2="1065.88" y2="345" gradientUnits="userSpaceOnUse">
<stop stop-color="#1C334F"/>
<stop offset="1" stop-color="#142B46"/>
</linearGradient>
<linearGradient id="paint7_linear" x1="36.3848" y1="372.5" x2="1065.88" y2="345" gradientUnits="userSpaceOnUse">
<stop stop-color="#1C334F"/>
<stop offset="1" stop-color="#142B46"/>
</linearGradient>
<linearGradient id="paint8_linear" x1="36.3848" y1="372.5" x2="1065.88" y2="345" gradientUnits="userSpaceOnUse">
<stop stop-color="#1C334F"/>
<stop offset="1" stop-color="#142B46"/>
</linearGradient>
<linearGradient id="paint9_linear" x1="535.94" y1="83.4846" x2="567.102" y2="212.549" gradientUnits="userSpaceOnUse">
<stop stop-color="#C81943"/>
<stop offset="1" stop-color="#93172F"/>
</linearGradient>
<linearGradient id="paint10_linear" x1="571.339" y1="47.8401" x2="827.629" y2="150.805" gradientUnits="userSpaceOnUse">
<stop stop-color="#FF3D00"/>
<stop offset="1" stop-color="#FF7A00"/>
</linearGradient>
<linearGradient id="paint11_linear" x1="365.339" y1="493.34" x2="336.702" y2="615.549" gradientUnits="userSpaceOnUse">
<stop stop-color="#2C9AFF"/>
<stop offset="1" stop-color="#70E5FF"/>
</linearGradient>
<linearGradient id="paint12_linear" x1="894.339" y1="322.84" x2="654.511" y2="447.334" gradientUnits="userSpaceOnUse">
<stop stop-color="#00B85E"/>
<stop offset="1" stop-color="#237FD0"/>
</linearGradient>
<linearGradient id="paint13_linear" x1="767.865" y1="540.652" x2="935.816" y2="661.002" gradientUnits="userSpaceOnUse">
<stop stop-color="#FB2256"/>
<stop offset="1" stop-color="#DC254E"/>
</linearGradient>
<linearGradient id="paint14_linear" x1="727.713" y1="170.844" x2="315.114" y2="553.905" gradientUnits="userSpaceOnUse">
<stop stop-color="#FF7A00"/>
<stop offset="1" stop-color="#F9DA35"/>
</linearGradient>
<linearGradient id="paint15_linear" x1="551" y1="-35" x2="243.422" y2="393.869" gradientUnits="userSpaceOnUse">
<stop offset="0.0375265" stop-color="#34EB92"/>
<stop offset="1" stop-color="#237FD0"/>
</linearGradient>
<linearGradient id="paint16_linear" x1="620.053" y1="111.624" x2="706.387" y2="267.338" gradientUnits="userSpaceOnUse">
<stop stop-color="#D20E3D"/>
<stop offset="1" stop-color="#94001E"/>
</linearGradient>
<linearGradient id="paint17_linear" x1="252.5" y1="292" x2="267.423" y2="577.872" gradientUnits="userSpaceOnUse">
<stop stop-color="#FF9900"/>
<stop offset="1" stop-color="#FFD600"/>
</linearGradient>
<linearGradient id="paint18_linear" x1="837.341" y1="637.073" x2="480.255" y2="607.977" gradientUnits="userSpaceOnUse">
<stop stop-color="#5EB1FF"/>
<stop offset="0.9999" stop-color="#276DF5"/>
</linearGradient>
<linearGradient id="paint19_linear" x1="940.855" y1="399.519" x2="792.716" y2="-46.0952" gradientUnits="userSpaceOnUse">
<stop stop-color="#30A8FF"/>
<stop offset="1" stop-color="#2440D1"/>
</linearGradient>
<linearGradient id="paint20_linear" x1="482.291" y1="32.9784" x2="662.374" y2="130.638" gradientUnits="userSpaceOnUse">
<stop stop-color="#D50937"/>
<stop offset="1" stop-color="#F92C59"/>
</linearGradient>
<linearGradient id="paint21_linear" x1="660.674" y1="538.651" x2="694.506" y2="762.145" gradientUnits="userSpaceOnUse">
<stop stop-color="#49C7FE"/>
<stop offset="1" stop-color="#2F79E8"/>
</linearGradient>
<linearGradient id="paint22_linear" x1="776.123" y1="261.322" x2="356.734" y2="418.417" gradientUnits="userSpaceOnUse">
<stop stop-color="#FF9D42"/>
<stop offset="1" stop-color="#FF335F"/>
</linearGradient>
</defs>
</svg>
