<svg width="1098" height="637" viewBox="0 0 1098 637" fill="none" xmlns="http://www.w3.org/2000/svg">
<mask id="mask0" mask-type="alpha" maskUnits="userSpaceOnUse" x="0" y="0" width="1098" height="637">
<rect width="1098" height="637" fill="#C4C4C4"/>
</mask>
<g mask="url(#mask0)">
<g filter="url(#filter0_ii)">
<path d="M93.6719 366.633H47.4414L38.6523 393H10.6152L58.252 265.031H82.6855L130.586 393H102.549L93.6719 366.633ZM54.5605 345.275H86.5527L70.4688 297.375L54.5605 345.275ZM172.169 297.902L172.96 308.537C179.698 300.275 188.809 296.145 200.294 296.145C212.54 296.145 220.948 300.979 225.518 310.646C232.198 300.979 241.72 296.145 254.083 296.145C264.395 296.145 272.071 299.162 277.11 305.197C282.149 311.174 284.669 320.197 284.669 332.268V393H259.18V332.355C259.18 326.965 258.126 323.039 256.016 320.578C253.907 318.059 250.186 316.799 244.854 316.799C237.237 316.799 231.964 320.432 229.034 327.697L229.122 393H203.721V332.443C203.721 326.936 202.637 322.951 200.47 320.49C198.302 318.029 194.61 316.799 189.395 316.799C182.188 316.799 176.973 319.787 173.751 325.764V393H148.35V297.902H172.169ZM359.738 394.758C345.793 394.758 334.425 390.48 325.636 381.926C316.906 373.371 312.541 361.975 312.541 347.736V345.275C312.541 335.725 314.386 327.199 318.078 319.699C321.769 312.141 326.984 306.34 333.722 302.297C340.519 298.195 348.254 296.145 356.925 296.145C369.933 296.145 380.158 300.246 387.599 308.449C395.099 316.652 398.849 328.283 398.849 343.342V353.713H338.293C339.113 359.924 341.574 364.904 345.675 368.654C349.836 372.404 355.08 374.279 361.408 374.279C371.193 374.279 378.839 370.734 384.347 363.645L396.828 377.619C393.019 383.01 387.863 387.229 381.359 390.275C374.855 393.264 367.648 394.758 359.738 394.758ZM356.837 316.711C351.798 316.711 347.697 318.41 344.533 321.809C341.427 325.207 339.435 330.07 338.556 336.398H373.888V334.377C373.771 328.752 372.248 324.416 369.318 321.369C366.388 318.264 362.228 316.711 356.837 316.711ZM451.858 393H426.37V258H451.858V393ZM511.37 393H485.882V258H511.37V393ZM599.184 393C598.012 390.715 597.162 387.873 596.635 384.475C590.482 391.33 582.484 394.758 572.641 394.758C563.324 394.758 555.59 392.062 549.438 386.672C543.344 381.281 540.297 374.484 540.297 366.281C540.297 356.203 544.018 348.469 551.459 343.078C558.959 337.688 569.77 334.963 583.891 334.904H595.58V329.455C595.58 325.061 594.438 321.545 592.152 318.908C589.926 316.271 586.381 314.953 581.518 314.953C577.24 314.953 573.871 315.979 571.41 318.029C569.008 320.08 567.807 322.893 567.807 326.467H542.406C542.406 320.959 544.105 315.861 547.504 311.174C550.902 306.486 555.707 302.824 561.918 300.188C568.129 297.492 575.102 296.145 582.836 296.145C594.555 296.145 603.842 299.104 610.697 305.021C617.611 310.881 621.068 319.143 621.068 329.807V371.027C621.127 380.051 622.387 386.877 624.848 391.506V393H599.184ZM578.178 375.334C581.928 375.334 585.385 374.514 588.549 372.873C591.713 371.174 594.057 368.918 595.58 366.105V349.758H586.088C573.373 349.758 566.605 354.152 565.785 362.941L565.697 364.436C565.697 367.6 566.811 370.207 569.037 372.258C571.264 374.309 574.311 375.334 578.178 375.334ZM776.832 359.426C776.832 354.445 775.074 350.637 771.558 348C768.043 345.305 761.714 342.492 752.574 339.562C743.433 336.574 736.197 333.645 730.865 330.773C716.334 322.922 709.068 312.346 709.068 299.045C709.068 292.131 711.002 285.979 714.869 280.588C718.795 275.139 724.39 270.891 731.656 267.844C738.98 264.797 747.183 263.273 756.265 263.273C765.406 263.273 773.55 264.943 780.699 268.283C787.847 271.564 793.384 276.223 797.31 282.258C801.295 288.293 803.287 295.148 803.287 302.824H776.92C776.92 296.965 775.074 292.424 771.382 289.201C767.691 285.92 762.505 284.279 755.826 284.279C749.38 284.279 744.371 285.656 740.797 288.41C737.222 291.105 735.435 294.68 735.435 299.133C735.435 303.293 737.515 306.779 741.675 309.592C745.894 312.404 752.076 315.041 760.22 317.502C775.22 322.014 786.148 327.609 793.004 334.289C799.859 340.969 803.287 349.289 803.287 359.25C803.287 370.324 799.097 379.025 790.718 385.354C782.339 391.623 771.06 394.758 756.88 394.758C747.037 394.758 738.072 392.971 729.986 389.396C721.9 385.764 715.718 380.812 711.441 374.543C707.222 368.273 705.113 361.008 705.113 352.746H731.568C731.568 366.867 740.005 373.928 756.88 373.928C763.15 373.928 768.043 372.668 771.558 370.148C775.074 367.57 776.832 363.996 776.832 359.426ZM888.2 383.332C881.93 390.949 873.258 394.758 862.184 394.758C851.989 394.758 844.196 391.828 838.805 385.969C833.473 380.109 830.748 371.525 830.631 360.217V297.902H856.032V359.338C856.032 369.24 860.543 374.191 869.567 374.191C878.18 374.191 884.098 371.203 887.321 365.227V297.902H912.809V393H888.903L888.2 383.332ZM967.048 297.902L967.839 308.889C974.636 300.393 983.747 296.145 995.173 296.145C1005.25 296.145 1012.75 299.104 1017.67 305.021C1022.59 310.939 1025.11 319.787 1025.23 331.564V393H999.831V332.18C999.831 326.789 998.659 322.893 996.316 320.49C993.972 318.029 990.075 316.799 984.626 316.799C977.478 316.799 972.116 319.846 968.542 325.939V393H943.142V297.902H967.048Z" fill="#1C334F"/>
</g>
<path fill-rule="evenodd" clip-rule="evenodd" d="M254.492 5.59359C254.492 8.68285 252 11.1872 248.927 11.1872C245.854 11.1872 243.362 8.68285 243.362 5.59359C243.362 2.50434 245.854 0 248.927 0C252 0 254.492 2.50434 254.492 5.59359ZM218.108 11.1872C221.181 11.1872 223.672 8.68287 223.672 5.59361C223.672 2.50436 221.181 2.27928e-05 218.108 2.27928e-05C215.035 2.27928e-05 212.543 2.50436 212.543 5.59361C212.543 8.68287 215.035 11.1872 218.108 11.1872ZM218.107 42.167C221.18 42.167 223.672 39.6627 223.672 36.5734C223.672 33.4842 221.18 30.9798 218.107 30.9798C215.034 30.9798 212.542 33.4842 212.542 36.5734C212.542 39.6627 215.034 42.167 218.107 42.167ZM223.672 66.6927C223.672 69.782 221.18 72.2863 218.107 72.2863C215.034 72.2863 212.542 69.782 212.542 66.6927C212.542 63.6035 215.034 61.0991 218.107 61.0991C221.18 61.0991 223.672 63.6035 223.672 66.6927ZM218.107 103.266C221.18 103.266 223.672 100.762 223.672 97.6725C223.672 94.5833 221.18 92.0789 218.107 92.0789C215.034 92.0789 212.542 94.5833 212.542 97.6725C212.542 100.762 215.034 103.266 218.107 103.266ZM223.672 128.652C223.672 131.742 221.18 134.246 218.107 134.246C215.034 134.246 212.542 131.742 212.542 128.652C212.542 125.563 215.034 123.059 218.107 123.059C221.18 123.059 223.672 125.563 223.672 128.652ZM218.107 165.226C221.18 165.226 223.672 162.722 223.672 159.632C223.672 156.543 221.18 154.039 218.107 154.039C215.034 154.039 212.542 156.543 212.542 159.632C212.542 162.722 215.034 165.226 218.107 165.226ZM248.927 42.167C252 42.167 254.492 39.6627 254.492 36.5734C254.492 33.4842 252 30.9798 248.927 30.9798C245.854 30.9798 243.362 33.4842 243.362 36.5734C243.362 39.6627 245.854 42.167 248.927 42.167ZM254.492 66.6927C254.492 69.782 252 72.2863 248.927 72.2863C245.854 72.2863 243.362 69.782 243.362 66.6927C243.362 63.6035 245.854 61.0991 248.927 61.0991C252 61.0991 254.492 63.6035 254.492 66.6927ZM248.927 103.266C252 103.266 254.492 100.762 254.492 97.6725C254.492 94.5833 252 92.0789 248.927 92.0789C245.854 92.0789 243.362 94.5833 243.362 97.6725C243.362 100.762 245.854 103.266 248.927 103.266ZM254.492 128.652C254.492 131.742 252 134.246 248.927 134.246C245.854 134.246 243.362 131.742 243.362 128.652C243.362 125.563 245.854 123.059 248.927 123.059C252 123.059 254.492 125.563 254.492 128.652ZM248.927 165.226C252 165.226 254.492 162.722 254.492 159.632C254.492 156.543 252 154.039 248.927 154.039C245.854 154.039 243.362 156.543 243.362 159.632C243.362 162.722 245.854 165.226 248.927 165.226ZM285.31 5.59359C285.31 8.68285 282.819 11.1872 279.746 11.1872C276.672 11.1872 274.181 8.68285 274.181 5.59359C274.181 2.50434 276.672 0 279.746 0C282.819 0 285.31 2.50434 285.31 5.59359ZM279.746 42.167C282.819 42.167 285.31 39.6627 285.31 36.5734C285.31 33.4842 282.819 30.9798 279.746 30.9798C276.672 30.9798 274.181 33.4842 274.181 36.5734C274.181 39.6627 276.672 42.167 279.746 42.167ZM285.31 66.6927C285.31 69.782 282.819 72.2863 279.746 72.2863C276.672 72.2863 274.181 69.782 274.181 66.6927C274.181 63.6035 276.672 61.0991 279.746 61.0991C282.819 61.0991 285.31 63.6035 285.31 66.6927ZM279.746 103.266C282.819 103.266 285.31 100.762 285.31 97.6725C285.31 94.5833 282.819 92.0789 279.746 92.0789C276.672 92.0789 274.181 94.5833 274.181 97.6725C274.181 100.762 276.672 103.266 279.746 103.266ZM285.31 128.652C285.31 131.742 282.819 134.246 279.746 134.246C276.672 134.246 274.181 131.742 274.181 128.652C274.181 125.563 276.672 123.059 279.746 123.059C282.819 123.059 285.31 125.563 285.31 128.652ZM279.746 165.226C282.819 165.226 285.31 162.722 285.31 159.632C285.31 156.543 282.819 154.039 279.746 154.039C276.672 154.039 274.181 156.543 274.181 159.632C274.181 162.722 276.672 165.226 279.746 165.226ZM346.093 5.59359C346.093 8.68285 343.602 11.1872 340.528 11.1872C337.455 11.1872 334.964 8.68285 334.964 5.59359C334.964 2.50434 337.455 0 340.528 0C343.602 0 346.093 2.50434 346.093 5.59359ZM340.528 42.167C343.602 42.167 346.093 39.6627 346.093 36.5734C346.093 33.4842 343.602 30.9798 340.528 30.9798C337.455 30.9798 334.964 33.4842 334.964 36.5734C334.964 39.6627 337.455 42.167 340.528 42.167ZM346.093 66.6927C346.093 69.782 343.602 72.2863 340.528 72.2863C337.455 72.2863 334.964 69.782 334.964 66.6927C334.964 63.6035 337.455 61.0991 340.528 61.0991C343.602 61.0991 346.093 63.6035 346.093 66.6927ZM340.528 103.266C343.602 103.266 346.093 100.762 346.093 97.6725C346.093 94.5833 343.602 92.0789 340.528 92.0789C337.455 92.0789 334.964 94.5833 334.964 97.6725C334.964 100.762 337.455 103.266 340.528 103.266ZM346.093 128.652C346.093 131.742 343.602 134.246 340.528 134.246C337.455 134.246 334.964 131.742 334.964 128.652C334.964 125.563 337.455 123.059 340.528 123.059C343.602 123.059 346.093 125.563 346.093 128.652ZM340.528 165.226C343.602 165.226 346.093 162.722 346.093 159.632C346.093 156.543 343.602 154.039 340.528 154.039C337.455 154.039 334.964 156.543 334.964 159.632C334.964 162.722 337.455 165.226 340.528 165.226ZM315.274 5.59359C315.274 8.68285 312.782 11.1872 309.709 11.1872C306.636 11.1872 304.145 8.68285 304.145 5.59359C304.145 2.50434 306.636 0 309.709 0C312.782 0 315.274 2.50434 315.274 5.59359ZM309.709 42.167C312.782 42.167 315.274 39.6627 315.274 36.5734C315.274 33.4842 312.782 30.9798 309.709 30.9798C306.636 30.9798 304.145 33.4842 304.145 36.5734C304.145 39.6627 306.636 42.167 309.709 42.167ZM315.274 66.6927C315.274 69.782 312.782 72.2863 309.709 72.2863C306.636 72.2863 304.145 69.782 304.145 66.6927C304.145 63.6035 306.636 61.0991 309.709 61.0991C312.782 61.0991 315.274 63.6035 315.274 66.6927ZM309.709 103.266C312.782 103.266 315.274 100.762 315.274 97.6725C315.274 94.5833 312.782 92.0789 309.709 92.0789C306.636 92.0789 304.145 94.5833 304.145 97.6725C304.145 100.762 306.636 103.266 309.709 103.266ZM315.274 128.652C315.274 131.742 312.782 134.246 309.709 134.246C306.636 134.246 304.145 131.742 304.145 128.652C304.145 125.563 306.636 123.059 309.709 123.059C312.782 123.059 315.274 125.563 315.274 128.652ZM309.709 165.226C312.782 165.226 315.274 162.722 315.274 159.632C315.274 156.543 312.782 154.039 309.709 154.039C306.636 154.039 304.145 156.543 304.145 159.632C304.145 162.722 306.636 165.226 309.709 165.226ZM376.056 5.59359C376.056 8.68285 373.565 11.1872 370.491 11.1872C367.418 11.1872 364.927 8.68285 364.927 5.59359C364.927 2.50434 367.418 0 370.491 0C373.565 0 376.056 2.50434 376.056 5.59359ZM370.491 42.167C373.565 42.167 376.056 39.6627 376.056 36.5734C376.056 33.4842 373.565 30.9798 370.491 30.9798C367.418 30.9798 364.927 33.4842 364.927 36.5734C364.927 39.6627 367.418 42.167 370.491 42.167ZM376.056 66.6927C376.056 69.782 373.565 72.2863 370.491 72.2863C367.418 72.2863 364.927 69.782 364.927 66.6927C364.927 63.6035 367.418 61.0991 370.491 61.0991C373.565 61.0991 376.056 63.6035 376.056 66.6927ZM370.491 103.266C373.565 103.266 376.056 100.762 376.056 97.6725C376.056 94.5833 373.565 92.0789 370.491 92.0789C367.418 92.0789 364.927 94.5833 364.927 97.6725C364.927 100.762 367.418 103.266 370.491 103.266ZM376.056 128.652C376.056 131.742 373.565 134.246 370.491 134.246C367.418 134.246 364.927 131.742 364.927 128.652C364.927 125.563 367.418 123.059 370.491 123.059C373.565 123.059 376.056 125.563 376.056 128.652ZM370.491 165.226C373.565 165.226 376.056 162.722 376.056 159.632C376.056 156.543 373.565 154.039 370.491 154.039C367.418 154.039 364.927 156.543 364.927 159.632C364.927 162.722 367.418 165.226 370.491 165.226Z" fill="#B4C0D5"/>
<mask id="mask1" mask-type="alpha" maskUnits="userSpaceOnUse" x="300" y="82" width="499" height="499">
<rect x="300.057" y="82.2009" width="498.341" height="498.341" rx="10" fill="#C4C4C4"/>
</mask>
<g mask="url(#mask1)">
<circle cx="366.443" cy="157.439" r="232.795" fill="#DA5252"/>
<circle cx="584.191" cy="82.2011" r="113.299" fill="#A8B4FF"/>
<circle cx="808.577" cy="198.598" r="189.865" fill="url(#paint0_linear)"/>
<circle cx="699.703" cy="410.149" r="247.4" fill="url(#paint1_linear)"/>
<circle cx="366.443" cy="563.723" r="232.795" fill="#A72B8C"/>
</g>
<mask id="mask2" mask-type="alpha" maskUnits="userSpaceOnUse" x="251" y="25" width="611" height="611">
<rect x="379.98" y="25" width="498.341" height="498.341" rx="15" transform="rotate(15 379.98 25)" fill="#C4C4C4"/>
</mask>
<g mask="url(#mask2)">
<rect x="379.98" y="25" width="498.341" height="498.341" rx="15" transform="rotate(15 379.98 25)" fill="#D0E6FF"/>
<circle cx="648.154" cy="121.969" r="137.556" transform="rotate(15 648.154 121.969)" fill="url(#paint2_linear)"/>
<path d="M567.341 60.3229C566.643 63.1402 566.749 66.1969 567.554 68.9857C605.828 201.716 399.542 275.998 276.683 243.078C152.495 209.802 78.7963 82.1519 112.072 -42.0364C145.349 -166.225 272.999 -239.923 397.187 -206.647C519.93 -173.758 597.676 -62.1726 567.341 60.3229Z" fill="url(#paint3_linear)"/>
<circle cx="882.739" cy="184.069" r="189.865" transform="rotate(15 882.739 184.069)" fill="url(#paint4_linear)"/>
<path d="M557.166 583.045C554.555 585.239 552.497 588.16 551.541 591.434C516.183 712.537 390.334 783.773 267.852 750.954C143.664 717.678 69.9648 590.028 103.241 465.84C136.517 341.652 264.167 267.953 388.355 301.229C510.554 333.972 639.674 513.685 557.166 583.045Z" fill="url(#paint5_linear)"/>
<path d="M1028.89 765.641C984.4 931.682 813.73 1030.22 647.69 985.727C482.409 941.44 419.32 791.638 462.629 626.497C463.023 624.997 463.651 623.589 464.453 622.262C502.445 559.448 488.163 406.165 806.262 384.611C807.897 384.5 809.624 384.659 811.203 385.095C975.792 430.579 1073.17 600.402 1028.89 765.641Z" fill="url(#paint6_linear)"/>
<g filter="url(#filter1_d)">
<path d="M755.979 336.132C748.382 364.483 684.55 368.466 633.416 390.7C593.576 408.024 509.832 476.523 473.147 467.255C402.495 449.406 400.148 406.876 360.759 396.322C269.588 371.893 342.171 265.937 394.395 256.025C608.081 231.533 536.483 165.61 639.474 162.689C755.979 159.384 771.019 279.999 755.979 336.132Z" fill="url(#paint7_linear)"/>
</g>
<path d="M940.883 829.631C938.273 831.825 936.215 834.746 935.259 838.02C899.901 959.123 774.052 1030.36 651.57 997.541C527.381 964.265 453.683 836.615 486.959 712.426C520.235 588.238 647.885 514.539 772.073 547.815C894.272 580.559 1023.39 760.272 940.883 829.631Z" fill="url(#paint8_linear)"/>
</g>
<path d="M368.1 494.271C353.592 494.271 341.767 489.821 332.624 480.921C323.541 472.022 319 460.166 319 445.354V442.794C319 432.858 320.92 423.989 324.76 416.186C328.601 408.323 334.026 402.288 341.036 398.083C348.106 393.816 356.153 391.682 365.174 391.682C378.706 391.682 389.343 395.949 397.084 404.483C404.887 413.017 408.788 425.116 408.788 440.782V451.571H345.79C346.643 458.033 349.204 463.214 353.47 467.115C357.798 471.016 363.254 472.967 369.837 472.967C380.017 472.967 387.971 469.279 393.701 461.903L406.685 476.441C402.723 482.049 397.359 486.438 390.593 489.608C383.826 492.716 376.329 494.271 368.1 494.271ZM365.083 413.078C359.84 413.078 355.573 414.845 352.282 418.381C349.051 421.916 346.979 426.976 346.064 433.559H382.821V431.456C382.699 425.604 381.114 421.093 378.066 417.924C375.018 414.693 370.69 413.078 365.083 413.078Z" fill="white"/>
<path d="M460.188 492.442H433.672V352H460.188V492.442Z" fill="white"/>
<path d="M518.355 492.442H491.839V352H518.355V492.442Z" fill="white"/>
<path d="M605.963 492.442C604.743 490.065 603.86 487.108 603.311 483.573C596.911 490.705 588.59 494.271 578.35 494.271C568.658 494.271 560.611 491.467 554.211 485.859C547.872 480.251 544.702 473.18 544.702 464.646C544.702 454.162 548.573 446.116 556.314 440.508C564.116 434.9 575.363 432.065 590.053 432.004H602.214V426.336C602.214 421.764 601.025 418.107 598.648 415.363C596.332 412.62 592.644 411.249 587.584 411.249C583.135 411.249 579.63 412.316 577.07 414.449C574.57 416.583 573.321 419.508 573.321 423.227H546.896C546.896 417.497 548.664 412.194 552.2 407.317C555.735 402.441 560.733 398.631 567.195 395.888C573.656 393.084 580.91 391.682 588.956 391.682C601.147 391.682 610.809 394.76 617.94 400.917C625.133 407.013 628.73 415.607 628.73 426.701V469.584C628.79 478.971 630.101 486.072 632.661 490.888V492.442H605.963ZM584.11 474.064C588.011 474.064 591.608 473.21 594.899 471.504C598.191 469.736 600.629 467.389 602.214 464.463V447.457H592.339C579.112 447.457 572.071 452.028 571.218 461.172L571.126 462.726C571.126 466.018 572.285 468.73 574.601 470.864C576.917 472.997 580.087 474.064 584.11 474.064Z" fill="white"/>
<path d="M783.282 457.514C783.282 452.333 781.453 448.371 777.796 445.628C774.138 442.824 767.555 439.898 758.046 436.85C748.537 433.742 741.009 430.694 735.462 427.707C720.345 419.539 712.786 408.536 712.786 394.699C712.786 387.507 714.798 381.106 718.821 375.498C722.905 369.83 728.726 365.41 736.285 362.241C743.904 359.071 752.438 357.486 761.886 357.486C771.395 357.486 779.868 359.223 787.305 362.698C794.741 366.111 800.502 370.957 804.586 377.236C808.731 383.514 810.803 390.646 810.803 398.631H783.373C783.373 392.536 781.453 387.811 777.613 384.459C773.772 381.045 768.378 379.339 761.429 379.339C754.724 379.339 749.512 380.771 745.794 383.636C742.076 386.44 740.216 390.158 740.216 394.791C740.216 399.119 742.38 402.746 746.708 405.672C751.097 408.597 757.528 411.34 766.001 413.901C781.605 418.594 792.974 424.415 800.105 431.364C807.237 438.313 810.803 446.969 810.803 457.332C810.803 468.852 806.445 477.904 797.728 484.487C789.011 491.01 777.277 494.271 762.526 494.271C752.286 494.271 742.959 492.412 734.547 488.693C726.136 484.914 719.705 479.763 715.255 473.241C710.866 466.719 708.672 459.16 708.672 450.565H736.193C736.193 465.256 744.971 472.601 762.526 472.601C769.048 472.601 774.138 471.29 777.796 468.669C781.453 465.987 783.282 462.269 783.282 457.514Z" fill="white"/>
</g>
<defs>
<filter id="filter0_ii" x="10.6152" y="258" width="1014.62" height="140.758" filterUnits="userSpaceOnUse" color-interpolation-filters="sRGB">
<feFlood flood-opacity="0" result="BackgroundImageFix"/>
<feBlend mode="normal" in="SourceGraphic" in2="BackgroundImageFix" result="shape"/>
<feColorMatrix in="SourceAlpha" type="matrix" values="0 0 0 0 0 0 0 0 0 0 0 0 0 0 0 0 0 0 127 0" result="hardAlpha"/>
<feOffset dy="4"/>
<feGaussianBlur stdDeviation="10.5"/>
<feComposite in2="hardAlpha" operator="arithmetic" k2="-1" k3="1"/>
<feColorMatrix type="matrix" values="0 0 0 0 0 0 0 0 0 0 0 0 0 0 0 0 0 0 0.47 0"/>
<feBlend mode="normal" in2="shape" result="effect1_innerShadow"/>
<feColorMatrix in="SourceAlpha" type="matrix" values="0 0 0 0 0 0 0 0 0 0 0 0 0 0 0 0 0 0 127 0" result="hardAlpha"/>
<feOffset dy="4"/>
<feGaussianBlur stdDeviation="2"/>
<feComposite in2="hardAlpha" operator="arithmetic" k2="-1" k3="1"/>
<feColorMatrix type="matrix" values="0 0 0 0 0 0 0 0 0 0 0 0 0 0 0 0 0 0 0.36 0"/>
<feBlend mode="normal" in2="effect1_innerShadow" result="effect2_innerShadow"/>
</filter>
<filter id="filter1_d" x="278.247" y="74.262" width="564.855" height="508.937" filterUnits="userSpaceOnUse" color-interpolation-filters="sRGB">
<feFlood flood-opacity="0" result="BackgroundImageFix"/>
<feColorMatrix in="SourceAlpha" type="matrix" values="0 0 0 0 0 0 0 0 0 0 0 0 0 0 0 0 0 0 127 0"/>
<feOffset dx="16" dy="20"/>
<feGaussianBlur stdDeviation="17"/>
<feColorMatrix type="matrix" values="0 0 0 0 0 0 0 0 0 0.07 0 0 0 0 0.25 0 0 0 0.09 0"/>
<feBlend mode="normal" in2="BackgroundImageFix" result="effect1_dropShadow"/>
<feBlend mode="normal" in="SourceGraphic" in2="effect1_dropShadow" result="shape"/>
</filter>
<linearGradient id="paint0_linear" x1="745.121" y1="82.6131" x2="771.006" y2="204.33" gradientUnits="userSpaceOnUse">
<stop stop-color="#D54B4B"/>
<stop offset="1" stop-color="#7D1A1A"/>
</linearGradient>
<linearGradient id="paint1_linear" x1="786.978" y1="353.033" x2="781.471" y2="588.755" gradientUnits="userSpaceOnUse">
<stop stop-color="#FFD600"/>
<stop offset="1" stop-color="#FF5757"/>
</linearGradient>
<linearGradient id="paint2_linear" x1="615.961" y1="99.1975" x2="647.123" y2="228.262" gradientUnits="userSpaceOnUse">
<stop stop-color="#FF2257"/>
<stop offset="1" stop-color="#C42847"/>
</linearGradient>
<linearGradient id="paint3_linear" x1="369.054" y1="18.391" x2="500.134" y2="178.109" gradientUnits="userSpaceOnUse">
<stop stop-color="#3725A5"/>
<stop offset="1" stop-color="#4C5FBC"/>
</linearGradient>
<linearGradient id="paint4_linear" x1="875.188" y1="121.194" x2="856.038" y2="364.661" gradientUnits="userSpaceOnUse">
<stop stop-color="#C749E7"/>
<stop offset="1" stop-color="#D8436F"/>
</linearGradient>
<linearGradient id="paint5_linear" x1="388.355" y1="301.229" x2="308.471" y2="559.231" gradientUnits="userSpaceOnUse">
<stop stop-color="#7F1BFF"/>
<stop offset="1" stop-color="#C19BFF"/>
</linearGradient>
<linearGradient id="paint6_linear" x1="787.627" y1="391.802" x2="483.611" y2="579.058" gradientUnits="userSpaceOnUse">
<stop stop-color="#5EF5FF"/>
<stop offset="0.9999" stop-color="#1758FF"/>
</linearGradient>
<linearGradient id="paint7_linear" x1="760.089" y1="207.3" x2="353.677" y2="395.437" gradientUnits="userSpaceOnUse">
<stop stop-color="#EA5627"/>
<stop offset="1" stop-color="#FF9D42"/>
</linearGradient>
<linearGradient id="paint8_linear" x1="772.073" y1="547.815" x2="692.189" y2="805.817" gradientUnits="userSpaceOnUse">
<stop stop-color="#FBFF37"/>
<stop offset="1" stop-color="#FF7A00"/>
</linearGradient>
</defs>
</svg>
