<svg width="1015" height="636" viewBox="0 0 1015 636" fill="none" xmlns="http://www.w3.org/2000/svg">
<path d="M816.385 539.366C816.385 569.742 791.76 594.366 761.385 594.366L582.385 594.366L582.385 410.366L816.385 410.366L816.385 539.366Z" fill="url(#paint0_linear)"/>
<path d="M259.385 114.366H402.385V263.366H259.385V114.366Z" fill="url(#paint1_linear)"/>
<rect x="284.385" y="65.366" width="508" height="508" rx="35" fill="#DFECFC" stroke="#DFECFC" stroke-width="10"/>
<path d="M83.0566 353.999H36.8262L28.0371 380.366H0L47.6367 252.397H72.0703L119.971 380.366H91.9336L83.0566 353.999ZM43.9453 332.641H75.9375L59.8535 284.741L43.9453 332.641Z" fill="url(#paint2_linear)"/>
<path d="M161.554 285.268L162.345 295.903C169.083 287.641 178.194 283.51 189.679 283.51C201.925 283.51 210.333 288.344 214.903 298.012C221.583 288.344 231.104 283.51 243.468 283.51C253.78 283.51 261.456 286.528 266.495 292.563C271.534 298.54 274.054 307.563 274.054 319.634V380.366H248.565V319.721C248.565 314.331 247.511 310.405 245.401 307.944C243.292 305.425 239.571 304.165 234.239 304.165C226.622 304.165 221.348 307.798 218.419 315.063L218.507 380.366H193.106V319.809C193.106 314.302 192.022 310.317 189.854 307.856C187.686 305.395 183.995 304.165 178.78 304.165C171.573 304.165 166.358 307.153 163.136 313.13V380.366H137.735V285.268H161.554Z" fill="url(#paint3_linear)"/>
<path d="M349.123 382.124C335.177 382.124 323.81 377.846 315.021 369.292C306.291 360.737 301.925 349.341 301.925 335.102V332.641C301.925 323.091 303.771 314.565 307.462 307.065C311.154 299.507 316.369 293.706 323.107 289.663C329.904 285.561 337.638 283.51 346.31 283.51C359.318 283.51 369.543 287.612 376.984 295.815C384.484 304.018 388.234 315.649 388.234 330.708V341.079H327.677C328.498 347.29 330.959 352.27 335.06 356.02C339.22 359.77 344.464 361.645 350.793 361.645C360.578 361.645 368.224 358.1 373.732 351.01L386.212 364.985C382.404 370.376 377.248 374.594 370.744 377.641C364.24 380.63 357.033 382.124 349.123 382.124ZM346.222 304.077C341.183 304.077 337.082 305.776 333.918 309.175C330.812 312.573 328.82 317.436 327.941 323.764H363.273V321.743C363.156 316.118 361.632 311.782 358.703 308.735C355.773 305.63 351.613 304.077 346.222 304.077Z" fill="url(#paint4_linear)"/>
<path d="M441.243 380.366H415.754V245.366H441.243V380.366Z" fill="url(#paint5_linear)"/>
<path d="M500.755 380.366H475.267V245.366H500.755V380.366Z" fill="url(#paint6_linear)"/>
<path d="M588.568 380.366C587.396 378.081 586.547 375.239 586.02 371.841C579.867 378.696 571.869 382.124 562.025 382.124C552.709 382.124 544.975 379.428 538.822 374.038C532.729 368.647 529.682 361.85 529.682 353.647C529.682 343.569 533.402 335.835 540.844 330.444C548.344 325.053 559.154 322.329 573.275 322.27H584.965V316.821C584.965 312.427 583.822 308.911 581.537 306.274C579.311 303.637 575.766 302.319 570.902 302.319C566.625 302.319 563.256 303.344 560.795 305.395C558.393 307.446 557.191 310.259 557.191 313.833H531.791C531.791 308.325 533.49 303.227 536.889 298.54C540.287 293.852 545.092 290.19 551.303 287.553C557.514 284.858 564.486 283.51 572.221 283.51C583.939 283.51 593.227 286.469 600.082 292.387C606.996 298.247 610.453 306.509 610.453 317.173V358.393C610.512 367.417 611.771 374.243 614.232 378.872V380.366H588.568ZM567.562 362.7C571.312 362.7 574.77 361.88 577.934 360.239C581.098 358.54 583.441 356.284 584.965 353.471V337.124H575.473C562.758 337.124 555.99 341.518 555.17 350.307L555.082 351.802C555.082 354.966 556.195 357.573 558.422 359.624C560.648 361.675 563.695 362.7 567.562 362.7Z" fill="url(#paint7_linear)"/>
<path d="M766.216 346.792C766.216 341.811 764.459 338.003 760.943 335.366C757.427 332.671 751.099 329.858 741.959 326.928C732.818 323.94 725.582 321.01 720.25 318.139C705.718 310.288 698.453 299.712 698.453 286.411C698.453 279.497 700.386 273.344 704.254 267.954C708.179 262.505 713.775 258.257 721.041 255.21C728.365 252.163 736.568 250.639 745.65 250.639C754.791 250.639 762.935 252.309 770.084 255.649C777.232 258.93 782.769 263.589 786.695 269.624C790.679 275.659 792.672 282.514 792.672 290.19H766.304C766.304 284.331 764.459 279.79 760.767 276.567C757.076 273.286 751.89 271.645 745.211 271.645C738.765 271.645 733.755 273.022 730.181 275.776C726.607 278.471 724.82 282.046 724.82 286.499C724.82 290.659 726.9 294.145 731.06 296.958C735.279 299.77 741.461 302.407 749.605 304.868C764.605 309.38 775.533 314.975 782.388 321.655C789.244 328.335 792.672 336.655 792.672 346.616C792.672 357.69 788.482 366.391 780.103 372.719C771.724 378.989 760.445 382.124 746.265 382.124C736.422 382.124 727.457 380.337 719.371 376.762C711.285 373.13 705.103 368.178 700.826 361.909C696.607 355.639 694.498 348.374 694.498 340.112H720.953C720.953 354.233 729.39 361.294 746.265 361.294C752.535 361.294 757.427 360.034 760.943 357.514C764.459 354.936 766.216 351.362 766.216 346.792Z" fill="url(#paint8_linear)"/>
<path d="M877.584 370.698C871.315 378.315 862.643 382.124 851.569 382.124C841.373 382.124 833.58 379.194 828.19 373.335C822.858 367.475 820.133 358.891 820.016 347.583V285.268H845.416V346.704C845.416 356.606 849.928 361.557 858.952 361.557C867.565 361.557 873.483 358.569 876.705 352.593V285.268H902.194V380.366H878.287L877.584 370.698Z" fill="url(#paint9_linear)"/>
<path d="M956.433 285.268L957.224 296.255C964.021 287.759 973.132 283.51 984.558 283.51C994.636 283.51 1002.14 286.469 1007.06 292.387C1011.98 298.305 1014.5 307.153 1014.62 318.93V380.366H989.216V319.546C989.216 314.155 988.044 310.259 985.7 307.856C983.357 305.395 979.46 304.165 974.011 304.165C966.862 304.165 961.501 307.212 957.927 313.305V380.366H932.527V285.268H956.433Z" fill="url(#paint10_linear)"/>
<mask id="mask0" mask-type="alpha" maskUnits="userSpaceOnUse" x="289" y="70" width="499" height="499">
<rect x="289.441" y="70.366" width="497.943" height="498" rx="31" fill="#C4C4C4"/>
</mask>
<g mask="url(#mask0)">
<ellipse cx="355.994" cy="146.002" rx="232.609" ry="232.636" fill="url(#paint11_linear)"/>
<ellipse cx="573.349" cy="70.3661" rx="113.209" ry="113.222" fill="#A8B4FF"/>
<ellipse cx="797.556" cy="186.684" rx="189.714" ry="189.735" fill="url(#paint12_linear)"/>
<ellipse cx="688.769" cy="398.091" rx="247.203" ry="247.231" fill="url(#paint13_linear)"/>
<ellipse cx="355.775" cy="551.559" rx="232.609" ry="232.636" fill="#A72B8C"/>
</g>
<mask id="mask1" mask-type="alpha" maskUnits="userSpaceOnUse" x="228" y="0" width="636" height="636">
<rect x="392.772" width="498.341" height="498.341" rx="40" transform="rotate(19.3055 392.772 0)" fill="#C4C4C4"/>
</mask>
<g mask="url(#mask1)">
<rect x="392.772" width="498.341" height="498.341" rx="40" transform="rotate(19.3055 392.772 0)" fill="#D0E6FF"/>
<circle cx="652.91" cy="116.828" r="137.556" transform="rotate(19.3055 652.91 116.828)" fill="url(#paint14_linear)"/>
<path d="M579.336 42.1484C577.153 49.5737 576.859 57.4454 577.996 65.1011C597.308 195.167 391.456 250.912 273.582 209.621C152.242 167.115 88.3347 34.2923 130.84 -87.0473C173.346 -208.387 306.168 -272.295 427.508 -229.789C545.082 -188.603 613.851 -75.238 579.336 42.1484Z" fill="url(#paint15_linear)"/>
<circle cx="882.171" cy="196.364" r="189.865" transform="rotate(19.3055 882.171 196.364)" fill="url(#paint16_linear)"/>
<path d="M534.368 564.257C527.651 570.387 521.6 577.481 518.089 585.87C470.89 698.633 343.347 756.434 226.46 715.488C105.121 672.982 41.2131 540.16 83.7186 418.82C126.224 297.48 259.047 233.573 380.386 276.078C496.476 316.745 608.659 496.454 534.368 564.257Z" fill="url(#paint17_linear)"/>
<path d="M984.249 787.267C927.419 949.499 749.834 1034.94 587.602 978.113C427.349 921.976 375.245 769.783 428.774 609.711C430.086 605.789 432.116 602.142 434.376 598.679C474.59 537.049 477.613 389.59 786.639 390.576C791.008 390.59 795.534 391.345 799.626 392.874C957.809 452.019 1040.35 627.123 984.249 787.267Z" fill="url(#paint18_linear)"/>
<g filter="url(#filter0_d)">
<path d="M744.353 338.481C734.649 366.183 670.698 365.362 618.039 383.695C577.011 397.978 488.361 459.997 452.475 448.001C383.363 424.899 384.214 382.312 345.729 368.831C256.649 337.626 336.982 237.419 389.803 231.456C604.725 223.074 538.278 151.962 641.198 156.781C757.622 162.232 763.565 283.636 744.353 338.481Z" fill="url(#paint19_linear)"/>
</g>
<path d="M898.492 838.955C891.774 845.085 885.723 852.178 882.212 860.567C835.013 973.33 707.47 1031.13 590.583 990.186C469.244 947.68 405.336 814.857 447.842 693.518C490.347 572.178 623.17 508.271 744.509 550.776C860.599 591.442 972.782 771.151 898.492 838.955Z" fill="url(#paint20_linear)"/>
</g>
<path d="M348.485 380.637C333.977 380.637 322.152 376.187 313.008 367.287C303.926 358.388 299.385 346.532 299.385 331.72V329.16C299.385 319.224 301.305 310.355 305.145 302.552C308.985 294.689 314.41 288.654 321.42 284.449C328.491 280.182 336.537 278.048 345.559 278.048C359.091 278.048 369.728 282.315 377.469 290.849C385.271 299.383 389.173 311.482 389.173 327.148V337.937H326.175C327.028 344.398 329.588 349.58 333.855 353.481C338.183 357.382 343.639 359.333 350.222 359.333C360.401 359.333 368.356 355.645 374.086 348.269L387.07 362.807C383.107 368.415 377.743 372.804 370.977 375.974C364.211 379.082 356.714 380.637 348.485 380.637ZM345.467 299.444C340.225 299.444 335.958 301.211 332.667 304.747C329.436 308.282 327.363 313.342 326.449 319.925H363.205V317.822C363.084 311.97 361.499 307.459 358.451 304.29C355.403 301.059 351.075 299.444 345.467 299.444Z" fill="white"/>
<path d="M440.573 378.808H414.057V238.366H440.573V378.808Z" fill="white"/>
<path d="M498.739 378.808H472.224V238.366H498.739V378.808Z" fill="white"/>
<path d="M586.347 378.808C585.128 376.431 584.244 373.474 583.696 369.939C577.295 377.071 568.975 380.637 558.734 380.637C549.042 380.637 540.996 377.833 534.596 372.225C528.257 366.617 525.087 359.546 525.087 351.012C525.087 340.528 528.958 332.482 536.699 326.874C544.501 321.266 555.748 318.431 570.438 318.37H582.599V312.701C582.599 308.13 581.41 304.472 579.033 301.729C576.716 298.986 573.029 297.615 567.969 297.615C563.519 297.615 560.014 298.682 557.454 300.815C554.955 302.949 553.706 305.874 553.706 309.593H527.281C527.281 303.863 529.049 298.56 532.584 293.683C536.12 288.807 541.118 284.997 547.579 282.254C554.041 279.45 561.295 278.048 569.341 278.048C581.532 278.048 591.193 281.126 598.325 287.283C605.518 293.379 609.114 301.973 609.114 313.067V355.95C609.175 365.337 610.486 372.438 613.046 377.254V378.808H586.347ZM564.495 360.43C568.396 360.43 571.992 359.576 575.284 357.87C578.575 356.102 581.014 353.755 582.599 350.829V333.823H572.724C559.496 333.823 552.456 338.394 551.603 347.538L551.511 349.092C551.511 352.384 552.669 355.096 554.986 357.23C557.302 359.363 560.472 360.43 564.495 360.43Z" fill="white"/>
<path d="M763.666 343.88C763.666 338.699 761.838 334.737 758.18 331.994C754.523 329.19 747.94 326.264 738.431 323.216C728.922 320.108 721.394 317.06 715.847 314.073C700.73 305.905 693.171 294.902 693.171 281.065C693.171 273.873 695.183 267.472 699.206 261.864C703.29 256.196 709.111 251.776 716.669 248.607C724.289 245.437 732.823 243.852 742.271 243.852C751.78 243.852 760.253 245.589 767.689 249.064C775.126 252.477 780.886 257.323 784.97 263.602C789.115 269.88 791.188 277.012 791.188 284.997H763.758C763.758 278.902 761.838 274.177 757.997 270.825C754.157 267.411 748.763 265.705 741.814 265.705C735.109 265.705 729.897 267.137 726.179 270.002C722.46 272.806 720.601 276.524 720.601 281.157C720.601 285.485 722.765 289.112 727.093 292.037C731.482 294.963 737.913 297.706 746.385 300.267C761.99 304.96 773.358 310.781 780.49 317.73C787.622 324.679 791.188 333.335 791.188 343.697C791.188 355.218 786.83 364.27 778.113 370.853C769.396 377.376 757.662 380.637 742.911 380.637C732.67 380.637 723.344 378.778 714.932 375.059C706.52 371.28 700.09 366.129 695.64 359.607C691.251 353.085 689.057 345.526 689.057 336.931H716.578C716.578 351.622 725.356 358.967 742.911 358.967C749.433 358.967 754.523 357.656 758.18 355.035C761.838 352.353 763.666 348.635 763.666 343.88Z" fill="white"/>
<defs>
<filter id="filter0_d" x="261.631" y="49.468" width="580.141" height="531.652" filterUnits="userSpaceOnUse" color-interpolation-filters="sRGB">
<feFlood flood-opacity="0" result="BackgroundImageFix"/>
<feColorMatrix in="SourceAlpha" type="matrix" values="0 0 0 0 0 0 0 0 0 0 0 0 0 0 0 0 0 0 127 0"/>
<feOffset dx="16" dy="20"/>
<feGaussianBlur stdDeviation="17"/>
<feColorMatrix type="matrix" values="0 0 0 0 0 0 0 0 0 0.07 0 0 0 0 0.25 0 0 0 0.09 0"/>
<feBlend mode="normal" in2="BackgroundImageFix" result="effect1_dropShadow"/>
<feBlend mode="normal" in="SourceGraphic" in2="effect1_dropShadow" result="shape"/>
</filter>
<linearGradient id="paint0_linear" x1="816.385" y1="366.705" x2="488.294" y2="488.476" gradientUnits="userSpaceOnUse">
<stop stop-color="#37FF87"/>
<stop offset="0.800406" stop-color="#162EFF"/>
</linearGradient>
<linearGradient id="paint1_linear" x1="276.885" y1="133.215" x2="206.918" y2="242.799" gradientUnits="userSpaceOnUse">
<stop stop-color="#FF2257"/>
<stop offset="1" stop-color="#C42847"/>
</linearGradient>
<linearGradient id="paint2_linear" x1="36.3848" y1="345.866" x2="1065.88" y2="318.366" gradientUnits="userSpaceOnUse">
<stop stop-color="#1C334F"/>
<stop offset="1" stop-color="#142B46"/>
</linearGradient>
<linearGradient id="paint3_linear" x1="36.3848" y1="345.866" x2="1065.88" y2="318.366" gradientUnits="userSpaceOnUse">
<stop stop-color="#1C334F"/>
<stop offset="1" stop-color="#142B46"/>
</linearGradient>
<linearGradient id="paint4_linear" x1="36.3848" y1="345.866" x2="1065.88" y2="318.366" gradientUnits="userSpaceOnUse">
<stop stop-color="#1C334F"/>
<stop offset="1" stop-color="#142B46"/>
</linearGradient>
<linearGradient id="paint5_linear" x1="36.3848" y1="345.866" x2="1065.88" y2="318.366" gradientUnits="userSpaceOnUse">
<stop stop-color="#1C334F"/>
<stop offset="1" stop-color="#142B46"/>
</linearGradient>
<linearGradient id="paint6_linear" x1="36.3848" y1="345.866" x2="1065.88" y2="318.366" gradientUnits="userSpaceOnUse">
<stop stop-color="#1C334F"/>
<stop offset="1" stop-color="#142B46"/>
</linearGradient>
<linearGradient id="paint7_linear" x1="36.3848" y1="345.866" x2="1065.88" y2="318.366" gradientUnits="userSpaceOnUse">
<stop stop-color="#1C334F"/>
<stop offset="1" stop-color="#142B46"/>
</linearGradient>
<linearGradient id="paint8_linear" x1="36.3848" y1="345.866" x2="1065.88" y2="318.366" gradientUnits="userSpaceOnUse">
<stop stop-color="#1C334F"/>
<stop offset="1" stop-color="#142B46"/>
</linearGradient>
<linearGradient id="paint9_linear" x1="36.3848" y1="345.866" x2="1065.88" y2="318.366" gradientUnits="userSpaceOnUse">
<stop stop-color="#1C334F"/>
<stop offset="1" stop-color="#142B46"/>
</linearGradient>
<linearGradient id="paint10_linear" x1="36.3848" y1="345.866" x2="1065.88" y2="318.366" gradientUnits="userSpaceOnUse">
<stop stop-color="#1C334F"/>
<stop offset="1" stop-color="#142B46"/>
</linearGradient>
<linearGradient id="paint11_linear" x1="355.994" y1="-86.634" x2="355.994" y2="378.638" gradientUnits="userSpaceOnUse">
<stop stop-color="#DA5252"/>
<stop offset="1" stop-color="#D64A37"/>
</linearGradient>
<linearGradient id="paint12_linear" x1="734.151" y1="70.7779" x2="760.021" y2="192.41" gradientUnits="userSpaceOnUse">
<stop stop-color="#D54B4B"/>
<stop offset="1" stop-color="#7D1A1A"/>
</linearGradient>
<linearGradient id="paint13_linear" x1="775.975" y1="341.013" x2="770.47" y2="576.574" gradientUnits="userSpaceOnUse">
<stop stop-color="#FFD600"/>
<stop offset="1" stop-color="#FF5757"/>
</linearGradient>
<linearGradient id="paint14_linear" x1="620.717" y1="94.0567" x2="651.878" y2="223.121" gradientUnits="userSpaceOnUse">
<stop stop-color="#FF2257"/>
<stop offset="1" stop-color="#C42847"/>
</linearGradient>
<linearGradient id="paint15_linear" x1="382.56" y1="-7.4978" x2="501.279" y2="161.611" gradientUnits="userSpaceOnUse">
<stop stop-color="#3725A5"/>
<stop offset="1" stop-color="#4C5FBC"/>
</linearGradient>
<linearGradient id="paint16_linear" x1="874.62" y1="133.489" x2="855.47" y2="376.956" gradientUnits="userSpaceOnUse">
<stop stop-color="#C749E7"/>
<stop offset="1" stop-color="#D8436F"/>
</linearGradient>
<linearGradient id="paint17_linear" x1="311.385" y1="274.866" x2="477.385" y2="637.866" gradientUnits="userSpaceOnUse">
<stop stop-color="#7F1BFF"/>
<stop offset="1" stop-color="#C19BFF"/>
</linearGradient>
<linearGradient id="paint18_linear" x1="771.732" y1="396.37" x2="454.516" y2="560.274" gradientUnits="userSpaceOnUse">
<stop stop-color="#5EF5FF"/>
<stop offset="0.9999" stop-color="#1758FF"/>
</linearGradient>
<linearGradient id="paint19_linear" x1="758.123" y1="210.322" x2="338.734" y2="367.417" gradientUnits="userSpaceOnUse">
<stop stop-color="#FF335F"/>
<stop offset="1" stop-color="#FF9D42"/>
</linearGradient>
<linearGradient id="paint20_linear" x1="744.509" y1="550.776" x2="645.482" y2="802.052" gradientUnits="userSpaceOnUse">
<stop stop-color="#FBFF37"/>
<stop offset="1" stop-color="#FF7A00"/>
</linearGradient>
</defs>
</svg>
