<svg width="929" height="130" viewBox="0 0 929 130" fill="none" xmlns="http://www.w3.org/2000/svg">
<path d="M79.0234 103.098H35.3613L27.0605 128H0.581055L45.5713 7.14062H68.6475L113.887 128H87.4072L79.0234 103.098ZM42.085 82.9268H72.2998L57.1094 37.6875L42.085 82.9268ZM149.759 38.1855L150.506 48.2295C156.87 40.4268 165.476 36.5254 176.322 36.5254C187.888 36.5254 195.829 41.0908 200.145 50.2217C206.454 41.0908 215.446 36.5254 227.123 36.5254C236.862 36.5254 244.112 39.3753 248.871 45.0752C253.63 50.7197 256.009 59.2419 256.009 70.6416V128H231.937V70.7246C231.937 65.6335 230.941 61.9258 228.949 59.6016C226.957 57.222 223.443 56.0322 218.407 56.0322C211.213 56.0322 206.232 59.4632 203.465 66.3252L203.548 128H179.559V70.8076C179.559 65.6058 178.535 61.8428 176.488 59.5186C174.44 57.1943 170.954 56.0322 166.029 56.0322C159.222 56.0322 154.297 58.8545 151.254 64.499V128H127.264V38.1855H149.759ZM323.508 129.66C310.337 129.66 299.602 125.62 291.301 117.541C283.056 109.462 278.933 98.6982 278.933 85.251V82.9268C278.933 73.9066 280.676 65.8548 284.162 58.7715C287.649 51.6328 292.574 46.1543 298.938 42.3359C305.357 38.4622 312.662 36.5254 320.852 36.5254C333.137 36.5254 342.793 40.3991 349.821 48.1465C356.905 55.8939 360.446 66.8786 360.446 81.1006V90.8955H303.254C304.029 96.7614 306.353 101.465 310.227 105.007C314.156 108.549 319.109 110.319 325.085 110.319C334.327 110.319 341.548 106.971 346.75 100.275L358.537 113.474C354.94 118.565 350.07 122.549 343.928 125.427C337.785 128.249 330.979 129.66 323.508 129.66ZM320.769 55.9492C316.01 55.9492 312.136 57.554 309.148 60.7637C306.215 63.9733 304.333 68.5664 303.503 74.543H336.872V72.6338C336.762 67.3213 335.323 63.2262 332.556 60.3486C329.789 57.4157 325.86 55.9492 320.769 55.9492ZM407.11 128H383.038V0.5H407.11V128ZM459.916 128H435.844V0.5H459.916V128ZM539.451 128C538.344 125.842 537.542 123.158 537.044 119.948C531.233 126.423 523.68 129.66 514.383 129.66C505.584 129.66 498.279 127.115 492.469 122.023C486.714 116.932 483.836 110.513 483.836 102.766C483.836 93.2474 487.35 85.9427 494.378 80.8516C501.461 75.7604 511.671 73.1872 525.008 73.1318H536.048V67.9854C536.048 63.835 534.969 60.5146 532.811 58.0244C530.708 55.5342 527.36 54.2891 522.767 54.2891C518.727 54.2891 515.545 55.2575 513.221 57.1943C510.952 59.1312 509.817 61.7874 509.817 65.1631H485.828C485.828 59.9613 487.433 55.1468 490.643 50.7197C493.852 46.2926 498.39 42.834 504.256 40.3438C510.122 37.7982 516.707 36.5254 524.012 36.5254C535.079 36.5254 543.851 39.32 550.325 44.9092C556.855 50.443 560.12 58.2458 560.12 68.3174V107.248C560.175 115.77 561.365 122.217 563.689 126.589V128H539.451ZM519.612 111.315C523.154 111.315 526.419 110.541 529.407 108.991C532.396 107.386 534.609 105.256 536.048 102.6V87.1602H527.083C515.075 87.1602 508.683 91.3105 507.908 99.6113L507.825 101.022C507.825 104.011 508.877 106.473 510.979 108.41C513.082 110.347 515.96 111.315 519.612 111.315ZM700.43 96.291C700.43 91.5872 698.77 87.9902 695.449 85.5C692.129 82.9544 686.153 80.2982 677.52 77.5312C668.887 74.709 662.053 71.9421 657.017 69.2305C643.293 61.8151 636.431 51.8265 636.431 39.2646C636.431 32.7347 638.257 26.9242 641.909 21.833C645.617 16.6865 650.902 12.6745 657.764 9.79688C664.681 6.91927 672.429 5.48047 681.006 5.48047C689.639 5.48047 697.331 7.05762 704.082 10.2119C710.834 13.3109 716.063 17.7103 719.771 23.4102C723.534 29.11 725.415 35.5846 725.415 42.834H700.513C700.513 37.3001 698.77 33.0114 695.283 29.9678C691.797 26.8688 686.9 25.3193 680.591 25.3193C674.504 25.3193 669.772 26.6198 666.397 29.2207C663.021 31.7663 661.333 35.1419 661.333 39.3477C661.333 43.2767 663.298 46.5693 667.227 49.2256C671.211 51.8818 677.049 54.3721 684.741 56.6963C698.908 60.9574 709.229 66.2422 715.703 72.5508C722.178 78.8594 725.415 86.7174 725.415 96.125C725.415 106.584 721.459 114.802 713.545 120.778C705.632 126.7 694.979 129.66 681.587 129.66C672.29 129.66 663.823 127.972 656.187 124.597C648.55 121.166 642.712 116.49 638.672 110.568C634.688 104.647 632.695 97.7852 632.695 89.9824H657.681C657.681 103.319 665.65 109.987 681.587 109.987C687.508 109.987 692.129 108.798 695.449 106.418C698.77 103.983 700.43 100.607 700.43 96.291ZM802.211 118.869C796.29 126.063 788.099 129.66 777.64 129.66C768.012 129.66 760.652 126.893 755.56 121.359C750.525 115.826 747.951 107.718 747.841 97.0381V38.1855H771.83V96.208C771.83 105.56 776.091 110.236 784.613 110.236C792.748 110.236 798.337 107.414 801.381 101.77V38.1855H825.453V128H802.875L802.211 118.869ZM873.279 38.1855L874.026 48.5615C880.445 40.5374 889.05 36.5254 899.841 36.5254C909.359 36.5254 916.443 39.32 921.091 44.9092C925.74 50.4984 928.119 58.8545 928.23 69.9775V128H904.241V70.5586C904.241 65.4674 903.134 61.7874 900.92 59.5186C898.707 57.1943 895.027 56.0322 889.88 56.0322C883.129 56.0322 878.065 58.9098 874.69 64.665V128H850.701V38.1855H873.279Z" fill="black"/>
</svg>
