<svg width="197" height="152" viewBox="0 0 197 152" fill="none" xmlns="http://www.w3.org/2000/svg">
<path d="M115.611 -1.72142C120.198 -1.66778 124.784 -1.7393 129.371 -2.06111C132.925 3.08788 130.42 9.22017 129.168 14.7089C134.008 13.8686 139.779 14.2977 143.469 10.2571C146.092 6.9675 146.701 2.4979 147.954 -1.47112C149.087 -1.70354 151.389 -2.1684 152.54 -2.4187C155.722 2.03303 160.765 6.25236 160.105 12.4562C160.325 20.1439 153.809 24.6672 148.867 29.0295C143.943 28.9222 139.051 28.4574 134.143 28.3322C130.318 22.2357 125.343 17.1403 120.198 12.3131C116.17 8.93412 116.018 3.21304 115.611 -1.72142Z" fill="#F8364C"/>
<path d="M177.25 10.2394C181.752 7.96881 187.76 6.39551 192.279 9.43484C197.796 14.119 196.696 23.2012 193.26 28.9045C190.586 33.8389 184.815 34.2144 180.11 35.1083C178.824 33.535 177.538 31.9796 176.234 30.442C173.476 27.1881 170.04 24.6315 166.114 23.2549C169.685 18.821 172.663 13.6363 177.25 10.2394Z" fill="#7A1E21"/>
<path d="M150.391 31.9441C154.284 26.8666 159.869 23.5769 166.114 23.2551C170.04 24.6318 173.476 27.1884 176.235 30.4423C171.53 35.6985 166.723 40.8654 161.646 45.7283C160.174 48.4638 158.718 51.217 157.28 53.9703C153.692 51.6104 149.748 48.9822 148.225 44.5841C147.565 40.2218 149.088 35.9846 150.391 31.9441Z" fill="#C9F18A"/>
<path d="M176.234 30.4414C177.538 31.979 178.824 33.5344 180.11 35.1077C177.859 40.1494 175.693 45.2805 172.731 49.8932C170.176 51.7525 167.62 53.6119 165.098 55.4712C162.475 55.0243 159.869 54.5773 157.279 53.9695C158.718 51.2162 160.173 48.4629 161.646 45.7275C166.723 40.8646 171.53 35.6977 176.234 30.4414Z" fill="#455228"/>
<path d="M80.172 86.491C88.6003 84.0774 99.1441 91.8903 96.6732 101.759C95.7762 112.951 82.6429 119.995 73.8592 113.237C64.2632 106.193 69.9836 89.4052 80.172 86.491Z" fill="#173163"/>
<path d="M125.19 105.462C127.881 102.852 130.589 100.223 133.534 97.9351C137.748 97.9351 141.962 98.1675 146.176 98.3999L145.093 99.115C141.674 101.6 138.323 104.193 134.837 106.552C131.198 108.948 127.543 111.272 124.09 113.936L123.565 115.313C124.124 112.023 124.649 108.752 125.19 105.462Z" fill="#8F9FC8"/>
<path d="M134.838 106.55C138.324 104.191 141.675 101.598 145.094 99.113C147.853 101.527 150.882 103.797 152.811 107.069C152.794 108.052 152.777 110.001 152.761 110.984C146.668 110.037 140.677 108.553 134.838 106.55Z" fill="#F18ECF"/>
<path d="M124.091 113.934C127.543 111.27 131.199 108.946 134.838 106.55C140.677 108.552 146.668 110.036 152.76 110.984C152.405 114.649 152.405 118.546 150.865 121.943C145.754 128.844 135.328 130.239 128.559 125.34C124.903 122.909 125.157 117.813 124.091 113.934Z" fill="#F9B3DE"/>
<path d="M10.7831 113.345C15.5896 112.594 21.073 113.381 24.9656 116.617C33.1569 125.341 27.0134 142.809 15.2342 143.363C8.81986 144.597 2.16863 140.145 0.256187 133.655C-0.894661 125.574 2.69328 115.598 10.7831 113.345Z" fill="#202647"/>
<path d="M164.285 146.474C155.959 137.303 164.827 120.39 176.098 120.247C182.97 119.46 188.233 124.877 193.395 128.757C193.446 131.617 193.412 134.478 193.259 137.338C190.585 142.183 187.725 147.475 182.817 150.139C176.725 152.982 168.804 151.909 164.285 146.474Z" fill="#F94A7F"/>
</svg>
