<svg width="216" height="337" viewBox="0 0 216 337" fill="none" xmlns="http://www.w3.org/2000/svg">
<path d="M166.885 6.27367C173.215 -0.520148 184.639 -0.949225 191.476 5.21885C195.386 10.6003 194.252 18.0377 193.592 24.3309L192.864 25.4215C187.804 19.4143 179.325 14.0687 171.844 18.5919C167.308 20.5228 166.479 25.9042 165.379 30.3202C164.719 29.909 163.416 29.0866 162.773 28.6754C161.994 21.0592 161.672 12.3702 166.885 6.27367Z" fill="#F9494B"/>
<path d="M171.844 18.5936C179.325 14.0703 187.804 19.416 192.864 25.4232C187.211 35.5603 173.943 37.4017 165.379 30.3219C166.479 25.9059 167.308 20.5245 171.844 18.5936Z" fill="#F96744"/>
<path d="M86.0715 55.3686C89.5918 48.0742 94.3475 38.8668 103.368 39.3137C114.623 38.545 120.191 54.4568 114.234 63.3245C109.918 71.4413 99.9833 72.5676 92.2827 69.9931C89.998 65.2196 87.9332 60.3209 86.0715 55.3686Z" fill="#1E3727"/>
<path d="M57.5544 84.0821C60.5162 81.4183 64.0026 79.4695 67.6413 78.0571C71.6354 78.8974 76.5942 78.8974 79.3021 82.6519C81.9761 86.7639 81.1468 92.2526 79.6405 96.6864C77.4742 104.142 68.7583 103.838 62.9025 105.644C58.8576 107.449 55.9128 102.926 55.1512 99.2788C54.2373 94.0941 55.9974 88.9272 57.5544 84.0821Z" fill="#783024"/>
<path d="M191.729 143.402C197.28 138.664 204.761 140.113 211.107 141.793C211.48 142.794 212.191 144.797 212.546 145.798C214.56 152.198 217.793 160.19 213.325 166.251C208.518 172.83 200.073 173.116 192.914 173.706C189.123 171.436 185.366 167.735 185.349 162.783C184.672 155.864 185.298 147.21 191.729 143.402Z" fill="#F93F6A"/>
<path d="M128.213 166.68C131.75 163.104 135.169 158.473 140.466 158.08C147.253 157.025 155.749 159.51 158.203 167.019C159.117 172.633 159.642 179.409 155.614 183.879C152.957 187.437 148.573 188.634 144.613 189.671C139.654 189.135 133.257 189.528 130.464 184.201C126.842 179.141 128.027 172.544 128.213 166.68Z" fill="#56E0F6"/>
<path d="M56.2681 170.13C59.5683 162.21 69.2321 158.492 76.408 162.89C73.2431 162.818 70.0952 162.8 66.9304 162.729C69.2998 168.879 72.4477 175.297 71.5168 182.127C70.3829 185.202 68.2504 187.669 66.4396 190.279C68.7243 190.852 71.0091 191.424 73.3108 192.032C70.4506 192.818 67.5227 193.802 64.544 193.426C60.7869 192.139 58.3159 188.653 55.4896 185.953C55.4896 180.661 55.4219 175.351 56.2681 170.13Z" fill="#F0C75C"/>
<path d="M66.9308 162.729C70.0956 162.8 73.2435 162.818 76.4083 162.889L77.83 162.925C79.4885 165.661 81.2825 168.307 82.9241 171.06C82.6534 176.173 82.4334 181.286 81.7733 186.364C78.9808 188.277 76.2052 190.261 73.3112 192.031C71.0095 191.423 68.7247 190.851 66.4399 190.279C68.2508 187.669 70.3833 185.202 71.5172 182.127C72.448 175.297 69.3001 168.879 66.9308 162.729Z" fill="#DCD886"/>
<path d="M79.9962 213.146C81.4686 208.105 85.2427 204.207 89.5584 201.758C93.8233 201.382 98.6129 200.238 102.387 203.116C110.155 208.659 111.898 221.799 105.213 229.04C101.101 234.511 94.0433 235.62 87.8829 234.44C80.7408 230.667 77.4237 220.995 79.9962 213.146Z" fill="#F9D63A"/>
<path d="M3.10939 258.806C7.7297 251.279 19.1197 251.53 24.6539 257.751C26.5833 263.258 27.1418 269.211 26.7018 275.076C22.623 281.941 14.0763 286.446 6.71426 282.692C0.215358 277.328 -2.0525 265.993 3.10939 258.806Z" fill="#1D2D58"/>
<path d="M90.5903 265.119C95.7522 263.438 102.573 261.418 106.618 266.567C113.184 272.431 112.186 282.693 107.599 289.505C106.059 283.909 105.111 277.991 102.234 272.949C99.6956 269.374 95.6676 267.496 91.9443 265.709L90.5903 265.119Z" fill="#2C3997"/>
<path d="M90.3536 266.102L91.9445 265.709C95.6678 267.497 99.6958 269.374 102.234 272.95C105.112 277.991 106.059 283.909 107.599 289.505C105.247 290.953 102.911 292.455 100.593 293.993C99.2558 293.921 96.5818 293.796 95.2278 293.742C96.5479 288.486 98.7142 283.158 97.9865 277.634C96.074 273.415 92.2492 270.661 89.2197 267.407L90.3536 266.102Z" fill="#563890"/>
<path d="M84.0569 273.361C85.8509 271.466 87.5264 269.41 89.2188 267.407C92.2482 270.661 96.0731 273.415 97.9856 277.634C98.7133 283.158 96.547 288.486 95.2269 293.742C94.4484 293.725 92.8575 293.707 92.079 293.689C86.5955 288.45 84.4969 280.924 84.0569 273.361Z" fill="#763A97"/>
<path d="M48.1103 281.369C59.5511 280.1 66.9978 296.012 61.1251 305.791C57.3002 314.891 43.4054 317.645 38.1758 308.58C31.3384 299.158 36.4326 282.71 48.1103 281.369Z" fill="#F97E97"/>
<path d="M167.629 302.019C170.794 295.619 178.292 293.688 184.621 294.528C189.022 296.799 191.983 301.108 194.133 305.631C194.454 311.799 194.471 319.129 189.428 323.366C185.4 327.353 179.646 326.209 174.653 326.084C165.531 323.098 162.857 310.065 167.629 302.019Z" fill="#6AF9D0"/>
<path d="M131.023 300.84C135.914 298.284 141.837 300.447 145.899 303.755C151.433 308.492 152.28 316.716 151.112 323.689C148.252 334.935 132.36 341.067 124.592 331.609C115.977 322.527 119.142 304.899 131.023 300.84Z" fill="#F84C58"/>
</svg>
