<svg width="125" height="125" viewBox="0 0 125 125" fill="none" xmlns="http://www.w3.org/2000/svg">
<g filter="url(#filter0_i)">
<rect x="-0.000488281" width="125" height="124.874" rx="45" fill="#E5C8E4"/>
<path d="M73.0207 10.4994C74.3187 9.43572 76.1049 9.07298 77.7539 9.31416C77.8909 9.3342 78.0194 9.37029 78.1464 9.42549C78.8078 9.7129 78.3713 10.3544 77.7806 10.7681C77.4468 11.0019 77.1349 11.2723 76.8121 11.5146C76.1928 11.9598 75.9038 12.7019 75.8092 13.4254C75.7938 15.0208 76.4423 16.7696 77.9217 17.5943C78.6324 17.878 79.4342 17.7871 80.1289 17.4921C80.2415 17.4442 80.3894 17.3828 80.4876 17.4558C80.8061 17.6926 80.3863 18.2052 80.0511 18.4177C78.8765 19.1621 77.6014 19.85 76.167 19.7699C74.7427 19.8154 73.394 19.0953 72.4823 18.053C71.4897 17.0563 71.1784 15.6245 71.1182 14.277C71.1268 12.8233 71.8097 11.3628 73.0207 10.4994ZM72.4376 12.2954C71.8149 13.2028 71.8802 14.3462 71.9834 15.385C72.343 17.3792 74.2091 19.0877 76.3129 19.0969C76.3326 19.097 76.3535 19.0987 76.3729 19.1014C76.7942 19.1589 76.8759 17.9333 76.5684 17.6397C76.0734 17.1671 75.6959 16.5678 75.479 15.9281C74.9216 14.5435 74.7496 12.8402 75.6217 11.5433C76.1339 10.834 75.9226 9.97874 75.0943 10.2605C74.0118 10.6287 73.0526 11.3202 72.4376 12.2954Z" fill="#080304"/>
<path d="M72.6671 12.719C73.2387 11.7339 74.1228 11.0286 75.1236 10.6413C75.9648 10.3158 76.1972 11.1896 75.698 11.9409C74.8678 13.2825 75.0316 15.0444 75.5621 16.4767C75.7722 17.1497 76.1403 17.7795 76.6234 18.2722C76.9278 18.5827 76.8486 19.8223 76.4182 19.76C76.3963 19.7568 76.3729 19.7548 76.3508 19.7546C74.3503 19.742 72.5768 17.976 72.2348 15.915C72.1365 14.8403 72.0743 13.6575 72.6671 12.719Z" fill="#F5DCB6"/>
<path d="M91.4381 28.4054C91.4559 28.3004 91.5408 28.2219 91.6471 28.216C91.7755 28.2089 91.8866 28.3103 91.8927 28.4388C91.9227 29.073 92.0424 29.7002 92.1325 30.3285C92.2639 31.245 93.0027 32.0812 93.9114 32.2589C94.3046 32.3358 94.6976 32.4173 95.0934 32.4774C95.2361 32.499 95.3427 32.626 95.3397 32.7704C95.3373 32.8856 95.2639 32.9842 95.1541 33.0194C94.6951 33.1665 94.2231 33.2598 93.7458 33.3084C93.1638 33.3676 92.6879 33.8594 92.8149 34.4305C92.9471 35.0251 92.5554 35.6382 92.0232 35.3422C91.8798 35.2624 91.7426 35.1664 91.6108 35.0609C91.0649 34.6242 90.3557 34.5876 89.7896 34.9977C89.6557 35.0946 89.5168 35.1805 89.3699 35.2463C88.9747 35.4233 88.4028 35.0596 88.6072 34.6779C88.6339 34.628 88.6726 34.5786 88.7017 34.5301C88.7702 34.4165 88.8411 34.3042 88.9133 34.1928C89.3477 33.5226 89.0446 32.8245 88.4012 32.3513C88.3036 32.2795 88.2174 32.1975 88.1482 32.1004C87.9506 31.8232 88.1596 31.457 88.4925 31.3855C88.8829 31.3017 89.2982 31.3346 89.6822 31.4579C89.884 31.5227 89.8759 31.7777 89.6756 31.8468C89.46 31.9212 89.4362 32.1994 89.6406 32.3005C89.8146 32.3865 89.9858 32.4768 90.1439 32.5873C90.2672 32.6734 90.3343 32.8219 90.2995 32.9682C90.2939 32.9918 90.2875 33.0152 90.2805 33.0384C90.1278 33.5455 90.2857 33.617 90.8137 33.5761C90.9312 33.567 91.0424 33.6282 91.1246 33.7126C91.1627 33.7519 91.2007 33.7914 91.2384 33.8311C91.5974 34.2084 92.1626 33.9457 92.0851 33.4307C92.0684 33.3195 92.0508 33.2084 92.0322 33.0975C92.0163 33.0021 92.0738 32.9083 92.168 32.886C92.3841 32.8347 92.5006 32.3171 92.3293 32.1757C92.1694 32.0436 92.0236 31.8945 91.897 31.726C91.8826 31.7068 91.871 31.6856 91.8625 31.6631C91.8211 31.5531 91.7871 31.4411 91.7577 31.3278C91.6892 31.0632 91.323 31.025 91.1745 31.2545C91.1624 31.2732 91.1501 31.2917 91.1375 31.31C91.0241 31.4747 90.7993 31.377 90.7894 31.1773C90.7879 31.1462 90.7928 31.1237 90.8029 31.0942C91.1028 30.2203 91.2831 29.3158 91.4381 28.4054Z" fill="#13080E"/>
<path d="M91.0053 31.1027C91.1484 30.8842 91.4971 30.921 91.5635 31.1735C91.5915 31.2801 91.6239 31.3854 91.6633 31.4889C91.6714 31.5102 91.6826 31.5302 91.6963 31.5483C91.8166 31.7064 91.955 31.8464 92.1066 31.9705C92.2695 32.1037 92.1597 32.5964 91.9548 32.6445C91.8653 32.6655 91.8106 32.7546 91.8259 32.8452C91.8438 32.9512 91.8609 33.0573 91.8771 33.1636C91.9512 33.6508 91.4169 33.9017 91.0753 33.5465C91.0361 33.5058 90.9967 33.4652 90.957 33.425C90.8786 33.3454 90.7724 33.2878 90.6609 33.2962C90.1566 33.3341 90.0093 33.2636 90.1527 32.7787C90.1582 32.7603 90.1631 32.7419 90.1677 32.7232C90.2013 32.5845 90.137 32.4434 90.0194 32.3623C90.0002 32.349 89.9807 32.336 89.961 32.3233C89.6265 32.1069 89.6593 31.6543 90.0199 31.485C90.1699 31.3883 90.3068 31.2736 90.4427 31.1572C90.5217 31.0894 90.6422 31.1421 90.6472 31.2461C90.6522 31.3505 90.7719 31.4 90.8406 31.3212C90.9008 31.2522 90.9553 31.179 91.0053 31.1027Z" fill="#F2DCB7"/>
<path d="M76.4409 31.5715C76.4532 31.4523 76.5537 31.3627 76.6735 31.3643C76.7948 31.366 76.8949 31.4603 76.9025 31.5814C76.9072 31.6568 76.9114 31.7322 76.9149 31.8077C76.9216 31.9483 77.0279 32.0644 77.1677 32.0809C77.2111 32.086 77.2546 32.0912 77.2981 32.0964C77.3767 32.1059 77.4335 32.1759 77.4263 32.2548C77.4253 32.2667 77.4242 32.2786 77.4231 32.2902C77.4187 32.3379 77.3818 32.3761 77.3342 32.3822C77.3046 32.386 77.2724 32.3901 77.2403 32.3943C77.1801 32.402 77.1419 32.3322 77.1818 32.2866C77.2142 32.2495 77.1971 32.1908 77.1497 32.1775C77.0979 32.1629 77.0464 32.1483 76.9952 32.1338C76.9409 32.1184 76.8981 32.0766 76.8813 32.0227C76.8782 32.0128 76.8751 32.0029 76.872 31.9931C76.8115 31.8001 76.5554 31.8087 76.502 32.0038C76.4942 32.0321 76.4863 32.0605 76.4782 32.0888C76.4742 32.1029 76.4633 32.1141 76.4493 32.1186C76.4191 32.1281 76.3889 32.1036 76.3921 32.072C76.409 31.905 76.4237 31.7381 76.4409 31.5715Z" fill="#816F82"/>
<path d="M76.7992 32.1999C76.8393 32.1808 76.8679 32.1438 76.876 32.1002C76.8766 32.0968 76.8773 32.0934 76.8779 32.0901C76.9091 31.921 77.1327 31.9161 77.1675 32.0845C77.1782 32.136 77.2136 32.1793 77.262 32.2C77.354 32.2392 77.3928 32.3514 77.3433 32.4383C77.3303 32.4612 77.3173 32.4841 77.3044 32.5072C77.1619 32.7259 77.2305 33.0259 77.2498 33.3013C77.256 33.3908 77.1725 33.4566 77.0839 33.4427C77.0169 33.4322 76.9681 33.3785 76.963 33.3109C76.9535 33.1859 76.9494 33.0607 76.9473 32.9354C76.9448 32.7894 76.8506 32.6616 76.7117 32.6166C76.5312 32.5582 76.4556 32.345 76.629 32.2681C76.685 32.2433 76.7434 32.2239 76.7992 32.1999Z" fill="#0C040C"/>
<path d="M80.6108 31.8811C80.6234 31.6229 80.8045 31.3891 81.0623 31.3703C81.0914 31.3682 81.1205 31.3666 81.1496 31.3654C81.4354 31.3534 81.6512 31.6001 81.651 31.8861C81.6507 32.1742 81.4295 32.4433 81.1439 32.4049C81.0329 32.39 80.9226 32.3584 80.8137 32.2989C80.6643 32.2173 80.6026 32.0511 80.6108 31.8811Z" fill="#1C081C"/>
<path d="M76.2388 36.0227C76.3574 36.3075 76.1837 36.6331 75.8751 36.63C75.2913 36.6241 75.1546 36.0439 75.5783 35.7418C75.8141 35.5735 76.1274 35.7552 76.2388 36.0227Z" fill="#533B53"/>
<path d="M29.7517 38.5175C29.894 38.4595 30.0023 38.3433 30.0541 38.1987C30.0722 38.148 30.092 38.0979 30.1151 38.0494C30.2273 37.8141 30.5 37.94 30.5383 38.1979C30.5392 38.2037 30.5401 38.2095 30.541 38.2152C30.5511 38.282 30.5801 38.3427 30.6328 38.3849C30.827 38.5403 30.8357 38.8211 30.667 39.0039C30.5929 39.0842 30.5294 39.1704 30.4764 39.2619C30.3507 39.4786 30.0642 39.565 29.9557 39.3392C29.9065 39.2368 29.8141 39.1668 29.7024 39.146C29.6878 39.1433 29.6733 39.1406 29.6587 39.1377C29.3536 39.0782 29.2892 38.7224 29.5725 38.5942C29.6315 38.5675 29.6914 38.5421 29.7517 38.5175Z" fill="#0B050C"/>
<path d="M74.9728 38.715C74.6267 38.73 74.1585 38.5593 74.3337 38.2605C74.4669 38.0333 74.8325 37.8231 75.3435 37.7315C75.8245 37.6452 76.0697 38.1571 75.7244 38.5028C75.6092 38.6181 75.4437 38.694 75.2809 38.7014C75.178 38.706 75.0752 38.7106 74.9728 38.715Z" fill="#120814"/>
<path d="M34.2814 37.8501C34.2884 37.7623 34.3727 37.7027 34.4573 37.7271C34.5131 37.7432 34.5533 37.7925 34.5591 37.8503C34.6801 39.0741 34.9264 40.1598 35.1993 41.1878C35.2273 41.3172 35.2554 41.448 35.283 41.579C35.2963 41.6418 35.2749 41.7067 35.2273 41.7497C35.2027 41.7719 35.1781 41.7942 35.1536 41.8165C35.0944 41.8704 34.9995 41.849 34.9714 41.7741C34.9269 41.6554 34.7383 41.6864 34.734 41.8131C34.7247 42.094 34.7089 42.3734 34.6864 42.65C34.6781 42.7506 34.5453 42.7781 34.4896 42.6939C34.4781 42.6765 34.4751 42.661 34.475 42.6401C34.4631 41.0317 34.1549 39.4511 34.2814 37.8501Z" fill="#060304"/>
<path d="M35.4747 41.4423C35.3841 41.2813 35.4504 41.0767 35.6119 40.9867C36.248 40.6321 36.847 40.1209 37.5255 39.8993C38.0194 39.738 38.5058 40.3008 38.185 40.7095C37.8331 41.2268 37.5011 41.7609 37.1289 42.2641C36.8924 42.5839 36.4441 42.4771 36.4166 42.0804C36.4155 42.0643 36.4144 42.0483 36.4134 42.0323C36.3964 41.7649 36.1682 41.5601 35.9019 41.5896C35.8651 41.5937 35.8282 41.5979 35.7914 41.6023C35.6633 41.6176 35.538 41.5547 35.4747 41.4423Z" fill="#090408"/>
<path d="M34.8153 41.4629C34.8234 41.3061 35.0469 41.2532 35.1222 41.391C35.1636 41.4667 35.2602 41.4909 35.3333 41.445C35.3919 41.4083 35.4506 41.3719 35.5096 41.3355C35.5376 41.3183 35.5683 41.3053 35.6003 41.2979C35.7853 41.2549 35.9542 41.3994 35.9599 41.5892C35.9691 41.8948 35.9853 42.2001 36.0394 42.4914C36.0573 42.6006 35.9263 42.6753 35.8393 42.607C35.8374 42.6054 35.8354 42.6039 35.8334 42.6023C35.7617 42.5462 35.6574 42.5901 35.645 42.6804C35.6223 42.8456 35.5994 43.0108 35.5768 43.176C35.5664 43.2519 35.5942 43.328 35.651 43.3794C35.7425 43.4623 35.8342 43.5448 35.926 43.6267C36.0362 43.7249 35.9415 43.9143 35.7965 43.8872C35.7476 43.8781 35.7071 43.8444 35.6894 43.7979C35.6348 43.6547 35.5791 43.5127 35.5228 43.3721C35.4898 43.2897 35.3749 43.2868 35.3391 43.3681C35.2952 43.4679 35.1437 43.4386 35.1414 43.3296C35.1385 43.195 35.135 43.0605 35.1305 42.9262C35.1264 42.8042 35.0073 42.7202 34.8941 42.7658C34.8533 42.7823 34.8127 42.7998 34.7722 42.8183C34.5942 42.8994 34.3763 42.8097 34.3296 42.6197C34.3143 42.5575 34.299 42.4956 34.2838 42.4339C34.2645 42.3573 34.3002 42.2777 34.3709 42.2424C34.3816 42.237 34.3924 42.2316 34.4029 42.2264C34.451 42.2025 34.5035 42.207 34.5408 42.2456C34.6119 42.3193 34.7415 42.2847 34.7537 42.1831C34.7824 41.9451 34.8028 41.7046 34.8153 41.4629Z" fill="#F0DBB7"/>
<path d="M33.2749 43.947C33.2025 43.8535 33.1969 43.721 33.2535 43.6172C33.3667 43.4097 33.6205 43.2563 33.8476 43.1045C33.9612 43.0286 34.1212 43.0617 34.1846 43.1826C34.2322 43.2733 34.337 43.3188 34.4361 43.2931C34.6426 43.2396 34.8519 43.1941 35.0642 43.1573C35.1871 43.136 35.3003 43.2256 35.3084 43.35C35.3108 43.3877 35.3131 43.4254 35.3151 43.4632C35.3234 43.6175 35.5144 43.6893 35.6206 43.5771C35.6899 43.5038 35.8071 43.5065 35.8728 43.583C35.9608 43.6852 36.0477 43.7884 36.1329 43.8927C36.154 43.9185 36.1846 43.9347 36.2178 43.9375C36.3595 43.9496 36.4111 43.74 36.28 43.6851C36.2071 43.6546 36.1344 43.624 36.0616 43.5933C35.9892 43.5628 35.9512 43.4829 35.9734 43.4075C35.9856 43.3661 35.9979 43.3247 36.0101 43.2833C36.0588 43.1189 36.235 43.0274 36.3957 43.087C36.5044 43.1273 36.6123 43.1692 36.7198 43.2133C37.2338 43.453 37.7961 43.6239 38.2916 43.8923C38.3903 43.9458 38.4566 44.0442 38.4613 44.1564C38.4693 44.3439 38.3263 44.5061 38.1397 44.5265C37.8339 44.56 37.5234 44.5737 37.2182 44.5548C36.483 44.5092 35.6688 44.7803 35.3587 45.4485C35.2899 45.5966 35.2186 45.7438 35.1429 45.8895C35.0766 46.0172 34.9448 46.0965 34.8009 46.1004C34.6038 46.1058 34.4275 45.9691 34.4192 45.772C34.4102 45.5553 34.4315 45.3391 34.4656 45.1231C34.5698 44.4619 34.1161 44.2415 33.4686 44.0718C33.3919 44.0517 33.3258 44.0127 33.2749 43.947Z" fill="#070307"/>
<path d="M71.0432 45.3313C71.2051 45.2682 71.3623 45.1772 71.4458 45.0248C71.6614 44.631 71.6061 44.0556 71.7268 43.6074C71.8815 43.0327 72.5354 43.389 72.7584 43.9408C72.8469 44.16 72.9557 44.3704 73.1024 44.5627C73.1708 44.6524 73.1886 44.7673 73.1288 44.863C73.0347 45.0135 72.8139 45.0281 72.7134 44.8818C72.6743 44.8249 72.6355 44.7678 72.5969 44.7105C72.4006 44.4187 71.9701 44.5065 71.9541 44.8578C71.948 44.9922 71.9454 45.1269 71.9456 45.2616C71.9458 45.3803 71.8841 45.4912 71.7819 45.5517C71.5794 45.6715 71.5883 45.9282 71.7847 46.0576C71.9329 46.1553 72.0499 46.2758 72.0517 46.4653C72.0564 46.4973 72.0607 46.5292 72.0646 46.5612C72.0934 46.7944 72.4336 46.8529 72.616 46.7049C72.7237 46.6175 72.8815 46.7025 72.8821 46.8412C72.8826 46.9444 72.8816 47.0479 72.879 47.1515C72.8779 47.1977 72.8687 47.2432 72.8541 47.287C72.6499 47.899 72.6725 48.5988 72.2516 49.1217C72.1913 49.1966 72.0988 49.237 72.0029 49.2439C71.7907 49.2591 71.6056 49.1027 71.5946 48.8903C71.5648 48.3149 71.5931 47.7381 71.5869 47.1624C71.583 46.8104 71.4223 46.4611 71.0835 46.3653C70.8387 46.296 70.5683 46.2696 70.3147 46.2251C70.1662 46.199 70.0647 46.0665 70.0652 45.9157C70.0656 45.7803 70.1487 45.659 70.2757 45.6119C70.5307 45.5173 70.7897 45.43 71.0432 45.3313Z" fill="#12090E"/>
<path d="M71.9189 44.8242C71.9428 44.428 72.4032 44.3059 72.7014 44.5678C72.8054 44.6591 72.9108 44.75 73.018 44.8402C73.1421 44.9445 73.324 44.9386 73.4425 44.8279C73.4462 44.8244 73.45 44.8209 73.4537 44.8174C73.5611 44.7171 73.7246 44.7062 73.8455 44.7897C74.0572 44.9397 74.0559 45.2468 73.9034 45.4567C73.7834 45.6218 73.7225 45.7978 73.7535 45.9829C73.8053 46.19 73.6743 46.3623 73.4374 46.4998C73.3167 46.5699 73.1767 46.4679 73.1756 46.3284C73.1748 46.2105 73.0641 46.125 72.9526 46.1632C72.8702 46.1916 72.7983 46.2245 72.7352 46.2611C72.484 46.4067 72.1288 46.3442 72.0627 46.0615C72.0578 46.0405 72.0556 46.0184 72.0519 45.9973C72.0308 45.8764 71.9025 45.7932 71.7375 45.7251C71.5228 45.6364 71.5164 45.3693 71.736 45.2934C71.8417 45.257 71.9112 45.1557 71.9118 45.0439C71.9122 44.9706 71.9144 44.8974 71.9189 44.8242Z" fill="#F2DBB8"/>
<path d="M73.4247 44.7014C73.3383 44.5206 73.3912 44.3009 73.5648 44.2008C73.6056 44.1772 73.6467 44.1552 73.6881 44.1351C73.9875 43.9895 74.2489 44.2807 74.164 44.6026C74.108 44.8149 74.0368 45.0166 73.9563 45.208C73.7955 45.5902 73.7822 46.0339 74.02 46.3735C74.0704 46.4455 74.1218 46.5153 74.1745 46.5825C74.2206 46.6414 74.2488 46.7011 74.2541 46.7757C74.2678 46.9701 74.1237 47.1554 73.929 47.1621C73.7867 47.167 73.6446 47.1603 73.5045 47.1248C73.4072 47.1002 73.3155 47.0426 73.2852 46.9469C73.2292 46.7692 73.2616 46.509 73.2293 46.3197C73.204 45.8596 73.2943 45.4343 73.4366 45.0543C73.4795 44.9398 73.4774 44.8116 73.4247 44.7014Z" fill="#0D0508"/>
<path d="M64.0512 45.3239C64.0986 45.167 64.2456 45.0615 64.4093 45.0709C64.5648 45.0798 64.697 45.1907 64.7221 45.3445C64.8024 45.8368 64.7956 46.3389 64.8633 46.8328C65.2028 48.9268 65.7095 50.9996 66.5027 52.9724C66.6848 53.5032 66.9961 53.9768 67.3008 54.4454C67.7723 55.1587 68.0702 55.9802 68.626 56.6365C68.6584 56.6747 68.7013 56.7122 68.7337 56.7504C69.0334 57.1032 68.4321 57.5395 67.9692 57.5398C67.8632 57.5399 67.7573 57.5395 67.6513 57.539C66.7615 57.5348 66.1917 58.4295 66.6037 59.2182C67.179 60.319 67.8451 61.375 68.6256 62.3414C68.7779 62.5348 68.9352 62.7249 69.1008 62.9084C69.1412 62.9634 69.184 63.0166 69.2289 63.0685C70.0802 64.0537 69.7412 64.7473 68.4865 64.3994C68.3641 64.3569 68.2399 64.3249 68.1145 64.301C67.3203 64.1496 66.7544 65.0117 67.2131 65.6775C67.9086 66.8556 68.7663 67.9485 69.7996 68.8562C70.2335 69.2462 70.6011 69.7017 71.0333 70.0917C71.279 70.318 71.5727 70.4759 71.8591 70.6444C72.1679 70.8261 72.5129 71.3366 72.1705 71.4417C72.0817 71.4689 71.9739 71.4219 71.8822 71.4075C71.3246 71.3196 70.7716 71.2081 70.2086 71.1764C70.0824 71.1689 69.9587 71.1527 69.8371 71.1295C68.7077 70.9142 68.0082 71.4367 68.4202 72.5101C68.9889 73.641 69.804 74.6234 70.5115 75.6698C70.7021 75.9516 70.5958 76.3363 70.2572 76.3692C69.7732 76.4161 69.4812 76.8904 69.7675 77.2834C70.2667 77.9688 70.7982 78.6296 71.4357 79.1986C72.2771 80.1062 73.3474 80.8038 74.5545 81.121C74.6668 81.1505 74.759 81.2177 74.8114 81.3213C74.8957 81.4878 74.855 81.6994 74.7019 81.806C74.1088 82.2186 73.4448 82.5258 72.7325 82.6727C72.6554 82.6886 72.5789 82.7079 72.504 82.732C72.1932 82.8316 71.8786 82.9157 71.5611 82.9856C70.576 83.2025 69.9374 84.505 70.568 85.2922C71.6245 86.6326 72.3961 88.294 73.9328 89.1887C74.3534 89.4975 74.8568 89.6434 75.3366 89.8363C75.4575 89.8849 75.5578 89.9774 75.5877 90.1041C75.6419 90.3344 75.5205 90.5772 75.3154 90.695C74.8298 90.974 74.3239 91.2234 73.7573 91.2778C73.3417 91.3134 72.9251 91.3214 72.5083 91.3218C71.6296 91.3226 71.2928 92.1978 71.8232 92.8983C72.4143 93.67 73.0767 94.4401 73.9842 94.8514C74.9575 95.4161 75.9695 95.9273 77.0569 96.2337C77.2421 96.2859 77.3823 96.4396 77.4051 96.6307C77.4254 96.8002 77.3525 96.9684 77.2131 97.0669C75.6853 98.1464 74.0256 99.0947 72.1825 99.5163C71.5913 99.608 70.9985 99.6916 70.4107 99.8014C69.9957 99.8485 69.5786 99.8337 69.1638 99.7987C69.0027 99.7852 68.8706 99.6658 68.8366 99.5078C68.7839 99.2627 68.9847 99.0377 69.2354 99.0428C70.146 99.0612 71.0499 98.9153 71.949 98.7658C72.3134 98.677 72.6704 98.5676 73.0206 98.4409C74.4088 97.9385 74.2823 95.9172 72.989 95.2053C72.2256 94.7154 71.646 93.9994 71.1111 93.2833C70.4923 92.5219 69.7182 91.8864 69.1752 91.066C69.1397 91.0125 69.1145 90.9521 69.1081 90.8882C69.0765 90.578 69.3967 90.3501 69.7036 90.4049C70.1405 90.4828 70.5788 90.554 71.025 90.5437C71.1892 90.5418 71.3536 90.542 71.5181 90.5431C72.6136 90.5504 72.7825 89.548 72.1047 88.6873C71.5963 88.0532 71.0813 87.4207 70.6276 86.7473C69.8758 85.5331 68.8988 84.4746 68.1371 83.2687C67.9231 82.9445 68.2001 82.5289 68.5878 82.5064C69.4584 82.4559 70.3464 82.6001 71.1956 82.3544C71.3395 82.3138 71.4836 82.2738 71.6279 82.234C72.4081 82.0192 72.5155 81.0639 71.8795 80.5635C70.4488 79.3444 69.1687 77.9123 68.3159 76.2378C68.2135 76.0623 68.2938 75.8943 68.3928 75.7421C68.4542 75.6478 68.5436 75.5732 68.6549 75.5565C69.0633 75.4952 69.3136 75.1723 69.0798 74.8319C68.5816 74.1063 68.047 73.4032 67.7115 72.5855C67.5522 72.2025 67.3592 71.8238 67.1801 71.4401C66.6504 70.3045 67.5476 69.4475 68.6802 69.9835C68.706 69.9977 68.7319 70.0116 68.758 70.0253C69.314 70.317 69.7117 69.6595 69.2333 69.2527C67.9466 68.186 67.1038 66.7212 66.2559 65.3154C66.0402 64.9819 65.9707 64.6006 65.9594 64.2153C65.951 63.9297 66.1652 63.6874 66.449 63.6546C67.1226 63.5767 67.8068 62.3555 67.4162 61.8011C67.1966 61.4893 66.9906 61.1682 66.8007 60.8373C66.2688 59.9089 65.7156 58.9823 65.3082 57.9949C65.0812 57.4449 65.5163 56.8857 66.1112 56.8951C66.7756 56.9056 67.1931 56.2048 66.8879 55.6146C66.4241 54.7175 65.9689 53.8149 65.5373 52.9019C65.3367 52.3754 65.1691 51.8392 65.0218 51.2974C64.7087 50.1461 63.2313 50.0582 62.8248 51.1798C62.136 52.6725 61.5779 54.2209 60.9835 55.7513C60.8099 56.219 60.5476 56.6368 60.2509 57.0319C60.0919 57.2436 60.3029 57.54 60.5494 57.4435C60.5628 57.4383 60.5765 57.4342 60.5906 57.4313C60.7118 57.4063 60.8341 57.3833 60.9564 57.3612C61.0852 57.3379 61.1994 57.4505 61.1876 57.5808C61.1817 57.6458 61.1454 57.6959 61.0888 57.7284C60.8023 57.8925 60.4962 58.0612 60.1787 58.1971C59.2401 58.599 58.7428 57.7634 59.4057 56.987C59.4348 56.9529 59.4629 56.9185 59.4898 56.8835C60.1439 56.1691 60.4834 55.2499 60.7864 54.3504C61.2931 53.1739 61.7005 51.9565 62.2519 50.7997C62.86 48.9774 63.4952 47.1625 64.0512 45.3239Z" fill="#070403"/>
<path d="M35.5403 46.7182C35.4404 46.4481 35.6643 46.1667 35.9488 46.2115C36.0621 46.2294 36.1624 46.2976 36.2144 46.3998C36.2743 46.5173 36.3248 46.6363 36.3464 46.7559C36.39 46.9983 36.1127 47.1112 35.8775 47.0382C35.8579 47.0321 35.8385 47.0261 35.8195 47.0202C35.6983 46.9825 35.6029 46.8892 35.5594 46.77C35.553 46.7527 35.5467 46.7355 35.5403 46.7182Z" fill="#120818"/>
<path d="M62.9853 51.063C63.3895 49.9354 64.8751 50.0229 65.1861 51.1797C65.334 51.7296 65.5021 52.2735 65.7034 52.8078C66.138 53.7371 66.5963 54.6557 67.0634 55.5688C67.367 56.1624 66.9469 56.8642 66.2803 56.8535C65.6826 56.8439 65.2447 57.4049 65.47 57.9585C65.8787 58.9623 66.4348 59.904 66.9695 60.8474C67.1628 61.1881 67.3729 61.5187 67.5971 61.8394C67.9878 62.3984 67.2957 63.6226 66.6183 63.7016C66.333 63.7349 66.1182 63.9788 66.1262 64.266C66.1372 64.6576 66.2067 65.0454 66.4235 65.3843C67.2732 66.8087 68.1178 68.2928 69.4071 69.3735C69.8889 69.7875 69.4838 70.4508 68.9232 70.1521C68.8997 70.1396 68.8762 70.1268 68.8529 70.1138C67.7185 69.5711 66.8159 70.4295 67.3416 71.5719C67.5232 71.9667 67.7201 72.3561 67.8822 72.75C68.2194 73.5811 68.7574 74.2953 69.258 75.0328C69.4908 75.3758 69.2386 75.6982 68.8287 75.7599C68.7164 75.7768 68.6264 75.8525 68.5649 75.948C68.4657 76.1022 68.3852 76.2724 68.4878 76.4503C69.3424 78.1468 70.6251 79.5977 72.0589 80.8328C72.6994 81.3425 72.5904 82.3072 71.8019 82.5267C71.6589 82.5665 71.5162 82.6067 71.3735 82.6473C70.5248 82.8956 69.6373 82.7508 68.767 82.8009C68.374 82.8235 68.0934 83.244 68.3086 83.5736C69.0719 84.7954 70.051 85.8678 70.8044 87.0979C71.259 87.7802 71.7751 88.4209 72.2845 89.0634C72.9659 89.9381 72.7939 90.9507 71.6852 90.9435C71.5242 90.9425 71.3633 90.9423 71.2026 90.9442C70.7578 90.9545 70.3209 90.8833 69.8854 90.8048C69.5743 90.7488 69.2499 90.9796 69.2817 91.2941C69.2882 91.3582 69.3133 91.419 69.3486 91.4729C69.8928 92.3043 70.6687 92.9482 71.2889 93.7198C71.8249 94.4453 72.4057 95.1707 73.1707 95.6671C74.4739 96.3923 74.6035 98.4324 73.2029 98.945C72.8519 99.0735 72.4939 99.1844 72.1286 99.2744C71.3385 99.4071 70.5448 99.5372 69.7461 99.5546C69.2647 99.5651 68.8221 99.8799 68.7846 100.36C68.7607 100.666 68.9064 100.956 69.1483 101.145C69.1773 101.167 69.2062 101.19 69.235 101.213C69.3224 101.283 69.397 101.367 69.4604 101.459C69.4664 101.468 69.4724 101.476 69.4785 101.485C70.0855 102.362 69.7597 103.697 68.7085 103.879C67.9956 104.002 67.2741 104.066 66.5497 104.039C65.5812 104.051 64.7552 103.487 63.865 103.187C63.7854 103.16 63.703 103.191 63.6682 103.267C63.6125 103.39 63.4413 103.408 63.3758 103.291C63.321 103.193 63.2683 103.094 63.2167 102.995C63.1755 102.916 63.167 102.824 63.1902 102.738C63.1941 102.724 63.198 102.709 63.2018 102.695C63.2761 102.412 63.0572 102.145 62.7667 102.175C62.3177 102.222 61.8732 102.309 61.4221 102.324C60.7423 102.332 60.0622 102.33 59.3822 102.329C58.7452 102.327 58.5281 101.263 58.9214 100.762C59.5586 99.9782 60.1992 99.1698 60.5808 98.2252C60.7548 97.837 60.2672 97.4627 59.8742 97.6254C59.4744 97.7909 59.1044 98.0472 58.7074 98.2186C57.5259 98.7183 56.2249 98.7498 54.9638 98.7598C54.0703 98.7311 54.0252 97.7104 54.8494 97.3643C55.3448 97.1563 55.8256 96.9189 56.2697 96.6083C57.0811 95.9891 57.9673 95.4529 58.6277 94.6578C58.7657 94.4801 58.9666 94.3181 59.141 94.1427C59.5786 93.7028 59.3908 92.8955 58.7704 92.9064C57.6039 92.8931 56.4373 92.913 55.2707 92.9047C53.9887 92.9088 53.7087 91.4142 54.7278 90.6364C54.8596 90.5358 54.9885 90.4309 55.1131 90.32C55.9959 89.7208 56.7509 88.9588 57.4014 88.1171C57.9988 87.2523 58.4501 86.2961 59.0193 85.4146C59.5093 84.8279 59.0114 84.2142 58.2476 84.245C57.3567 84.281 56.4632 84.2633 55.5714 84.2418C55.5027 84.2401 55.4344 84.2336 55.3667 84.2218C54.2422 84.0257 54.0105 82.5992 54.9005 81.8844C55.1915 81.6507 55.4867 81.4227 55.7935 81.2096C56.6779 80.5506 57.4147 79.7206 58.2759 79.035C58.938 78.4739 59.4259 77.7468 59.9785 77.0844C60.2187 76.8137 59.9086 76.4092 59.5469 76.4192C58.9519 76.4357 58.3584 76.5327 57.7615 76.4968C56.3084 76.4991 56.2146 74.7901 57.1096 73.6453C57.1218 73.6297 57.1339 73.6141 57.1459 73.5983C57.647 72.8148 58.095 71.9997 58.5414 71.1846C58.6841 70.9488 58.7455 70.6766 58.7488 70.4027C58.7487 70.396 58.7485 70.3886 58.7484 70.3807C58.7458 70.2374 58.8264 70.1056 58.9481 70.03C59.2321 69.8538 59.0717 69.5109 58.7437 69.5746C58.5133 69.6193 58.2847 69.6735 58.0569 69.7329C57.3854 69.9078 57.0452 69.2253 57.555 68.7544C57.911 68.4256 58.246 68.0756 58.5398 67.6852C59.1736 66.9348 59.6167 66.0517 60.0448 65.1735C60.3119 64.7476 59.6512 64.3558 59.1753 64.518C59.0557 64.5588 58.9361 64.5998 58.8163 64.6384C58.1246 64.8609 57.9517 64.1819 58.5915 63.8377C58.7027 63.7779 58.8004 63.696 58.8787 63.597C59.6282 62.6496 60.4498 61.7274 60.9227 60.6001C61.3325 59.7053 61.8237 58.8504 62.363 58.0303C62.6628 57.6121 62.171 56.9979 61.6589 57.0478C61.3414 57.0787 61.0303 57.2057 60.7471 57.3869C60.7325 57.3963 60.7171 57.4043 60.701 57.4107C60.4543 57.5082 60.2418 57.2125 60.4002 56.9997C60.6998 56.5972 60.965 56.1715 61.14 55.6946C61.7358 54.1441 62.295 52.5754 62.9853 51.063Z" fill="#FCFFDF"/>
<path d="M74.2788 49.3363C74.2641 48.6849 75.0751 48.6141 75.2297 49.2471C75.2646 49.39 75.289 49.5367 75.3054 49.6841C75.3303 49.9083 75.1903 50.1121 74.9776 50.1871C74.7523 50.2667 74.4913 50.1856 74.4046 49.9629C74.3258 49.7605 74.2835 49.5484 74.2788 49.3363Z" fill="#1A091A"/>
<path d="M80.3818 50.5286C80.4234 50.4089 80.5368 50.3283 80.6635 50.3263C80.7859 50.3245 80.8989 50.3958 80.9318 50.5137C81.0651 50.9926 80.9601 51.5072 80.9768 52.0008C80.9269 53.8136 81.4865 55.771 82.8346 57.0297C83.0463 57.2273 83.3157 57.3534 83.5357 57.5417C83.6239 57.6173 83.6972 57.7027 83.7337 57.7917C83.8624 58.1053 83.3653 58.236 83.0266 58.2478C82.8795 58.2529 82.7323 58.2555 82.5851 58.2563C81.5762 58.2621 80.9463 59.0772 81.0765 60.0778C81.1224 60.5947 81.4467 61.0212 81.7441 61.4255C82.3241 62.2015 81.9088 62.9222 80.9459 62.8156C80.4546 62.7612 79.9625 62.6871 79.4703 62.6833C79.3499 62.6824 79.2417 62.6032 79.2111 62.4868C79.1704 62.3322 79.2807 62.1808 79.4404 62.1746C79.6105 62.1681 79.7805 62.1673 79.9506 62.1701C80.5184 62.1796 80.8267 61.5979 80.5714 61.0907C80.4569 60.8631 80.3704 60.6235 80.3361 60.3632C80.2526 59.6656 80.052 58.9755 79.9869 58.2761C79.9445 57.8193 80.3398 57.479 80.797 57.5179C81.4578 57.5742 81.7848 56.9242 81.4156 56.3733C81.2624 56.1445 81.1228 55.9074 81.0148 55.6508C80.9871 55.5844 80.9601 55.5177 80.9338 55.4507C80.674 54.7884 79.1016 54.4547 78.6116 54.9706C78.3577 55.2134 78.4865 55.6189 78.7709 55.8252C78.7803 55.8321 78.7897 55.8393 78.799 55.8467C78.8733 55.9065 78.9007 56.0075 78.8691 56.0975C78.7242 56.5115 78.2787 56.7475 77.9613 57.0271C76.963 57.8215 75.7069 58.11 74.5076 58.4525C74.1569 58.546 73.8005 58.6073 73.4412 58.6484C72.7798 58.7241 72.3273 59.4537 72.723 59.989C72.9328 60.2817 73.2859 60.3584 73.6199 60.4442C73.7544 60.4788 73.8435 60.6015 73.8436 60.7405C73.8436 60.875 73.7601 60.9964 73.6343 61.0441C73.1102 61.2426 72.5807 61.4568 72.0143 61.454C71.4338 61.4589 70.8534 61.4572 70.2737 61.4405C69.9832 61.4322 69.7402 61.6623 69.7057 61.951C69.6854 62.1206 69.6582 62.2894 69.6277 62.4577C69.5897 62.6666 69.3294 62.7349 69.1966 62.5692C69.1239 62.4786 69.1277 62.3518 69.1744 62.2454C69.3307 61.8895 69.1959 61.5011 69.096 61.1072C68.9706 60.6134 69.4109 60.3443 69.8145 60.6554C69.9418 60.7536 70.0973 60.8059 70.2577 60.8182C70.2692 60.8191 70.2807 60.8199 70.2923 60.8208C71.2548 60.8905 71.7538 59.7991 71.3534 58.9211C71.31 58.826 71.269 58.7297 71.2309 58.6321C71.198 58.5476 71.1927 58.4625 71.2156 58.3749C71.2585 58.2109 71.3913 58.0746 71.5591 58.0508C72.5264 57.9134 73.528 58.0986 74.4649 57.758C75.2244 57.5107 76.0405 57.3359 76.7567 56.9718C77.1377 56.7782 77.0241 56.2715 76.6127 56.1554C76.3564 56.083 76.1409 55.8289 76.1622 55.5633C76.1706 55.4581 76.2028 55.3654 76.2947 55.3076C76.3403 55.2788 76.3917 55.2598 76.44 55.2358C76.9575 54.9783 77.5878 54.9498 78.0246 54.5393C78.3458 54.2317 78.6369 53.894 78.9312 53.5626C79.6652 52.6882 80.0125 51.5905 80.3818 50.5286Z" fill="#080307"/>
<path d="M76.7044 52.2598C76.5022 52.1272 76.3628 51.8849 76.3886 51.6444C76.3906 51.626 76.3936 51.608 76.3978 51.5906C76.4477 51.3841 76.7382 51.433 76.8906 51.581C76.9387 51.6276 76.9833 51.6767 77.0253 51.7276C77.2859 52.0439 77.0471 52.4845 76.7044 52.2598Z" fill="#0F040E"/>
<path d="M50.5538 57.3201C51.5564 55.5201 52.2209 53.5665 53.0143 51.6746C53.083 51.5107 53.2797 51.4397 53.4418 51.5126C53.5508 51.5617 53.618 51.6642 53.622 51.7837C53.652 52.6914 53.535 53.6039 53.6441 54.5077C53.8795 55.6849 54.4398 56.7964 55.239 57.7041C55.5939 58.1952 56.005 58.7259 56.0431 59.3363C56.0559 59.5415 55.8747 59.6966 55.6703 59.675C55.2955 59.6355 54.9487 59.9829 55.1081 60.3244C55.5282 61.2246 56.1134 62.0661 57.023 62.5257C57.4235 62.7496 57.8102 63.0022 58.2347 63.1841C58.4306 63.2818 58.6386 63.1673 58.7709 63.0241C59.8228 62.0676 60.3951 60.754 61.031 59.5229C61.242 59.0184 61.3598 58.4619 61.7243 58.0329C61.7497 58.0031 61.779 57.977 61.8111 57.9545C61.8518 57.926 61.8931 57.8985 61.9349 57.8717C62.2549 57.6669 62.7954 57.9903 62.571 58.2969C62.0124 59.1288 61.5037 59.9961 61.0791 60.9039C60.5891 62.0484 59.7372 62.9844 58.9604 63.9463C58.8805 64.0453 58.781 64.1271 58.6684 64.1864C58.0118 64.5323 58.1855 65.2247 58.8934 65.002C59.0244 64.9607 59.1551 64.9167 59.2859 64.873C59.7711 64.7112 60.4457 65.1128 60.17 65.5435C59.7265 66.4344 59.2676 67.3304 58.6111 68.0916C58.3108 68.4824 57.9691 68.8333 57.6059 69.163C57.0793 69.6409 57.4233 70.3443 58.1124 70.1686C58.3499 70.108 58.5883 70.0527 58.8286 70.0072C59.1635 69.9437 59.3242 70.2942 59.0328 70.4712C58.9904 70.4969 58.9474 70.5218 58.9039 70.546C58.8554 70.5729 58.825 70.6203 58.8255 70.6758C58.8264 70.7648 58.7484 70.839 58.66 70.829C58.5933 70.8215 58.5268 70.8142 58.4603 70.807C58.4272 70.8033 58.3941 70.8139 58.3692 70.8362C58.3309 70.8705 58.2927 70.9048 58.2549 70.9393C58.2014 70.9881 58.1168 70.9321 58.1339 70.8618C58.1467 70.809 58.0978 70.7673 58.045 70.7802C57.2044 70.985 56.3715 71.2602 55.5109 71.3576C55.2201 71.3905 54.8618 71.3269 54.8201 71.0372C54.7976 70.8815 54.846 70.7136 54.9606 70.5908C55.3473 70.1175 55.8388 69.742 56.3235 69.3715C57.0586 68.7783 57.749 68.1108 58.3227 67.3614C58.8727 66.6431 58.2227 66.0175 57.3582 65.7507C57.045 65.6717 56.741 65.5678 56.4391 65.4598C56.2767 65.4016 56.1707 65.2451 56.176 65.0727C56.1801 64.9378 56.2521 64.8141 56.3678 64.7447C56.4522 64.6941 56.5367 64.6436 56.6211 64.593C57.1968 64.248 57.1609 63.4718 56.5821 63.1321C56.2957 62.964 56.0164 62.7855 55.7563 62.5795C54.8059 61.6684 54.3419 60.4205 53.8366 59.245C53.7497 59.0519 53.7373 58.8453 53.7425 58.6379C53.7475 58.4412 53.9413 58.301 54.1271 58.3662C54.4184 58.4683 54.6823 58.1605 54.4989 57.9122C54.1072 57.3819 53.7179 56.8508 53.4842 56.2322C53.1843 55.5385 52.2324 55.4325 51.9291 56.1247C51.6731 56.7092 51.3961 57.2835 51.0523 57.8253C49.8973 59.4623 48.7028 61.1211 47.07 62.3387C46.6883 62.6029 46.8586 63.3009 47.3024 63.4369C47.5403 63.5098 47.7745 63.5974 48.0052 63.6967C48.0718 63.7254 48.0884 63.8142 48.0416 63.8696C48.019 63.8964 47.9878 63.9063 47.9529 63.9029C47.6586 63.8743 47.3644 63.8449 47.0718 63.8005C46.4766 63.6696 45.8679 63.7094 45.2634 63.6965C45.0642 63.6922 44.8951 63.5516 44.8488 63.3579C44.8077 63.1861 44.8708 63.0071 45.0129 62.9021C45.523 62.5252 46.0762 62.2104 46.606 61.8638C48.2061 60.6108 49.4058 58.9621 50.5538 57.3201Z" fill="#0B0607"/>
<path d="M78.9689 54.8264C79.4847 54.2893 81.1257 54.64 81.4008 55.332C81.4272 55.3983 81.4542 55.4643 81.482 55.5301C81.5929 55.7907 81.7357 56.032 81.8926 56.2647C82.2802 56.8396 81.9408 57.5193 81.2499 57.4611C80.7741 57.421 80.3625 57.7752 80.4076 58.2506C80.4761 58.9724 80.6852 59.6847 80.7722 60.4046C80.8076 60.6699 80.8959 60.9143 81.0129 61.1465C81.2797 61.6756 80.9605 62.2835 80.368 62.2737C80.2603 62.272 80.1526 62.2716 80.0449 62.2731C79.7682 62.2769 79.5772 62.541 79.6522 62.8074C79.7047 63.0245 79.7366 63.2459 79.7389 63.4692C79.7435 63.932 79.7273 64.3971 79.8259 64.8527C79.9996 65.5973 79.9169 66.3682 80.0658 67.1161C80.1667 67.7394 80.4 68.3348 80.4761 68.9629C80.4997 69.1544 80.5382 69.3417 80.587 69.5261C80.8534 70.5313 80.2352 71.5424 79.1956 71.5183C78.1717 71.5075 77.1927 71.8095 77.5492 72.7694C77.6473 73.0336 77.7619 73.2927 77.8637 73.5439C78.2376 74.4886 78.8763 75.2923 79.3362 76.1928C80.0494 77.584 79.2441 79.4082 77.8853 78.6349C77.4175 78.375 77.0799 77.9595 76.7467 77.5525C76.677 77.4673 76.5712 77.4191 76.4611 77.4206C76.2512 77.4235 76.0889 77.604 76.1131 77.8126C76.3434 79.799 76.9998 81.7817 78.2194 83.3898C78.5274 83.8037 78.8917 84.1644 79.2824 84.4976C79.7932 84.9331 79.5406 85.8552 78.9077 85.6318C77.8856 85.3257 77.1408 85.9836 77.5015 86.9878C77.6217 87.3222 77.7602 87.6531 77.8769 87.9875C77.9326 88.1469 77.9925 88.3048 78.0652 88.4572C78.8984 90.2022 79.8232 91.9528 81.0729 93.4368C81.6423 94.1129 81.2911 95.0755 80.4195 94.9281C79.8753 94.8361 79.2715 95.2352 79.4382 95.7614C79.4512 95.8023 79.4667 95.8428 79.4851 95.8828C79.854 96.7882 80.0261 97.7674 80.5191 98.6219C80.941 99.355 81.209 100.183 81.7748 100.83C82.2698 101.394 81.6823 102.848 80.9351 102.92C80.7592 102.937 80.5836 102.956 80.4083 102.976C79.9202 103.083 79.5959 102.58 79.1393 102.532C78.5669 102.481 77.9729 102.547 77.427 102.338C76.5038 102.002 75.5492 101.684 74.7683 101.071C74.0144 100.536 73.0542 100.657 72.4099 101.32C72.3598 101.371 72.3085 101.421 72.256 101.47C71.7886 101.907 71.0654 101.813 70.6589 101.319C70.5242 101.155 70.3953 100.987 70.2711 100.815C70.256 100.794 70.2424 100.772 70.2308 100.749C70.0865 100.458 70.273 100.113 70.5928 100.057C70.655 100.046 70.7172 100.035 70.7795 100.024C71.3668 99.9143 71.9591 99.8307 72.5497 99.7388C74.3911 99.3168 76.0492 98.3676 77.5756 97.2872C77.715 97.1885 77.7878 97.0201 77.7676 96.8505C77.7448 96.6592 77.6044 96.5052 77.419 96.4528C76.3328 96.1461 75.3219 95.6344 74.3497 95.0693C73.4431 94.6576 72.7813 93.8867 72.1907 93.1142C71.6605 92.4127 71.998 91.5371 72.8773 91.5362C73.293 91.5358 73.7085 91.5277 74.1231 91.4921C74.6891 91.4377 75.1944 91.1881 75.6795 90.9089C75.8846 90.7909 76.006 90.5479 75.9518 90.3175C75.922 90.1905 75.8215 90.0978 75.7005 90.0491C75.2213 89.856 74.7185 89.71 74.2984 89.4009C72.7631 88.5054 71.9922 86.8423 70.9366 85.5006C70.3061 84.712 70.9458 83.4089 71.9318 83.1911C72.2479 83.1213 72.5611 83.0373 72.8706 82.9379C72.9457 82.9138 73.0223 82.8944 73.0995 82.8785C73.811 82.7313 74.4744 82.4239 75.0668 82.0109C75.2199 81.9041 75.2605 81.6926 75.1764 81.526C75.1239 81.4222 75.0316 81.3547 74.9191 81.3251C73.7132 81.0075 72.6441 80.3093 71.8036 79.4009C71.1663 78.8311 70.6352 78.1693 70.1362 77.4829C69.8503 77.0896 70.1424 76.6157 70.6264 76.5686C70.9648 76.5357 71.071 76.1513 70.8808 75.8694C70.1738 74.8217 69.3591 73.8381 68.7908 72.7058C68.3793 71.6315 69.0796 71.1098 70.2098 71.3244C70.3302 71.3473 70.4526 71.3633 70.5776 71.3707C71.1399 71.4025 71.6923 71.5141 72.2492 71.602C72.3411 71.6165 72.449 71.6637 72.5379 71.6362C72.8801 71.5303 72.5351 71.0201 72.2265 70.8382C71.9404 70.6696 71.647 70.5114 71.4015 70.2849C70.9697 69.8946 70.6024 69.4386 70.169 69.0482C69.1366 68.1396 68.2796 67.0456 67.5848 65.8663C67.1263 65.1996 67.6931 64.3365 68.4877 64.4889C68.6123 64.5128 68.7355 64.5447 68.857 64.587C69.0472 64.6398 69.2365 64.7137 69.4262 64.7886C70.3201 65.1415 70.7371 64.331 70.0272 63.6833C69.9463 63.6095 69.8663 63.5349 69.7893 63.4582C69.5709 63.2407 69.5084 62.9227 69.5652 62.6198C69.679 62.0125 70.2058 61.5226 70.8237 61.5311C71.2389 61.5368 71.6544 61.5365 72.0699 61.533C72.663 61.5359 73.2174 61.3138 73.7661 61.1082C73.8963 61.0594 73.9829 60.934 73.9829 60.7949C73.9828 60.6513 73.8905 60.5245 73.7514 60.4891C73.4015 60.4 73.031 60.3211 72.8111 60.0175C72.3988 59.4659 72.8656 58.7089 73.55 58.6322C73.9298 58.5897 74.3066 58.5259 74.6773 58.4282C75.9314 58.074 77.245 57.7754 78.2889 56.9537C78.6205 56.6648 79.0858 56.4209 79.2378 55.9934C79.2712 55.8996 79.2424 55.7943 79.1645 55.7324C79.154 55.7241 79.1435 55.7162 79.1328 55.7086C78.8367 55.4979 78.7049 55.0762 78.9689 54.8264Z" fill="#FFF2DF"/>
<path d="M40.256 53.659C40.2628 53.572 40.3578 53.5204 40.438 53.5547C40.4794 53.5724 40.5038 53.6081 40.5103 53.6526C40.5398 53.8564 40.5665 54.0611 40.5923 54.2662C40.6226 54.5075 40.829 54.6818 41.0712 54.7038C41.3647 54.7304 41.4788 55.0536 41.2287 55.2094C41.1897 55.2337 41.15 55.2566 41.1098 55.2789C40.9306 55.3786 40.8182 55.5627 40.8128 55.7677C40.8069 55.9967 40.7987 56.2256 40.7839 56.454C40.777 56.5602 40.6883 56.642 40.5819 56.6426C40.4748 56.6433 40.3858 56.5609 40.3778 56.4541C40.3622 56.2474 40.346 56.0408 40.3269 55.8345C40.3082 55.6325 40.1436 55.492 39.9421 55.4694C39.6931 55.4415 39.7107 55.1552 39.9228 55.0218C39.9486 55.0055 39.9744 54.989 39.9999 54.9721C40.1065 54.9012 40.1712 54.784 40.1836 54.6565C40.2158 54.3246 40.2298 53.9909 40.256 53.659Z" fill="#0D060D"/>
<path d="M51.3638 57.303C51.7025 56.7682 51.9755 56.2015 52.2277 55.6248C52.5262 54.9422 53.4649 55.0466 53.7601 55.7306C53.9905 56.3414 54.3744 56.8659 54.7605 57.3895C54.9411 57.6344 54.6808 57.9376 54.3937 57.8368C54.2106 57.7725 54.0196 57.9106 54.0146 58.1046C54.0094 58.3094 54.0216 58.5134 54.1073 58.7041C54.6052 59.8643 55.0624 61.0959 55.9989 61.9951C56.2552 62.1984 56.5305 62.3746 56.8128 62.5406C57.3834 62.876 57.4188 63.6415 56.8513 63.9822C56.7681 64.0321 56.6848 64.0819 56.6017 64.1319C56.4875 64.2005 56.4165 64.3226 56.4124 64.4558C56.4072 64.6259 56.5118 64.7805 56.672 64.8379C56.9694 64.9446 57.2688 65.047 57.5773 65.1249C58.4292 65.3883 59.0704 66.0042 58.529 66.7128C57.9635 67.4531 57.2827 68.1126 56.5578 68.6985C56.0802 69.0642 55.5959 69.4348 55.2148 69.9019C55.102 70.023 55.0543 70.1887 55.0764 70.3423C55.1174 70.6281 55.4708 70.6911 55.7577 70.6586C56.536 70.5703 57.2915 70.3342 58.0509 70.1397C58.1953 70.1027 58.3241 70.2403 58.2898 70.3855C58.2846 70.4074 58.2773 70.4218 58.2652 70.4408C57.6701 71.3783 57.2156 72.4441 56.4759 73.2763C55.9998 73.8119 55.4315 74.2689 54.83 74.6583C54.6693 74.7624 54.5035 74.8584 54.3334 74.9475C53.6936 75.2824 53.0922 76.0862 53.8075 75.9869C54.7949 75.9803 55.5891 76.6335 56.5324 76.813C56.6424 76.8425 56.753 76.8686 56.864 76.8915C57.7978 77.0846 58.2976 78.0734 57.5231 78.6297C56.8338 79.2862 56.1243 79.9228 55.3588 80.4929C54.2616 81.2144 53.3629 82.2309 52.1497 82.771C51.9621 82.8545 51.8301 83.0334 51.8315 83.2387C51.8325 83.3989 51.9126 83.5495 52.0488 83.6339C53.1776 84.3333 54.501 84.6346 55.811 84.8111C57.0618 84.8663 57.8654 86.149 57.1529 87.1786C56.6933 87.8427 56.1662 88.4557 55.5129 88.9581C54.7965 89.4784 54.1462 90.09 53.3672 90.5239C52.5299 90.9684 51.8913 91.7049 51.0349 92.1167C50.8981 92.1825 50.8048 92.3165 50.808 92.4683C50.8119 92.6522 50.9551 92.8035 51.138 92.8234C52.5918 92.9817 54.0118 93.3852 55.4773 93.4642C56.8458 93.4934 57.3984 94.8319 56.2724 95.6101C56.0906 95.7358 55.9085 95.8609 55.728 95.9873C54.6136 96.6272 53.3605 96.9746 52.1784 97.4682C51.7117 97.6931 51.1931 97.6513 50.6866 97.6518C50.5109 97.6519 50.3632 97.7784 50.3416 97.9527C50.3208 98.1208 50.4237 98.2791 50.5847 98.3318C51.6061 98.6664 52.6862 98.782 53.7156 99.0976C53.8369 99.1347 53.9073 99.264 53.8847 99.3888C53.8723 99.4579 53.8337 99.5131 53.7755 99.5524C52.6564 100.307 51.572 101.131 50.3206 101.668C49.7211 101.984 49.0251 101.924 48.3714 101.931C47.9584 101.952 47.5493 101.922 47.1419 101.873C46.3273 101.774 45.922 100.273 46.4002 99.6057C46.8642 99.0672 47.0285 98.3641 47.3722 97.7574C47.6161 97.3967 47.4518 96.9513 47.4603 96.5507C47.4482 96.2975 47.2686 96.0811 47.0175 96.0462C46.7231 96.0053 46.4261 95.9868 46.1277 95.9806C44.5836 95.9482 44.3349 94.3434 45.2468 93.0969C45.4742 92.7861 45.6764 92.4578 45.8498 92.1145C46.3646 91.0973 46.8439 90.0651 47.2994 89.0213C47.7606 87.9108 47.0882 87.3281 45.9607 87.746C45.8304 87.7942 45.6974 87.8352 45.5602 87.8645C45.0927 87.9829 44.6117 88.0504 44.1282 88.0692C43.2295 88.1041 43.1396 87.1088 43.9802 86.7891C44.6881 86.5381 45.1419 85.9198 45.6279 85.3929C46.8066 84.1612 47.4366 82.5373 47.9057 80.94C47.9922 80.6914 48.0952 80.4481 48.1949 80.2037C48.4143 79.6656 47.9638 79.1017 47.4569 79.386C46.6948 79.7915 45.8058 79.7317 44.9709 79.6951C43.9934 79.6303 43.946 78.3038 44.6537 77.6264C44.9729 77.3209 45.2621 76.9878 45.4975 76.6102C45.9582 75.9005 46.517 75.2489 46.8862 74.4843C46.9561 74.331 47.0455 74.1846 47.1403 74.0402C47.6909 73.2007 47.2918 72.3436 46.3324 72.6394C45.5101 73.0081 44.9958 71.7868 45.5809 71.1013C46.5903 69.9188 47.4749 68.6409 47.8871 67.1344C47.9132 66.9662 47.9792 66.8201 48.0672 66.6866C48.6169 65.853 48.3015 65.6921 47.335 65.9427C46.7889 66.1011 46.4377 65.3945 46.8533 65.0064C47.4089 64.4877 47.9284 63.9345 48.3646 63.3066C48.4301 63.2321 48.402 63.1147 48.3107 63.0761C48.1 62.987 47.8864 62.908 47.6696 62.8415C47.2317 62.7071 47.0635 62.0185 47.44 61.7575C49.0488 60.5557 50.2258 58.9186 51.3638 57.303Z" fill="#FFF2DF"/>
<path d="M37.3581 56.8324C37.3935 56.7217 37.5035 56.6528 37.619 56.6656C37.7288 56.6778 37.8165 56.7611 37.8351 56.87C37.8462 56.9345 37.8573 56.9991 37.8684 57.0638C37.8927 57.2057 38.0063 57.3154 38.1489 57.3345C38.2051 57.3421 38.2625 57.3498 38.3156 57.3569C38.3985 57.368 38.4566 57.4464 38.4473 57.5295C38.4415 57.5811 38.4112 57.623 38.3653 57.6472C38.3094 57.6767 38.2535 57.7061 38.1976 57.7357C37.9969 57.8419 37.9196 58.0676 37.9363 58.2941C37.9384 58.3226 37.9391 58.351 37.9378 58.3792C37.9266 58.6347 37.5883 58.6897 37.4268 58.4913C37.3421 58.3873 37.2882 58.2719 37.2558 58.1527C37.2256 58.0413 37.1406 57.9475 37.0264 57.9307C36.7954 57.8967 36.7345 57.6019 36.9383 57.4881C36.9884 57.4601 37.0388 57.4324 37.0895 57.4048C37.1682 57.3621 37.2255 57.2886 37.2488 57.2022C37.2824 57.0781 37.319 56.9549 37.3581 56.8324Z" fill="#0F070F"/>
<path d="M61.1819 57.0511C61.0408 57.0835 60.9646 56.9205 61.0931 56.8539C61.4395 56.6745 61.8055 56.5961 62.1691 56.673C62.4347 56.7293 62.4376 57.0611 62.215 57.2167C62.0487 57.333 61.8859 57.4558 61.73 57.5928C61.6593 57.6549 61.5603 57.6746 61.4735 57.6383C61.3804 57.5995 61.3234 57.5051 61.3305 57.4045C61.3353 57.3353 61.3405 57.2601 61.3452 57.1903C61.3512 57.1007 61.2694 57.031 61.1819 57.0511Z" fill="#948A83"/>
<path d="M35.3365 59.4994C35.3449 59.4227 35.3844 59.3615 35.447 59.3166C35.4971 59.2806 35.5473 59.245 35.5978 59.2097C35.96 58.9566 36.4254 59.2323 36.0917 59.5219C35.954 59.6415 35.7776 59.7263 35.5989 59.77C35.4429 59.8081 35.3189 59.6589 35.3365 59.4994Z" fill="#4A364A"/>
<path d="M33.2077 61.2925C33.2207 61.2402 33.2571 61.1969 33.2992 61.1635C33.4551 61.0397 33.6393 60.9536 33.8384 60.9044C34.0246 60.8584 34.1938 61.0004 34.219 61.1905C34.2389 61.3407 34.165 61.4882 34.0319 61.5605C33.9886 61.584 33.9452 61.6072 33.9016 61.6302C33.6217 61.7778 33.1311 61.5994 33.2077 61.2925Z" fill="#07020B"/>
<path d="M87.516 63.2636C87.5262 62.9909 87.7677 62.982 87.8241 63.249C87.8466 63.3555 87.8736 63.4592 87.9076 63.5589C87.9427 63.6617 87.9294 63.7754 87.8829 63.8736C87.7427 64.1691 87.7223 64.5594 87.7207 64.9351C87.7185 64.9979 87.6518 65.0368 87.5961 65.0077C87.5926 65.0058 87.5891 65.004 87.5857 65.0022C87.5558 64.9866 87.5366 64.9562 87.5355 64.9225C87.5276 64.6854 87.5206 64.4477 87.5123 64.211C87.5075 64.0732 87.4039 63.9641 87.2672 63.9454C87.0869 63.9207 87.0354 63.7129 87.1822 63.6054C87.2489 63.5565 87.3174 63.5136 87.3867 63.4738C87.4628 63.4301 87.5127 63.3513 87.516 63.2636Z" fill="#1A0C1A"/>
<path d="M27.5093 64.852C27.5523 64.5799 27.5354 64.2989 27.5332 64.0212C27.5281 63.3748 28.0821 63.271 28.2059 63.9055C28.3223 64.6131 28.6023 65.2861 28.877 65.9562C28.9367 66.1019 28.8675 66.268 28.7232 66.3312C28.581 66.3934 28.4137 66.333 28.346 66.1934C28.2344 65.9631 27.9 65.9726 27.802 66.2091C27.6921 66.4745 27.5761 66.7378 27.4476 66.9967C27.395 67.1026 27.2735 67.1541 27.1594 67.1232C27.0112 67.0833 26.9279 66.924 26.9848 66.7815C27.2354 66.1546 27.4898 65.5228 27.5093 64.852Z" fill="#0F080B"/>
<path d="M30.7727 63.9624C30.472 64.2212 30.2813 63.3758 30.5945 63.1322C30.5982 63.1293 30.6019 63.1265 30.6057 63.1236C30.8362 62.9491 31.1246 63.1866 31.0737 63.4712C31.0542 63.5799 31.0156 63.6815 30.9442 63.7673C30.8934 63.8285 30.833 63.9105 30.7727 63.9624Z" fill="#180719"/>
<path d="M79.0785 63.1553C79.0762 63.0657 79.1418 62.9887 79.231 62.9804C79.3261 62.9716 79.4107 63.0432 79.4193 63.1384C79.4708 63.7107 79.6044 64.2722 79.761 64.8241C79.9335 65.4104 79.8481 66.0299 79.9598 66.6279C80.0682 67.4002 80.3852 68.1293 80.4296 68.9133C80.5873 69.7604 80.9701 70.5493 81.3676 71.3067C81.5292 71.6447 81.1313 72.011 80.7599 72.0607C80.5039 72.095 80.2462 72.1178 79.9876 72.1304C78.7648 72.1898 77.8639 73.2706 78.4941 74.3202C78.777 74.7913 79.0659 75.2595 79.3158 75.7463C79.7167 76.5319 80.2637 77.2262 80.7582 77.952C80.8402 78.0793 80.9488 78.1948 81.0614 78.3082C81.6396 78.8903 81.1576 79.7505 80.3393 79.8089C78.9831 79.8319 77.315 81.6758 78.1031 82.7797C78.4903 83.3222 78.9465 83.8107 79.4806 84.2167C79.6061 84.3122 79.7242 84.4173 79.8411 84.5232C80.4904 85.1121 81.3697 85.3569 82.2186 85.4926C82.7378 85.5603 82.2332 86.3798 81.7103 86.4093C81.6385 86.4134 81.5664 86.4151 81.4941 86.4144C80.7089 86.4128 79.9631 86.73 79.1778 86.7217C79.0395 86.729 78.9014 86.7274 78.7641 86.718C78.2602 86.6835 77.7933 87.1585 77.9343 87.6435C78.1987 88.5985 78.8082 89.3974 79.2057 90.296C79.7281 91.4287 80.5019 92.4103 81.2658 93.3836C81.8833 94.1473 82.7306 94.6419 83.5654 95.1332C83.943 95.3555 84.4589 95.9664 84.0401 96.0951C83.9686 96.1171 83.8699 96.1088 83.7953 96.1135C82.6266 96.1862 81.4493 96.0604 80.282 96.1699C80.0843 96.1884 79.9104 96.3101 79.8189 96.4864C79.7632 96.5937 79.7491 96.7179 79.7782 96.8353C80.0335 97.8658 80.7026 98.7218 81.1048 99.6935C81.2986 100.177 81.6272 100.582 81.9754 100.961C82.4502 101.476 82.8083 102.133 83.4506 102.464C84.087 102.861 84.8171 103.028 85.5461 103.159C85.7298 103.192 85.8634 103.352 85.8617 103.538C85.8598 103.734 85.7099 103.897 85.5146 103.907C84.3352 103.965 83.1503 103.82 81.9721 103.929C81.1031 104.095 80.2078 104.04 79.347 103.854C79.1395 103.805 78.9303 103.775 78.7201 103.755C77.7847 103.669 77.0714 104.567 76.7285 105.442C76.2734 106.546 76.2587 107.764 76.1798 108.94C76.2043 109.294 76.162 109.697 76.193 110.076C76.2479 110.749 76.7742 110.634 77.3922 110.36C77.4402 110.339 77.4918 110.327 77.548 110.326C77.6538 110.326 77.7527 110.381 77.8255 110.458C77.8833 110.519 77.9293 110.588 77.9672 110.662C78.1973 111.112 78.6729 111.387 79.0637 111.707C79.0959 111.734 79.127 111.762 79.1567 111.793C79.3324 111.973 79.5434 112.132 79.7941 112.155C79.9016 112.165 80.0092 112.175 80.1169 112.187C80.2736 112.203 80.3956 112.328 80.4109 112.484C80.4303 112.682 80.2752 112.857 80.0773 112.87C79.6595 112.897 79.2346 112.934 78.8575 112.728C78.6092 112.584 78.3225 112.667 78.0527 112.641C77.9432 112.631 77.8401 112.577 77.7722 112.49C77.4545 112.086 77.0681 111.908 76.5537 111.896C76.4942 111.895 76.4345 111.887 76.3746 111.871C76.3332 111.86 76.2947 111.839 76.2609 111.812C76.038 111.638 75.7239 111.671 75.5616 111.902C75.278 112.307 74.9381 112.68 74.4489 112.756C74.3404 112.773 74.2316 112.73 74.1479 112.659C73.9669 112.505 73.6988 112.512 73.5211 112.67C73.5161 112.674 73.5112 112.679 73.5062 112.683C73.3615 112.811 73.1372 112.847 73.0184 112.695C72.8908 112.531 72.8533 112.323 72.8471 112.102C72.8372 111.748 72.5466 111.665 72.2224 111.807C72.1586 111.835 72.0865 111.834 72.0193 111.816C71.7963 111.754 71.5853 111.662 71.3913 111.542C70.9038 111.24 70.291 111.206 69.8169 111.528C69.4211 111.796 69.0488 111.321 69.3475 110.947C69.5866 110.648 69.9194 110.407 70.2166 110.187C70.3844 110.05 71.3435 109.402 71.3346 109.185C71.313 108.662 71.2839 108.14 71.2023 107.621C71.1456 107.318 71.1118 107.014 71.0923 106.708C71.0066 105.37 69.8586 104.454 68.5411 104.706C67.3265 104.938 66.2585 105.944 66.243 107.181C66.2333 107.959 66.2352 108.737 66.2954 109.513C66.3064 109.656 66.3303 109.797 66.3637 109.936C66.4684 110.372 66.5721 110.808 66.6728 111.246C66.7192 111.447 66.8659 111.61 67.0641 111.668C67.2642 111.728 67.4211 111.888 67.4742 112.09C67.487 112.138 67.4998 112.187 67.5123 112.236C67.5713 112.468 67.5229 112.721 67.3422 112.877C67.1397 113.053 66.8955 113.177 66.6314 113.21C66.5158 113.225 66.4077 113.162 66.3425 113.065C66.3383 113.059 66.3341 113.053 66.33 113.046C66.1904 112.839 65.8849 112.833 65.7369 113.034C65.6673 113.129 65.5547 113.182 65.4374 113.176C65.3735 113.172 65.3097 113.169 65.246 113.166C65.1157 113.159 65.0009 113.076 64.9515 112.956C64.8575 112.726 64.5526 112.678 64.3917 112.867C64.3779 112.883 64.3641 112.9 64.3503 112.916C64.2821 112.996 64.1835 113.046 64.0781 113.044C63.9492 113.042 63.8216 113.032 63.6948 113.013C63.6167 113.002 63.5445 112.964 63.4949 112.903C63.4275 112.82 63.3694 112.731 63.3176 112.638C63.1971 112.422 62.8719 112.434 62.8055 112.672C62.7791 112.766 62.7031 112.841 62.6058 112.855C62.5732 112.859 62.5405 112.863 62.508 112.866C62.1461 112.896 61.5036 113.001 61.3101 113.308C61.3002 113.324 61.29 113.34 61.2798 113.355C61.2185 113.449 61.119 113.511 61.0075 113.519C60.9801 113.521 60.9526 113.522 60.9251 113.523C60.6245 113.534 60.3687 113.307 60.2949 113.015C60.2852 112.977 60.2754 112.939 60.2654 112.901C60.1499 112.457 59.6907 112.282 59.4037 112.639C59.3634 112.689 59.3232 112.74 59.2822 112.789C58.9547 113.179 58.4576 112.827 58.6898 112.373C58.856 112.049 59.1245 111.765 59.3909 111.523C59.588 111.33 59.8673 111.342 60.1219 111.358C60.8463 111.342 61.3026 111.83 61.5469 111.147C61.6478 110.865 61.6999 110.568 61.6776 110.272C61.6513 108.267 61.7975 106.241 61.4131 104.263C61.2968 103.594 60.7736 103.066 60.0945 103.065C59.6015 103.063 59.1086 103.062 58.6157 103.06C56.959 103.056 55.4077 104.452 55.4567 106.108C55.4576 106.138 55.4587 106.167 55.4599 106.196C55.4672 106.364 55.4675 106.533 55.461 106.7C55.4141 107.922 55.7451 109.11 55.9117 110.315C55.9228 110.395 55.9174 110.476 55.8887 110.551C55.7258 110.98 56.0746 111.212 56.4932 111.025C56.6636 110.949 56.8377 110.881 57.0138 110.822C57.229 110.762 57.3999 110.906 57.4902 111.092C57.5173 111.141 57.545 111.19 57.5723 111.241C57.9242 111.889 57.3823 112.121 56.6502 112.031C56.5613 112.02 56.4669 112.029 56.3894 112.074C56.1006 112.242 55.9845 112.724 55.6222 112.735C55.5665 112.737 55.51 112.733 55.4546 112.727C55.3469 112.715 55.2657 112.671 55.2029 112.607C54.8562 112.25 54.5393 112.202 54.0437 112.16C53.677 112.167 53.3328 112.306 52.9741 112.358C52.7728 112.388 52.5842 112.278 52.47 112.11C52.4524 112.084 52.4348 112.058 52.4173 112.032C52.2855 111.837 52.0419 111.748 51.816 111.815C51.7772 111.827 51.7384 111.838 51.6997 111.85C51.6226 111.873 51.5386 111.86 51.4716 111.815C51.2825 111.689 51.0053 111.837 50.9594 112.059C50.9252 112.225 50.8751 112.388 50.8166 112.548C50.7466 112.739 50.5608 112.864 50.3572 112.875C50.1821 112.884 50.0065 112.888 49.837 112.852C49.7448 112.833 49.6623 112.784 49.5908 112.722C49.4224 112.577 49.264 112.421 49.102 112.269C48.9095 112.089 48.6099 112.176 48.5321 112.429C48.4417 112.722 48.0655 112.791 47.9515 112.507C47.9282 112.448 47.9081 112.389 47.8917 112.328C47.8784 112.279 47.8757 112.227 47.8828 112.177C47.9352 111.807 48.0905 111.461 48.2362 111.116C48.3103 110.941 48.4797 110.822 48.6702 110.824C48.8064 110.825 48.9355 110.887 49.0168 110.996C49.0944 111.101 49.1704 111.208 49.2485 111.314C49.6315 111.833 50.1353 111.495 50.2758 110.865C50.278 110.856 50.2803 110.846 50.2826 110.836C50.3114 110.716 50.3745 110.603 50.488 110.555C50.8495 110.403 51.1444 110.177 51.1486 109.785C51.1607 108.64 51.1892 107.494 51.116 106.352C51.1062 106.199 51.0816 106.049 51.044 105.901C50.6336 104.286 48.9689 102.925 47.3034 102.941C47.2481 102.942 47.1928 102.943 47.1376 102.944C46.308 102.975 45.5178 102.645 44.6899 102.68C43.9129 102.721 43.1556 102.495 42.3785 102.529C42.233 102.534 42.0901 102.519 41.949 102.493C41.7568 102.458 41.6284 102.278 41.6357 102.082C41.6429 101.89 41.7806 101.731 41.9692 101.693C42.5141 101.585 43.0659 101.469 43.5202 101.124C44.4845 100.416 45.5868 99.7184 46.0238 98.5341C46.1786 98.1619 46.3171 97.6562 46.6198 97.3827C46.9011 97.1285 47.2285 97.4914 47.1799 97.8674C47.1687 97.9533 47.1403 98.0363 47.1011 98.1135C46.8075 98.6919 46.641 99.3404 46.2193 99.8446C45.7513 100.517 46.1633 102.015 46.9764 102.114C47.3591 102.161 47.7435 102.189 48.1315 102.168C48.7656 102.162 49.4407 102.221 50.0223 101.906C51.2354 101.369 52.2869 100.547 53.3718 99.7926C53.4295 99.7525 53.4675 99.697 53.4796 99.6278C53.5015 99.5027 53.4314 99.3733 53.3103 99.3352C52.3149 99.0216 51.2708 98.9057 50.2831 98.5732C50.1237 98.5196 50.0224 98.3621 50.0423 98.1951C50.0633 98.0197 50.2115 97.8921 50.3882 97.8921C50.876 97.8923 51.375 97.9317 51.8244 97.7087C52.971 97.2154 54.1866 96.8682 55.2676 96.2288C55.4537 96.0946 55.6415 95.9618 55.8289 95.8283C56.9216 95.0497 56.3658 93.737 55.0244 93.7075C53.6064 93.6288 52.2323 93.2275 50.8258 93.0684C50.6423 93.0476 50.4988 92.8956 50.495 92.711C50.4919 92.5599 50.5841 92.4262 50.7194 92.3589C51.548 91.947 52.1667 91.2128 52.9776 90.7693C53.7332 90.3358 54.3641 89.7246 55.0589 89.2048C55.7083 88.6903 56.2292 88.0598 56.6827 87.3773C57.3597 86.3585 56.57 85.1163 55.3481 85.0608C54.0787 84.8846 52.7964 84.5839 51.7022 83.8867C51.5675 83.8008 51.4889 83.6502 51.4878 83.4905C51.4865 83.2844 51.618 83.1044 51.8052 83.0181C52.9777 82.4774 53.8478 81.4649 54.9094 80.7457C55.652 80.176 56.3403 79.5399 57.0089 78.8838C57.7702 78.3205 57.2629 77.3425 56.3378 77.14C56.2408 77.1188 56.1441 77.095 56.0479 77.0684C55.1329 76.889 54.3624 76.2363 53.4047 76.2429C52.7026 76.3434 53.2981 75.5378 53.922 75.2004C54.0876 75.1108 54.249 75.0141 54.4054 74.9094C54.9839 74.5219 55.5289 74.0696 55.985 73.5436C56.6951 72.7247 57.1344 71.6771 57.6996 70.7484C57.7305 70.6976 57.7677 70.6509 57.8103 70.6095C57.8613 70.5599 57.913 70.511 57.9652 70.4624C58.0285 70.4034 58.114 70.3753 58.1999 70.3851C58.3512 70.4023 58.4678 70.5323 58.4437 70.6826C58.4146 70.8641 58.3559 71.0397 58.2607 71.1987C57.8188 72.0142 57.3752 72.8297 56.8791 73.6137C56.8649 73.6326 56.8505 73.6514 56.836 73.67C55.948 74.8118 56.0421 76.516 57.4886 76.5137C58.0774 76.5495 58.6629 76.4533 59.2499 76.4362C59.6118 76.4258 59.9222 76.8296 59.6833 77.1016C59.1362 77.7643 58.6533 78.4918 57.9978 79.0532C57.1452 79.7392 56.4159 80.5696 55.5403 81.229C55.2337 81.4443 54.9387 81.6747 54.648 81.9109C53.766 82.6273 53.9968 84.0451 55.1158 84.2424C55.1842 84.2544 55.2531 84.2611 55.3226 84.2628C56.2008 84.2842 57.0808 84.3018 57.9581 84.2665C58.7202 84.2358 59.2196 84.8482 58.7338 85.4361C58.1703 86.3181 57.7235 87.2748 57.1321 88.1401C56.4881 88.9822 55.7407 89.7446 54.8667 90.3441C54.7408 90.4574 54.6105 90.5644 54.4771 90.667C53.4659 91.4449 53.747 92.9343 55.0228 92.9302C56.1777 92.9385 57.3325 92.9186 58.4874 92.9319C59.1036 92.9209 59.2892 93.7256 58.8575 94.1656C58.6841 94.3423 58.4836 94.5053 58.3461 94.6841C57.6923 95.4797 56.815 96.0162 56.0117 96.6357C55.5714 96.9469 55.0947 97.1847 54.6035 97.393C53.7831 97.741 53.8281 98.7594 54.7189 98.7883C55.9674 98.7783 57.2553 98.7467 58.4249 98.2468C58.8157 98.0763 59.18 97.8219 59.5732 97.6562C59.9653 97.4909 60.4521 97.8645 60.2796 98.2535C59.9018 99.1985 59.2677 100.007 58.6369 100.791C58.2459 101.295 58.4643 102.357 59.1018 102.359C59.7721 102.361 60.4424 102.362 61.1125 102.354C61.5857 102.338 62.0517 102.242 62.5233 102.197C62.7701 102.174 62.9557 102.401 62.8957 102.641C62.8563 102.799 62.7192 102.911 62.5579 102.93C62.5306 102.934 62.5034 102.937 62.4762 102.94C62.1487 102.981 61.9484 103.322 62.0281 103.643C62.2739 104.63 62.2738 105.669 62.3823 106.678C62.5336 107.856 62.5174 109.047 62.473 110.233C62.4646 110.459 62.6792 110.625 62.8957 110.562C63.0286 110.524 63.1722 110.574 63.2464 110.691C63.3687 110.884 63.4781 111.084 63.5777 111.289C63.726 111.595 64.1706 111.625 64.3413 111.332C64.4143 111.206 64.5509 111.132 64.696 111.139C64.7669 111.143 64.8378 111.147 64.9089 111.152C65.0349 111.16 65.1438 111.24 65.1913 111.357C65.2997 111.625 65.6897 111.65 65.8239 111.394C65.8709 111.305 65.9158 111.215 65.9569 111.122C65.9736 111.085 65.9849 111.045 65.9891 111.004C66.038 110.534 65.8817 110.089 65.7102 109.653C65.5656 109.285 65.4731 108.899 65.4526 108.505C65.4139 107.758 65.4347 107.008 65.459 106.26C65.4867 105.406 64.9189 104.707 64.1548 104.326C63.8502 104.174 63.5671 103.986 63.3285 103.734C63.2485 103.65 63.2321 103.529 63.2798 103.423C63.3431 103.283 63.5032 103.206 63.648 103.259C64.4851 103.567 65.2725 104.082 66.1886 104.07C66.8347 104.094 67.4785 104.045 68.1158 103.945C69.259 103.765 69.6165 102.314 68.9763 101.349C68.8206 101.05 69.0773 100.699 69.3681 100.87C69.476 100.934 69.5742 101.016 69.6581 101.122C69.7878 101.306 69.923 101.487 70.0644 101.662C70.4667 102.161 71.1924 102.256 71.6558 101.813C71.7083 101.763 71.7595 101.712 71.8096 101.659C72.4432 100.992 73.4006 100.873 74.1461 101.413C74.9215 102.034 75.8693 102.356 76.786 102.696C77.3281 102.907 77.9178 102.841 78.4862 102.892C78.9396 102.941 79.2616 103.45 79.7462 103.343C79.911 103.323 80.0761 103.305 80.2414 103.288C80.9999 103.213 81.6001 101.746 81.1031 101.168C80.5413 100.514 80.2752 99.6752 79.8563 98.9328C79.3667 98.0674 79.1959 97.0759 78.8296 96.159C78.8108 96.1174 78.795 96.0752 78.782 96.0326C78.6187 95.5011 79.2246 95.1005 79.7726 95.1949C80.6408 95.3444 80.9927 94.3885 80.4299 93.7107C79.1225 92.1362 78.1726 90.2622 77.3117 88.4075C77.1809 87.9758 76.9999 87.5524 76.8501 87.123C76.5002 86.1205 77.2408 85.4681 78.2562 85.7783C78.8903 86.0065 79.1474 85.08 78.6384 84.6384C78.2465 84.2985 77.8813 83.9306 77.5729 83.5078C76.36 81.8769 75.708 79.8654 75.4803 77.8507C75.457 77.6444 75.6175 77.466 75.8252 77.4631C75.9354 77.4616 76.0413 77.5104 76.1103 77.5964C76.4412 78.0087 76.7765 78.4295 77.241 78.6928C78.5907 79.4762 79.4176 77.6525 78.7044 76.2644C78.6968 76.2495 78.6892 76.2346 78.6817 76.2197C78.225 75.3078 77.5909 74.494 77.2197 73.5373C77.1149 73.2738 76.9965 73.0016 76.8969 72.7241C76.554 71.7691 77.5274 71.4752 78.5421 71.4861C79.5771 71.5105 80.2005 70.5045 79.9332 69.5043C79.8802 69.306 79.8385 69.1046 79.8136 68.8983C79.738 68.2622 79.5064 67.6593 79.4062 67.0281C79.2583 66.2708 79.3405 65.4901 79.168 64.7361C79.0576 64.2157 79.0921 63.6829 79.0785 63.1553ZM55.6408 99.5232C55.0673 99.5518 54.6216 100.05 54.8221 100.588C54.8527 100.67 54.8851 100.752 54.919 100.833C55.1483 101.38 55.7857 101.634 56.3395 101.42C56.753 101.259 57.1566 101.075 57.5296 100.833C58.0904 100.358 57.3509 99.3488 56.6213 99.4397C56.296 99.4802 55.9685 99.5069 55.6408 99.5232ZM52.2339 101.656C51.532 102.136 51.1781 103.018 51.3709 103.846C51.4535 104.2 51.5347 104.555 51.6289 104.907C51.9344 105.65 51.7701 106.473 51.9853 107.239C52.1926 108.104 52.1601 108.995 52.038 109.871C51.9868 110.238 52.2125 110.592 52.4757 110.853C52.5664 110.943 52.6491 111.043 52.7278 111.146C52.8913 111.362 53.2048 111.384 53.3902 111.187C53.4928 111.078 53.6451 111.033 53.7905 111.069C53.8244 111.077 53.8584 111.085 53.8924 111.094C54.0907 111.143 54.2976 111.087 54.4618 110.965C54.5044 110.934 54.5478 110.904 54.5921 110.875C54.9023 110.672 55.1809 110.375 55.156 110.005C55.0944 109.09 54.7391 108.208 54.8158 107.279C54.8322 106.56 54.8076 105.839 54.8372 105.12C54.8535 104.672 54.9855 104.219 54.901 103.775C54.884 103.685 54.8967 103.591 54.9484 103.516C55.0827 103.321 54.9513 103.057 54.7147 103.058C54.2329 103.059 53.7509 103.08 53.271 103.049C53.1137 103.038 52.9902 102.913 52.9738 102.756C52.9571 102.596 53.0551 102.447 53.2094 102.403C53.3986 102.348 53.5888 102.297 53.7791 102.246C54.1937 102.135 54.4397 101.711 54.279 101.313C54.0964 100.861 53.5352 100.734 53.1391 101.018C52.8391 101.234 52.5386 101.448 52.2339 101.656ZM72.4961 102.182C72.3804 102.275 72.4392 102.389 72.5767 102.333C72.5995 102.324 72.6249 102.322 72.6484 102.329C72.8904 102.406 72.8926 102.673 72.8537 102.914C72.8266 103.082 72.7577 103.246 72.6206 103.347C72.1321 103.705 71.9286 104.158 72.0153 104.758C72.0386 104.919 72.0311 105.083 71.9711 105.253C71.791 105.975 71.8519 106.715 71.9681 107.441C71.9859 107.552 71.9956 107.664 71.9987 107.777C72.0169 108.439 72.1093 109.096 72.1503 109.756C72.1705 110.08 72.4565 110.236 72.7813 110.225C72.8655 110.222 72.9433 110.263 73.0058 110.32C73.2871 110.574 73.5426 110.874 73.8978 111.002C74.0542 111.059 74.2016 111.153 74.2718 111.303C74.4096 111.599 74.7999 111.662 74.9756 111.387C75.14 111.129 75.2722 110.851 75.3717 110.564C75.4026 110.475 75.4182 110.382 75.4215 110.288C75.4687 108.958 75.3688 107.597 75.6574 106.293C75.6935 106.13 75.7665 105.977 75.8412 105.828C76.3563 104.799 75.6317 103.24 74.6195 102.692C74.3593 102.551 74.1101 102.391 73.8783 102.198C73.6157 102.03 73.3919 101.762 73.0896 101.681C73.0185 101.662 72.9475 101.7 72.9045 101.76C72.7863 101.924 72.6475 102.061 72.4961 102.182Z" fill="#060303"/>
<path d="M47.1266 64.1817C47.2226 64.0796 47.3614 64.0291 47.5005 64.0456C47.8312 64.0847 47.9961 64.4624 47.7714 64.7082C47.4417 65.0689 47.0829 65.4055 46.7079 65.728C46.2697 66.1048 46.6059 66.8371 47.1646 66.6892C48.1942 66.4454 48.4604 66.5903 47.8972 67.486C47.8278 67.5964 47.7765 67.7161 47.7537 67.8503C47.3244 69.2829 46.415 70.5033 45.3703 71.6322C44.7434 72.3097 45.2406 73.5636 46.0949 73.2139C47.1102 72.928 47.5039 73.7908 46.9016 74.6568C46.8212 74.7723 46.7465 74.8896 46.6857 75.0115C46.2918 75.7564 45.6955 76.3912 45.204 77.0827C44.9619 77.4372 44.6667 77.7515 44.3408 78.0402C43.6006 78.6959 43.6551 80.0286 44.6421 80.0884C45.5329 80.124 46.4816 80.1823 47.2947 79.7872C47.84 79.5079 48.2976 80.1042 48.0466 80.6631C47.9516 80.8746 47.8556 81.0859 47.7735 81.3014C47.273 82.8576 46.6008 84.4398 45.3432 85.6398C44.8246 86.1532 44.3403 86.7556 43.585 87.0002C42.7402 87.2936 42.8237 88.2773 43.7176 88.2483C44.2421 88.2313 44.7639 88.1653 45.2709 88.0479C45.4672 88.0096 45.6554 87.951 45.8394 87.8821C46.9543 87.464 47.6196 88.0912 47.1266 89.1751C46.6406 90.1921 46.1292 91.1977 45.5799 92.1888C45.4296 92.4604 45.2591 92.7225 45.0703 92.9736C44.1203 94.2375 44.3766 95.9168 45.9572 95.9574C46.3349 95.9671 46.7104 95.9948 47.0814 96.0571C47.1967 96.0765 47.2808 96.1735 47.2868 96.2902C47.2934 96.4165 47.207 96.5307 47.0823 96.552C45.8117 96.7695 44.4968 96.5986 43.211 96.6569C42.1322 96.7556 41.1059 96.3281 40.2404 95.7937C39.8394 95.5999 40.4376 95.0441 40.8766 94.969C42.214 94.7403 43.3106 93.7913 44.1632 92.869C44.2633 92.7329 44.3592 92.5948 44.4517 92.4551C45.3451 91.1044 43.7208 89.1793 42.1232 88.9143C41.2838 88.699 40.4239 88.468 39.6858 88.0404C39.592 87.9861 39.5359 87.8942 39.5317 87.786C39.5247 87.6031 39.6689 87.4426 39.851 87.4247C41.0145 87.3104 42.0362 86.7255 43.1242 86.3718C43.7422 86.1791 44.1253 85.6787 44.568 85.2787C45.2978 84.6293 45.828 83.8234 46.2066 82.9711C46.2386 82.899 46.2767 82.8272 46.3167 82.7592C46.8496 81.855 45.921 80.9284 44.8738 80.8574C44.6407 80.8416 44.4084 80.8134 44.1777 80.7702C43.0502 80.6698 42.219 79.8212 41.0697 79.7758C40.6307 79.7914 41.0488 79.0972 41.4588 78.9393C41.9899 78.7348 42.5149 78.5138 42.9327 78.1483C43.5272 77.6511 44.1922 77.1945 44.5969 76.5467C45.0125 75.9135 45.6034 75.3807 45.9377 74.7054C46.0694 74.4475 45.8086 74.0786 45.5208 74.111C44.523 74.2233 43.4844 74.0829 42.4762 74.1171C42.3438 74.1216 42.2212 74.0605 42.1543 73.9461C42.0622 73.7887 42.1043 73.5828 42.2506 73.474C43.4017 72.6176 44.3503 71.5721 45.2348 70.4916C45.4448 70.2688 45.6354 70.0337 45.8105 69.7895C46.4839 68.85 45.5881 67.8769 44.4346 67.9534C44.1619 67.9715 43.8883 67.9647 43.614 67.9206C43.4187 67.8892 43.29 67.7077 43.3027 67.5103C43.3106 67.3876 43.3725 67.2753 43.4713 67.2021C44.7491 66.2557 46.0545 65.3221 47.1266 64.1817Z" fill="#070304"/>
<path d="M26.4413 67.4426C26.673 67.4955 26.9151 67.3961 27.0189 67.1823C27.0852 67.0457 27.1481 66.9079 27.2088 66.7695C27.3173 66.5219 27.6675 66.5095 27.79 66.7505C27.8352 66.8394 27.9208 66.901 28.0193 66.9168C28.0776 66.9262 28.1359 66.9357 28.1942 66.9454C28.5063 66.9972 28.6011 67.3881 28.3481 67.578C28.206 67.6847 28.1617 67.8758 28.2183 68.0443C28.2971 68.2788 28.3297 68.5167 28.2801 68.7527C28.2404 68.9415 28.0219 69.0022 27.8523 68.9103C27.8009 68.8828 27.7204 68.8392 27.6454 68.7984C27.5639 68.754 27.4629 68.7681 27.3976 68.834C27.3663 68.8656 27.3352 68.8974 27.3043 68.9292C27.1945 69.0424 26.9969 68.9566 27.0069 68.7993C27.0084 68.7758 27.0098 68.7524 27.0113 68.729C27.0159 68.6542 26.9472 68.596 26.874 68.6126C26.8146 68.6261 26.75 68.6407 26.6891 68.6545C26.6364 68.6664 26.6032 68.6006 26.6404 68.5613C26.6497 68.5514 26.6598 68.5481 26.6734 68.5469C26.7259 68.5422 26.778 68.5359 26.8297 68.5282C27.1816 68.4754 27.2181 68.0949 26.8671 68.0364C26.6996 68.0084 26.5286 67.9877 26.3653 67.9515C26.3421 67.9463 26.3194 67.9387 26.2983 67.9276C26.2647 67.9099 26.2333 67.8899 26.2038 67.8681C26.0136 67.7281 26.1319 67.4204 26.3678 67.4304C26.3838 67.4311 26.3999 67.4333 26.4156 67.4368C26.4242 67.4387 26.4327 67.4406 26.4413 67.4426Z" fill="#F2DBB7"/>
<path d="M29.4659 66.413C29.7219 66.3351 29.9853 66.2614 30.2571 66.2078C30.7145 66.1176 31.0274 66.5159 30.6761 66.8224C30.5514 66.9312 30.411 67.0356 30.2738 67.1397C30.0858 67.2823 30.083 67.551 30.2672 67.6984C30.4976 67.8827 30.4424 68.2158 30.1476 68.2275C30.0923 68.2297 30.0365 68.2305 29.9805 68.2302C29.6941 68.2288 29.4777 67.8231 29.3898 67.5505C29.3809 67.5229 29.3707 67.4953 29.3592 67.4678C29.3008 67.3269 29.3399 67.1572 29.4731 67.0828C29.5631 67.0325 29.6527 66.982 29.7419 66.9311C29.8684 66.859 29.8317 66.6707 29.6874 66.6513C29.62 66.6423 29.5526 66.6334 29.4852 66.6248C29.368 66.6098 29.3527 66.447 29.4659 66.413Z" fill="#10060E"/>
<path d="M90.2441 66.6228C90.1304 66.4959 90.083 66.2946 90.2281 66.2052C90.4246 66.0842 90.7596 66.0985 90.9266 66.2426C90.9665 66.277 91.0084 66.3211 91.0419 66.3616C91.2908 66.6626 90.6655 67.0263 90.3793 66.7606C90.3318 66.7166 90.2868 66.6705 90.2441 66.6228Z" fill="#1A081C"/>
<path d="M25.8487 67.632C25.8334 67.4472 25.9486 67.2757 26.1301 67.2378C26.1715 67.2292 26.2131 67.2213 26.2549 67.2143C26.4399 67.183 26.6154 67.2713 26.7263 67.4225C26.7713 67.4838 26.8195 67.5415 26.8764 67.5883C26.9197 67.6239 26.9723 67.6454 27.0267 67.6588C27.128 67.6839 27.2324 67.7014 27.3354 67.7225C27.6595 67.7888 27.6178 68.164 27.2914 68.2177C27.2277 68.2282 27.1629 68.2205 27.1007 68.2028C26.7788 68.1112 26.4495 68.0539 26.1261 67.9701C25.9707 67.9299 25.862 67.792 25.8487 67.632Z" fill="#160E0F"/>
<path d="M91.1364 67.6064C91.153 67.3518 91.3912 67.1865 91.6455 67.2067C91.6558 67.2075 91.666 67.2084 91.6763 67.2092C91.9211 67.229 92.1121 67.4252 92.1337 67.6699C92.1602 67.9696 91.924 68.2288 91.6231 68.2266C91.6172 68.2266 91.6113 68.2266 91.6055 68.2265C91.3585 68.2248 91.1391 68.0507 91.1326 67.8038C91.1309 67.738 91.1321 67.6721 91.1364 67.6064Z" fill="#140315"/>
<path d="M27.3069 68.5719C27.3372 68.4454 27.4337 68.3427 27.561 68.316C27.6123 68.3053 27.6659 68.2941 27.7182 68.2831C27.8439 68.2568 27.9605 68.3567 27.9517 68.4849C27.9391 68.6665 28.1633 68.7707 28.2949 68.6448C28.3432 68.5986 28.3919 68.5527 28.4409 68.507C28.5147 68.4382 28.6162 68.4197 28.7063 68.4651C28.8451 68.5349 28.8934 68.7199 28.808 68.8496C28.556 69.2321 28.3255 69.6896 27.9637 69.9954C27.4595 70.4215 26.909 69.8213 27.1178 69.195C27.1867 68.9882 27.2567 68.7816 27.3069 68.5719Z" fill="#0D0610"/>
<path d="M92.9126 69.9849C93.1612 70.0537 93.4303 69.9717 93.5933 69.7719C93.8868 69.4119 94.1056 68.9474 94.4212 68.6203C94.725 68.3053 95.2517 68.6679 95.0339 69.0474C94.9769 69.1594 94.9287 69.2741 94.8876 69.3909C94.5327 70.3985 95.2319 71.4337 96.1424 71.9927C96.5078 72.2266 95.9803 72.5519 95.5732 72.4018C95.4399 72.3527 95.3045 72.3101 95.1672 72.2742C94.6585 72.1413 94.2171 72.5668 94.216 73.0926C94.2156 73.2916 94.2148 73.4907 94.212 73.6898C94.2051 74.1663 93.7815 74.7348 93.4326 74.4102C93.1459 74.0739 93.03 73.6556 92.9469 73.2299C92.8673 72.8225 92.62 72.4645 92.2361 72.6223C92.2061 72.6346 92.1763 72.6464 92.1468 72.6566C92.0938 72.6749 92.0389 72.6926 91.9853 72.7094C91.5208 72.8545 91.1199 72.3399 91.3942 71.9379C91.4935 71.7924 91.6092 71.654 91.7197 71.514C91.8746 71.3178 91.9251 71.0642 91.8668 70.8212C91.7084 70.1605 92.2578 69.8039 92.9126 69.9849ZM93.0567 70.3587C92.6667 70.4228 92.3719 70.8196 92.6916 71.0521C92.7311 71.0807 92.772 71.1078 92.8143 71.1333C92.8594 71.1603 92.8915 71.1974 92.9027 71.2488C92.9259 71.3548 92.8526 71.4632 92.747 71.4885C92.6711 71.5066 92.5981 71.5302 92.5281 71.5591C92.2157 71.688 92.4013 71.9896 92.7384 71.9655C92.7666 71.9635 92.7949 71.9621 92.8232 71.9613C92.921 71.9588 93.0157 71.999 93.078 72.0744C93.0896 72.0886 93.1009 72.103 93.1118 72.1175C93.4556 72.5765 93.6948 72.5842 93.7265 72.0116C93.7287 71.9709 93.7314 71.9302 93.7344 71.8895C93.7367 71.8594 93.7435 71.8295 93.758 71.8031C93.7981 71.7303 93.8513 71.6828 93.9129 71.652C94.0938 71.5616 94.1682 71.3687 93.9952 71.2639C93.8983 71.2053 93.8677 71.0804 93.9207 70.9803C93.9654 70.8961 94.0071 70.8105 94.0442 70.7234C94.1874 70.3867 93.8311 70.1492 93.4816 70.2572C93.3417 70.3004 93.2 70.3352 93.0567 70.3587Z" fill="#150B0F"/>
<path d="M32.1446 68.7603C32.1453 68.4691 32.3836 68.2345 32.6747 68.2394C32.9544 68.2442 33.181 68.469 33.1872 68.7487C33.1875 68.7605 33.1877 68.7723 33.188 68.7842C33.1936 69.0352 33.0304 69.2697 32.7796 69.2819C32.6943 69.286 32.609 69.2835 32.5238 69.2742C32.2908 69.2486 32.1441 69.0295 32.1446 68.7952C32.1446 68.7835 32.1446 68.7719 32.1446 68.7603Z" fill="#0D050E"/>
<path d="M35.3094 68.7549C35.3067 68.4702 35.526 68.2305 35.8107 68.2305C35.8193 68.2305 35.828 68.2305 35.8366 68.2305C36.1271 68.2314 36.3504 68.4788 36.3411 68.7691C36.341 68.7735 36.3409 68.7779 36.3407 68.7823C36.3318 69.0606 36.1056 69.283 35.8272 69.2837C35.5422 69.2844 35.3123 69.0539 35.3096 68.7689C35.3095 68.7643 35.3095 68.7596 35.3094 68.7549Z" fill="#10050F"/>
<path d="M38.4712 68.7503C38.4672 68.4781 38.6783 68.2509 38.9503 68.2421C39.2528 68.2323 39.4912 68.4937 39.4619 68.7949C39.4611 68.8029 39.4603 68.8108 39.4595 68.8188C39.4355 69.0657 39.2317 69.2565 38.9837 69.2649C38.7072 69.2743 38.4758 69.0559 38.4716 68.7792C38.4715 68.7696 38.4714 68.7599 38.4712 68.7503Z" fill="#261825"/>
<path d="M42.8875 69.1618C42.7141 69.0027 42.702 68.7276 42.8249 68.5269C42.9343 68.3482 43.0572 68.2738 43.1845 68.2457C43.4691 68.1829 43.7311 68.5101 43.7311 68.8016C43.7311 68.9814 43.6353 69.1396 43.4706 69.212C43.2733 69.2986 43.0743 69.3334 42.8875 69.1618Z" fill="#140A16"/>
<path d="M92.1064 71.4966C91.7413 71.2591 92.041 70.8239 92.4728 70.7673C92.6992 70.7376 92.9224 70.6862 93.1415 70.6197C93.5046 70.5094 93.868 70.7636 93.7109 71.109C93.6647 71.2106 93.6117 71.3101 93.5545 71.4079C93.4908 71.5166 93.5251 71.6575 93.6358 71.7178C93.8263 71.8216 93.7558 72.0406 93.5549 72.1227C93.4767 72.1546 93.4092 72.2057 93.3589 72.2867C93.3406 72.3161 93.332 72.3504 93.3291 72.3849C93.3264 72.4173 93.324 72.4497 93.3219 72.482C93.2785 73.1391 93.017 73.125 92.5944 72.6199C92.5806 72.6033 92.5661 72.5869 92.5512 72.5707C92.4802 72.4943 92.3785 72.455 92.2742 72.4566C92.2263 72.4574 92.1786 72.4597 92.131 72.4632C91.755 72.4911 91.5683 72.1544 91.9228 72.0259C92.0076 71.9952 92.0961 71.9704 92.1882 71.9516C92.3004 71.9287 92.3773 71.8127 92.3503 71.7014C92.3372 71.6475 92.3019 71.6095 92.2531 71.5833C92.2025 71.5561 92.1536 71.5272 92.1064 71.4966Z" fill="#F2DBB8"/>
<path d="M80.6008 75.1492C80.602 74.9326 80.7458 74.7421 80.9548 74.6853C81.2373 74.6086 81.516 74.8067 81.5428 75.0982C81.5731 75.4267 81.599 75.7576 81.6203 76.0905C81.6398 76.3957 81.3895 76.6486 81.0841 76.6316C80.8111 76.6163 80.5994 76.3899 80.5988 76.1165C80.5982 75.7936 80.5991 75.4709 80.6008 75.1492Z" fill="#443548"/>
<path d="M55.5107 100.608C55.3608 100.112 55.769 99.6681 56.2864 99.6381C56.5109 99.6251 56.7353 99.6058 56.9588 99.5785C57.6763 99.4912 58.4804 100.477 57.9628 100.981C57.6776 101.194 57.3724 101.363 57.0587 101.511C56.4963 101.775 55.8171 101.496 55.61 100.91C55.5747 100.81 55.5414 100.709 55.5107 100.608Z" fill="#FEF1E0"/>
<path d="M69.026 100.353C69.0166 100.338 69.0118 100.321 69.0121 100.304C69.0152 100.075 69.0212 99.8463 69.0317 99.6184C69.0367 99.5118 69.1709 99.51 69.1819 99.6161C69.186 99.6546 69.2144 99.6864 69.2524 99.6939C69.5224 99.7469 69.7945 99.7774 70.0651 99.7141C69.7939 99.8113 69.6375 100.095 69.7012 100.376C69.7195 100.457 69.7383 100.537 69.758 100.617C69.6422 100.323 69.4799 100.185 69.3068 100.122C69.2426 100.098 69.1846 100.159 69.2001 100.225C69.2039 100.242 69.2077 100.258 69.2115 100.274C69.2349 100.374 69.0816 100.439 69.026 100.353Z" fill="#9C9891"/>
<path d="M51.4941 104.163C51.2928 103.331 51.6555 102.439 52.3702 101.968C52.6678 101.771 52.9616 101.57 53.255 101.367C53.6332 101.107 54.1603 101.227 54.3399 101.65C54.5043 102.037 54.2622 102.452 53.8551 102.557C53.6642 102.606 53.4734 102.655 53.2836 102.708C53.136 102.749 53.0417 102.891 53.0583 103.043C53.0743 103.191 53.1913 103.309 53.3396 103.319C53.8233 103.35 54.3093 103.329 54.7949 103.328C55.0192 103.328 55.1421 103.58 55.0114 103.762C54.9598 103.834 54.9472 103.926 54.9642 104.012C55.0465 104.433 54.9166 104.863 54.9005 105.287C54.8712 105.97 54.8956 106.655 54.8794 107.339C54.8044 108.212 55.1472 109.041 55.2136 109.901C55.2421 110.268 54.9622 110.562 54.6506 110.76C54.6106 110.785 54.5713 110.811 54.5326 110.839C54.3677 110.956 54.1632 111.011 53.9665 110.963C53.9317 110.955 53.8969 110.947 53.8621 110.938C53.7199 110.905 53.5713 110.948 53.469 111.052C53.2835 111.241 52.9782 111.22 52.8138 111.012C52.7398 110.918 52.6622 110.828 52.5776 110.746C52.3119 110.488 52.0854 110.134 52.1375 109.767C52.2543 108.947 52.2828 108.111 52.0807 107.301C51.8679 106.573 52.0303 105.79 51.7282 105.085C51.6431 104.78 51.5687 104.471 51.4941 104.163Z" fill="#CB9C82"/>
<path d="M72.2922 102.556C72.1514 102.599 72.1006 102.472 72.2247 102.393C72.3977 102.282 72.5559 102.158 72.6907 102.009C72.7303 101.966 72.7873 101.939 72.8455 101.949C73.234 102.01 73.5128 102.273 73.8426 102.435C74.2356 102.686 74.6703 102.879 75.1245 103.043C76.072 103.386 76.7495 104.968 76.1922 105.807C76.1088 105.933 76.0268 106.067 75.9848 106.212C75.6431 107.39 75.7499 108.62 75.7024 109.824C75.6966 109.97 75.6661 110.114 75.6024 110.246C75.4781 110.503 75.3164 110.752 75.118 110.981C74.8974 111.236 74.5049 111.164 74.3303 110.876C74.2356 110.719 74.0702 110.626 73.8934 110.581C73.4506 110.466 73.1369 110.181 72.7901 109.94C72.7163 109.889 72.6292 109.854 72.5394 109.855C72.1382 109.859 71.7874 109.639 71.748 109.239C71.6955 108.708 71.6075 108.178 71.5841 107.644C71.5781 107.506 71.5626 107.368 71.5351 107.232C71.4021 106.577 71.3377 105.91 71.5489 105.259C71.5889 105.172 71.6095 105.087 71.6151 105.003C71.6596 104.343 71.7649 103.822 72.3385 103.492C72.5006 103.399 72.5861 103.239 72.6185 103.055C72.6563 102.84 72.6354 102.615 72.3476 102.553C72.3293 102.549 72.31 102.55 72.2922 102.556Z" fill="#F5DCB5"/>
<path d="M61.8288 102.69C61.7487 102.365 61.9515 102.019 62.2835 101.977C62.4975 101.95 62.7016 102.066 62.8021 102.257C62.8718 102.389 62.9444 102.521 63.0221 102.649C64.0159 103.909 65.2893 105.009 65.278 106.613C65.2754 106.984 65.2805 107.355 65.2995 107.725C65.3202 108.128 65.4129 108.523 65.5584 108.9C65.7329 109.352 65.8926 109.813 65.8422 110.301C65.838 110.342 65.827 110.381 65.8107 110.419C65.7693 110.514 65.724 110.606 65.6767 110.698C65.5419 110.96 65.1426 110.935 65.0337 110.661C64.9863 110.542 64.8756 110.46 64.7474 110.451C64.6765 110.446 64.6056 110.442 64.5349 110.438C64.387 110.431 64.2481 110.507 64.1747 110.635C64.0034 110.936 63.5494 110.905 63.4008 110.593C63.2997 110.381 63.1887 110.174 63.0647 109.975C62.9901 109.855 62.8438 109.803 62.7087 109.843C62.4906 109.908 62.2735 109.74 62.2819 109.513C62.3271 108.285 62.344 107.053 62.1904 105.834C62.08 104.789 62.0807 103.712 61.8288 102.69Z" fill="#CB9C82"/>
</g>
<defs>
<filter id="filter0_i" x="-0.000488281" y="0" width="131" height="130.874" filterUnits="userSpaceOnUse" color-interpolation-filters="sRGB">
<feFlood flood-opacity="0" result="BackgroundImageFix"/>
<feBlend mode="normal" in="SourceGraphic" in2="BackgroundImageFix" result="shape"/>
<feColorMatrix in="SourceAlpha" type="matrix" values="0 0 0 0 0 0 0 0 0 0 0 0 0 0 0 0 0 0 127 0" result="hardAlpha"/>
<feOffset dx="6" dy="6"/>
<feGaussianBlur stdDeviation="21"/>
<feComposite in2="hardAlpha" operator="arithmetic" k2="-1" k3="1"/>
<feColorMatrix type="matrix" values="0 0 0 0 0.691667 0 0 0 0 0.268021 0 0 0 0 0.677058 0 0 0 0.3 0"/>
<feBlend mode="normal" in2="shape" result="effect1_innerShadow"/>
</filter>
</defs>
</svg>
