<svg width="448" height="130" viewBox="0 0 448 130" fill="none" xmlns="http://www.w3.org/2000/svg">
<path d="M45.5518 129.66C32.3812 129.66 21.6455 125.62 13.3447 117.541C5.09928 109.462 0.976562 98.6982 0.976562 85.251V82.9268C0.976562 73.9066 2.71973 65.8548 6.20605 58.7715C9.69238 51.6328 14.6175 46.1543 20.9814 42.3359C27.4007 38.4622 34.7054 36.5254 42.8955 36.5254C55.1807 36.5254 64.8372 40.3991 71.8652 48.1465C78.9486 55.8939 82.4902 66.8786 82.4902 81.1006V90.8955H25.2979C26.0726 96.7614 28.3968 101.465 32.2705 105.007C36.1995 108.549 41.1523 110.319 47.1289 110.319C56.3704 110.319 63.5921 106.971 68.7939 100.275L80.5811 113.474C76.984 118.565 72.1143 122.549 65.9717 125.427C59.8291 128.249 53.0225 129.66 45.5518 129.66ZM42.8125 55.9492C38.0534 55.9492 34.1797 57.554 31.1914 60.7637C28.2585 63.9733 26.377 68.5664 25.5469 74.543H58.916V72.6338C58.8053 67.3213 57.3665 63.2262 54.5996 60.3486C51.8327 57.4157 47.9036 55.9492 42.8125 55.9492ZM129.154 128H105.082V0.5H129.154V128ZM181.96 128H157.888V0.5H181.96V128ZM261.495 128C260.388 125.842 259.586 123.158 259.088 119.948C253.277 126.423 245.723 129.66 236.427 129.66C227.628 129.66 220.323 127.115 214.512 122.023C208.757 116.932 205.88 110.513 205.88 102.766C205.88 93.2474 209.394 85.9427 216.422 80.8516C223.505 75.7604 233.715 73.1872 247.052 73.1318H258.092V67.9854C258.092 63.835 257.012 60.5146 254.854 58.0244C252.751 55.5342 249.403 54.2891 244.81 54.2891C240.771 54.2891 237.589 55.2575 235.264 57.1943C232.996 59.1312 231.861 61.7874 231.861 65.1631H207.872C207.872 59.9613 209.477 55.1468 212.686 50.7197C215.896 46.2926 220.434 42.834 226.3 40.3438C232.165 37.7982 238.751 36.5254 246.055 36.5254C257.123 36.5254 265.894 39.32 272.369 44.9092C278.899 50.443 282.164 58.2458 282.164 68.3174V107.248C282.219 115.77 283.409 122.217 285.733 126.589V128H261.495ZM241.656 111.315C245.198 111.315 248.463 110.541 251.451 108.991C254.439 107.386 256.653 105.256 258.092 102.6V87.1602H249.127C237.118 87.1602 230.727 91.3105 229.952 99.6113L229.869 101.022C229.869 104.011 230.92 106.473 233.023 108.41C235.126 110.347 238.004 111.315 241.656 111.315ZM422.474 96.291C422.474 91.5872 420.813 87.9902 417.493 85.5C414.173 82.9544 408.196 80.2982 399.563 77.5312C390.931 74.709 384.096 71.9421 379.061 69.2305C365.337 61.8151 358.475 51.8265 358.475 39.2646C358.475 32.7347 360.301 26.9242 363.953 21.833C367.661 16.6865 372.946 12.6745 379.808 9.79688C386.725 6.91927 394.472 5.48047 403.05 5.48047C411.683 5.48047 419.375 7.05762 426.126 10.2119C432.877 13.3109 438.107 17.7103 441.814 23.4102C445.577 29.11 447.459 35.5846 447.459 42.834H422.557C422.557 37.3001 420.813 33.0114 417.327 29.9678C413.841 26.8688 408.943 25.3193 402.635 25.3193C396.548 25.3193 391.816 26.6198 388.44 29.2207C385.065 31.7663 383.377 35.1419 383.377 39.3477C383.377 43.2767 385.341 46.5693 389.271 49.2256C393.255 51.8818 399.093 54.3721 406.785 56.6963C420.952 60.9574 431.272 66.2422 437.747 72.5508C444.222 78.8594 447.459 86.7174 447.459 96.125C447.459 106.584 443.502 114.802 435.589 120.778C427.675 126.7 417.023 129.66 403.631 129.66C394.334 129.66 385.867 127.972 378.23 124.597C370.594 121.166 364.756 116.49 360.716 110.568C356.731 104.647 354.739 97.7852 354.739 89.9824H379.725C379.725 103.319 387.693 109.987 403.631 109.987C409.552 109.987 414.173 108.798 417.493 106.418C420.813 103.983 422.474 100.607 422.474 96.291Z" fill="white"/>
</svg>
