<svg width="79" height="77" viewBox="0 0 79 77" fill="none" xmlns="http://www.w3.org/2000/svg">
<mask id="mask0" mask-type="alpha" maskUnits="userSpaceOnUse" x="0" y="0" width="79" height="77">
<rect width="79" height="77" fill="#C4C4C4"/>
</mask>
<g mask="url(#mask0)">
<path fill-rule="evenodd" clip-rule="evenodd" d="M29.5251 73.1367C49.1064 78.3835 70.7959 64.9272 72.9823 46.7803C72.9823 46.7803 52.3905 56.2766 43.4999 55.5C29.0383 54.2368 23.6268 45.744 21.9999 39.5C15.4031 14.1827 48.124 3.72464 48.124 3.72464C30.0488 -2.72435 8.81697 8.60012 3.57017 28.1814C-2.18346 49.6543 9.9438 67.8899 29.5251 73.1367ZM36.4682 23.2582L33.3272 22.1382L33.416 25.4717L31.3802 28.1129L34.578 29.0585L36.4608 31.8108L38.3483 29.0617L41.5477 28.1216L39.5165 25.4769L39.611 22.1436L36.4682 23.2582ZM42.3272 42.1382L45.4682 43.2582L48.611 42.1436L48.5165 45.4769L50.5477 48.1216L47.3483 49.0617L45.4608 51.8108L43.578 49.0585L40.3802 48.1129L42.416 45.4717L42.3272 42.1382ZM58.4682 26.2582L55.3272 25.1382L55.416 28.4717L53.3802 31.1129L56.578 32.0585L58.4608 34.8108L60.3483 32.0617L63.5477 31.1216L61.5165 28.4769L61.611 25.1436L58.4682 26.2582Z" fill="#F9E65C"/>
</g>
</svg>
