<svg width="224" height="270" viewBox="0 0 224 270" fill="none" xmlns="http://www.w3.org/2000/svg">
<mask id="mask0" mask-type="alpha" maskUnits="userSpaceOnUse" x="0" y="0" width="224" height="270">
<rect width="224" height="270" fill="#C4C4C4"/>
</mask>
<g mask="url(#mask0)">
<g filter="url(#filter0_d)">
<mask id="mask1" mask-type="alpha" maskUnits="userSpaceOnUse" x="-268" y="10" width="521" height="521">
<rect width="424.69" height="424.69" rx="10" transform="matrix(-0.258819 -0.965926 -0.965926 0.258819 252.137 420.219)" fill="#C4C4C4"/>
</mask>
<g mask="url(#mask1)">
<rect width="424.69" height="424.69" rx="10" transform="matrix(-0.258819 -0.965926 -0.965926 0.258819 252.137 420.219)" fill="#C0D1FC"/>
<circle r="117.226" transform="matrix(-0.258819 -0.965926 -0.965926 0.258819 169.499 191.678)" fill="url(#paint0_linear)"/>
<circle r="198.39" transform="matrix(-0.258819 -0.965926 -0.965926 0.258819 252.055 471.217)" fill="#6278E5"/>
<circle r="161.805" transform="matrix(-0.258819 -0.965926 -0.965926 0.258819 116.577 -8.23754)" fill="url(#paint1_linear)"/>
<circle r="198.39" transform="matrix(-0.258819 -0.965926 -0.965926 0.258819 -174.897 464.428)" fill="#A172D3"/>
<path d="M-365.412 -122.596C-506.913 -84.6812 -590.886 60.764 -552.971 202.265C-515.237 343.088 -371.635 469.153 -230.782 432.983C-229.45 432.641 -228.183 431.998 -227.109 431.138C-84.7958 317.313 -2.78155 205.922 -40.5515 64.9623C-78.4665 -76.5384 -223.912 -160.511 -365.412 -122.596Z" fill="#EC9341"/>
<path d="M-13.0114 99.7892C-37.1729 106.263 -48.3752 149.75 -67.3234 193.327C-82.0865 227.279 -105.772 277.853 -97.8739 309.117C-82.6629 369.326 -68.3973 387.19 -59.4029 420.758C-38.5842 498.454 46.8086 452.439 55.2558 407.934C80.526 274.794 144.001 251.823 122.769 172.582C101.536 93.3408 66.2296 78.5566 -13.0114 99.7892Z" fill="url(#paint2_linear)"/>
</g>
</g>
</g>
<defs>
<filter id="filter0_d" x="-368" y="10" width="1020.14" height="1070.14" filterUnits="userSpaceOnUse" color-interpolation-filters="sRGB">
<feFlood flood-opacity="0" result="BackgroundImageFix"/>
<feColorMatrix in="SourceAlpha" type="matrix" values="0 0 0 0 0 0 0 0 0 0 0 0 0 0 0 0 0 0 127 0"/>
<feOffset dx="150" dy="300"/>
<feGaussianBlur stdDeviation="125"/>
<feColorMatrix type="matrix" values="0 0 0 0 0 0 0 0 0 0 0 0 0 0 0 0 0 0 0.05 0"/>
<feBlend mode="normal" in2="BackgroundImageFix" result="effect1_dropShadow"/>
<feBlend mode="normal" in="SourceGraphic" in2="effect1_dropShadow" result="shape"/>
</filter>
<linearGradient id="paint0_linear" x1="105.839" y1="93.3593" x2="105.662" y2="241.451" gradientUnits="userSpaceOnUse">
<stop stop-color="#00D1FF"/>
<stop offset="1" stop-color="#654BFF"/>
</linearGradient>
<linearGradient id="paint1_linear" x1="130.415" y1="132.508" x2="161.805" y2="323.609" gradientUnits="userSpaceOnUse">
<stop stop-color="#9F2977"/>
<stop offset="1" stop-color="#FF41BE"/>
</linearGradient>
<linearGradient id="paint2_linear" x1="146.53" y1="254.05" x2="-177.456" y2="252.164" gradientUnits="userSpaceOnUse">
<stop stop-color="#F3318E"/>
<stop offset="1" stop-color="#DA6D33"/>
</linearGradient>
</defs>
</svg>
