<svg width="279" height="253" viewBox="0 0 279 253" fill="none" xmlns="http://www.w3.org/2000/svg">
<mask id="mask0" mask-type="alpha" maskUnits="userSpaceOnUse" x="0" y="0" width="279" height="253">
<rect width="279" height="253" fill="#C4C4C4"/>
</mask>
<g mask="url(#mask0)">
<mask id="mask1" mask-type="alpha" maskUnits="userSpaceOnUse" x="-269" y="14" width="538" height="538">
<rect width="424.69" height="424.69" rx="40" transform="matrix(0.318375 0.947965 0.947965 -0.318375 -268.964 149.247)" fill="#C4C4C4"/>
</mask>
<g mask="url(#mask1)">
<rect width="424.69" height="424.69" rx="40" transform="matrix(0.318375 0.947965 0.947965 -0.318375 -268.964 149.247)" fill="#C4C4C4"/>
<circle r="198.39" transform="matrix(0.318375 0.947965 0.947965 -0.318375 133.229 125.229)" fill="url(#paint0_linear)"/>
<path d="M186.86 330.254C274.29 300.89 321.362 206.211 291.999 118.781C263.528 34.0088 172.462 -38.0267 87.2554 -15.5625C81.9334 -14.1594 77.1322 -11.2618 73.0869 -7.52969C-8.59696 67.8305 -53.2628 139.81 -24.6131 225.115C4.75032 312.545 99.43 359.617 186.86 330.254Z" fill="url(#paint1_linear)"/>
<path d="M381.14 652.616C520.01 605.977 594.778 455.592 548.138 316.722C502.391 180.51 354.898 65.0013 218.221 104.642C212.935 106.175 208.094 109.064 204.035 112.781C72.0049 233.687 -0.679363 348.874 45.2464 485.619C91.8859 624.488 242.271 699.256 381.14 652.616Z" fill="url(#paint2_linear)"/>
<path d="M15.5945 452.571C39.3068 444.607 47.7836 400.509 63.9858 355.838C76.6094 321.034 97.1047 269.084 87.2779 238.372C68.3528 179.225 53.0042 162.283 41.94 129.339C16.3308 53.0872 -66.0358 104.322 -71.6995 149.267C-88.6429 283.72 -150.567 310.594 -124.449 388.361C-98.3305 466.129 -62.1731 478.69 15.5945 452.571Z" fill="url(#paint3_linear)"/>
</g>
</g>
<defs>
<linearGradient id="paint0_linear" x1="198.39" y1="0" x2="182.229" y2="213.315" gradientUnits="userSpaceOnUse">
<stop stop-color="#A172D3"/>
<stop offset="0.0001" stop-color="#7282D3"/>
<stop offset="1" stop-color="#8139CE"/>
</linearGradient>
<linearGradient id="paint1_linear" x1="-28.723" y1="212.878" x2="137.604" y2="143.685" gradientUnits="userSpaceOnUse">
<stop stop-color="#A172D3"/>
<stop offset="0.0001" stop-color="#7282D3"/>
<stop offset="1" stop-color="#8139CE"/>
</linearGradient>
<linearGradient id="paint2_linear" x1="38.7184" y1="466.181" x2="194.416" y2="414.501" gradientUnits="userSpaceOnUse">
<stop stop-color="#EC9341"/>
<stop offset="1" stop-color="#ECDB41"/>
</linearGradient>
<linearGradient id="paint3_linear" x1="-153.23" y1="308.528" x2="170.247" y2="290.266" gradientUnits="userSpaceOnUse">
<stop stop-color="#EF3F93"/>
<stop offset="1" stop-color="#DA6D33"/>
</linearGradient>
</defs>
</svg>
