<svg width="506" height="769" viewBox="0 0 506 769" fill="none" xmlns="http://www.w3.org/2000/svg">
<g filter="url(#filter0_d)">
<mask id="mask0" mask-type="alpha" maskUnits="userSpaceOnUse" x="-257" y="-258" width="477" height="477">
<rect x="-201.998" y="-258" width="424.69" height="424.69" rx="15" transform="rotate(7.44137 -201.998 -258)" fill="#C4C4C4"/>
</mask>
<g mask="url(#mask0)">
<rect x="-201.998" y="-258" width="424.69" height="424.69" rx="15" transform="rotate(7.44137 -201.998 -258)" fill="#C4C4C4"/>
<circle cx="240.567" cy="-179.978" r="161.805" transform="rotate(7.44137 240.567 -179.978)" fill="#9A7BCB"/>
<circle cx="-189.651" cy="171.139" r="198.39" transform="rotate(7.44137 -189.651 171.139)" fill="#A172D3"/>
<path d="M417.044 283.031C398.071 428.289 264.936 530.664 119.677 511.692C-24.539 492.856 -168.054 367.642 -151.539 223.693C-151.304 221.642 -150.597 219.635 -149.53 217.869C-55.5731 62.35 43.9574 -33.1999 188.383 -14.3362C333.641 4.63623 436.016 137.772 417.044 283.031Z" fill="url(#paint0_linear)"/>
<path d="M150.526 -37.3052C147.286 -12.5019 105.651 4.32325 64.9454 28.8389C33.2303 47.9398 -13.7894 78.0723 -45.8202 74.3551C-107.507 67.1962 -127.092 55.4044 -161.552 50.9037C-241.312 40.4861 -206.929 -50.2175 -163.921 -64.4456C-35.2626 -107.01 -20.8404 -172.955 60.5051 -162.33C141.851 -151.706 161.151 -118.651 150.526 -37.3052Z" fill="url(#paint1_linear)"/>
</g>
</g>
<path d="M58.4474 168.853L64.8808 169.709C67.2069 170.018 68.9054 169.763 69.9761 168.944C71.0565 168.052 71.7515 166.443 72.061 164.117L76.4858 130.86C76.7953 128.534 76.5404 126.835 75.7211 125.765C74.9115 124.621 73.3437 123.895 71.0175 123.585L64.5842 122.729C62.258 122.42 60.5547 122.711 59.4743 123.603C58.4036 124.422 57.7135 125.995 57.404 128.321L52.9791 161.578C52.6696 163.904 52.9197 165.639 53.7293 166.782C54.5486 167.853 56.1213 168.543 58.4474 168.853ZM65.4657 181.993L54.5618 180.542C48.8191 179.778 44.5879 177.662 41.8683 174.193C39.1488 170.724 38.171 166.118 38.9351 160.375L43.534 125.81C44.2981 120.067 46.4461 115.877 49.9781 113.24C53.5101 110.603 58.1475 109.666 63.8902 110.43L74.7941 111.881C80.4641 112.635 84.6541 114.783 87.364 118.325C90.0836 121.794 91.0662 126.364 90.3118 132.034L85.7129 166.599C84.9585 172.269 82.8104 176.459 79.2688 179.169C75.7368 181.806 71.1357 182.748 65.4657 181.993ZM127.218 165.019L131.701 131.326L109.554 162.669L127.218 165.019ZM134.72 191.207L126.215 190.076C124.688 189.873 124.027 189.008 124.23 187.481L125.623 177.014L98.5808 173.416C97.3451 173.251 96.4121 172.757 95.7819 171.934C95.1516 171.11 94.9188 170.08 95.0832 168.845L95.649 164.592C95.9391 162.411 96.5395 160.679 97.4502 159.394L124.517 121.937C125.418 120.725 126.188 119.94 126.828 119.581C127.55 119.159 128.529 119.03 129.764 119.195L142.086 120.834C143.321 120.999 144.254 121.493 144.885 122.316C145.588 123.15 145.857 124.184 145.692 125.42L140.194 166.746L148.045 167.79C149.499 167.984 150.129 168.807 149.935 170.261L148.963 177.567C148.741 179.239 147.903 179.978 146.449 179.785L138.598 178.74L137.205 189.208C137.089 190.08 136.825 190.674 136.414 190.989C136.084 191.241 135.52 191.314 134.72 191.207Z" fill="#DFECFC"/>
<defs>
<filter id="filter0_d" x="-471" y="-258" width="976.116" height="1026.12" filterUnits="userSpaceOnUse" color-interpolation-filters="sRGB">
<feFlood flood-opacity="0" result="BackgroundImageFix"/>
<feColorMatrix in="SourceAlpha" type="matrix" values="0 0 0 0 0 0 0 0 0 0 0 0 0 0 0 0 0 0 127 0"/>
<feOffset dx="36" dy="300"/>
<feGaussianBlur stdDeviation="125"/>
<feColorMatrix type="matrix" values="0 0 0 0 0 0 0 0 0 0 0 0 0 0 0 0 0 0 0.05 0"/>
<feBlend mode="normal" in2="BackgroundImageFix" result="effect1_dropShadow"/>
<feBlend mode="normal" in="SourceGraphic" in2="effect1_dropShadow" result="shape"/>
</filter>
<linearGradient id="paint0_linear" x1="22.7105" y1="28.249" x2="162.71" y2="223.249" gradientUnits="userSpaceOnUse">
<stop stop-color="#275475"/>
<stop offset="1" stop-color="#449ED1"/>
</linearGradient>
<linearGradient id="paint1_linear" x1="-23.3812" y1="-175.169" x2="21.1056" y2="145.754" gradientUnits="userSpaceOnUse">
<stop stop-color="#EF3F93"/>
<stop offset="1" stop-color="#DA6D33"/>
</linearGradient>
</defs>
</svg>
