<svg width="280" height="298" viewBox="0 0 280 298" fill="none" xmlns="http://www.w3.org/2000/svg">
<mask id="mask0" mask-type="alpha" maskUnits="userSpaceOnUse" x="0" y="0" width="280" height="298">
<rect width="280" height="298" fill="#C4C4C4"/>
</mask>
<g mask="url(#mask0)">
<mask id="mask1" mask-type="alpha" maskUnits="userSpaceOnUse" x="-259" y="-217" width="505" height="504">
<rect width="424.791" height="426.105" rx="40" transform="matrix(-0.259681 -0.965694 -0.966156 0.257959 254.041 185.219)" fill="#C4C4C4"/>
</mask>
<g mask="url(#mask1)">
<ellipse rx="198.437" ry="199.051" transform="matrix(-0.259681 -0.965694 -0.966156 0.257959 -66.1555 123.977)" fill="url(#paint0_linear)"/>
<rect width="424.791" height="426.105" rx="40" transform="matrix(-0.259681 -0.965694 -0.966156 0.257959 254.041 185.219)" fill="url(#paint1_linear)"/>
<path d="M252.362 103.503C306.242 86.8401 300.325 39.8994 283.603 -13.7888C266.88 -67.477 209.645 -97.4918 155.765 -80.8287C101.885 -64.1656 71.7634 -7.13457 88.486 46.5536C105.209 100.242 198.482 120.166 252.362 103.503Z" fill="url(#paint2_linear)"/>
<path d="M-365.714 -357.596C-507.72 -319.681 -591.992 -174.236 -553.942 -32.7353C-516.615 106.074 -376.06 230.543 -236.671 199.436C-231.314 198.24 -226.314 195.673 -222.041 192.235C-82.2283 79.7619 -2.22107 -30.69 -39.6925 -170.038C-77.7429 -311.538 -223.708 -395.511 -365.714 -357.596Z" fill="#EC9341"/>
<path d="M94.5015 71.3699C-26.6528 103.718 -20.9246 196.177 7.53482 302.011C35.9943 407.845 157.28 467.418 278.434 435.07C399.589 402.722 474.733 290.704 446.273 184.87C417.814 79.0356 215.656 39.0222 94.5015 71.3699Z" fill="url(#paint3_linear)"/>
<path d="M-12.0544 -135.211C-36.3023 -128.737 -47.5446 -85.2505 -66.5604 -41.6736C-81.3762 -7.72162 -105.146 42.8533 -97.22 74.1167C-81.9546 134.326 -67.6382 152.19 -58.6116 185.758C-37.7185 263.454 81.0224 180.506 89.4998 136C114.86 2.86036 145.519 16.8227 124.211 -62.4183C102.902 -141.659 67.4696 -156.444 -12.0544 -135.211Z" fill="url(#paint4_linear)"/>
<path d="M101.021 169.684L108.716 167.629C111.499 166.886 113.304 165.799 114.13 164.367C114.933 162.849 114.961 160.699 114.213 157.918L103.521 118.155C102.773 115.374 101.682 113.569 100.248 112.741C98.7899 111.826 96.6699 111.74 93.8874 112.483L86.1919 114.538C83.4094 115.281 81.6165 116.412 80.8133 117.93C79.9867 119.362 79.9474 121.468 80.6953 124.249L91.3877 164.012C92.1355 166.793 93.2383 168.641 94.6959 169.556C96.1301 170.384 98.2385 170.427 101.021 169.684ZM115.181 181.273L102.138 184.756C95.2689 186.59 89.4739 186.181 84.7533 183.529C80.0326 180.877 76.7492 176.118 74.9028 169.252L63.7898 127.925C61.9434 121.059 62.399 115.301 65.1564 110.653C67.9138 106.004 72.7272 102.763 79.5966 100.929L92.6397 97.4462C99.4221 95.6353 105.185 96.0993 109.929 98.8383C114.65 101.49 117.922 106.206 119.745 112.985L130.858 154.312C132.681 161.091 132.225 166.848 129.491 171.584C126.734 176.233 121.964 179.462 115.181 181.273ZM149.027 169.302L145.696 156.917C144.364 151.963 145.361 147.179 148.687 142.565L167.217 115.82C170.265 111.559 171.287 107.561 170.282 103.823L169.23 99.9123C168.506 97.218 167.34 95.4801 165.731 94.6985C164.187 93.8067 161.98 93.7439 159.11 94.51L154.545 95.7289C151.763 96.4718 149.97 97.6026 149.167 99.1212C148.34 100.553 148.289 102.616 149.014 105.31L150.135 109.482C150.65 111.394 149.994 112.594 148.168 113.081L137.081 116.041C135.255 116.529 134.085 115.817 133.571 113.905L132.379 109.472C130.556 102.693 131.023 96.979 133.78 92.3304C136.538 87.6818 141.351 84.4404 148.221 82.6063L158.133 79.9596C165.003 78.1256 170.798 78.5345 175.518 81.1865C180.239 83.8386 183.511 88.5542 185.334 95.3333L186.736 100.548C188.559 107.327 187.458 113.63 183.433 119.455L164.521 146.861C163.734 148.096 163.493 149.278 163.797 150.408L164.358 152.494L195.531 144.171C197.357 143.683 198.515 144.352 199.006 146.177L201.46 155.303C201.951 157.128 201.283 158.284 199.457 158.772L152.502 171.309C150.676 171.796 149.517 171.128 149.027 169.302Z" fill="white"/>
</g>
</g>
<defs>
<linearGradient id="paint0_linear" x1="122.103" y1="326.273" x2="300.025" y2="101.566" gradientUnits="userSpaceOnUse">
<stop stop-color="#FF00A8"/>
<stop offset="1" stop-color="#BF007E"/>
</linearGradient>
<linearGradient id="paint1_linear" x1="373.74" y1="184.1" x2="209.551" y2="424.879" gradientUnits="userSpaceOnUse">
<stop stop-color="#56A9FD"/>
<stop offset="1" stop-color="#2577FF"/>
</linearGradient>
<linearGradient id="paint2_linear" x1="258.5" y1="59" x2="96.4079" y2="16.7499" gradientUnits="userSpaceOnUse">
<stop stop-color="#308FFF"/>
<stop offset="1" stop-color="#2440D1"/>
</linearGradient>
<linearGradient id="paint3_linear" x1="217.121" y1="88.2419" x2="37.3496" y2="324.68" gradientUnits="userSpaceOnUse">
<stop stop-color="#56A9FD"/>
<stop offset="1" stop-color="#2577FF"/>
</linearGradient>
<linearGradient id="paint4_linear" x1="6.53765" y1="-91.032" x2="-75" y2="250" gradientUnits="userSpaceOnUse">
<stop stop-color="#4051EF"/>
<stop offset="1" stop-color="#24A8D1"/>
</linearGradient>
</defs>
</svg>
