<svg width="670" height="927" viewBox="0 0 670 927" fill="none" xmlns="http://www.w3.org/2000/svg">
<g filter="url(#filter0_d)">
<mask id="mask0" mask-type="alpha" maskUnits="userSpaceOnUse" x="-328" y="-221" width="598" height="598">
<rect x="0.414551" y="-221" width="424.69" height="424.69" rx="15" transform="rotate(50.6515 0.414551 -221)" fill="#C4C4C4"/>
</mask>
<g mask="url(#mask0)">
<rect x="0.414551" y="-221" width="424.69" height="424.69" rx="15" transform="rotate(50.6515 0.414551 -221)" fill="#C4C4C4"/>
<circle cx="137.955" cy="-20.6448" r="117.226" transform="rotate(50.6515 137.955 -20.6448)" fill="#E36767"/>
<circle cx="-41.0729" cy="-250.658" r="198.39" transform="rotate(50.6515 -41.0729 -250.658)" fill="#6278E5"/>
<circle cx="269.557" cy="138.88" r="161.805" transform="rotate(50.6515 269.557 138.88)" fill="url(#paint0_linear)"/>
<path d="M81.5523 597.189C-31.7309 690.07 -198.86 673.531 -291.742 560.248C-383.956 447.778 -402.826 258.255 -292.231 164.645C-290.655 163.311 -288.766 162.333 -286.779 161.776C-111.818 112.757 26.1448 111.262 118.493 223.895C211.375 337.178 194.836 504.307 81.5523 597.189Z" fill="url(#paint1_linear)"/>
<path d="M106.246 181.217C86.9022 197.077 45.0369 180.833 -1.41675 170.831C-37.6101 163.038 -92.5114 152.807 -113.312 128.167C-153.371 80.7134 -159.572 58.7096 -181.606 31.8358C-232.606 -30.3668 -145.444 -72.9351 -104.356 -53.8587C18.5591 3.2083 74.222 -34.9813 126.236 28.4578C178.25 91.8969 169.685 129.203 106.246 181.217Z" fill="url(#paint2_linear)"/>
</g>
</g>
<g filter="url(#filter1_i)">
<path d="M152.232 159.852L158.457 154.882C160.707 153.085 161.925 151.365 162.109 149.72C162.237 148.006 161.403 146.023 159.606 143.773L133.914 111.596C132.117 109.345 130.396 108.128 128.752 107.944C127.052 107.689 125.076 108.46 122.826 110.257L116.601 115.227C114.351 117.024 113.161 118.78 113.033 120.495C112.849 122.139 113.655 124.086 115.452 126.337L141.144 158.514C142.941 160.764 144.689 162.017 146.39 162.271C148.034 162.456 149.982 161.649 152.232 159.852ZM169.832 164.802L159.283 173.226C153.726 177.662 148.257 179.611 142.874 179.072C137.491 178.532 132.582 175.485 128.145 169.929L101.443 136.486C97.0068 130.93 95.1215 125.467 95.7872 120.099C96.4529 114.73 99.5638 109.828 105.12 105.391L115.67 96.9679C121.156 92.5878 126.618 90.7024 132.057 91.312C137.44 91.8512 142.321 94.8637 146.701 100.35L173.404 133.792C177.784 139.278 179.669 144.74 179.06 150.179C178.394 155.548 175.318 160.422 169.832 164.802ZM184.445 88.5251L189.825 84.2291C192.146 82.376 193.434 80.5992 193.688 78.8987C193.957 77.0717 193.221 75.0681 191.48 72.8878L187.521 67.9294C185.781 65.7492 184.018 64.623 182.233 64.5511C180.462 64.3526 178.416 65.18 176.095 67.0331L171.031 71.0764C168.781 72.8734 167.591 74.6292 167.463 76.3439C167.279 77.9882 168.057 79.9005 169.798 82.0808L171.904 84.7182C173.083 86.1952 172.934 87.5233 171.457 88.7026L162.49 95.8625C161.013 97.0417 159.685 96.8929 158.506 95.4159L156.231 92.5675C151.851 87.0817 149.994 81.6545 150.66 76.2858C151.325 70.9172 154.436 66.0147 159.992 61.5784L169.382 54.0815C174.938 49.6452 180.407 47.6966 185.79 48.2358C191.173 48.775 196.054 51.7876 200.435 57.2734L204.646 62.5482C209.363 68.4561 209.646 74.5073 205.494 80.7019C212.004 77.4612 217.843 79.0761 223.009 85.5466L227.305 90.9269C231.685 96.4127 233.543 101.84 232.877 107.209C232.211 112.577 229.1 117.48 223.544 121.916L214.155 129.413C208.599 133.849 203.129 135.798 197.747 135.259C192.364 134.719 187.482 131.707 183.102 126.221L180.744 123.267C179.508 121.72 179.629 120.357 181.106 119.177L190.073 112.017C191.55 110.838 192.906 111.022 194.142 112.569L196.332 115.312C198.129 117.563 199.849 118.78 201.494 118.965C203.138 119.149 205.086 118.343 207.336 116.546L212.4 112.502C214.721 110.649 216.009 108.872 216.263 107.172C216.532 105.345 215.796 103.341 214.055 101.161L209.928 95.9916C208.187 93.8113 206.424 92.6852 204.639 92.6133C202.868 92.4148 200.822 93.2422 198.501 95.0953L193.121 99.3913C191.644 100.571 190.316 100.422 189.137 98.9447L184.083 92.6149C182.847 91.0676 182.968 89.7044 184.445 88.5251Z" fill="#DFEBFB"/>
</g>
<defs>
<filter id="filter0_d" x="-428" y="-221" width="1097.68" height="1147.68" filterUnits="userSpaceOnUse" color-interpolation-filters="sRGB">
<feFlood flood-opacity="0" result="BackgroundImageFix"/>
<feColorMatrix in="SourceAlpha" type="matrix" values="0 0 0 0 0 0 0 0 0 0 0 0 0 0 0 0 0 0 127 0"/>
<feOffset dx="150" dy="300"/>
<feGaussianBlur stdDeviation="125"/>
<feColorMatrix type="matrix" values="0 0 0 0 0 0 0 0 0 0 0 0 0 0 0 0 0 0 0.05 0"/>
<feBlend mode="normal" in2="BackgroundImageFix" result="effect1_dropShadow"/>
<feBlend mode="normal" in="SourceGraphic" in2="effect1_dropShadow" result="shape"/>
</filter>
<filter id="filter1_i" x="95.6567" y="48.1479" width="137.352" height="135.011" filterUnits="userSpaceOnUse" color-interpolation-filters="sRGB">
<feFlood flood-opacity="0" result="BackgroundImageFix"/>
<feBlend mode="normal" in="SourceGraphic" in2="BackgroundImageFix" result="shape"/>
<feColorMatrix in="SourceAlpha" type="matrix" values="0 0 0 0 0 0 0 0 0 0 0 0 0 0 0 0 0 0 127 0" result="hardAlpha"/>
<feOffset dy="4"/>
<feGaussianBlur stdDeviation="3.5"/>
<feComposite in2="hardAlpha" operator="arithmetic" k2="-1" k3="1"/>
<feColorMatrix type="matrix" values="0 0 0 0 0 0 0 0 0 0 0 0 0 0 0 0 0 0 0.06 0"/>
<feBlend mode="normal" in2="shape" result="effect1_innerShadow"/>
</filter>
<linearGradient id="paint0_linear" x1="198.649" y1="111.205" x2="269.557" y2="300.685" gradientUnits="userSpaceOnUse">
<stop stop-color="#4C83B6"/>
<stop offset="1" stop-color="#2C4E6D"/>
</linearGradient>
<linearGradient id="paint1_linear" x1="105.493" y1="208.039" x2="-21" y2="312.5" gradientUnits="userSpaceOnUse">
<stop stop-color="#EC9341"/>
<stop offset="1" stop-color="#ECDB41"/>
</linearGradient>
<linearGradient id="paint2_linear" x1="73.8861" y1="-38.3345" x2="-113.418" y2="226.028" gradientUnits="userSpaceOnUse">
<stop stop-color="#EF3F93"/>
<stop offset="1" stop-color="#DA6D33"/>
</linearGradient>
</defs>
</svg>
