<svg width="301" height="226" viewBox="0 0 301 226" fill="none" xmlns="http://www.w3.org/2000/svg">
<mask id="mask0" mask-type="alpha" maskUnits="userSpaceOnUse" x="0" y="0" width="301" height="226">
<rect width="301" height="226" transform="matrix(-1 0 0 1 301 0)" fill="#C4C4C4"/>
</mask>
<g mask="url(#mask0)">
<mask id="mask1" mask-type="alpha" maskUnits="userSpaceOnUse" x="34" y="28" width="554" height="552">
<rect width="425.044" height="425.752" rx="40" transform="matrix(0.501248 -0.865303 -0.866744 -0.498753 389.084 594.137)" fill="#C4C4C4"/>
</mask>
<g mask="url(#mask1)">
<rect width="425.044" height="425.752" rx="40" transform="matrix(0.501248 -0.865303 -0.866744 -0.498753 389.084 594.137)" fill="#C0D1FC"/>
<ellipse rx="198.555" ry="198.886" transform="matrix(0.501248 -0.865303 -0.866744 -0.498753 54.7546 323.439)" fill="url(#paint0_linear)"/>
<path d="M336.063 -226.364C208.774 -299.611 46.0106 -256.143 -27.4797 -129.277C-99.5691 -4.8295 -88.5154 182.207 32.0794 258.429C36.7243 261.365 42.0912 263.076 47.562 263.657C226.188 282.634 361.104 260.903 433.474 135.971C506.965 9.10467 463.352 -153.118 336.063 -226.364Z" fill="url(#paint1_linear)"/>
<path d="M428.305 180.071C406.57 167.564 367.77 190.393 323.411 207.808C288.85 221.376 236.164 240.39 219.588 268.081C187.663 321.412 185.11 344.13 167.676 374.226C127.324 443.887 220.552 471.732 258.121 446.234C370.507 369.959 431.837 398.6 472.992 327.554C514.147 256.509 499.587 221.089 428.305 180.071Z" fill="url(#paint2_linear)"/>
<path d="M108.603 132.856C13.3985 78.0726 -46.1749 148.623 -101.141 243.511C-156.108 338.4 -123.488 459.733 -28.2836 514.517C66.921 569.3 188.659 536.789 243.625 441.901C298.591 347.013 203.808 187.64 108.603 132.856Z" fill="url(#paint3_linear)"/>
</g>
</g>
<defs>
<linearGradient id="paint0_linear" x1="198.555" y1="0" x2="198.555" y2="397.772" gradientUnits="userSpaceOnUse">
<stop stop-color="#DB00FF"/>
<stop offset="1" stop-color="#426BFF"/>
</linearGradient>
<linearGradient id="paint1_linear" x1="192.64" y1="222.5" x2="322.483" y2="32.0972" gradientUnits="userSpaceOnUse">
<stop stop-color="#FF9C41"/>
<stop offset="1" stop-color="#FFEC41"/>
</linearGradient>
<linearGradient id="paint2_linear" x1="432.051" y1="401.963" x2="204.302" y2="170.779" gradientUnits="userSpaceOnUse">
<stop stop-color="#EF3F93"/>
<stop offset="1" stop-color="#DA6D33"/>
</linearGradient>
<linearGradient id="paint3_linear" x1="250.833" y1="450.5" x2="71.3939" y2="297.815" gradientUnits="userSpaceOnUse">
<stop stop-color="#FF2257"/>
<stop offset="1" stop-color="#C42847"/>
</linearGradient>
</defs>
</svg>
