<svg width="279" height="300" viewBox="0 0 279 300" fill="none" xmlns="http://www.w3.org/2000/svg">
<mask id="mask0" mask-type="alpha" maskUnits="userSpaceOnUse" x="0" y="0" width="279" height="300">
<rect width="279" height="300" fill="#C4C4C4"/>
</mask>
<g mask="url(#mask0)">
<mask id="mask1" mask-type="alpha" maskUnits="userSpaceOnUse" x="-273" y="-238" width="538" height="538">
<rect width="424.69" height="424.69" rx="40" transform="matrix(0.318375 0.947965 0.947965 -0.318375 -273 -102.79)" fill="#C4C4C4"/>
</mask>
<g mask="url(#mask1)">
<rect width="424.69" height="424.69" rx="40" transform="matrix(0.318375 0.947965 0.947965 -0.318375 -273 -102.79)" fill="#C4C4C4"/>
<circle r="161.805" transform="matrix(0.318375 0.947965 0.947965 -0.318375 -83.1004 279.899)" fill="url(#paint0_linear)"/>
<circle r="198.39" transform="matrix(0.318375 0.947965 0.947965 -0.318375 150.46 -173.464)" fill="url(#paint1_linear)"/>
<path d="M377.104 400.579C515.974 353.94 590.741 203.555 544.102 64.6854C498.355 -71.5262 350.862 -187.035 214.185 -147.395C208.899 -145.862 204.058 -142.972 199.999 -139.255C67.9687 -18.3496 -4.7155 96.8373 41.2103 233.582C87.8498 372.452 238.235 447.219 377.104 400.579Z" fill="url(#paint2_linear)"/>
<path d="M11.5584 200.535C35.2707 192.571 43.7475 148.472 59.9497 103.801C72.5732 68.997 93.0686 17.0474 83.2418 -13.6645C64.3166 -72.8118 48.968 -89.754 37.9039 -122.698C12.2947 -198.949 -70.0719 -147.714 -75.7357 -102.77C-92.679 31.6837 -154.603 58.5572 -128.485 136.325C-102.367 214.092 -66.2092 226.653 11.5584 200.535Z" fill="url(#paint3_linear)"/>
</g>
<path d="M120.741 167.491L128.251 164.837C130.967 163.877 132.681 162.651 133.394 161.158C134.078 159.58 133.94 157.434 132.98 154.718L119.262 115.896C118.302 113.18 117.076 111.466 115.583 110.753C114.06 109.954 111.941 110.035 109.225 110.995L101.715 113.648C99 114.608 97.3006 115.877 96.6172 117.454C95.9039 118.947 96.027 121.052 96.9865 123.767L110.705 162.59C111.665 165.305 112.906 167.062 114.429 167.86C115.922 168.573 118.026 168.45 120.741 167.491ZM135.745 177.939L123.016 182.437C116.312 184.806 110.506 184.853 105.598 182.578C100.69 180.304 97.051 175.814 94.6821 169.111L80.4239 128.761C78.0551 122.057 78.0654 116.278 80.4549 111.425C82.8443 106.571 87.391 102.96 94.0947 100.591L106.823 96.0936C113.442 93.7547 119.221 93.765 124.159 96.1245C129.067 98.3991 132.691 102.846 135.03 109.465L149.288 149.815C151.627 156.434 151.617 162.212 149.257 167.151C146.868 172.004 142.364 175.6 135.745 177.939ZM193.777 124.93L179.879 85.5988L173.157 132.217L193.777 124.93ZM216.589 149.372L206.66 152.88C204.878 153.51 203.672 152.933 203.043 151.151L198.725 138.932L167.158 150.087C165.715 150.596 164.42 150.577 163.271 150.028C162.123 149.479 161.294 148.484 160.784 147.041L159.03 142.077C158.13 139.531 157.82 137.302 158.099 135.39L166.787 79.3433C167.095 77.516 167.499 76.2279 167.998 75.4788C168.552 74.615 169.55 73.9282 170.993 73.4184L185.376 68.3358C186.819 67.8261 188.114 67.8455 189.263 68.3943C190.496 68.913 191.368 69.8937 191.877 71.3362L208.924 119.578L218.089 116.339C219.786 115.74 220.935 116.288 221.534 117.986L224.548 126.514C225.237 128.466 224.734 129.741 223.037 130.341L213.872 133.579L218.19 145.799C218.55 146.817 218.592 147.614 218.318 148.188C218.099 148.647 217.522 149.042 216.589 149.372Z" fill="white"/>
</g>
<defs>
<linearGradient id="paint0_linear" x1="90.8969" y1="134.13" x2="164.436" y2="299.706" gradientUnits="userSpaceOnUse">
<stop stop-color="#4C83B6"/>
<stop offset="1" stop-color="#FFA800"/>
</linearGradient>
<linearGradient id="paint1_linear" x1="198.39" y1="0" x2="182.229" y2="213.315" gradientUnits="userSpaceOnUse">
<stop stop-color="#A172D3"/>
<stop offset="0.0001" stop-color="#7282D3"/>
<stop offset="1" stop-color="#8139CE"/>
</linearGradient>
<linearGradient id="paint2_linear" x1="195.152" y1="-141.187" x2="345" y2="247.5" gradientUnits="userSpaceOnUse">
<stop stop-color="#FFA500"/>
<stop offset="1" stop-color="#FFD600"/>
</linearGradient>
<linearGradient id="paint3_linear" x1="-89.2321" y1="-137.099" x2="6.33891" y2="100.937" gradientUnits="userSpaceOnUse">
<stop stop-color="#FFB800"/>
<stop offset="1" stop-color="#FFD600"/>
</linearGradient>
</defs>
</svg>
