<svg width="29" height="176" viewBox="0 0 29 176" fill="none" xmlns="http://www.w3.org/2000/svg">
<g filter="url(#filter0_i)">
<rect x="21" y="147" width="8" height="8" fill="#29A6B9"/>
<path fill-rule="evenodd" clip-rule="evenodd" d="M21 168L25 168L29 168L29 176L25 176L21 176L0 176L4.37114e-07 171L6.99382e-07 168L6.27912e-07 147L8 147L8 168L21 168Z" fill="url(#paint0_linear)"/>
<path fill-rule="evenodd" clip-rule="evenodd" d="M21 126L6.99382e-07 126L0 134L21 134L25 134L29 134L29 126L25 126L21 126Z" fill="url(#paint1_linear)"/>
<rect x="21" y="63" width="8" height="8" fill="#FE2256"/>
<path fill-rule="evenodd" clip-rule="evenodd" d="M21 105L29 105L29 113L21 113L21 105ZM6.99382e-07 105L8 105L8 113L0 113L6.99382e-07 105ZM29 84L21 84L21 92L29 92L29 84Z" fill="url(#paint2_linear)"/>
<path fill-rule="evenodd" clip-rule="evenodd" d="M8 92L8 86L8 84L8 63L6.27912e-07 63L6.99382e-07 84L5.24537e-07 86L0 92L8 92Z" fill="url(#paint3_linear)"/>
<rect y="42" width="8" height="8" fill="url(#paint4_linear)"/>
<path fill-rule="evenodd" clip-rule="evenodd" d="M21 42L21 29L8 29L-7.14703e-08 29L-1.42941e-07 8L1.19328e-07 5L5.56442e-07 -2.53526e-06L21 -6.99383e-07L22 -6.1196e-07L29 0L29 21L29 23L29 42L29 44L29 50L21 50L21 44L21 42ZM21 8L8 8L8 21L21 21L21 8Z" fill="url(#paint5_linear)"/>
</g>
<defs>
<filter id="filter0_i" x="0" y="0" width="29" height="180" filterUnits="userSpaceOnUse" color-interpolation-filters="sRGB">
<feFlood flood-opacity="0" result="BackgroundImageFix"/>
<feBlend mode="normal" in="SourceGraphic" in2="BackgroundImageFix" result="shape"/>
<feColorMatrix in="SourceAlpha" type="matrix" values="0 0 0 0 0 0 0 0 0 0 0 0 0 0 0 0 0 0 127 0" result="hardAlpha"/>
<feOffset dy="4"/>
<feGaussianBlur stdDeviation="2"/>
<feComposite in2="hardAlpha" operator="arithmetic" k2="-1" k3="1"/>
<feColorMatrix type="matrix" values="0 0 0 0 0 0 0 0 0 0.0983333 0 0 0 0 0.245833 0 0 0 0.15 0"/>
<feBlend mode="normal" in2="shape" result="effect1_innerShadow"/>
</filter>
<linearGradient id="paint0_linear" x1="-16.9997" y1="161" x2="47.4993" y2="176" gradientUnits="userSpaceOnUse">
<stop stop-color="#34EB92"/>
<stop offset="1" stop-color="#237FD0"/>
</linearGradient>
<linearGradient id="paint1_linear" x1="-16.9997" y1="129.862" x2="22.7435" y2="163.366" gradientUnits="userSpaceOnUse">
<stop stop-color="#34EB92"/>
<stop offset="1" stop-color="#237FD0"/>
</linearGradient>
<linearGradient id="paint2_linear" x1="37" y1="111.84" x2="27.2999" y2="73.7162" gradientUnits="userSpaceOnUse">
<stop stop-color="#FF9900"/>
<stop offset="1" stop-color="#FFD600"/>
</linearGradient>
<linearGradient id="paint3_linear" x1="10.2069" y1="90.84" x2="-10.0229" y2="68.9066" gradientUnits="userSpaceOnUse">
<stop stop-color="#FF9900"/>
<stop offset="1" stop-color="#FFD600"/>
</linearGradient>
<linearGradient id="paint4_linear" x1="9.93103" y1="37.5" x2="-8.72386" y2="39.1186" gradientUnits="userSpaceOnUse">
<stop stop-color="#234FEB"/>
<stop offset="1" stop-color="#23EBEB"/>
</linearGradient>
<linearGradient id="paint5_linear" x1="-7" y1="78.125" x2="60.961" y2="74.705" gradientUnits="userSpaceOnUse">
<stop stop-color="#234FEB"/>
<stop offset="1" stop-color="#23EBEB"/>
</linearGradient>
</defs>
</svg>
