<svg width="310" height="280" viewBox="0 0 310 280" fill="none" xmlns="http://www.w3.org/2000/svg">
<mask id="mask0" mask-type="alpha" maskUnits="userSpaceOnUse" x="0" y="0" width="310" height="280">
<rect width="310" height="280" transform="matrix(-1 0 0 1 310 0)" fill="#C4C4C4"/>
</mask>
<g mask="url(#mask0)">
<mask id="mask1" mask-type="alpha" maskUnits="userSpaceOnUse" x="-2" y="-239" width="547" height="547">
<rect width="424.69" height="424.69" rx="15" transform="matrix(-0.35104 0.936361 0.936361 0.35104 147.337 -239)" fill="#C4C4C4"/>
</mask>
<g mask="url(#mask1)">
<rect width="424.69" height="424.69" rx="15" transform="matrix(-0.35104 0.936361 0.936361 0.35104 147.337 -239)" fill="#C4C4C4"/>
<circle r="117.226" transform="matrix(-0.35104 0.936361 0.936361 0.35104 81.6915 -5.01187)" fill="url(#paint0_linear)"/>
<circle r="161.805" transform="matrix(-0.35104 0.936361 0.936361 0.35104 8.51229 188.409)" fill="url(#paint1_linear)"/>
<circle r="198.39" transform="matrix(-0.35104 0.936361 0.936361 0.35104 520.476 -26.6798)" fill="url(#paint2_linear)"/>
<path d="M334.524 561.554C471.694 612.979 624.58 543.469 676.004 406.299C727.06 270.114 683.854 84.6197 548.994 31.6387C547.073 30.884 544.969 30.5665 542.908 30.6798C361.485 40.6514 230.398 83.6913 179.269 220.074C127.844 357.244 197.354 510.13 334.524 561.554Z" fill="url(#paint3_linear)"/>
<path d="M162.635 182.618C186.057 191.399 220.456 162.532 261.209 138.095C292.961 119.055 341.637 91.6789 353.388 61.6507C376.02 3.8202 374.8 -19.008 386.999 -51.5483C415.236 -126.867 284.515 -147.702 251.765 -116.403C153.794 -22.7736 123.286 -32.3676 94.4884 44.4481C65.6903 121.264 85.8198 153.82 162.635 182.618Z" fill="url(#paint4_linear)"/>
</g>
<path d="M54.7545 142.112L60.8777 144.262C63.0917 145.04 64.8064 145.137 66.0218 144.554C67.2616 143.901 68.2703 142.468 69.048 140.254L80.1671 108.6C80.9448 106.386 81.0419 104.671 80.4584 103.456C79.8992 102.171 78.5126 101.14 76.2985 100.362L70.1753 98.2112C67.9613 97.4335 66.2344 97.3709 64.9947 98.0236C63.7793 98.6071 62.7827 100.006 62.005 102.22L50.8859 133.874C50.1082 136.088 49.9989 137.837 50.5581 139.122C51.1416 140.337 52.5404 141.334 54.7545 142.112ZM58.9432 156.408L48.5649 152.762C43.0989 150.842 39.3888 147.907 37.4344 143.956C35.4801 140.005 35.4629 135.296 37.3829 129.83L48.9395 96.9309C50.8595 91.465 53.8174 87.8016 57.8133 85.9407C61.8092 84.0799 66.5401 84.1094 72.006 86.0295L82.3844 89.675C87.7811 91.5708 91.4445 94.5287 93.3745 98.5489C95.3289 102.5 95.3582 107.174 93.4625 112.57L81.906 145.47C80.0102 150.867 77.0523 154.53 73.0321 156.46C69.0362 158.321 64.3399 158.303 58.9432 156.408Z" fill="#DFECFC"/>
<path d="M121.836 140.375L116.958 138.662C115.159 138.03 113.52 138.27 112.041 139.383C110.631 140.52 109.407 140.906 108.369 140.542L99.7554 137.516C98.3024 137.006 97.819 136.058 98.3051 134.675L109.862 101.775C110.372 100.322 111.354 99.8511 112.807 100.361L148.923 113.048C150.376 113.559 150.847 114.54 150.337 115.993L147.566 123.881C147.056 125.334 146.074 125.805 144.621 125.295L119.506 116.472L114.147 131.728C116.538 128.682 120.052 127.973 124.687 129.602L129.046 131.133C139.771 134.9 143.249 142.145 139.482 152.87L135.472 164.286C133.576 169.683 130.618 173.346 126.598 175.276C122.602 177.137 117.906 177.12 112.509 175.224L103.376 172.016C97.9103 170.096 94.2001 167.16 92.2458 163.209C90.2914 159.258 90.2743 154.55 92.1943 149.084L92.9234 147.008C93.4581 145.486 94.4519 144.98 95.9049 145.49L104.726 148.589C106.179 149.1 106.639 150.116 106.104 151.638L105.411 153.61C104.658 155.755 104.561 157.469 105.12 158.754C105.773 159.994 107.171 160.99 109.316 161.744L114.194 163.457C116.408 164.235 118.192 164.356 119.546 163.821C120.924 163.217 121.99 161.843 122.743 159.698L126.024 150.358C127.045 147.452 127.253 145.31 126.649 143.932C126.069 142.484 124.465 141.299 121.836 140.375Z" fill="#DFECFC"/>
</g>
<defs>
<linearGradient id="paint0_linear" x1="117.226" y1="0" x2="117.226" y2="234.452" gradientUnits="userSpaceOnUse">
<stop stop-color="#FF5151"/>
<stop offset="1" stop-color="#D8FF69"/>
</linearGradient>
<linearGradient id="paint1_linear" x1="65.8197" y1="114.155" x2="161.805" y2="323.609" gradientUnits="userSpaceOnUse">
<stop stop-color="#DB418B"/>
<stop offset="1" stop-color="#0085FF"/>
</linearGradient>
<linearGradient id="paint2_linear" x1="198.39" y1="0" x2="198.39" y2="396.78" gradientUnits="userSpaceOnUse">
<stop stop-color="#7C00FF"/>
<stop offset="1" stop-color="#00FFF0"/>
</linearGradient>
<linearGradient id="paint3_linear" x1="230" y1="115" x2="311" y2="281" gradientUnits="userSpaceOnUse">
<stop stop-color="#FF0000"/>
<stop offset="1" stop-color="#FFF500"/>
</linearGradient>
<linearGradient id="paint4_linear" x1="60.608" y1="38.1067" x2="411.277" y2="8.09874" gradientUnits="userSpaceOnUse">
<stop stop-color="#CE2EC8"/>
<stop offset="1" stop-color="#CB3030"/>
</linearGradient>
</defs>
</svg>
