<svg width="264" height="329" viewBox="0 0 264 329" fill="none" xmlns="http://www.w3.org/2000/svg">
<mask id="mask0" mask-type="alpha" maskUnits="userSpaceOnUse" x="0" y="0" width="264" height="329">
<rect width="264" height="329" transform="matrix(-1 0 0 1 264 0)" fill="#C4C4C4"/>
</mask>
<g mask="url(#mask0)">
<mask id="mask1" mask-type="alpha" maskUnits="userSpaceOnUse" x="-6" y="-221" width="598" height="598">
<rect width="424.69" height="424.69" rx="15" transform="matrix(-0.634035 0.773304 0.773304 0.634035 263.585 -221)" fill="#C4C4C4"/>
</mask>
<g mask="url(#mask1)">
<rect width="424.69" height="424.69" rx="15" transform="matrix(-0.634035 0.773304 0.773304 0.634035 263.585 -221)" fill="#C4C4C4"/>
<circle r="117.226" transform="matrix(-0.634035 0.773304 0.773304 0.634035 126.045 -20.6448)" fill="url(#paint0_linear)"/>
<circle r="198.39" transform="matrix(-0.634035 0.773304 0.773304 0.634035 305.073 -250.658)" fill="#6278E5"/>
<circle r="161.805" transform="matrix(-0.634035 0.773304 0.773304 0.634035 -5.55693 138.88)" fill="url(#paint1_linear)"/>
<path d="M182.448 597.189C295.731 690.07 462.86 673.531 555.742 560.248C647.956 447.778 666.826 258.255 556.231 164.645C554.655 163.311 552.766 162.333 550.779 161.776C375.818 112.757 237.855 111.262 145.507 223.895C52.6255 337.178 69.1645 504.307 182.448 597.189Z" fill="url(#paint2_linear)"/>
<path d="M157.754 181.217C177.098 197.077 218.963 180.834 265.417 170.831C301.61 163.039 356.511 152.807 377.312 128.167C417.371 80.7136 423.572 58.7099 445.606 31.8361C496.606 -30.3665 409.444 -72.9348 368.356 -53.8585C245.441 3.20855 189.778 -34.981 137.764 28.4581C85.7501 91.8972 94.3153 129.203 157.754 181.217Z" fill="url(#paint3_linear)"/>
</g>
<g filter="url(#filter0_i)">
<path d="M51.3181 110.739L57.457 115.814C59.6767 117.649 61.6102 118.488 63.2574 118.332C64.962 118.106 66.7318 116.883 68.5668 114.664L94.8018 82.9287C96.6368 80.7089 97.4762 78.7755 97.3199 77.1282C97.221 75.4116 96.0616 73.6358 93.8419 71.8008L87.703 66.7258C85.4833 64.8908 83.5212 64.0862 81.8166 64.3118C80.1694 64.4681 78.4283 65.6561 76.5932 67.8758L50.3583 99.6107C48.5232 101.83 47.6552 103.799 47.7541 105.515C47.9104 107.162 49.0984 108.904 51.3181 110.739ZM50.0762 128.979L39.6713 120.378C34.1914 115.847 31.1643 110.893 30.59 105.514C30.0157 100.134 31.9937 94.7048 36.5239 89.2249L63.7911 56.2414C68.3213 50.7615 73.282 47.7978 78.6732 47.3502C84.0644 46.9026 89.4999 48.9439 94.9798 53.4741L105.385 62.0758C110.795 66.5486 113.759 71.5093 114.276 76.9578C114.85 82.337 112.901 87.7319 108.428 93.1424L81.1609 126.126C76.688 131.536 71.7273 134.5 66.2788 135.017C60.8876 135.465 55.4867 133.452 50.0762 128.979ZM127.73 127.666L133.036 132.052C135.325 133.945 137.328 134.841 139.045 134.742C140.888 134.632 142.698 133.501 144.476 131.351L148.519 126.46C150.296 124.31 151.038 122.354 150.743 120.592C150.574 118.818 149.346 116.985 147.057 115.092L142.062 110.964C139.843 109.129 137.88 108.324 136.176 108.55C134.529 108.706 132.816 109.859 131.039 112.009L128.888 114.611C127.684 116.067 126.353 116.194 124.897 114.989L116.053 107.678C114.596 106.474 114.47 105.143 115.674 103.687L117.996 100.877C122.469 95.4667 127.401 92.5377 132.792 92.0901C138.184 91.6425 143.619 93.6839 149.099 98.2141L158.359 105.87C163.839 110.4 166.866 115.354 167.441 120.734C168.015 126.113 166.066 131.508 161.593 136.918L157.292 142.121C152.475 147.947 146.61 149.463 139.696 146.667C144.201 152.376 143.816 158.422 138.541 164.803L134.154 170.11C129.681 175.52 124.749 178.449 119.358 178.897C113.966 179.345 108.531 177.303 103.051 172.773L93.7906 165.118C88.3107 160.587 85.2836 155.633 84.7093 150.253C84.135 144.874 86.0843 139.479 90.5571 134.069L92.9656 131.156C94.2272 129.629 95.5863 129.469 97.043 130.673L105.887 137.984C107.344 139.188 107.441 140.554 106.18 142.08L103.943 144.785C102.108 147.005 101.269 148.938 101.425 150.585C101.582 152.233 102.77 153.974 104.989 155.809L109.984 159.937C112.273 161.83 114.276 162.727 115.992 162.628C117.835 162.517 119.646 161.386 121.424 159.236L125.638 154.137C127.416 151.987 128.157 150.031 127.862 148.269C127.694 146.495 126.465 144.662 124.176 142.769L118.87 138.383C117.413 137.178 117.287 135.848 118.491 134.391L123.652 128.148C124.914 126.622 126.273 126.461 127.73 127.666Z" fill="#DFEBFB"/>
</g>
</g>
<defs>
<filter id="filter0_i" x="30.4932" y="47.29" width="137.046" height="135.667" filterUnits="userSpaceOnUse" color-interpolation-filters="sRGB">
<feFlood flood-opacity="0" result="BackgroundImageFix"/>
<feBlend mode="normal" in="SourceGraphic" in2="BackgroundImageFix" result="shape"/>
<feColorMatrix in="SourceAlpha" type="matrix" values="0 0 0 0 0 0 0 0 0 0 0 0 0 0 0 0 0 0 127 0" result="hardAlpha"/>
<feOffset dy="4"/>
<feGaussianBlur stdDeviation="3.5"/>
<feComposite in2="hardAlpha" operator="arithmetic" k2="-1" k3="1"/>
<feColorMatrix type="matrix" values="0 0 0 0 0 0 0 0 0 0 0 0 0 0 0 0 0 0 0.06 0"/>
<feBlend mode="normal" in2="shape" result="effect1_innerShadow"/>
</filter>
<linearGradient id="paint0_linear" x1="117.226" y1="0" x2="117.226" y2="234.452" gradientUnits="userSpaceOnUse">
<stop stop-color="#E3B167"/>
<stop offset="1" stop-color="#FF2525"/>
</linearGradient>
<linearGradient id="paint1_linear" x1="90.8969" y1="134.13" x2="161.805" y2="323.609" gradientUnits="userSpaceOnUse">
<stop stop-color="#4C83B6"/>
<stop offset="1" stop-color="#2C4E6D"/>
</linearGradient>
<linearGradient id="paint2_linear" x1="158.507" y1="208.039" x2="285" y2="312.5" gradientUnits="userSpaceOnUse">
<stop stop-color="#EC9341"/>
<stop offset="1" stop-color="#ECDB41"/>
</linearGradient>
<linearGradient id="paint3_linear" x1="190.114" y1="-38.3343" x2="377.418" y2="226.029" gradientUnits="userSpaceOnUse">
<stop stop-color="#EF3F93"/>
<stop offset="1" stop-color="#DA6D33"/>
</linearGradient>
</defs>
</svg>
