<svg width="598" height="239" viewBox="0 0 598 239" fill="none" xmlns="http://www.w3.org/2000/svg">
<g filter="url(#filter0_d)">
<mask id="mask0" mask-type="alpha" maskUnits="userSpaceOnUse" x="-235" y="0" width="547" height="547">
<rect x="162.663" width="424.69" height="424.69" rx="15" transform="rotate(69.4491 162.663 0)" fill="#C4C4C4"/>
</mask>
<g mask="url(#mask0)">
<rect x="162.663" width="424.69" height="424.69" rx="15" transform="rotate(69.4491 162.663 0)" fill="#C4C4C4"/>
<circle cx="228.309" cy="233.988" r="117.226" transform="rotate(69.4491 228.309 233.988)" fill="url(#paint0_linear)"/>
<circle cx="132.945" cy="-41.4449" r="198.39" transform="rotate(69.4491 132.945 -41.4449)" fill="url(#paint1_linear)"/>
<circle cx="301.488" cy="427.409" r="161.805" transform="rotate(69.4491 301.488 427.409)" fill="url(#paint2_linear)"/>
<circle cx="-210.476" cy="212.32" r="198.39" transform="rotate(69.4491 -210.476 212.32)" fill="url(#paint3_linear)"/>
<path d="M-24.5239 800.554C-161.694 851.979 -314.58 782.469 -366.004 645.299C-417.06 509.114 -373.854 323.62 -238.994 270.639C-237.073 269.884 -234.969 269.566 -232.908 269.68C-51.4847 279.651 79.6017 322.691 130.731 459.074C182.156 596.244 112.646 749.13 -24.5239 800.554Z" fill="url(#paint4_linear)"/>
<path d="M147.365 421.618C123.943 430.399 89.5443 401.532 48.7913 377.095C17.0394 358.055 -31.6368 330.679 -43.3882 300.651C-66.0199 242.82 -64.7999 219.992 -76.9992 187.452C-105.236 112.133 25.4854 91.2985 58.2349 122.597C156.206 216.226 186.714 206.632 215.512 283.448C244.31 360.264 224.18 392.82 147.365 421.618Z" fill="url(#paint5_linear)"/>
</g>
</g>
<defs>
<filter id="filter0_d" x="-449" y="0" width="1046.75" height="1096.75" filterUnits="userSpaceOnUse" color-interpolation-filters="sRGB">
<feFlood flood-opacity="0" result="BackgroundImageFix"/>
<feColorMatrix in="SourceAlpha" type="matrix" values="0 0 0 0 0 0 0 0 0 0 0 0 0 0 0 0 0 0 127 0"/>
<feOffset dx="36" dy="300"/>
<feGaussianBlur stdDeviation="125"/>
<feColorMatrix type="matrix" values="0 0 0 0 0 0 0 0 0 0 0 0 0 0 0 0 0 0 0.05 0"/>
<feBlend mode="normal" in2="BackgroundImageFix" result="effect1_dropShadow"/>
<feBlend mode="normal" in="SourceGraphic" in2="effect1_dropShadow" result="shape"/>
</filter>
<linearGradient id="paint0_linear" x1="228.309" y1="116.762" x2="228.309" y2="351.214" gradientUnits="userSpaceOnUse">
<stop stop-color="#FF5151"/>
<stop offset="1" stop-color="#D8FF69"/>
</linearGradient>
<linearGradient id="paint1_linear" x1="237.217" y1="-84.6922" x2="174.203" y2="175.707" gradientUnits="userSpaceOnUse">
<stop stop-color="#4B8B34"/>
<stop offset="1" stop-color="#B0B348"/>
</linearGradient>
<linearGradient id="paint2_linear" x1="205.503" y1="379.759" x2="301.488" y2="589.214" gradientUnits="userSpaceOnUse">
<stop stop-color="#DB418B"/>
<stop offset="1" stop-color="#0085FF"/>
</linearGradient>
<linearGradient id="paint3_linear" x1="-210.476" y1="13.9304" x2="-210.476" y2="410.71" gradientUnits="userSpaceOnUse">
<stop stop-color="#7C00FF"/>
<stop offset="1" stop-color="#00FFF0"/>
</linearGradient>
<linearGradient id="paint4_linear" x1="15.3694" y1="332.771" x2="-91.1083" y2="547.917" gradientUnits="userSpaceOnUse">
<stop stop-color="#FF65F0"/>
<stop offset="1" stop-color="#FFB800"/>
</linearGradient>
<linearGradient id="paint5_linear" x1="249.392" y1="277.107" x2="-101.277" y2="247.099" gradientUnits="userSpaceOnUse">
<stop stop-color="#A443A0"/>
<stop offset="1" stop-color="#B52929"/>
</linearGradient>
</defs>
</svg>
