<svg width="29" height="176" viewBox="0 0 29 176" fill="none" xmlns="http://www.w3.org/2000/svg">
<g filter="url(#filter0_i)">
<path fill-rule="evenodd" clip-rule="evenodd" d="M29 0L25 -3.49691e-07L21 -6.99382e-07L6.99382e-07 -2.53526e-06L0 8L21 8L25 8L29 8L29 0Z" fill="url(#paint0_linear)"/>
<rect y="21" width="8" height="8" fill="#226FE5"/>
<path fill-rule="evenodd" clip-rule="evenodd" d="M6 42L8 42L21 42L21 21L29 21L29 42L29 43L29 50L8 50L6 50L0 50L6.99382e-07 42L6 42Z" fill="url(#paint1_linear)"/>
<rect y="63" width="8" height="8" fill="url(#paint2_linear)"/>
<rect x="21" y="63" width="8" height="8" fill="url(#paint3_linear)"/>
<rect y="105" width="8" height="8" fill="url(#paint4_linear)"/>
<path fill-rule="evenodd" clip-rule="evenodd" d="M21 104L21 92L-1.42941e-07 92L5.56442e-07 84L21 84L24 84L29 84L29 89L29 92L29 104L29 113L29 134L21 134L21 113L21 104Z" fill="url(#paint5_linear)"/>
<rect x="21" y="147" width="8" height="8" fill="#EB2351"/>
<path fill-rule="evenodd" clip-rule="evenodd" d="M21 168L6.99382e-07 168L0 176L21 176L25 176L29 176L29 168L25 168L21 168Z" fill="#EB2351"/>
<path fill-rule="evenodd" clip-rule="evenodd" d="M8 155L8 134L8 126L6.27912e-07 126L-7.14703e-08 134L0 155L8 155Z" fill="#EB2351"/>
</g>
<defs>
<filter id="filter0_i" x="0" y="0" width="29" height="180" filterUnits="userSpaceOnUse" color-interpolation-filters="sRGB">
<feFlood flood-opacity="0" result="BackgroundImageFix"/>
<feBlend mode="normal" in="SourceGraphic" in2="BackgroundImageFix" result="shape"/>
<feColorMatrix in="SourceAlpha" type="matrix" values="0 0 0 0 0 0 0 0 0 0 0 0 0 0 0 0 0 0 127 0" result="hardAlpha"/>
<feOffset dy="4"/>
<feGaussianBlur stdDeviation="2"/>
<feComposite in2="hardAlpha" operator="arithmetic" k2="-1" k3="1"/>
<feColorMatrix type="matrix" values="0 0 0 0 0 0 0 0 0 0.0983333 0 0 0 0 0.245833 0 0 0 0.15 0"/>
<feBlend mode="normal" in2="shape" result="effect1_innerShadow"/>
</filter>
<linearGradient id="paint0_linear" x1="-7" y1="12.5" x2="55" y2="-7" gradientUnits="userSpaceOnUse">
<stop stop-color="#234FEB"/>
<stop offset="1" stop-color="#23EBEB"/>
</linearGradient>
<linearGradient id="paint1_linear" x1="-7" y1="66.3125" x2="60.624" y2="60.4452" gradientUnits="userSpaceOnUse">
<stop stop-color="#234FEB"/>
<stop offset="1" stop-color="#23EBEB"/>
</linearGradient>
<linearGradient id="paint2_linear" x1="12.6896" y1="67.1379" x2="-5.10326" y2="63.0001" gradientUnits="userSpaceOnUse">
<stop stop-color="#34EB92"/>
<stop offset="1" stop-color="#237FD0"/>
</linearGradient>
<linearGradient id="paint3_linear" x1="33.6896" y1="67.1379" x2="15.8967" y2="63.0001" gradientUnits="userSpaceOnUse">
<stop stop-color="#34EB92"/>
<stop offset="1" stop-color="#237FD0"/>
</linearGradient>
<linearGradient id="paint4_linear" x1="-2.2069" y1="105.32" x2="0.468981" y2="115.837" gradientUnits="userSpaceOnUse">
<stop stop-color="#FF9900"/>
<stop offset="1" stop-color="#FFD600"/>
</linearGradient>
<linearGradient id="paint5_linear" x1="37" y1="132" x2="11.2532" y2="73.3087" gradientUnits="userSpaceOnUse">
<stop stop-color="#FF9900"/>
<stop offset="1" stop-color="#FFD600"/>
</linearGradient>
</defs>
</svg>
