<svg width="29" height="176" viewBox="0 0 29 176" fill="none" xmlns="http://www.w3.org/2000/svg">
<g filter="url(#filter0_i)">
<rect x="21" y="147" width="8" height="8" fill="url(#paint0_linear)"/>
<path fill-rule="evenodd" clip-rule="evenodd" d="M21 168L25 168L29 168L29 176L25 176L21 176L0 176L4.37114e-07 171L6.99382e-07 168L6.27912e-07 147L8 147L8 168L21 168Z" fill="url(#paint1_linear)"/>
<rect y="105" width="8" height="8" fill="#F92156"/>
<rect x="21" y="105" width="8" height="8" fill="#FE2257"/>
<path fill-rule="evenodd" clip-rule="evenodd" d="M21 126L6.99382e-07 126L0 134L25 134L29 134L29 126L21 126Z" fill="url(#paint2_linear)"/>
<rect y="42" width="8" height="8" fill="#F22156"/>
<path fill-rule="evenodd" clip-rule="evenodd" d="M29 71L29 92L21 92L8 92L0 92L5.24537e-07 86L6.99382e-07 84L6.27912e-07 63L7 63L8 63L29 63L29 70L29 71ZM21 84L21 71L8 71L8 84L21 84Z" fill="#F22156"/>
<path fill-rule="evenodd" clip-rule="evenodd" d="M21 42L21 29L8 29L-7.14705e-08 29L6.27912e-07 21L8 21L21 21L29 21L29 42L29 44L29 50L21 50L21 44L21 42ZM21 -6.99383e-07L29 0L29 8L21 8L21 -6.99383e-07ZM8 -1.83588e-06L5.56442e-07 -2.53526e-06L-1.42941e-07 8L8 8L8 -1.83588e-06Z" fill="url(#paint3_linear)"/>
</g>
<defs>
<filter id="filter0_i" x="0" y="0" width="29" height="180" filterUnits="userSpaceOnUse" color-interpolation-filters="sRGB">
<feFlood flood-opacity="0" result="BackgroundImageFix"/>
<feBlend mode="normal" in="SourceGraphic" in2="BackgroundImageFix" result="shape"/>
<feColorMatrix in="SourceAlpha" type="matrix" values="0 0 0 0 0 0 0 0 0 0 0 0 0 0 0 0 0 0 127 0" result="hardAlpha"/>
<feOffset dy="4"/>
<feGaussianBlur stdDeviation="2"/>
<feComposite in2="hardAlpha" operator="arithmetic" k2="-1" k3="1"/>
<feColorMatrix type="matrix" values="0 0 0 0 0 0 0 0 0 0.0983333 0 0 0 0 0.245833 0 0 0 0.15 0"/>
<feBlend mode="normal" in2="shape" result="effect1_innerShadow"/>
</filter>
<linearGradient id="paint0_linear" x1="18.7931" y1="147.32" x2="21.469" y2="157.837" gradientUnits="userSpaceOnUse">
<stop stop-color="#FF9900"/>
<stop offset="1" stop-color="#FFD600"/>
</linearGradient>
<linearGradient id="paint1_linear" x1="37" y1="174.84" x2="27.2999" y2="136.716" gradientUnits="userSpaceOnUse">
<stop stop-color="#FF9900"/>
<stop offset="1" stop-color="#FFD600"/>
</linearGradient>
<linearGradient id="paint2_linear" x1="37" y1="133.68" x2="36.2179" y2="122.537" gradientUnits="userSpaceOnUse">
<stop stop-color="#FF9900"/>
<stop offset="1" stop-color="#FFD600"/>
</linearGradient>
<linearGradient id="paint3_linear" x1="-7" y1="78.125" x2="60.961" y2="74.705" gradientUnits="userSpaceOnUse">
<stop stop-color="#234FEB"/>
<stop offset="1" stop-color="#23EBEB"/>
</linearGradient>
</defs>
</svg>
