<svg width="279" height="254" viewBox="0 0 279 254" fill="none" xmlns="http://www.w3.org/2000/svg">
<mask id="mask0" mask-type="alpha" maskUnits="userSpaceOnUse" x="0" y="0" width="279" height="254">
<rect width="279" height="254" fill="#C4C4C4"/>
</mask>
<g mask="url(#mask0)">
<mask id="mask1" mask-type="alpha" maskUnits="userSpaceOnUse" x="-269" y="-239" width="538" height="538">
<rect width="424.69" height="424.69" rx="40" transform="matrix(0.318375 0.947965 0.947965 -0.318375 -269 -103.79)" fill="#C4C4C4"/>
</mask>
<g mask="url(#mask1)">
<rect width="424.69" height="424.69" rx="40" transform="matrix(0.318375 0.947965 0.947965 -0.318375 -269 -103.79)" fill="#C4C4C4"/>
<circle r="161.805" transform="matrix(0.318375 0.947965 0.947965 -0.318375 -107.063 315.41)" fill="url(#paint0_linear)"/>
<circle r="198.39" transform="matrix(0.318375 0.947965 0.947965 -0.318375 154.46 -174.464)" fill="url(#paint1_linear)"/>
<path d="M381.104 399.579C519.974 352.94 594.741 202.555 548.102 63.6854C502.355 -72.5262 354.862 -188.035 218.185 -148.395C212.899 -146.862 208.058 -143.972 203.999 -140.255C71.9687 -19.3496 -0.715498 95.8373 45.2103 232.582C91.8498 371.452 242.235 446.219 381.104 399.579Z" fill="url(#paint2_linear)"/>
<path d="M15.5584 199.535C39.2707 191.571 47.7475 147.472 63.9497 102.801C76.5732 67.997 97.0686 16.0474 87.2418 -14.6645C68.3166 -73.8118 52.968 -90.754 41.9039 -123.698C16.2947 -199.949 -66.0719 -148.714 -71.7357 -103.77C-88.679 30.6837 -150.603 57.5572 -124.485 135.325C-98.3667 213.092 -62.2092 225.653 15.5584 199.535Z" fill="url(#paint3_linear)"/>
</g>
<path d="M120.741 167.491L128.251 164.837C130.967 163.877 132.681 162.651 133.394 161.158C134.078 159.58 133.94 157.434 132.98 154.718L119.262 115.896C118.302 113.18 117.076 111.466 115.583 110.753C114.06 109.954 111.941 110.035 109.225 110.995L101.715 113.648C99 114.608 97.3006 115.877 96.6172 117.454C95.9039 118.947 96.027 121.052 96.9865 123.767L110.705 162.59C111.665 165.305 112.906 167.062 114.429 167.86C115.922 168.573 118.026 168.45 120.741 167.491ZM135.745 177.939L123.016 182.437C116.312 184.806 110.506 184.853 105.598 182.578C100.69 180.304 97.051 175.814 94.6821 169.111L80.4239 128.761C78.0551 122.057 78.0654 116.278 80.4549 111.425C82.8443 106.571 87.391 102.96 94.0947 100.591L106.823 96.0936C113.442 93.7547 119.221 93.765 124.159 96.1245C129.067 98.3991 132.691 102.846 135.03 109.465L149.288 149.815C151.627 156.434 151.617 162.212 149.257 167.151C146.868 172.004 142.364 175.6 135.745 177.939ZM193.777 124.93L179.879 85.5988L173.157 132.217L193.777 124.93ZM216.589 149.372L206.66 152.88C204.878 153.51 203.672 152.933 203.043 151.151L198.725 138.932L167.158 150.087C165.715 150.596 164.42 150.577 163.271 150.028C162.123 149.479 161.294 148.484 160.784 147.041L159.03 142.077C158.13 139.531 157.82 137.302 158.099 135.39L166.787 79.3433C167.095 77.516 167.499 76.2279 167.998 75.4788C168.552 74.615 169.55 73.9282 170.993 73.4184L185.376 68.3358C186.819 67.8261 188.114 67.8455 189.263 68.3943C190.496 68.913 191.368 69.8937 191.877 71.3362L208.924 119.578L218.089 116.339C219.786 115.74 220.935 116.288 221.534 117.986L224.548 126.514C225.237 128.466 224.734 129.741 223.037 130.341L213.872 133.579L218.19 145.799C218.55 146.817 218.592 147.614 218.318 148.188C218.099 148.647 217.522 149.042 216.589 149.372Z" fill="#DFEBFB"/>
</g>
<defs>
<linearGradient id="paint0_linear" x1="90.8969" y1="134.13" x2="161.805" y2="323.609" gradientUnits="userSpaceOnUse">
<stop stop-color="#4C83B6"/>
<stop offset="1" stop-color="#2C4E6D"/>
</linearGradient>
<linearGradient id="paint1_linear" x1="198.39" y1="0" x2="182.229" y2="213.315" gradientUnits="userSpaceOnUse">
<stop stop-color="#A172D3"/>
<stop offset="0.0001" stop-color="#7282D3"/>
<stop offset="1" stop-color="#8139CE"/>
</linearGradient>
<linearGradient id="paint2_linear" x1="38.6823" y1="213.145" x2="194.38" y2="161.465" gradientUnits="userSpaceOnUse">
<stop stop-color="#EC9341"/>
<stop offset="1" stop-color="#ECDB41"/>
</linearGradient>
<linearGradient id="paint3_linear" x1="-153.266" y1="55.4914" x2="170.211" y2="37.2297" gradientUnits="userSpaceOnUse">
<stop stop-color="#EF3F93"/>
<stop offset="1" stop-color="#DA6D33"/>
</linearGradient>
</defs>
</svg>
