<svg width="280" height="298" viewBox="0 0 280 298" fill="none" xmlns="http://www.w3.org/2000/svg">
<mask id="mask0" mask-type="alpha" maskUnits="userSpaceOnUse" x="0" y="0" width="280" height="298">
<rect width="280" height="298" fill="#C4C4C4"/>
</mask>
<g mask="url(#mask0)">
<mask id="mask1" mask-type="alpha" maskUnits="userSpaceOnUse" x="-256" y="92" width="504" height="504">
<rect width="424.792" height="426.11" rx="40" transform="matrix(-0.259684 -0.965694 -0.966157 0.257956 257.001 494.219)" fill="#C4C4C4"/>
</mask>
<g mask="url(#mask1)">
<rect width="424.792" height="426.11" rx="40" transform="matrix(-0.259684 -0.965694 -0.966157 0.257956 257.001 494.219)" fill="#C0D1FC"/>
<ellipse rx="198.437" ry="199.053" transform="matrix(-0.259684 -0.965694 -0.966157 0.257956 -171.563 538.428)" fill="#A172D3"/>
<path d="M-362.761 -48.5962C-504.769 -10.6812 -589.043 134.764 -550.992 276.265C-513.665 415.074 -373.107 539.543 -233.716 508.436C-228.359 507.24 -223.36 504.673 -219.086 501.235C-79.2719 388.762 0.736409 278.31 -36.7355 138.962C-74.7864 -2.5384 -220.753 -86.5112 -362.761 -48.5962Z" fill="#EC9341"/>
<path d="M249.301 390.503C303.181 373.84 297.265 326.899 280.542 273.211C263.819 219.523 206.584 189.508 152.703 206.171C98.8225 222.834 68.7001 279.865 85.4229 333.554C102.146 387.242 195.42 407.166 249.301 390.503Z" fill="url(#paint0_linear)"/>
<path d="M157.975 226.503C211.855 209.84 205.939 162.899 189.216 109.211C172.493 55.523 115.258 25.5082 61.3769 42.1713C7.49628 58.8344 -22.6261 115.865 -5.90325 169.554C10.8196 223.242 104.094 243.166 157.975 226.503Z" fill="url(#paint1_linear)"/>
<path d="M-9.0975 173.789C-33.3456 180.263 -44.5881 223.75 -63.6042 267.327C-78.4202 301.279 -102.191 351.853 -94.2642 383.117C-78.9986 443.326 -64.6819 461.19 -55.6553 494.758C-34.762 572.454 50.9369 526.439 59.4143 481.934C84.7751 348.794 148.478 325.823 127.169 246.582C105.861 167.341 70.4275 152.557 -9.0975 173.789Z" fill="url(#paint2_linear)"/>
</g>
</g>
<defs>
<linearGradient id="paint0_linear" x1="255.439" y1="346" x2="93.3452" y2="303.749" gradientUnits="userSpaceOnUse">
<stop stop-color="#308FFF"/>
<stop offset="1" stop-color="#2440D1"/>
</linearGradient>
<linearGradient id="paint1_linear" x1="101.664" y1="218.175" x2="133.008" y2="-52.11" gradientUnits="userSpaceOnUse">
<stop stop-color="#56A9FD"/>
<stop offset="1" stop-color="#2577FF"/>
</linearGradient>
<linearGradient id="paint2_linear" x1="9.49483" y1="217.968" x2="-72.0419" y2="559" gradientUnits="userSpaceOnUse">
<stop stop-color="#4051EF"/>
<stop offset="1" stop-color="#24A8D1"/>
</linearGradient>
</defs>
</svg>
