<svg width="279" height="298" viewBox="0 0 279 298" fill="none" xmlns="http://www.w3.org/2000/svg">
<mask id="mask0" mask-type="alpha" maskUnits="userSpaceOnUse" x="0" y="0" width="279" height="300">
<rect width="279" height="300" fill="#C4C4C4"/>
</mask>
<g mask="url(#mask0)">
<mask id="mask1" mask-type="alpha" maskUnits="userSpaceOnUse" x="-273" y="60" width="538" height="538">
<rect width="424.69" height="424.69" rx="40" transform="matrix(0.318375 0.947965 0.947965 -0.318375 -273 195.21)" fill="#C4C4C4"/>
</mask>
<g mask="url(#mask1)">
<rect width="424.69" height="424.69" rx="40" transform="matrix(0.318375 0.947965 0.947965 -0.318375 -273 195.21)" fill="#C4C4C4"/>
<circle r="198.39" transform="matrix(0.318375 0.947965 0.947965 -0.318375 150.46 124.536)" fill="url(#paint0_linear)"/>
<path d="M377.104 698.579C515.974 651.94 590.741 501.555 544.102 362.685C498.355 226.474 350.862 110.965 214.185 150.605C208.899 152.138 204.058 155.028 199.999 158.745C67.9687 279.65 -4.7155 394.837 41.2103 531.582C87.8498 670.452 238.235 745.219 377.104 698.579Z" fill="url(#paint1_linear)"/>
<path d="M11.5584 498.535C35.2707 490.571 43.7475 446.472 59.9497 401.801C72.5732 366.997 93.0686 315.047 83.2418 284.335C64.3166 225.188 48.968 208.246 37.9039 175.302C12.2947 99.0505 -70.0719 150.286 -75.7357 195.23C-92.679 329.684 -154.603 356.557 -128.485 434.325C-102.367 512.092 -66.2092 524.653 11.5584 498.535Z" fill="url(#paint2_linear)"/>
</g>
</g>
<defs>
<linearGradient id="paint0_linear" x1="396.78" y1="33.5898" x2="-63.0454" y2="380.569" gradientUnits="userSpaceOnUse">
<stop stop-color="#FF7A00"/>
<stop offset="1" stop-color="#F9DA35"/>
</linearGradient>
<linearGradient id="paint1_linear" x1="195.152" y1="156.813" x2="345" y2="545.5" gradientUnits="userSpaceOnUse">
<stop stop-color="#FFA500"/>
<stop offset="1" stop-color="#FFD600"/>
</linearGradient>
<linearGradient id="paint2_linear" x1="-89.2321" y1="160.901" x2="6.33891" y2="398.937" gradientUnits="userSpaceOnUse">
<stop stop-color="#FFB800"/>
<stop offset="1" stop-color="#FFD600"/>
</linearGradient>
</defs>
</svg>
