<svg width="301" height="297" viewBox="0 0 301 297" fill="none" xmlns="http://www.w3.org/2000/svg">
<mask id="mask0" mask-type="alpha" maskUnits="userSpaceOnUse" x="0" y="0" width="301" height="297">
<rect width="301" height="297" transform="matrix(-1 0 0 1 301 0)" fill="#C4C4C4"/>
</mask>
<g mask="url(#mask0)">
<mask id="mask1" mask-type="alpha" maskUnits="userSpaceOnUse" x="21" y="84" width="581" height="582">
<rect width="424.69" height="424.69" rx="40" transform="matrix(0.5 -0.866025 -0.866025 -0.5 388.792 665.137)" fill="#C4C4C4"/>
</mask>
<g mask="url(#mask1)">
<rect width="424.69" height="424.69" rx="40" transform="matrix(0.5 -0.866025 -0.866025 -0.5 388.792 665.137)" fill="#C0D1FC"/>
<circle r="198.39" transform="matrix(0.5 -0.866025 -0.866025 -0.5 55.5728 394.439)" fill="url(#paint0_linear)"/>
<path d="M335.947 -155.364C209.081 -228.611 46.8577 -185.143 -26.3885 -58.277C-98.2326 66.1608 -87.223 253.178 32.9445 329.412C37.5921 332.36 42.9621 334.077 48.435 334.66C226.453 353.632 360.909 331.896 433.034 206.971C506.28 80.1047 462.813 -82.1183 335.947 -155.364Z" fill="url(#paint1_linear)"/>
<path d="M427.882 251.071C406.219 238.564 367.549 261.392 323.337 278.807C288.89 292.376 236.38 311.39 219.858 339.081C188.04 392.411 185.495 415.13 168.119 445.226C127.901 514.887 220.82 542.731 258.263 517.234C370.276 440.959 431.403 469.6 472.421 398.554C513.439 327.509 498.928 292.089 427.882 251.071Z" fill="url(#paint2_linear)"/>
<path d="M109.243 203.856C14.3542 149.073 -45.0213 219.623 -99.8051 314.511C-154.589 409.4 -122.078 530.733 -27.1894 585.517C67.6989 640.3 189.032 607.789 243.816 512.901C298.6 418.013 204.131 258.64 109.243 203.856Z" fill="url(#paint3_linear)"/>
</g>
</g>
<defs>
<linearGradient id="paint0_linear" x1="198.39" y1="0" x2="198.39" y2="396.779" gradientUnits="userSpaceOnUse">
<stop stop-color="#DB00FF"/>
<stop offset="1" stop-color="#426BFF"/>
</linearGradient>
<linearGradient id="paint1_linear" x1="193" y1="293.5" x2="301.5" y2="92" gradientUnits="userSpaceOnUse">
<stop stop-color="#B12240"/>
<stop offset="1" stop-color="#D6264C"/>
</linearGradient>
<linearGradient id="paint2_linear" x1="440.681" y1="466.709" x2="322.645" y2="376.645" gradientUnits="userSpaceOnUse">
<stop stop-color="#FF2257"/>
<stop offset="1" stop-color="#C42847"/>
</linearGradient>
<linearGradient id="paint3_linear" x1="251" y1="521.5" x2="71.6573" y2="369.404" gradientUnits="userSpaceOnUse">
<stop stop-color="#FF2257"/>
<stop offset="1" stop-color="#C42847"/>
</linearGradient>
</defs>
</svg>
