<svg width="29" height="176" viewBox="0 0 29 176" fill="none" xmlns="http://www.w3.org/2000/svg">
<g filter="url(#filter0_i)">
<ellipse cx="4" cy="46" rx="4" ry="4" fill="#EB2351"/>
<ellipse cx="4" cy="67" rx="4" ry="4" fill="#EB2351"/>
<path fill-rule="evenodd" clip-rule="evenodd" d="M29.0005 29L25 29L21.0005 29L21.0005 25.0631C21.0002 25.0421 21 25.0211 21 25C21 24.9789 21.0002 24.9579 21.0005 24.9369L21.0005 8L4.00146 8C4.00098 8 4.00049 8 4 8C3.99951 8 3.99902 8 3.99853 8L0.000486445 8L0.000486101 4.06315C0.00016185 4.04214 -2.18373e-06 4.02109 -2.18557e-06 4C-2.18741e-06 3.97892 0.000161843 3.95787 0.00048609 3.93686L0.000485746 4.44261e-06L3.99633 4.09328e-06C3.99755 4.09317e-06 3.99877 2.18572e-06 4 2.18561e-06C4.00122 2.18551e-06 4.00244 4.09275e-06 4.00366 4.09264e-06L24.9985 3.49862e-07C24.999 3.49819e-07 24.9995 3.49776e-07 25 3.49734e-07C25.0005 3.49691e-07 25.001 3.49648e-07 25.0015 3.49606e-07L29.0005 0L29.0005 4L29.0005 8L29.0005 29Z" fill="url(#paint0_linear)"/>
<path fill-rule="evenodd" clip-rule="evenodd" d="M21.0005 150.937C21.0002 150.958 21 150.979 21 151C21 151.021 21.0002 151.042 21.0005 151.063L21.0005 168L4.00362 168L4 168L3.99638 168H0L0 176L4 176L21.0005 176L25 176H29.0005L29.0005 147H25H21.0005V150.937Z" fill="url(#paint1_linear)"/>
<path fill-rule="evenodd" clip-rule="evenodd" d="M8.00049 50L29.0005 50V42L5.00049 42L0.000488281 42L0.000491142 71H8.00049L8.00049 50Z" fill="url(#paint2_linear)"/>
<path fill-rule="evenodd" clip-rule="evenodd" d="M0.000488281 84H8.00049L8.00049 113H0.000488281L0.000488281 84ZM24.9977 126H25.0005H25.0033H29.0005L29.0005 130V134H25.0005L4.00049 134H0.000492096L0.000491746 130L0.000491397 126L24.9977 126ZM21.0005 113H29.0005V105H21.0005V113Z" fill="url(#paint3_linear)"/>
<rect x="23.0005" y="155" width="23" height="8" transform="rotate(180 23.0005 155)" fill="#EB2351"/>
<g filter="url(#filter1_i)">
<rect x="8.00049" y="29" width="8" height="8" transform="rotate(180 8.00049 29)" fill="#F37D43"/>
</g>
<g filter="url(#filter2_i)">
<rect x="29.0005" y="92" width="8" height="8" transform="rotate(180 29.0005 92)" fill="url(#paint4_linear)"/>
</g>
<g filter="url(#filter3_i)">
<rect x="29.0005" y="71" width="8" height="8" transform="rotate(180 29.0005 71)" fill="#F37D43"/>
</g>
</g>
<defs>
<filter id="filter0_i" x="0" y="0" width="29.0005" height="180" filterUnits="userSpaceOnUse" color-interpolation-filters="sRGB">
<feFlood flood-opacity="0" result="BackgroundImageFix"/>
<feBlend mode="normal" in="SourceGraphic" in2="BackgroundImageFix" result="shape"/>
<feColorMatrix in="SourceAlpha" type="matrix" values="0 0 0 0 0 0 0 0 0 0 0 0 0 0 0 0 0 0 127 0" result="hardAlpha"/>
<feOffset dy="4"/>
<feGaussianBlur stdDeviation="2"/>
<feComposite in2="hardAlpha" operator="arithmetic" k2="-1" k3="1"/>
<feColorMatrix type="matrix" values="0 0 0 0 0 0 0 0 0 0 0 0 0 0 0 0 0 0 0.15 0"/>
<feBlend mode="normal" in2="shape" result="effect1_innerShadow"/>
</filter>
<filter id="filter1_i" x="0.000488281" y="21" width="8" height="10" filterUnits="userSpaceOnUse" color-interpolation-filters="sRGB">
<feFlood flood-opacity="0" result="BackgroundImageFix"/>
<feBlend mode="normal" in="SourceGraphic" in2="BackgroundImageFix" result="shape"/>
<feColorMatrix in="SourceAlpha" type="matrix" values="0 0 0 0 0 0 0 0 0 0 0 0 0 0 0 0 0 0 127 0" result="hardAlpha"/>
<feOffset dy="4"/>
<feGaussianBlur stdDeviation="1"/>
<feComposite in2="hardAlpha" operator="arithmetic" k2="-1" k3="1"/>
<feColorMatrix type="matrix" values="0 0 0 0 0 0 0 0 0 0 0 0 0 0 0 0 0 0 0.15 0"/>
<feBlend mode="normal" in2="shape" result="effect1_innerShadow"/>
</filter>
<filter id="filter2_i" x="21.0005" y="84" width="8" height="12" filterUnits="userSpaceOnUse" color-interpolation-filters="sRGB">
<feFlood flood-opacity="0" result="BackgroundImageFix"/>
<feBlend mode="normal" in="SourceGraphic" in2="BackgroundImageFix" result="shape"/>
<feColorMatrix in="SourceAlpha" type="matrix" values="0 0 0 0 0 0 0 0 0 0 0 0 0 0 0 0 0 0 127 0" result="hardAlpha"/>
<feOffset dy="4"/>
<feGaussianBlur stdDeviation="2"/>
<feComposite in2="hardAlpha" operator="arithmetic" k2="-1" k3="1"/>
<feColorMatrix type="matrix" values="0 0 0 0 0 0 0 0 0 0.0983333 0 0 0 0 0.245833 0 0 0 0.22 0"/>
<feBlend mode="normal" in2="shape" result="effect1_innerShadow"/>
</filter>
<filter id="filter3_i" x="21.0005" y="63" width="8" height="12" filterUnits="userSpaceOnUse" color-interpolation-filters="sRGB">
<feFlood flood-opacity="0" result="BackgroundImageFix"/>
<feBlend mode="normal" in="SourceGraphic" in2="BackgroundImageFix" result="shape"/>
<feColorMatrix in="SourceAlpha" type="matrix" values="0 0 0 0 0 0 0 0 0 0 0 0 0 0 0 0 0 0 127 0" result="hardAlpha"/>
<feOffset dy="4"/>
<feGaussianBlur stdDeviation="2"/>
<feComposite in2="hardAlpha" operator="arithmetic" k2="-1" k3="1"/>
<feColorMatrix type="matrix" values="0 0 0 0 0 0 0 0 0 0.0983333 0 0 0 0 0.245833 0 0 0 0.22 0"/>
<feBlend mode="normal" in2="shape" result="effect1_innerShadow"/>
</filter>
<linearGradient id="paint0_linear" x1="-17" y1="14" x2="47.5" y2="29" gradientUnits="userSpaceOnUse">
<stop stop-color="#34EB92"/>
<stop offset="1" stop-color="#237FD0"/>
</linearGradient>
<linearGradient id="paint1_linear" x1="29.0001" y1="151.123" x2="3.99258" y2="166.105" gradientUnits="userSpaceOnUse">
<stop stop-color="#F52354"/>
<stop offset="1" stop-color="#CC2749"/>
</linearGradient>
<linearGradient id="paint2_linear" x1="-6.49951" y1="75" x2="30.107" y2="51.4023" gradientUnits="userSpaceOnUse">
<stop stop-color="#EB2351"/>
<stop offset="1" stop-color="#FFB13C"/>
</linearGradient>
<linearGradient id="paint3_linear" x1="36.0005" y1="55.875" x2="-31.9605" y2="59.295" gradientUnits="userSpaceOnUse">
<stop stop-color="#234FEB"/>
<stop offset="1" stop-color="#23EBEB"/>
</linearGradient>
<linearGradient id="paint4_linear" x1="38.9315" y1="87.5" x2="20.2766" y2="89.1186" gradientUnits="userSpaceOnUse">
<stop stop-color="#234FEB"/>
<stop offset="1" stop-color="#23EBEB"/>
</linearGradient>
</defs>
</svg>
