<svg width="310" height="280" viewBox="0 0 310 280" fill="none" xmlns="http://www.w3.org/2000/svg">
<mask id="mask0" mask-type="alpha" maskUnits="userSpaceOnUse" x="0" y="0" width="310" height="280">
<rect width="310" height="280" fill="#C4C4C4"/>
</mask>
<g mask="url(#mask0)">
<mask id="mask1" mask-type="alpha" maskUnits="userSpaceOnUse" x="-235" y="-239" width="547" height="547">
<rect x="162.663" y="-239" width="424.69" height="424.69" rx="15" transform="rotate(69.4491 162.663 -239)" fill="#C4C4C4"/>
</mask>
<g mask="url(#mask1)">
<rect x="162.663" y="-239" width="424.69" height="424.69" rx="15" transform="rotate(69.4491 162.663 -239)" fill="#C4C4C4"/>
<circle cx="228.309" cy="-5.01187" r="117.226" transform="rotate(69.4491 228.309 -5.01187)" fill="url(#paint0_linear)"/>
<circle cx="301.488" cy="188.409" r="161.805" transform="rotate(69.4491 301.488 188.409)" fill="url(#paint1_linear)"/>
<circle cx="-210.476" cy="-26.6798" r="198.39" transform="rotate(69.4491 -210.476 -26.6798)" fill="url(#paint2_linear)"/>
<path d="M-24.5239 561.554C-161.694 612.979 -314.58 543.469 -366.004 406.299C-417.06 270.114 -373.854 84.6197 -238.994 31.6387C-237.073 30.884 -234.969 30.5665 -232.908 30.6798C-51.4847 40.6514 79.6017 83.6913 130.731 220.074C182.156 357.244 112.646 510.13 -24.5239 561.554Z" fill="url(#paint3_linear)"/>
<path d="M147.365 182.618C123.943 191.399 89.5443 162.532 48.7913 138.095C17.0394 119.055 -31.6368 91.6789 -43.3882 61.6507C-66.0199 3.8202 -64.7999 -19.008 -76.9992 -51.5483C-105.236 -126.867 25.4854 -147.702 58.2349 -116.403C156.206 -22.7736 186.714 -32.3676 215.512 44.4481C244.31 121.264 224.18 153.82 147.365 182.618Z" fill="url(#paint4_linear)"/>
</g>
<path d="M195.462 163.941L201.531 161.64C203.725 160.808 205.099 159.777 205.653 158.548C206.18 157.25 206.028 155.504 205.196 153.31L193.302 121.938C192.471 119.744 191.44 118.37 190.211 117.817C188.955 117.195 187.23 117.3 185.036 118.132L178.968 120.432C176.773 121.264 175.412 122.329 174.885 123.627C174.332 124.856 174.471 126.568 175.303 128.763L187.196 160.134C188.028 162.328 189.072 163.736 190.327 164.358C191.556 164.912 193.268 164.772 195.462 163.941ZM207.878 172.174L197.592 176.074C192.175 178.127 187.446 178.273 183.406 176.511C179.365 174.749 176.318 171.159 174.264 165.742L161.903 133.137C159.849 127.72 159.751 123.012 161.608 119.014C163.464 115.017 167.101 111.991 172.518 109.937L182.804 106.038C188.152 104.01 192.86 103.911 196.926 105.742C200.967 107.504 204.001 111.059 206.028 116.408L218.39 149.013C220.418 154.362 220.516 159.069 218.685 163.136C216.829 167.134 213.226 170.146 207.878 172.174Z" fill="#DFECFC"/>
<path d="M245.642 119.388L240.808 121.221C239.025 121.897 237.927 123.137 237.513 124.941C237.167 126.719 236.48 127.803 235.452 128.193L226.914 131.429C225.475 131.975 224.495 131.563 223.975 130.191L211.613 97.5857C211.067 96.1458 211.514 95.1528 212.954 94.6069L248.748 81.0366C250.188 80.4907 251.181 80.9377 251.727 82.3777L254.691 90.1948C255.237 91.6348 254.79 92.6277 253.35 93.1737L228.458 102.61L234.191 117.73C234.057 113.86 236.287 111.054 240.881 109.312L245.201 107.674C255.829 103.645 263.158 106.944 267.188 117.573L271.477 128.887C273.505 134.235 273.603 138.943 271.773 143.009C269.916 147.007 266.314 150.02 260.965 152.048L251.914 155.479C246.497 157.533 241.768 157.679 237.727 155.917C233.687 154.154 230.64 150.565 228.586 145.148L227.806 143.091C227.234 141.582 227.668 140.555 229.108 140.009L237.851 136.694C239.291 136.148 240.297 136.63 240.869 138.138L241.61 140.092C242.416 142.218 243.446 143.592 244.702 144.214C246 144.742 247.712 144.602 249.837 143.796L254.672 141.964C256.866 141.132 258.308 140.075 258.999 138.794C259.663 137.444 259.593 135.706 258.787 133.58L255.277 124.323C254.186 121.443 252.965 119.671 251.615 119.006C250.239 118.273 248.248 118.401 245.642 119.388Z" fill="#DFECFC"/>
</g>
<defs>
<linearGradient id="paint0_linear" x1="228.309" y1="-122.238" x2="228.309" y2="112.214" gradientUnits="userSpaceOnUse">
<stop stop-color="#FF5151"/>
<stop offset="1" stop-color="#D8FF69"/>
</linearGradient>
<linearGradient id="paint1_linear" x1="205.503" y1="140.759" x2="301.488" y2="350.214" gradientUnits="userSpaceOnUse">
<stop stop-color="#DB418B"/>
<stop offset="1" stop-color="#0085FF"/>
</linearGradient>
<linearGradient id="paint2_linear" x1="-210.476" y1="-225.07" x2="-210.476" y2="171.71" gradientUnits="userSpaceOnUse">
<stop stop-color="#7C00FF"/>
<stop offset="1" stop-color="#00FFF0"/>
</linearGradient>
<linearGradient id="paint3_linear" x1="15.3694" y1="93.7712" x2="-91.1083" y2="308.917" gradientUnits="userSpaceOnUse">
<stop stop-color="#BA4DAF"/>
<stop offset="1" stop-color="#AD8622"/>
</linearGradient>
<linearGradient id="paint4_linear" x1="249.392" y1="38.1067" x2="-101.277" y2="8.09874" gradientUnits="userSpaceOnUse">
<stop stop-color="#B834B3"/>
<stop offset="1" stop-color="#CB3030"/>
</linearGradient>
</defs>
</svg>
