<svg width="193" height="189" viewBox="0 0 193 189" fill="none" xmlns="http://www.w3.org/2000/svg">
<mask id="mask0" mask-type="alpha" maskUnits="userSpaceOnUse" x="0" y="0" width="193" height="189">
<rect width="193" height="189" fill="#C4C4C4"/>
</mask>
<g mask="url(#mask0)">
<g filter="url(#filter0_d)">
<mask id="mask1" mask-type="alpha" maskUnits="userSpaceOnUse" x="-26" y="-54" width="219" height="243">
<path d="M6.64145e-05 -28.9999L193 -29L166.135 173.852C165.027 182.216 157.24 188.022 148.907 186.696L6.65071e-05 163L6.64145e-05 -28.9999Z" fill="#C4C4C4"/>
</mask>
<g mask="url(#mask1)">
<rect x="-201.998" y="-287" width="424.69" height="424.69" rx="15" transform="rotate(7.44137 -201.998 -287)" fill="#C4C4C4"/>
<circle cx="-189.651" cy="142.139" r="198.39" transform="rotate(7.44137 -189.651 142.139)" fill="#A172D3"/>
<path d="M417.044 254.031C398.071 399.289 264.936 501.664 119.677 482.692C-24.539 463.856 -168.054 338.642 -151.539 194.693C-151.304 192.642 -150.597 190.635 -149.53 188.869C-55.5731 33.35 43.9574 -62.1999 188.383 -43.3362C333.641 -24.3638 436.016 108.772 417.044 254.031Z" fill="url(#paint0_linear)"/>
<path d="M150.526 -66.3047C147.286 -41.5015 105.651 -24.6763 64.9454 -0.160586C33.2303 18.9403 -13.7894 49.0728 -45.8202 45.3556C-107.507 38.1967 -127.092 26.4049 -161.552 21.9041C-241.312 11.4866 -206.929 -79.217 -163.921 -93.4452C-35.2627 -136.009 -20.8404 -201.954 60.5051 -191.33C141.851 -180.705 161.15 -147.65 150.526 -66.3047Z" fill="url(#paint1_linear)"/>
</g>
</g>
<path d="M58.4473 139.853L64.8806 140.709C67.2068 141.018 68.9053 140.763 69.976 139.944C71.0564 139.052 71.7514 137.443 72.0609 135.117L76.4857 101.86C76.7952 99.5338 76.5403 97.8354 75.721 96.7646C74.9114 95.6212 73.3435 94.8947 71.0174 94.5852L64.5841 93.7293C62.2579 93.4198 60.5546 93.711 59.4742 94.603C58.4035 95.4222 57.7133 96.995 57.4038 99.3211L52.979 132.578C52.6695 134.904 52.9196 136.639 53.7292 137.782C54.5485 138.853 56.1212 139.543 58.4473 139.853ZM65.4656 152.993L54.5617 151.542C48.819 150.778 44.5878 148.662 41.8682 145.193C39.1487 141.724 38.1709 137.118 38.935 131.375L43.5339 96.8099C44.298 91.0672 46.446 86.8772 49.978 84.24C53.51 81.6028 58.1474 80.6662 63.8901 81.4303L74.794 82.8811C80.464 83.6355 84.654 85.7835 87.3639 89.3252C90.0835 92.7942 91.0661 97.3637 90.3117 103.034L85.7128 137.599C84.9584 143.269 82.8103 147.459 79.2686 150.169C75.7366 152.806 71.1356 153.748 65.4656 152.993Z" fill="#DFECFC"/>
<path d="M127.218 136.019L131.701 102.326L109.554 133.669L127.218 136.019ZM134.72 162.207L126.215 161.076C124.688 160.873 124.027 160.008 124.23 158.481L125.622 148.014L98.5807 144.416C97.345 144.251 96.412 143.757 95.7817 142.934C95.1515 142.11 94.9186 141.08 95.0831 139.845L95.6489 135.592C95.939 133.411 96.5394 131.679 97.4501 130.394L124.517 92.9367C125.418 91.725 126.188 90.9397 126.828 90.5809C127.55 90.1591 128.528 90.0304 129.764 90.1948L142.086 91.8342C143.321 91.9986 144.254 92.4927 144.885 93.3163C145.588 94.1496 145.857 95.1842 145.692 96.4199L140.194 137.746L148.045 138.79C149.499 138.984 150.129 139.807 149.935 141.261L148.963 148.567C148.741 150.239 147.903 150.978 146.449 150.785L138.598 149.74L137.205 160.208C137.089 161.08 136.825 161.674 136.414 161.989C136.084 162.241 135.52 162.314 134.72 162.207Z" fill="#DFECFC"/>
</g>
<defs>
<filter id="filter0_d" x="-239.203" y="-53.7852" width="718.203" height="792.531" filterUnits="userSpaceOnUse" color-interpolation-filters="sRGB">
<feFlood flood-opacity="0" result="BackgroundImageFix"/>
<feColorMatrix in="SourceAlpha" type="matrix" values="0 0 0 0 0 0 0 0 0 0 0 0 0 0 0 0 0 0 127 0"/>
<feOffset dx="36" dy="300"/>
<feGaussianBlur stdDeviation="125"/>
<feColorMatrix type="matrix" values="0 0 0 0 0 0 0 0 0 0 0 0 0 0 0 0 0 0 0.05 0"/>
<feBlend mode="normal" in2="BackgroundImageFix" result="effect1_dropShadow"/>
<feBlend mode="normal" in="SourceGraphic" in2="effect1_dropShadow" result="shape"/>
</filter>
<linearGradient id="paint0_linear" x1="22.7105" y1="-0.750968" x2="162.71" y2="194.249" gradientUnits="userSpaceOnUse">
<stop stop-color="#275475"/>
<stop offset="1" stop-color="#449ED1"/>
</linearGradient>
<linearGradient id="paint1_linear" x1="-23.3812" y1="-204.169" x2="21.1056" y2="116.755" gradientUnits="userSpaceOnUse">
<stop stop-color="#EF3F93"/>
<stop offset="1" stop-color="#DA6D33"/>
</linearGradient>
</defs>
</svg>
