<svg width="300" height="380" viewBox="0 0 300 380" fill="none" xmlns="http://www.w3.org/2000/svg">
<mask id="mask0" mask-type="alpha" maskUnits="userSpaceOnUse" x="0" y="0" width="300" height="380">
<rect width="300" height="380" transform="matrix(-1 0 0 1 300 0)" fill="#C4C4C4"/>
</mask>
<g mask="url(#mask0)">
<mask id="mask1" mask-type="alpha" maskUnits="userSpaceOnUse" x="20" y="-213" width="581" height="582">
<rect width="424.69" height="424.69" rx="40" transform="matrix(0.5 -0.866025 -0.866025 -0.5 387.792 368.137)" fill="#C4C4C4"/>
</mask>
<g mask="url(#mask1)">
<rect width="424.69" height="424.69" rx="40" transform="matrix(0.5 -0.866025 -0.866025 -0.5 387.792 368.137)" fill="#C0D1FC"/>
<path d="M388.911 194.29C294.022 139.507 234.647 210.057 179.863 304.945C125.079 399.834 157.59 521.167 252.479 575.951C347.367 630.734 468.7 598.223 523.484 503.335C578.268 408.447 483.799 249.074 388.911 194.29Z" fill="url(#paint0_linear)"/>
<circle r="198.39" transform="matrix(0.5 -0.866025 -0.866025 -0.5 54.5728 97.439)" fill="url(#paint1_linear)"/>
<path d="M334.947 -452.364C208.081 -525.611 45.8577 -482.143 -27.3885 -355.277C-99.2326 -230.839 -88.223 -43.8223 31.9445 32.4115C36.5921 35.3599 41.9621 37.077 47.435 37.6603C225.453 56.6317 359.909 34.8955 432.034 -90.0292C505.28 -216.895 461.813 -379.118 334.947 -452.364Z" fill="url(#paint2_linear)"/>
<path d="M426.882 -45.9289C405.219 -58.4358 366.549 -35.6075 322.337 -18.1924C287.89 -4.62372 235.38 14.3898 218.858 42.0813C187.04 95.4116 184.495 118.13 167.119 148.226C126.901 217.887 219.82 245.732 257.263 220.234C369.276 143.959 430.403 172.6 471.421 101.554C512.439 30.5088 497.928 -4.91069 426.882 -45.9289Z" fill="url(#paint3_linear)"/>
<path d="M108.243 -93.1436C13.3542 -147.927 -46.0213 -77.3771 -100.805 17.5113C-155.589 112.4 -123.078 233.733 -28.1894 288.517C66.6989 343.3 188.032 310.789 242.816 215.901C297.6 121.013 203.131 -38.3598 108.243 -93.1436Z" fill="url(#paint4_linear)"/>
<path d="M104.322 146.688L111.22 150.671C113.714 152.111 115.76 152.617 117.358 152.188C119.002 151.682 120.543 150.182 121.983 147.688L142.571 112.029C144.011 109.535 144.517 107.489 144.088 105.891C143.705 104.214 142.266 102.656 139.772 101.216L132.874 97.2339C130.38 95.7939 128.311 95.327 126.668 95.8332C125.07 96.2614 123.551 97.7226 122.111 100.217L101.523 135.875C100.083 138.37 99.555 140.455 99.9382 142.131C100.366 143.729 101.828 145.248 104.322 146.688ZM106.133 164.881L94.4417 158.131C88.2842 154.576 84.4747 150.194 83.0132 144.986C81.5517 139.777 82.5984 134.094 86.1534 127.937L107.551 90.8753C111.106 84.7178 115.504 80.9698 120.746 79.6313C125.987 78.2927 131.687 79.4009 137.844 82.9559L149.535 89.7059C155.615 93.2159 159.363 97.6141 160.78 102.901C162.241 108.109 161.217 113.753 157.707 119.833L136.309 156.894C132.799 162.974 128.401 166.722 123.115 168.138C117.873 169.477 112.212 168.391 106.133 164.881Z" fill="white"/>
<path d="M182.485 150.662L188.447 154.105C191.019 155.59 193.144 156.14 194.82 155.757C196.619 155.341 198.216 153.925 199.611 151.509L202.783 146.014C204.178 143.597 204.584 141.545 204 139.857C203.539 138.136 202.022 136.533 199.45 135.048L193.838 131.808C191.344 130.368 189.275 129.901 187.632 130.407C186.034 130.835 184.537 132.257 183.142 134.674L181.454 137.596C180.509 139.233 179.219 139.579 177.582 138.634L167.644 132.897C166.007 131.952 165.661 130.661 166.606 129.024L168.429 125.867C171.939 119.788 176.315 116.079 181.556 114.74C186.798 113.402 192.497 114.51 198.655 118.065L209.06 124.072C215.217 127.627 219.027 132.009 220.488 137.218C221.95 142.426 220.926 148.07 217.416 154.15L214.041 159.995C210.261 166.543 204.729 169.013 197.447 167.407C202.839 172.287 203.466 178.312 199.326 185.483L195.883 191.445C192.373 197.525 187.997 201.234 182.756 202.572C177.514 203.911 171.815 202.803 165.657 199.248L155.252 193.24C149.095 189.685 145.285 185.303 143.824 180.095C142.362 174.886 143.386 169.242 146.896 163.163L148.786 159.889C149.776 158.174 151.09 157.79 152.727 158.735L162.664 164.472C164.301 165.417 164.624 166.747 163.634 168.462L161.879 171.501C160.439 173.996 159.934 176.042 160.362 177.64C160.79 179.238 162.251 180.757 164.745 182.197L170.357 185.437C172.929 186.922 175.054 187.473 176.73 187.09C178.529 186.674 180.126 185.258 181.521 182.841L184.828 177.113C186.223 174.696 186.629 172.644 186.045 170.956C185.584 169.235 184.067 167.632 181.495 166.147L175.532 162.704C173.895 161.759 173.55 160.468 174.495 158.831L178.545 151.817C179.535 150.102 180.848 149.717 182.485 150.662Z" fill="white"/>
</g>
</g>
<defs>
<linearGradient id="paint0_linear" x1="328.5" y1="289.5" x2="179.863" y2="304.945" gradientUnits="userSpaceOnUse">
<stop stop-color="#D740EF"/>
<stop offset="1" stop-color="#D12462"/>
</linearGradient>
<linearGradient id="paint1_linear" x1="198.39" y1="0" x2="198.39" y2="396.779" gradientUnits="userSpaceOnUse">
<stop stop-color="#DB00FF"/>
<stop offset="1" stop-color="#426BFF"/>
</linearGradient>
<linearGradient id="paint2_linear" x1="192" y1="-3.5" x2="322" y2="-193.5" gradientUnits="userSpaceOnUse">
<stop stop-color="#FF9C41"/>
<stop offset="1" stop-color="#FFEC41"/>
</linearGradient>
<linearGradient id="paint3_linear" x1="430.616" y1="175.963" x2="202.857" y2="-54.4631" gradientUnits="userSpaceOnUse">
<stop stop-color="#EF3F93"/>
<stop offset="1" stop-color="#DA6D33"/>
</linearGradient>
<linearGradient id="paint4_linear" x1="250" y1="224.5" x2="70.6573" y2="72.4041" gradientUnits="userSpaceOnUse">
<stop stop-color="#FF2257"/>
<stop offset="1" stop-color="#C42847"/>
</linearGradient>
</defs>
</svg>
