<svg width="653" height="811" viewBox="0 0 653 811" fill="none" xmlns="http://www.w3.org/2000/svg">
<g filter="url(#filter0_d)">
<mask id="mask0" mask-type="alpha" maskUnits="userSpaceOnUse" x="-268" y="-260" width="521" height="521">
<rect width="424.69" height="424.69" rx="10" transform="matrix(-0.258819 -0.965926 -0.965926 0.258819 252.137 150.219)" fill="#C4C4C4"/>
</mask>
<g mask="url(#mask0)">
<rect width="424.69" height="424.69" rx="10" transform="matrix(-0.258819 -0.965926 -0.965926 0.258819 252.137 150.219)" fill="#C0D1FC"/>
<circle r="117.226" transform="matrix(-0.258819 -0.965926 -0.965926 0.258819 169.499 -78.3217)" fill="url(#paint0_linear)"/>
<path d="M130 26.5C24.1658 54.8582 32.0676 146.73 60.4258 252.564C88.784 358.398 197.568 421.205 303.403 392.847C409.237 364.488 472.043 255.704 443.685 149.87C415.327 44.0356 235.834 -1.85816 130 26.5Z" fill="url(#paint1_linear)"/>
<circle r="198.39" transform="matrix(-0.258819 -0.965926 -0.965926 0.258819 -174.897 194.428)" fill="#A172D3"/>
<path d="M-365.412 -392.596C-506.913 -354.681 -590.886 -209.236 -552.971 -67.7353C-515.237 73.0883 -371.635 199.153 -230.782 162.983C-229.45 162.641 -228.183 161.998 -227.109 161.138C-84.7958 47.3132 -2.78155 -64.0783 -40.5515 -205.038C-78.4665 -346.538 -223.912 -430.511 -365.412 -392.596Z" fill="#EC9341"/>
<path d="M-13.0114 -170.211C-37.1729 -163.737 -48.3752 -120.25 -67.3234 -76.6735C-82.0865 -42.7215 -105.772 7.85331 -97.8739 39.1168C-82.6628 99.3263 -68.3973 117.19 -59.4029 150.758C-38.5842 228.454 46.8086 182.439 55.2558 137.934C80.526 4.79419 144.001 -18.1772 122.769 -97.4182C101.536 -176.659 66.2296 -191.443 -13.0114 -170.211Z" fill="url(#paint2_linear)"/>
</g>
</g>
<g filter="url(#filter1_i)">
<path d="M119.84 144.317L127.533 142.255C130.315 141.51 132.12 140.421 132.947 138.988C133.751 137.468 133.781 135.317 133.035 132.535L122.378 92.7629C121.633 89.9811 120.544 88.1765 119.111 87.3492C117.655 86.4349 115.535 86.3505 112.754 87.0959L105.06 89.1574C102.278 89.9028 100.485 91.0354 99.6812 92.5553C98.8539 93.9883 98.8129 96.0957 99.5583 98.8775L110.215 138.65C110.961 141.431 112.061 143.279 113.518 144.194C114.951 145.021 117.058 145.062 119.84 144.317ZM133.985 155.9L120.945 159.394C114.077 161.235 108.285 160.83 103.569 158.18C98.8522 155.531 95.5738 150.772 93.7336 143.904L82.6575 102.568C80.8173 95.6998 81.2771 89.9395 84.0369 85.2867C86.7967 80.6339 91.6104 77.3873 98.4782 75.5471L111.518 72.0531C118.299 70.2362 124.059 70.696 128.799 73.4325C133.515 76.082 136.782 80.7972 138.599 87.578L149.675 128.915C151.492 135.696 151.032 141.456 148.296 146.196C145.536 150.848 140.766 154.083 133.985 155.9ZM167.825 143.898L164.505 131.51C163.177 126.555 164.178 121.768 167.506 117.149L186.048 90.3776C189.099 86.1129 190.123 82.1114 189.121 78.3733L188.073 74.4613C187.351 71.7664 186.186 70.0285 184.58 69.2478C183.036 68.3569 180.83 68.2957 177.962 69.0644L173.398 70.2873C170.616 71.0327 168.823 72.1654 168.019 73.6853C167.191 75.1182 167.139 77.1822 167.861 79.8771L168.979 84.0499C169.491 85.9624 168.835 87.1633 167.009 87.6524L155.925 90.6224C154.1 91.1116 152.931 90.3999 152.418 88.4873L151.23 84.0537C149.413 77.2729 149.885 71.5561 152.645 66.9033C155.404 62.2505 160.218 59.004 167.086 57.1638L176.996 54.5083C183.864 52.6681 189.656 53.0728 194.373 55.7223C199.089 58.3719 202.356 63.0871 204.173 69.8679L205.57 75.0839C207.387 81.8647 206.282 88.1707 202.254 94.0019L183.329 121.435C182.542 122.671 182.3 123.853 182.603 124.984L183.162 127.07L214.327 118.719C216.153 118.23 217.31 118.898 217.799 120.724L220.245 129.852C220.734 131.677 220.066 132.835 218.241 133.324L171.297 145.903C169.471 146.392 168.314 145.724 167.825 143.898Z" fill="#DFEBFB"/>
</g>
<defs>
<filter id="filter0_d" x="-368" y="-260" width="1020.14" height="1070.14" filterUnits="userSpaceOnUse" color-interpolation-filters="sRGB">
<feFlood flood-opacity="0" result="BackgroundImageFix"/>
<feColorMatrix in="SourceAlpha" type="matrix" values="0 0 0 0 0 0 0 0 0 0 0 0 0 0 0 0 0 0 127 0"/>
<feOffset dx="150" dy="300"/>
<feGaussianBlur stdDeviation="125"/>
<feColorMatrix type="matrix" values="0 0 0 0 0 0 0 0 0 0 0 0 0 0 0 0 0 0 0.05 0"/>
<feBlend mode="normal" in2="BackgroundImageFix" result="effect1_dropShadow"/>
<feBlend mode="normal" in="SourceGraphic" in2="effect1_dropShadow" result="shape"/>
</filter>
<filter id="filter1_i" x="81.5532" y="53.377" width="138.847" height="111.149" filterUnits="userSpaceOnUse" color-interpolation-filters="sRGB">
<feFlood flood-opacity="0" result="BackgroundImageFix"/>
<feBlend mode="normal" in="SourceGraphic" in2="BackgroundImageFix" result="shape"/>
<feColorMatrix in="SourceAlpha" type="matrix" values="0 0 0 0 0 0 0 0 0 0 0 0 0 0 0 0 0 0 127 0" result="hardAlpha"/>
<feOffset dy="4"/>
<feGaussianBlur stdDeviation="3.5"/>
<feComposite in2="hardAlpha" operator="arithmetic" k2="-1" k3="1"/>
<feColorMatrix type="matrix" values="0 0 0 0 0 0 0 0 0 0 0 0 0 0 0 0 0 0 0.06 0"/>
<feBlend mode="normal" in2="shape" result="effect1_innerShadow"/>
</filter>
<linearGradient id="paint0_linear" x1="105.839" y1="93.3593" x2="105.662" y2="241.451" gradientUnits="userSpaceOnUse">
<stop stop-color="#00D1FF"/>
<stop offset="1" stop-color="#654BFF"/>
</linearGradient>
<linearGradient id="paint1_linear" x1="242.5" y1="52" x2="60.4258" y2="252.564" gradientUnits="userSpaceOnUse">
<stop stop-color="#2D3898"/>
<stop offset="1" stop-color="#24D1D1"/>
</linearGradient>
<linearGradient id="paint2_linear" x1="146.53" y1="-15.9498" x2="-177.456" y2="-17.8356" gradientUnits="userSpaceOnUse">
<stop stop-color="#EF3F93"/>
<stop offset="1" stop-color="#DA6D33"/>
</linearGradient>
</defs>
</svg>
