<svg width="29" height="176" viewBox="0 0 29 176" fill="none" xmlns="http://www.w3.org/2000/svg">
<g filter="url(#filter0_i)">
<rect y="126" width="8" height="8" fill="url(#paint0_linear)"/>
<rect x="21" y="147" width="8" height="8" fill="url(#paint1_linear)"/>
<path fill-rule="evenodd" clip-rule="evenodd" d="M6.99382e-07 168L0 176L8 176L8 168L8 147L6.27912e-07 147L6.99382e-07 168Z" fill="url(#paint2_linear)"/>
<rect x="21" y="168" width="8" height="8" fill="url(#paint3_linear)"/>
<path fill-rule="evenodd" clip-rule="evenodd" d="M21 126L21 113L-7.14703e-08 113L6.27912e-07 105L21 105L22 105L29 105L29 126L29 128L29 134L21 134L21 128L21 126Z" fill="url(#paint4_linear)"/>
<rect y="63" width="8" height="8" fill="url(#paint5_linear)"/>
<rect x="21" y="63" width="8" height="8" fill="url(#paint6_linear)"/>
<path fill-rule="evenodd" clip-rule="evenodd" d="M29 84L23 84L21 84L6.99382e-07 84L0 92L21 92L23 92L29 92L29 84Z" fill="url(#paint7_linear)"/>
<rect x="21" y="42" width="8" height="8" fill="url(#paint8_linear)"/>
<path fill-rule="evenodd" clip-rule="evenodd" d="M8 50L8 46L8 42L8 29L29 29L29 23L29 21L29 0L21 -6.99382e-07L2.46379e-06 -2.53526e-06L1.76441e-06 8L21 8L21 21L8 21L7 21L2.53526e-06 21L2.60673e-06 42L2.25704e-06 46L1.90735e-06 50L8 50Z" fill="url(#paint9_linear)"/>
</g>
<defs>
<filter id="filter0_i" x="0" y="0" width="29" height="180" filterUnits="userSpaceOnUse" color-interpolation-filters="sRGB">
<feFlood flood-opacity="0" result="BackgroundImageFix"/>
<feBlend mode="normal" in="SourceGraphic" in2="BackgroundImageFix" result="shape"/>
<feColorMatrix in="SourceAlpha" type="matrix" values="0 0 0 0 0 0 0 0 0 0 0 0 0 0 0 0 0 0 127 0" result="hardAlpha"/>
<feOffset dy="4"/>
<feGaussianBlur stdDeviation="2"/>
<feComposite in2="hardAlpha" operator="arithmetic" k2="-1" k3="1"/>
<feColorMatrix type="matrix" values="0 0 0 0 0 0 0 0 0 0.0983333 0 0 0 0 0.245833 0 0 0 0.15 0"/>
<feBlend mode="normal" in2="shape" result="effect1_innerShadow"/>
</filter>
<linearGradient id="paint0_linear" x1="-1.5" y1="134" x2="17.4148" y2="139.636" gradientUnits="userSpaceOnUse">
<stop stop-color="#FFB800"/>
<stop offset="1" stop-color="#FF7A00"/>
</linearGradient>
<linearGradient id="paint1_linear" x1="30.931" y1="142.5" x2="31.5915" y2="162.843" gradientUnits="userSpaceOnUse">
<stop stop-color="#234FEB"/>
<stop offset="1" stop-color="#23EBEB"/>
</linearGradient>
<linearGradient id="paint2_linear" x1="-1.93103" y1="192.313" x2="-10.5" y2="119.5" gradientUnits="userSpaceOnUse">
<stop stop-color="#234FEB"/>
<stop offset="1" stop-color="#23EBEB"/>
</linearGradient>
<linearGradient id="paint3_linear" x1="30.931" y1="163.5" x2="31.5915" y2="183.843" gradientUnits="userSpaceOnUse">
<stop stop-color="#234FEB"/>
<stop offset="1" stop-color="#23EBEB"/>
</linearGradient>
<linearGradient id="paint4_linear" x1="7" y1="124.938" x2="27.7084" y2="127.506" gradientUnits="userSpaceOnUse">
<stop stop-color="#FF2257"/>
<stop offset="1" stop-color="#C42847"/>
</linearGradient>
<linearGradient id="paint5_linear" x1="6.06897" y1="65.5" x2="0.356298" y2="64.7914" gradientUnits="userSpaceOnUse">
<stop stop-color="#FF2257"/>
<stop offset="1" stop-color="#C42847"/>
</linearGradient>
<linearGradient id="paint6_linear" x1="27.069" y1="65.5" x2="21.3563" y2="64.7914" gradientUnits="userSpaceOnUse">
<stop stop-color="#FF2257"/>
<stop offset="1" stop-color="#C42847"/>
</linearGradient>
<linearGradient id="paint7_linear" x1="7" y1="89.5" x2="24.4909" y2="97.3645" gradientUnits="userSpaceOnUse">
<stop stop-color="#FF2257"/>
<stop offset="1" stop-color="#C42847"/>
</linearGradient>
<linearGradient id="paint8_linear" x1="33.6896" y1="46.1379" x2="15.8967" y2="42.0001" gradientUnits="userSpaceOnUse">
<stop stop-color="#34EB92"/>
<stop offset="1" stop-color="#237FD0"/>
</linearGradient>
<linearGradient id="paint9_linear" x1="-16.9997" y1="24.1379" x2="49.7727" y2="33.1443" gradientUnits="userSpaceOnUse">
<stop stop-color="#34EB92"/>
<stop offset="1" stop-color="#237FD0"/>
</linearGradient>
</defs>
</svg>
