<svg width="425" height="122" viewBox="0 0 425 122" fill="none" xmlns="http://www.w3.org/2000/svg">
<g filter="url(#filter0_i)">
<mask id="mask0" mask-type="alpha" maskUnits="userSpaceOnUse" x="0" y="0" width="425" height="122">
<path fill-rule="evenodd" clip-rule="evenodd" d="M0 0H267.915H267.916H425V12.2878H267.916V109.712H425V122H267.916H0V0ZM29.7396 85.1367V35.2176H47.1252C53.1477 35.2176 57.7156 36.3833 60.8292 38.7147C63.9427 41.0233 65.4995 44.4175 65.4995 48.8974C65.4995 51.343 64.8745 53.503 63.6245 55.3773C62.3747 57.2286 60.6361 58.5886 58.4089 59.4571C60.9542 60.0972 62.9541 61.3885 64.4086 63.3313C65.8859 65.2743 66.6245 67.6513 66.6245 70.4626C66.6245 75.2626 65.1018 78.8967 62.0564 81.3653C59.0111 83.8338 54.6703 85.091 49.0342 85.1367H29.7396ZM39.9665 63.4V76.8739H48.7274C51.1365 76.8739 53.0114 76.3026 54.3522 75.1597C55.7159 73.9941 56.3976 72.3941 56.3976 70.3599C56.3976 65.7885 54.0454 63.4685 49.3411 63.4H39.9665ZM39.9665 56.1315H47.5343C52.6932 56.0402 55.2726 53.9716 55.2726 49.9259C55.2726 47.6631 54.6136 46.0403 53.2954 45.0574C52 44.0517 49.9434 43.5489 47.1252 43.5489H39.9665V56.1315ZM72.1469 66.2457C72.1469 62.5657 72.8514 59.2858 74.2605 56.4058C75.6695 53.5259 77.6921 51.2973 80.3284 49.7202C82.9874 48.1432 86.0667 47.3545 89.5668 47.3545C94.5437 47.3545 98.6 48.8859 101.736 51.9487C104.896 55.0115 106.657 59.1715 107.021 64.4284L107.089 66.9656C107.089 72.6569 105.509 77.2283 102.35 80.6797C99.1909 84.1081 94.953 85.8223 89.6349 85.8223C84.3168 85.8223 80.0671 84.1081 76.8854 80.6797C73.7264 77.2511 72.1469 72.5884 72.1469 66.6913V66.2457ZM81.9987 66.9656C81.9987 70.4855 82.6578 73.1826 83.976 75.0569C85.2941 76.9083 87.1803 77.8339 89.6349 77.8339C92.0208 77.8339 93.8849 76.9197 95.2253 75.0912C96.5666 73.2398 97.2368 70.2912 97.2368 66.2457C97.2368 62.7943 96.5666 60.12 95.2253 58.2229C93.8849 56.3258 91.9981 55.3773 89.5668 55.3773C87.1576 55.3773 85.2941 56.3258 83.976 58.2229C82.6578 60.0972 81.9987 63.0114 81.9987 66.9656ZM111.623 66.2457C111.623 62.5657 112.327 59.2858 113.736 56.4058C115.146 53.5259 117.167 51.2973 119.803 49.7202C122.463 48.1432 125.542 47.3545 129.042 47.3545C134.018 47.3545 138.076 48.8859 141.212 51.9487C144.371 55.0115 146.133 59.1715 146.496 64.4284L146.564 66.9656C146.564 72.6569 144.985 77.2283 141.826 80.6797C138.667 84.1081 134.428 85.8223 129.11 85.8223C123.792 85.8223 119.542 84.1081 116.361 80.6797C113.202 77.2511 111.623 72.5884 111.623 66.6913V66.2457ZM121.474 66.9656C121.474 70.4855 122.134 73.1826 123.451 75.0569C124.77 76.9083 126.657 77.8339 129.11 77.8339C131.497 77.8339 133.36 76.9197 134.701 75.0912C136.042 73.2398 136.712 70.2912 136.712 66.2457C136.712 62.7943 136.042 60.12 134.701 58.2229C133.36 56.3258 131.474 55.3773 129.042 55.3773C126.634 55.3773 124.77 56.3258 123.451 58.2229C122.134 60.0972 121.474 63.0114 121.474 66.9656ZM166.029 70.257L162.485 73.8226V85.1367H152.632V32.4748H162.485V61.6514L164.393 59.1829L173.836 48.0402H185.665L172.336 63.5029L186.824 85.1367H175.505L166.029 70.257ZM190.438 85.1367V48.0402H200.324V85.1367H190.438ZM189.858 38.4405C189.858 36.9548 190.347 35.7318 191.323 34.772C192.324 33.8119 193.676 33.3319 195.38 33.3319C197.062 33.3319 198.402 33.8119 199.402 34.772C200.403 35.7318 200.903 36.9548 200.903 38.4405C200.903 39.9489 200.391 41.1833 199.368 42.1432C198.368 43.1033 197.039 43.5831 195.38 43.5831C193.722 43.5831 192.38 43.1033 191.358 42.1432C190.358 41.1833 189.858 39.9489 189.858 38.4405ZM229.845 85.1367C229.39 84.2453 229.061 83.1368 228.857 81.811C226.47 84.4852 223.367 85.8223 219.55 85.8223C215.937 85.8223 212.936 84.7709 210.55 82.6682C208.186 80.5654 207.004 77.9139 207.004 74.714C207.004 70.7827 208.448 67.7656 211.334 65.6628C214.242 63.5599 218.436 62.4971 223.913 62.4742H228.447V60.3486C228.447 58.6343 228.004 57.263 227.117 56.2344C226.253 55.2058 224.879 54.6915 222.992 54.6915C221.334 54.6915 220.027 55.0915 219.072 55.8916C218.141 56.6914 217.675 57.7886 217.675 59.1829H207.823C207.823 57.0343 208.483 55.0457 209.8 53.2173C211.118 51.3888 212.982 49.9602 215.39 48.9317C217.8 47.8802 220.504 47.3545 223.503 47.3545C228.05 47.3545 231.651 48.5087 234.31 50.8172C236.992 53.103 238.334 56.3259 238.334 60.4857V76.5655C238.357 80.0854 238.845 82.7481 239.799 84.5538V85.1367H229.845ZM221.698 78.2454C223.152 78.2454 224.492 77.9254 225.72 77.2855C226.948 76.6225 227.855 75.7426 228.447 74.6455V68.2684H224.765C219.834 68.2684 217.209 69.9827 216.89 73.4112L216.857 73.9941C216.857 75.2282 217.288 76.2454 218.152 77.0454C219.015 77.8454 220.197 78.2454 221.698 78.2454ZM292.555 85.1368H304.487V35.2178H292.555V85.1368ZM323.202 52.3945L322.827 48.0404H312.054V85.1368H323.542V58.943C324.634 57.1602 326.304 56.2688 328.553 56.2688C330.532 56.2688 331.895 56.7145 332.645 57.6059C333.395 58.4745 333.77 59.8459 333.77 61.7201V85.1368H345.292V61.2401C345.224 56.6003 344.235 53.126 342.326 50.8175C340.44 48.5089 337.576 47.3546 333.736 47.3546C329.259 47.3546 325.747 49.0346 323.202 52.3945ZM371.029 75.6056C370.143 76.4741 368.893 76.9084 367.279 76.9084C365.348 76.9084 363.939 76.1885 363.053 74.7485C362.166 73.3085 361.723 70.7257 361.723 67C361.723 64.8744 361.802 63.2058 361.962 61.9944C362.462 58.1773 364.2 56.2688 367.177 56.2688C368.746 56.2688 369.996 56.7831 370.927 57.8117C371.86 58.8402 372.325 60.3145 372.325 62.2344H383.097C383.097 57.6631 381.688 54.0402 378.871 51.366C376.051 48.6918 372.245 47.3546 367.45 47.3546C363.904 47.3546 360.837 48.1317 358.246 49.686C355.655 51.2175 353.666 53.4231 352.28 56.303C350.916 59.1601 350.235 62.463 350.235 66.2115V66.6915C350.235 72.6799 351.78 77.3655 354.872 80.7483C357.962 84.1312 362.189 85.8224 367.552 85.8224C372.121 85.8224 375.848 84.5198 378.734 81.914C381.643 79.3084 383.097 75.9713 383.097 71.9028H372.325C372.348 73.4799 371.916 74.7141 371.029 75.6056ZM399.597 75.5714C398.391 74.4742 396.882 73.9257 395.062 73.9257C393.222 73.9257 391.699 74.4742 390.495 75.5714C389.313 76.6684 388.722 78.0512 388.722 79.7198C388.722 81.3884 389.313 82.7711 390.495 83.8682C391.699 84.9654 393.222 85.5139 395.062 85.5139C396.882 85.5139 398.391 84.9768 399.597 83.9026C400.801 82.8055 401.403 81.4111 401.403 79.7198C401.403 78.0284 400.801 76.6455 399.597 75.5714Z" fill="#4B617C"/>
</mask>
<g mask="url(#mask0)">
<path d="M446.739 -47.9282H-42.3911V208.054H446.739V-47.9282Z" fill="white"/>
<path d="M14.1305 165.572C71.7603 165.572 118.478 118.753 118.478 61.0001C118.478 3.24693 71.7603 -43.5713 14.1305 -43.5713C-43.4992 -43.5713 -90.2173 3.24693 -90.2173 61.0001C-90.2173 118.753 -43.4992 165.572 14.1305 165.572Z" fill="url(#paint0_linear)"/>
<path d="M255.435 165.572C255.435 223.324 208.718 270.143 151.087 270.143C93.4575 270.143 46.7395 223.324 46.7395 165.572C46.7395 107.818 41.8273 49.0181 99.457 49.0181C157.087 49.0181 255.435 107.818 255.435 165.572Z" fill="url(#paint1_linear)"/>
<path d="M304.348 0.000137329C304.348 57.7533 256.522 139.66 200 104.572C138.587 66.4466 95.6523 57.7533 95.6523 0.000137329C95.6523 -57.753 142.371 -104.571 200 -104.571C257.63 -104.571 304.348 -57.753 304.348 0.000137329Z" fill="url(#paint2_linear)"/>
<path d="M433.696 90.4108C433.696 148.164 386.977 194.982 329.348 194.982C271.719 194.982 204.348 143.786 225 90.4108C250.077 25.5983 271.719 -14.1606 329.348 -14.1606C386.977 -14.1606 377.718 26.6876 433.696 90.4108Z" fill="url(#paint3_linear)"/>
<path d="M343.5 102.5C401.13 102.5 575 27.2534 575 -30.4998C575 -88.2531 528.282 -135.071 470.652 -135.071C413.022 -135.071 366.304 -88.2531 366.304 -30.4998C380.128 -4.11235 294.378 22.058 279.5 46C260.267 76.951 311.006 102.5 343.5 102.5Z" fill="url(#paint4_linear)"/>
</g>
</g>
<defs>
<filter id="filter0_i" x="0" y="0" width="426" height="123" filterUnits="userSpaceOnUse" color-interpolation-filters="sRGB">
<feFlood flood-opacity="0" result="BackgroundImageFix"/>
<feBlend mode="normal" in="SourceGraphic" in2="BackgroundImageFix" result="shape"/>
<feColorMatrix in="SourceAlpha" type="matrix" values="0 0 0 0 0 0 0 0 0 0 0 0 0 0 0 0 0 0 127 0" result="hardAlpha"/>
<feOffset dx="6" dy="6"/>
<feGaussianBlur stdDeviation="0.5"/>
<feComposite in2="hardAlpha" operator="arithmetic" k2="-1" k3="1"/>
<feColorMatrix type="matrix" values="0 0 0 0 0 0 0 0 0 0 0 0 0 0 0 0 0 0 0.28 0"/>
<feBlend mode="normal" in2="shape" result="effect1_innerShadow"/>
</filter>
<linearGradient id="paint0_linear" x1="14.1305" y1="-43.5713" x2="14.1305" y2="165.572" gradientUnits="userSpaceOnUse">
<stop stop-color="#506BB1"/>
<stop offset="1" stop-color="#4CEBF5"/>
</linearGradient>
<linearGradient id="paint1_linear" x1="151.035" y1="49.0181" x2="134" y2="136" gradientUnits="userSpaceOnUse">
<stop stop-color="#FC3434"/>
<stop offset="1" stop-color="#9A4AFF"/>
</linearGradient>
<linearGradient id="paint2_linear" x1="200" y1="-104.571" x2="200" y2="113.02" gradientUnits="userSpaceOnUse">
<stop stop-color="#FFC555"/>
<stop offset="1" stop-color="#FF6230"/>
</linearGradient>
<linearGradient id="paint3_linear" x1="327.443" y1="-14.1606" x2="321.5" y2="138" gradientUnits="userSpaceOnUse">
<stop stop-color="#A172D3"/>
<stop offset="1" stop-color="#4F3EBB"/>
</linearGradient>
<linearGradient id="paint4_linear" x1="425" y1="-7" x2="321" y2="99.5" gradientUnits="userSpaceOnUse">
<stop stop-color="#00FFF0"/>
<stop offset="1" stop-color="#47AAA8"/>
</linearGradient>
</defs>
</svg>
