<svg width="775" height="223" viewBox="0 0 775 223" fill="none" xmlns="http://www.w3.org/2000/svg">
<g filter="url(#filter0_i)">
<mask id="mask0" mask-type="alpha" maskUnits="userSpaceOnUse" x="0" y="0" width="775" height="223">
<path fill-rule="evenodd" clip-rule="evenodd" d="M0.36084 111.132C0.36084 49.7555 50.1163 0 111.493 0H763.447C769.629 0 774.64 5.01135 774.64 11.1932C774.64 17.375 769.629 22.3863 763.447 22.3863H577.205C528.192 22.3863 488.46 62.1189 488.46 111.131C488.46 160.144 528.192 199.877 577.205 199.877H763.447C769.629 199.877 774.64 204.888 774.64 211.07C774.64 217.252 769.629 222.264 763.447 222.264H111.493C50.1162 222.264 0.36084 172.508 0.36084 111.132ZM89.6931 155.105C70.2793 155.105 54.5414 139.367 54.5414 119.953V95.8344C54.5414 78.3414 68.7222 64.1606 86.2152 64.1606C97.1872 64.1606 105.509 66.2844 111.182 70.5318C116.854 74.7376 119.69 80.9213 119.69 89.0829C119.69 93.5385 118.551 97.4736 116.274 100.888C114.141 104.047 114.624 111.653 117.069 114.577C117.286 114.838 117.497 115.105 117.703 115.379C120.394 118.919 121.74 123.249 121.74 128.371C121.74 137.116 118.966 143.737 113.417 148.234C107.869 152.731 99.9611 155.022 89.6931 155.105ZM85.4468 115.504C78.6683 115.504 73.1732 120.999 73.1732 127.778C73.1732 134.556 78.6683 140.052 85.4468 140.052H89.1341C93.5231 140.052 96.9388 139.011 99.3815 136.929C101.866 134.805 103.108 131.89 103.108 128.184C103.108 119.856 98.8226 115.629 90.2521 115.504H85.4468ZM73.1732 90.8006C73.1732 97.1308 78.3048 102.262 84.635 102.262H86.9605C96.359 102.096 101.058 98.3273 101.058 90.9567C101.058 86.8343 99.8577 83.8778 97.4563 82.0872C95.0962 80.2549 91.3494 79.3388 86.2152 79.3388H84.635C78.3048 79.3388 73.1732 84.4704 73.1732 90.8006ZM131.801 120.689C131.801 113.984 133.084 108.009 135.651 102.762C138.218 97.5152 141.903 93.4552 146.706 90.582C151.55 87.7088 157.16 86.2721 163.537 86.2721C172.604 86.2721 179.994 89.0621 185.708 94.6419C191.463 100.222 194.672 107.801 195.335 117.378L195.459 122C195.459 132.369 192.581 140.697 186.826 146.985C181.07 153.231 173.35 156.354 163.661 156.354C153.972 156.354 146.23 153.231 140.433 146.985C134.678 140.739 131.801 132.244 131.801 121.5V120.689ZM149.749 122C149.749 128.413 150.95 133.326 153.351 136.741C155.753 140.114 159.189 141.801 163.661 141.801C168.007 141.801 171.404 140.135 173.846 136.804C176.289 133.431 177.51 128.059 177.51 120.689C177.51 114.401 176.289 109.529 173.846 106.072C171.404 102.616 167.966 100.888 163.537 100.888C159.148 100.888 155.753 102.616 153.351 106.072C150.95 109.487 149.749 114.796 149.749 122ZM203.719 120.689C203.719 113.984 205.002 108.009 207.569 102.762C210.137 97.5152 213.82 93.4552 218.622 90.582C223.468 87.7088 229.078 86.2721 235.455 86.2721C244.52 86.2721 251.913 89.0621 257.626 94.6419C263.38 100.222 266.59 107.801 267.252 117.378L267.376 122C267.376 132.369 264.499 140.697 258.744 146.985C252.99 153.231 245.267 156.354 235.577 156.354C225.89 156.354 218.147 153.231 212.351 146.985C206.596 140.739 203.719 132.244 203.719 121.5V120.689ZM221.666 122C221.666 128.413 222.868 133.326 225.268 136.741C227.67 140.114 231.108 141.801 235.577 141.801C239.926 141.801 243.32 140.135 245.764 136.804C248.207 133.431 249.427 128.059 249.427 120.689C249.427 114.401 248.207 109.529 245.764 106.072C243.32 102.616 239.884 100.888 235.455 100.888C231.066 100.888 227.67 102.616 225.268 106.072C222.868 109.487 221.666 114.796 221.666 122ZM306.538 133.806C304.642 130.827 300.473 130.377 297.983 132.881C296.957 133.913 296.381 135.31 296.381 136.765V146.129C296.381 151.087 292.363 155.105 287.406 155.105C282.449 155.105 278.43 151.087 278.43 146.129V68.1391C278.43 63.1821 282.449 59.1636 287.406 59.1636C292.363 59.1636 296.381 63.1821 296.381 68.1391V106.634C296.381 108.485 298.726 109.286 299.858 107.821L314.621 90.4009C316.169 88.5744 318.441 87.5213 320.835 87.5213C327.806 87.5213 331.556 95.7064 327.005 100.986L320.609 108.405C316.899 112.71 316.519 118.963 319.681 123.685L331.849 141.853C335.637 147.51 331.583 155.105 324.774 155.105C321.865 155.105 319.156 153.619 317.593 151.164L306.538 133.806ZM356.313 155.105C351.339 155.105 347.307 151.073 347.307 146.1V96.5265C347.307 91.5531 351.339 87.5213 356.313 87.5213C361.286 87.5213 365.318 91.5531 365.318 96.5265V146.1C365.318 151.073 361.286 155.105 356.313 155.105ZM346.25 70.0321C346.25 67.3255 347.141 65.0975 348.919 63.3487C350.743 61.5996 353.207 60.7252 356.312 60.7252C359.375 60.7252 361.817 61.5996 363.638 63.3487C365.462 65.0975 366.373 67.3255 366.373 70.0321C366.373 72.7803 365.441 75.0291 363.577 76.7778C361.755 78.527 359.333 79.4011 356.312 79.4011C353.29 79.4011 350.846 78.527 348.983 76.7778C347.161 75.0291 346.25 72.7803 346.25 70.0321ZM420.523 155.105C419.649 155.105 418.903 154.763 418.577 153.953C417.843 152.132 415.25 151.198 413.656 152.343C409.934 155.017 405.497 156.354 400.344 156.354C393.762 156.354 388.295 154.439 383.948 150.608C379.641 146.777 377.488 141.946 377.488 136.116C377.488 128.954 380.118 123.458 385.376 119.627C390.675 115.796 398.315 113.859 408.293 113.818H412.68C414.819 113.818 416.553 112.084 416.553 109.945C416.553 106.822 415.747 104.324 414.131 102.45C412.557 100.576 410.054 99.6388 406.616 99.6388C403.594 99.6388 401.214 100.368 399.473 101.825C396.653 104.25 393.914 107.821 390.194 107.821H387.954C382.998 107.821 378.807 103.574 381.161 99.2126C381.576 98.4451 382.049 97.6919 382.582 96.953C384.984 93.6219 388.378 91.0192 392.766 89.1454C397.156 87.2298 402.083 86.2721 407.547 86.2721C415.83 86.2721 422.391 88.3749 427.234 92.5806C432.122 96.7449 434.565 102.616 434.565 110.195V139.49C434.606 145.782 435.463 150.571 437.138 153.856C437.201 153.98 437.235 154.116 437.235 154.254C437.235 154.724 436.854 155.105 436.384 155.105H420.523ZM404.257 142.55C406.907 142.55 409.349 141.967 411.584 140.801C413.05 140.01 414.265 139.049 415.232 137.919C416.231 136.751 416.553 135.187 416.553 133.651V131.081C416.553 127.377 413.55 124.374 409.846 124.374C400.861 124.374 396.079 127.497 395.499 133.743L395.437 134.805C395.437 137.053 396.224 138.907 397.798 140.364C399.37 141.821 401.523 142.55 404.257 142.55ZM533.348 144.237C533.348 150.239 538.214 155.105 544.217 155.105C550.219 155.105 555.086 150.239 555.086 144.237V75.0296C555.086 69.027 550.219 64.161 544.217 64.161C538.214 64.161 533.348 69.027 533.348 75.0296V144.237ZM593.251 91.222C591.638 92.523 588.854 91.6551 588.677 89.5903C588.576 88.4202 587.597 87.5217 586.422 87.5217H579.107C573.454 87.5217 568.872 92.1041 568.872 97.7567V144.641C568.872 150.42 573.557 155.105 579.337 155.105C585.116 155.105 589.801 150.42 589.801 144.641V117.874C589.801 111.015 591.698 102.687 598.556 102.517C598.68 102.514 598.805 102.512 598.93 102.512C602.534 102.512 605.018 103.324 606.384 104.948C607.75 106.531 608.434 109.029 608.434 112.444V144.609C608.434 150.406 613.133 155.105 618.93 155.105C624.727 155.105 629.426 150.406 629.426 144.609V111.569C629.301 103.116 627.499 96.7867 624.022 92.581C620.586 88.3752 615.368 86.2723 608.372 86.2723C602.383 86.2723 597.343 87.9222 593.251 91.222ZM676.315 137.741C674.701 139.323 672.424 140.114 669.483 140.114C665.964 140.114 663.397 138.803 661.784 136.179C660.168 133.556 659.36 128.85 659.36 122.063C659.36 118.19 659.504 115.15 659.795 112.944C660.706 105.989 663.873 102.512 669.297 102.512C672.154 102.512 674.431 103.449 676.129 105.323C679.337 108.861 682.547 113.381 687.322 113.381H688.487C693.906 113.381 698.552 108.87 696.911 103.706C695.657 99.7585 693.553 96.3834 690.6 93.5804C685.464 88.7084 678.529 86.2723 669.794 86.2723C663.334 86.2723 657.746 87.688 653.025 90.5197C648.306 93.3097 644.682 97.3281 642.157 102.575C639.672 107.78 638.43 113.797 638.43 120.626V121.501C638.43 132.411 641.246 140.947 646.878 147.11C652.508 153.273 660.209 156.354 669.98 156.354C678.303 156.354 685.093 153.981 690.351 149.234C693.173 146.707 695.243 143.802 696.562 140.519C698.568 135.527 693.938 130.995 688.558 130.995H686.024C681.983 130.995 679.165 134.876 676.315 137.741ZM728.36 137.679C726.164 135.68 723.413 134.68 720.098 134.68C716.746 134.68 713.971 135.68 711.777 137.679C709.625 139.677 708.547 142.196 708.547 145.236C708.547 148.276 709.625 150.795 711.777 152.794C713.971 154.793 716.746 155.792 720.098 155.792C723.413 155.792 726.164 154.814 728.36 152.857C730.554 150.858 731.651 148.318 731.651 145.236C731.651 142.155 730.554 139.635 728.36 137.679Z" fill="#4B617C"/>
</mask>
<g mask="url(#mask0)">
<path d="M26.1035 301.644C131.095 301.644 216.208 216.349 216.208 111.132C216.208 5.91564 131.095 -79.3794 26.1035 -79.3794C-78.8883 -79.3794 -164.001 5.91564 -164.001 111.132C-164.001 216.349 -78.8883 301.644 26.1035 301.644Z" fill="url(#paint0_linear)"/>
<path d="M465.72 301.644C465.72 406.861 380.609 492.156 275.616 492.156C170.624 492.156 85.5116 406.861 85.5116 301.644C85.5116 196.428 76.5625 89.3032 181.554 89.3032C286.547 89.3032 465.72 196.428 465.72 301.644Z" fill="url(#paint1_linear)"/>
<path d="M554.831 0.000545502C554.831 105.217 467.7 254.437 364.726 190.512C252.842 121.055 174.622 105.217 174.622 0.000545502C174.622 -105.216 259.735 -190.511 364.726 -190.511C469.718 -190.511 554.831 -105.216 554.831 0.000545502Z" fill="url(#paint2_linear)"/>
<path d="M790.481 164.714C790.481 269.93 705.368 355.226 600.377 355.226C495.386 355.226 372.648 261.954 410.273 164.714C455.959 46.6363 495.386 -25.7979 600.377 -25.7979C705.368 -25.7979 688.498 48.6208 790.481 164.714Z" fill="url(#paint3_linear)"/>
<path d="M626.16 186.738C731.152 186.738 1047.91 49.6514 1047.91 -55.5653C1047.91 -160.782 962.802 -246.077 857.81 -246.077C752.818 -246.077 667.705 -160.782 667.705 -55.5653C692.891 -7.49168 536.667 40.1863 509.562 83.8047C474.523 140.192 566.961 186.738 626.16 186.738Z" fill="url(#paint4_linear)"/>
</g>
</g>
<defs>
<filter id="filter0_i" x="0.36084" y="0" width="775.279" height="223.264" filterUnits="userSpaceOnUse" color-interpolation-filters="sRGB">
<feFlood flood-opacity="0" result="BackgroundImageFix"/>
<feBlend mode="normal" in="SourceGraphic" in2="BackgroundImageFix" result="shape"/>
<feColorMatrix in="SourceAlpha" type="matrix" values="0 0 0 0 0 0 0 0 0 0 0 0 0 0 0 0 0 0 127 0" result="hardAlpha"/>
<feOffset dx="6" dy="6"/>
<feGaussianBlur stdDeviation="0.5"/>
<feComposite in2="hardAlpha" operator="arithmetic" k2="-1" k3="1"/>
<feColorMatrix type="matrix" values="0 0 0 0 0 0 0 0 0 0 0 0 0 0 0 0 0 0 0.28 0"/>
<feBlend mode="normal" in2="shape" result="effect1_innerShadow"/>
</filter>
<linearGradient id="paint0_linear" x1="26.1035" y1="-79.3794" x2="26.1035" y2="301.644" gradientUnits="userSpaceOnUse">
<stop stop-color="#506BB1"/>
<stop offset="1" stop-color="#4CEBF5"/>
</linearGradient>
<linearGradient id="paint1_linear" x1="275.521" y1="89.3032" x2="244.486" y2="247.77" gradientUnits="userSpaceOnUse">
<stop stop-color="#FC3434"/>
<stop offset="1" stop-color="#9A4AFF"/>
</linearGradient>
<linearGradient id="paint2_linear" x1="277.278" y1="-18.2181" x2="452.174" y2="91.092" gradientUnits="userSpaceOnUse">
<stop stop-color="#FFC555"/>
<stop offset="1" stop-color="#FF30A0"/>
</linearGradient>
<linearGradient id="paint3_linear" x1="596.907" y1="-25.7979" x2="586.079" y2="251.414" gradientUnits="userSpaceOnUse">
<stop stop-color="#A172D3"/>
<stop offset="1" stop-color="#4F3EBB"/>
</linearGradient>
<linearGradient id="paint4_linear" x1="774.64" y1="-12.7525" x2="585.169" y2="181.273" gradientUnits="userSpaceOnUse">
<stop stop-color="#00FFF0"/>
<stop offset="1" stop-color="#47AAA8"/>
</linearGradient>
</defs>
</svg>
