<svg width="233" height="233" viewBox="0 0 233 233" fill="none" xmlns="http://www.w3.org/2000/svg">
<mask id="mask0" mask-type="alpha" maskUnits="userSpaceOnUse" x="0" y="0" width="233" height="233">
<path fill-rule="evenodd" clip-rule="evenodd" d="M40 0C17.9086 0 0 17.9086 0 40V107.053V115.053V118.188V192.999C0 215.091 17.9086 232.999 40 232.999H193C215.091 232.999 233 215.091 233 192.999V118.188V115.053V107.053V40C233 17.9086 215.091 0 193 0H40ZM8 192.999V119.688C8 118.86 8.67158 118.188 9.50001 118.188H223.5C224.328 118.188 225 118.86 225 119.688V192.999C225 210.672 210.673 224.999 193 224.999H40C22.3269 224.999 8 210.672 8 192.999ZM48.9159 36.7297C48.804 35.9972 48.1741 35.4561 47.4331 35.4561H40.9596C40.2186 35.4561 39.5887 35.9972 39.4768 36.7297L30.6555 94.5123C30.5169 95.4204 31.2197 96.2387 32.1383 96.2387H37.0423C37.7934 96.2387 38.4286 95.6833 38.5289 94.9389L40.069 83.5059C40.1692 82.7616 40.8045 82.2062 41.5555 82.2062H47.0037C47.757 82.2062 48.3935 82.7649 48.491 83.5119L49.9829 94.933C50.0804 95.68 50.7169 96.2387 51.4702 96.2387H56.2544C57.173 96.2387 57.8758 95.4204 57.7372 94.5123L48.9159 36.7297ZM42.7649 61.6951C42.9816 59.9402 45.5256 59.9402 45.7423 61.6951L47.1961 73.4686C47.3065 74.3631 46.6087 75.1524 45.7074 75.1524H42.7999C41.8985 75.1524 41.2007 74.3631 41.3112 73.4686L42.7649 61.6951ZM72.8891 36.7242C72.7749 35.9942 72.1461 35.4561 71.4072 35.4561H65.4073C64.5866 35.4561 63.9182 36.1157 63.9074 36.9363L63.1451 94.7189C63.134 95.555 63.8088 96.2387 64.6449 96.2387H68.0052C68.8249 96.2387 69.4928 95.5806 69.505 94.761L69.854 71.2755C69.8813 69.4404 72.5489 69.2508 72.8355 71.0636L76.6148 94.9729C76.73 95.7019 77.3583 96.2387 78.0964 96.2387H80.6285C81.3677 96.2387 81.9967 95.7002 82.1106 94.9698L85.8028 71.2893C86.0856 69.4752 88.7548 69.6602 88.7847 71.4959L89.1632 94.7631C89.1765 95.5819 89.8441 96.2387 90.663 96.2387H93.9666C94.8034 96.2387 95.4783 95.5541 95.4665 94.7175L94.6497 36.9349C94.6381 36.1148 93.97 35.4561 93.1498 35.4561H87.3708C86.6349 35.4561 86.0077 35.9899 85.8901 36.7163L80.7839 68.2523C80.5111 69.9372 78.0851 69.9308 77.8212 68.2445L72.8891 36.7242ZM102.912 36.9561C102.912 36.1277 103.584 35.4561 104.412 35.4561H120.887C121.716 35.4561 122.387 36.1277 122.387 36.9561V41.7603C122.387 42.5887 121.716 43.2603 120.887 43.2603H112.833C112.004 43.2603 111.333 43.9319 111.333 44.7603V59.2447C111.333 60.0731 112.004 60.7447 112.833 60.7447H118.539C119.367 60.7447 120.039 61.4162 120.039 62.2447V66.9738C120.039 67.8022 119.367 68.4738 118.539 68.4738H112.833C112.004 68.4738 111.333 69.1454 111.333 69.9738V87.1596C111.333 87.9881 112.004 88.6596 112.833 88.6596H121.002C121.83 88.6596 122.502 89.3312 122.502 90.1596V94.7387C122.502 95.5671 121.83 96.2387 121.002 96.2387H104.412C103.584 96.2387 102.912 95.5671 102.912 94.7387V36.9561ZM136.406 36.9561C136.406 36.1277 135.734 35.4561 134.906 35.4561H129.486C128.657 35.4561 127.986 36.1277 127.986 36.9561V94.7387C127.986 95.5671 128.657 96.2387 129.486 96.2387H146.19C147.018 96.2387 147.69 95.5671 147.69 94.7387V90.1596C147.69 89.3312 147.018 88.6596 146.19 88.6596H137.906C137.077 88.6596 136.406 87.9881 136.406 87.1596V36.9561ZM152.667 36.9561C152.667 36.1277 153.339 35.4561 154.167 35.4561H159.587C160.416 35.4561 161.087 36.1277 161.087 36.9561V87.1596C161.087 87.9881 161.759 88.6596 162.587 88.6596H170.872C171.7 88.6596 172.372 89.3312 172.372 90.1596V94.7387C172.372 95.5671 171.7 96.2387 170.872 96.2387H154.167C153.339 96.2387 152.667 95.5671 152.667 94.7387V36.9561ZM193.524 36.7297C193.413 35.9972 192.783 35.4561 192.042 35.4561H185.568C184.827 35.4561 184.197 35.9972 184.085 36.7297L175.264 94.5123C175.125 95.4204 175.828 96.2387 176.747 96.2387H181.651C182.402 96.2387 183.037 95.6833 183.138 94.9389L184.678 83.5059C184.778 82.7616 185.413 82.2062 186.164 82.2062H191.612C192.366 82.2062 193.002 82.7649 193.1 83.5119L194.591 94.933C194.689 95.68 195.326 96.2387 196.079 96.2387H200.863C201.782 96.2387 202.484 95.4204 202.346 94.5123L193.524 36.7297ZM187.374 61.695C187.59 59.9401 190.134 59.9401 190.351 61.695L191.805 73.4686C191.915 74.3631 191.217 75.1524 190.316 75.1524H187.408C186.507 75.1524 185.809 74.3631 185.92 73.4686L187.374 61.695ZM84.3937 207.382C79.9283 207.382 76.5792 205.803 74.3464 202.644C72.2981 199.692 71.1182 195.384 70.8066 189.718C70.7677 189.011 71.2452 188.383 71.9325 188.214L76.6857 187.039C77.6128 186.81 78.5129 187.495 78.5764 188.448C78.7783 191.477 79.2357 193.866 79.9486 195.612C80.8417 197.651 82.2219 198.67 84.0893 198.67C85.4695 198.67 86.4844 198.16 87.1339 197.141C87.824 196.071 88.1691 194.644 88.1691 192.861C88.1691 190.415 87.7225 188.352 86.8295 186.671C85.977 184.938 84.617 183.053 82.7496 181.015L76.5386 174.213C74.6306 172.175 73.1895 169.984 72.2152 167.64C71.2815 165.296 70.8147 162.494 70.8147 159.233C70.8147 154.393 71.931 150.648 74.1638 147.998C76.4371 145.298 79.5629 143.948 83.5412 143.948C87.8037 143.948 90.8484 145.476 92.6752 148.533C94.3854 151.287 95.4317 154.937 95.8139 159.485C95.8756 160.22 95.3729 160.877 94.6529 161.033L89.9219 162.062C89.0086 162.261 88.1409 161.584 88.0736 160.652C87.8945 158.17 87.5407 156.245 87.0121 154.877C86.4032 153.144 85.1853 152.278 83.3586 152.278C82.0595 152.278 81.0446 152.839 80.3139 153.96C79.5832 155.03 79.2179 156.405 79.2179 158.087C79.2179 160.074 79.5223 161.755 80.1312 163.131C80.7808 164.456 81.8159 165.882 83.2368 167.411L89.3869 174.213C91.7009 176.709 93.5074 179.384 94.8064 182.238C96.1054 185.091 96.755 188.403 96.755 192.173C96.755 195.128 96.2272 197.752 95.1718 200.045C94.1569 202.338 92.7158 204.147 90.8484 205.472C88.981 206.745 86.8295 207.382 84.3937 207.382ZM116.188 207.382C112.616 207.382 109.815 206.567 107.785 204.937C105.755 203.306 104.335 200.988 103.523 197.982C102.711 194.976 102.305 191.154 102.305 186.518V146.136C102.305 145.307 102.976 144.636 103.805 144.636H109.573C110.402 144.636 111.073 145.307 111.073 146.136V187.817C111.073 191.384 111.398 194.135 112.048 196.071C112.738 198.007 114.118 198.975 116.188 198.975C118.299 198.975 119.679 198.007 120.329 196.071C121.019 194.135 121.364 191.384 121.364 187.817V146.136C121.364 145.307 122.036 144.636 122.864 144.636H128.572C129.4 144.636 130.072 145.307 130.072 146.136V186.518C130.072 191.103 129.666 194.925 128.854 197.982C128.042 200.988 126.621 203.306 124.592 204.937C122.562 206.567 119.761 207.382 116.188 207.382ZM144.387 145.653C144.18 145.045 143.609 144.636 142.966 144.636H139.269C138.441 144.636 137.769 145.307 137.769 146.136V205.042C137.769 205.87 138.441 206.542 139.269 206.542H143.942C144.77 206.542 145.442 205.87 145.442 205.042V178.993C145.442 177.286 147.839 176.905 148.368 178.528L157.161 205.506C157.362 206.124 157.938 206.542 158.587 206.542H161.966C162.794 206.542 163.466 205.87 163.466 205.042V146.136C163.466 145.307 162.794 144.636 161.966 144.636H157.537C156.708 144.636 156.037 145.307 156.037 146.136V170.867C156.037 172.563 153.662 172.956 153.117 171.349L144.387 145.653Z" fill="black"/>
</mask>
<g mask="url(#mask0)">
<rect x="-27.6899" y="-27.0146" width="302.534" height="293.995" rx="1.5" fill="url(#paint0_linear)"/>
<g filter="url(#filter0_d)">
<path d="M86.6126 72.5839C86.6126 111.661 58.6738 84.8968 -13.678 166.604C-13.9632 166.926 -14.3889 167.127 -14.8191 167.121C-65.3117 166.421 -106.131 87.9342 -106.131 48.9484C-106.131 9.78787 -64.945 -21.958 -14.1397 -21.958C36.6657 -21.958 86.6126 33.4233 86.6126 72.5839Z" fill="url(#paint1_linear)"/>
</g>
<g filter="url(#filter1_d)">
<path d="M205.552 24.3981C291.781 107.278 216.423 85.3929 165.296 85.3929C114.169 85.3929 94.542 44.9029 94.542 5.48972C94.542 -33.9235 118.3 -103.691 169.427 -103.691C220.554 -103.691 142.728 -35.9867 205.552 24.3981Z" fill="url(#paint2_linear)"/>
</g>
<g filter="url(#filter2_d)">
<path d="M134.483 57.3938C154.226 75.6089 213.499 81.5005 196.403 100.031C179.306 118.562 82.5676 194.49 62.8243 176.275C43.0809 158.06 35.8173 68.6984 52.9138 50.1674C70.0104 31.6365 114.739 39.1787 134.483 57.3938Z" fill="url(#paint3_linear)"/>
</g>
<g filter="url(#filter3_d)">
<path d="M166.631 273.74C128.71 285.376 13.5793 257.398 51.1386 223.799C110.401 170.786 105.793 129.075 143.714 117.44C181.635 105.804 220.654 115.118 236.05 165.296C248.124 204.644 204.551 262.105 166.631 273.74Z" fill="url(#paint4_linear)"/>
</g>
</g>
<defs>
<filter id="filter0_d" x="-120.131" y="-31.958" width="220.743" height="217.079" filterUnits="userSpaceOnUse" color-interpolation-filters="sRGB">
<feFlood flood-opacity="0" result="BackgroundImageFix"/>
<feColorMatrix in="SourceAlpha" type="matrix" values="0 0 0 0 0 0 0 0 0 0 0 0 0 0 0 0 0 0 127 0"/>
<feOffset dy="4"/>
<feGaussianBlur stdDeviation="7"/>
<feColorMatrix type="matrix" values="0 0 0 0 0 0 0 0 0 0 0 0 0 0 0 0 0 0 0.19 0"/>
<feBlend mode="normal" in2="BackgroundImageFix" result="effect1_dropShadow"/>
<feBlend mode="normal" in="SourceGraphic" in2="effect1_dropShadow" result="shape"/>
</filter>
<filter id="filter1_d" x="55.542" y="-138.691" width="228.264" height="269.698" filterUnits="userSpaceOnUse" color-interpolation-filters="sRGB">
<feFlood flood-opacity="0" result="BackgroundImageFix"/>
<feColorMatrix in="SourceAlpha" type="matrix" values="0 0 0 0 0 0 0 0 0 0 0 0 0 0 0 0 0 0 127 0"/>
<feOffset dy="4"/>
<feGaussianBlur stdDeviation="19.5"/>
<feColorMatrix type="matrix" values="0 0 0 0 0 0 0 0 0 0 0 0 0 0 0 0 0 0 0.25 0"/>
<feBlend mode="normal" in2="BackgroundImageFix" result="effect1_dropShadow"/>
<feBlend mode="normal" in="SourceGraphic" in2="effect1_dropShadow" result="shape"/>
</filter>
<filter id="filter2_d" x="-28.3789" y="-20.0112" width="253.874" height="254.802" filterUnits="userSpaceOnUse" color-interpolation-filters="sRGB">
<feFlood flood-opacity="0" result="BackgroundImageFix"/>
<feColorMatrix in="SourceAlpha" type="matrix" values="0 0 0 0 0 0 0 0 0 0 0 0 0 0 0 0 0 0 127 0"/>
<feOffset dy="4"/>
<feGaussianBlur stdDeviation="11.5"/>
<feColorMatrix type="matrix" values="0 0 0 0 0 0 0 0 0 0 0 0 0 0 0 0 0 0 0.37 0"/>
<feBlend mode="normal" in2="BackgroundImageFix" result="effect1_dropShadow"/>
<feBlend mode="normal" in="SourceGraphic" in2="effect1_dropShadow" result="shape"/>
</filter>
<filter id="filter3_d" x="-10.8013" y="70.6636" width="300.29" height="267.567" filterUnits="userSpaceOnUse" color-interpolation-filters="sRGB">
<feFlood flood-opacity="0" result="BackgroundImageFix"/>
<feColorMatrix in="SourceAlpha" type="matrix" values="0 0 0 0 0 0 0 0 0 0 0 0 0 0 0 0 0 0 127 0"/>
<feOffset dy="4"/>
<feGaussianBlur stdDeviation="14.5"/>
<feColorMatrix type="matrix" values="0 0 0 0 0 0 0 0 0 0 0 0 0 0 0 0 0 0 0.39 0"/>
<feBlend mode="normal" in2="BackgroundImageFix" result="effect1_dropShadow"/>
<feBlend mode="normal" in="SourceGraphic" in2="effect1_dropShadow" result="shape"/>
</filter>
<linearGradient id="paint0_linear" x1="-7.42907" y1="66.1854" x2="235.364" y2="146.553" gradientUnits="userSpaceOnUse">
<stop stop-color="#FF8008"/>
<stop offset="0.296875" stop-color="#D31027"/>
<stop offset="0.671875" stop-color="#A4B308"/>
<stop offset="1" stop-color="#1E60C0"/>
</linearGradient>
<linearGradient id="paint1_linear" x1="-22.9007" y1="18.5599" x2="-12.4484" y2="154.165" gradientUnits="userSpaceOnUse">
<stop stop-color="#FF8008"/>
<stop offset="1" stop-color="#FFC837"/>
</linearGradient>
<linearGradient id="paint2_linear" x1="160.61" y1="-62.9115" x2="171.132" y2="73.568" gradientUnits="userSpaceOnUse">
<stop stop-color="#FFE000"/>
<stop offset="1" stop-color="#799F0C"/>
</linearGradient>
<linearGradient id="paint3_linear" x1="70.3934" y1="72.2092" x2="145.079" y2="127.702" gradientUnits="userSpaceOnUse">
<stop stop-color="#D31027"/>
<stop offset="1" stop-color="#EA384D"/>
</linearGradient>
<linearGradient id="paint4_linear" x1="192.919" y1="172.871" x2="65.9127" y2="225.642" gradientUnits="userSpaceOnUse">
<stop stop-color="#1488CC"/>
<stop offset="1" stop-color="#2B32B2"/>
</linearGradient>
</defs>
</svg>
