<svg width="481" height="138" viewBox="0 0 481 138" fill="none" xmlns="http://www.w3.org/2000/svg">
<g filter="url(#filter0_i)">
<mask id="mask0" mask-type="alpha" maskUnits="userSpaceOnUse" x="0" y="0" width="481" height="138">
<path fill-rule="evenodd" clip-rule="evenodd" d="M0.679199 69.1575C0.679199 31.1368 31.501 0.314941 69.5217 0.314941H473.386C477.215 0.314941 480.32 3.41931 480.32 7.24873C480.32 11.0782 477.215 14.1825 473.386 14.1825H358.015C327.653 14.1825 303.04 38.7955 303.04 69.1572C303.04 99.5189 327.653 124.132 358.015 124.132H473.386C477.215 124.132 480.32 127.236 480.32 131.066C480.32 134.895 477.215 138 473.386 138H69.5217C31.501 138 0.679199 107.178 0.679199 69.1575ZM56.0176 96.3973C43.9914 96.3973 34.2423 86.6482 34.2423 74.622V59.6812C34.2423 48.8449 43.0268 40.0603 53.8631 40.0603C60.6599 40.0603 65.8151 41.3759 69.329 44.0071C72.8428 46.6124 74.5996 50.443 74.5996 55.4989C74.5996 58.2589 73.8943 60.6966 72.4836 62.8119C71.1625 64.7688 71.4617 69.4801 72.9757 71.2919C73.1104 71.453 73.2413 71.6185 73.3685 71.7885C75.0357 73.9812 75.8693 76.6639 75.8693 79.8366C75.8693 85.2537 74.1509 89.3551 70.7139 92.141C67.2771 94.9269 62.3783 96.3457 56.0176 96.3973ZM53.3872 71.866C49.1881 71.866 45.784 75.2701 45.784 79.4691C45.784 83.6682 49.1881 87.0722 53.3871 87.0722H55.6713C58.3901 87.0722 60.5061 86.4275 62.0192 85.1376C63.5582 83.8221 64.3276 82.0165 64.3276 79.7207C64.3276 74.5616 61.673 71.9434 56.3639 71.866H53.3872ZM45.784 56.5629C45.784 60.4842 48.9629 63.6631 52.8842 63.6631H54.3248C60.1469 63.5599 63.058 61.2254 63.058 56.6596C63.058 54.1059 62.3142 52.2744 60.8266 51.1652C59.3646 50.0302 57.0436 49.4627 53.8631 49.4627H52.8842C48.9629 49.4627 45.784 52.6416 45.784 56.5629ZM82.1018 75.0775C82.1018 70.9245 82.8968 67.2229 84.4871 63.9726C86.0772 60.7224 88.3598 58.2073 91.335 56.4275C94.3359 54.6477 97.8112 53.7576 101.761 53.7576C107.378 53.7576 111.956 55.4859 115.495 58.9425C119.061 62.3991 121.048 67.0939 121.459 73.0266L121.536 75.89C121.536 82.313 119.753 87.4721 116.188 91.3673C112.623 95.2365 107.84 97.1711 101.838 97.1711C95.8363 97.1711 91.0401 95.2365 87.4495 91.3673C83.8843 87.4978 82.1018 82.2357 82.1018 75.5805V75.0775ZM93.2201 75.89C93.2201 79.8625 93.964 82.9063 95.4516 85.0216C96.9392 87.111 99.0679 88.1557 101.838 88.1557C104.531 88.1557 106.634 87.1239 108.147 85.0603C109.661 82.9708 110.417 79.6432 110.417 75.0775C110.417 71.1824 109.661 68.1643 108.147 66.0233C106.634 63.8823 104.505 62.8119 101.761 62.8119C99.0423 62.8119 96.9392 63.8823 95.4516 66.0233C93.964 68.1386 93.2201 71.4274 93.2201 75.89ZM126.653 75.0775C126.653 70.9245 127.448 67.2229 129.038 63.9726C130.629 60.7224 132.91 58.2073 135.885 56.4275C138.887 54.6477 142.362 53.7576 146.312 53.7576C151.928 53.7576 156.507 55.4859 160.046 58.9425C163.611 62.3991 165.599 67.0939 166.009 73.0266L166.086 75.89C166.086 82.313 164.304 87.4721 160.739 91.3673C157.174 95.2365 152.39 97.1711 146.388 97.1711C140.387 97.1711 135.591 95.2365 132 91.3673C128.435 87.4978 126.653 82.2357 126.653 75.5805V75.0775ZM137.77 75.89C137.77 79.8625 138.515 82.9063 140.002 85.0216C141.49 87.111 143.619 88.1557 146.388 88.1557C149.082 88.1557 151.184 87.1239 152.698 85.0603C154.212 82.9708 154.968 79.6432 154.968 75.0775C154.968 71.1824 154.212 68.1643 152.698 66.0233C151.184 63.8823 149.056 62.8119 146.312 62.8119C143.594 62.8119 141.49 63.8823 140.002 66.0233C138.515 68.1386 137.77 71.4274 137.77 75.89ZM190.346 83.2031C189.171 81.3582 186.588 81.079 185.046 82.6302C184.411 83.2697 184.054 84.1348 184.054 85.0365V90.8373C184.054 93.908 181.565 96.3973 178.494 96.3973C175.423 96.3973 172.934 93.908 172.934 90.8373V42.5249C172.934 39.4542 175.423 36.9649 178.494 36.9649C181.565 36.9649 184.054 39.4542 184.054 42.5249V66.371C184.054 67.5179 185.507 68.014 186.208 67.1067L195.353 56.3153C196.312 55.1839 197.72 54.5315 199.203 54.5315C203.52 54.5315 205.844 59.6019 203.025 62.8723L199.063 67.4684C196.764 70.135 196.529 74.0083 198.488 76.9336L206.025 88.1885C208.372 91.6927 205.86 96.3973 201.643 96.3973C199.84 96.3973 198.162 95.4767 197.194 93.9563L190.346 83.2031ZM221.179 96.3973C218.099 96.3973 215.601 93.8998 215.601 90.8189V60.1099C215.601 57.029 218.099 54.5315 221.179 54.5315C224.26 54.5315 226.758 57.029 226.758 60.1099V90.8189C226.758 93.8998 224.26 96.3973 221.179 96.3973ZM214.946 43.6975C214.946 42.0208 215.498 40.6407 216.6 39.5574C217.729 38.4739 219.255 37.9322 221.179 37.9322C223.077 37.9322 224.589 38.4739 225.718 39.5574C226.847 40.6407 227.412 42.0208 227.412 43.6975C227.412 45.3999 226.834 46.793 225.68 47.8763C224.551 48.9598 223.051 49.5013 221.179 49.5013C219.307 49.5013 217.793 48.9598 216.639 47.8763C215.51 46.793 214.946 45.3999 214.946 43.6975ZM260.956 96.3973C260.415 96.3973 259.952 96.1854 259.75 95.6835C259.296 94.5554 257.689 93.9769 256.702 94.6865C254.396 96.3429 251.647 97.1711 248.456 97.1711C244.378 97.1711 240.991 95.9845 238.299 93.6114C235.631 91.2383 234.297 88.2459 234.297 84.6346C234.297 80.1978 235.926 76.7928 239.183 74.4197C242.466 72.0465 247.198 70.847 253.38 70.8212H256.097C257.422 70.8212 258.496 69.7472 258.496 68.4223C258.496 66.4876 257.997 64.94 256.996 63.7791C256.021 62.6183 254.47 62.0379 252.341 62.0379C250.469 62.0379 248.994 62.4893 247.916 63.3923C246.169 64.8942 244.472 67.1067 242.168 67.1067H240.78C237.71 67.1067 235.114 64.4756 236.573 61.7739C236.829 61.2984 237.123 60.8318 237.452 60.3741C238.94 58.3106 241.043 56.6983 243.761 55.5376C246.481 54.3509 249.533 53.7576 252.917 53.7576C258.049 53.7576 262.113 55.0602 265.113 57.6656C268.141 60.2452 269.654 63.8824 269.654 68.5771V86.7241C269.68 90.6221 270.211 93.5886 271.248 95.6239C271.287 95.7004 271.308 95.7844 271.308 95.8702C271.308 96.1613 271.072 96.3973 270.781 96.3973H260.956ZM250.88 88.62C252.521 88.62 254.034 88.2589 255.419 87.5367C256.327 87.0466 257.079 86.4514 257.678 85.7511C258.297 85.0277 258.496 84.059 258.496 83.1072V81.5151C258.496 79.2205 256.636 77.3603 254.342 77.3603C248.776 77.3603 245.813 79.295 245.454 83.1643L245.416 83.8221C245.416 85.215 245.903 86.3629 246.878 87.2657C247.852 88.1686 249.186 88.62 250.88 88.62ZM330.847 89.6647C330.847 93.3831 333.862 96.3975 337.58 96.3975C341.298 96.3975 344.313 93.3831 344.313 89.6647V46.7933C344.313 43.0749 341.298 40.0606 337.58 40.0606C333.862 40.0606 330.847 43.0749 330.847 46.7933V89.6647ZM367.955 56.8239C366.956 57.6299 365.231 57.0922 365.121 55.8132C365.059 55.0883 364.452 54.5317 363.725 54.5317H359.193C355.692 54.5317 352.853 57.3704 352.853 60.872V89.915C352.853 93.4951 355.755 96.3975 359.336 96.3975C362.916 96.3975 365.818 93.4951 365.818 89.915V73.3343C365.818 69.0848 366.993 63.9259 371.241 63.8208C371.318 63.8189 371.395 63.818 371.473 63.818C373.706 63.818 375.244 64.321 376.09 65.327C376.937 66.3073 377.36 67.855 377.36 69.9702V89.8953C377.36 93.4863 380.271 96.3975 383.862 96.3975C387.453 96.3975 390.364 93.4863 390.364 89.8953V69.4284C390.287 64.1921 389.171 60.2711 387.017 57.6658C384.888 55.0605 381.656 53.7577 377.322 53.7577C373.612 53.7577 370.49 54.7798 367.955 56.8239ZM419.41 85.6408C418.41 86.621 417 87.1111 415.178 87.1111C412.998 87.1111 411.408 86.2986 410.409 84.6736C409.408 83.0484 408.907 80.1335 408.907 75.9289C408.907 73.5299 408.997 71.6468 409.177 70.2797C409.741 65.9719 411.703 63.818 415.063 63.818C416.833 63.818 418.244 64.3983 419.295 65.5592C421.282 67.7508 423.271 70.5505 426.229 70.5505H426.951C430.308 70.5505 433.185 67.7565 432.169 64.5571C431.392 62.112 430.089 60.0213 428.26 58.2849C425.078 55.2669 420.782 53.7577 415.371 53.7577C411.369 53.7577 407.907 54.6348 404.983 56.3889C402.06 58.1172 399.815 60.6065 398.251 63.8566C396.711 67.081 395.942 70.8086 395.942 75.0389V75.5807C395.942 82.3389 397.687 87.627 401.175 91.4447C404.663 95.2625 409.433 97.1712 415.486 97.1712C420.642 97.1712 424.848 95.701 428.105 92.7602C429.853 91.1948 431.136 89.3954 431.953 87.362C433.195 84.2697 430.327 81.4619 426.995 81.4619H425.425C422.921 81.4619 421.176 83.8661 419.41 85.6408ZM451.65 85.6022C450.29 84.364 448.586 83.7449 446.533 83.7449C444.456 83.7449 442.737 84.364 441.378 85.6022C440.045 86.8403 439.377 88.4009 439.377 90.284C439.377 92.1671 440.045 93.7276 441.378 94.9658C442.737 96.204 444.456 96.823 446.533 96.823C448.586 96.823 450.29 96.2169 451.65 95.0045C453.01 93.7664 453.689 92.1928 453.689 90.284C453.689 88.3751 453.01 86.8145 451.65 85.6022Z" fill="#4B617C"/>
</mask>
<g mask="url(#mask0)">
<path d="M16.6262 187.174C81.6651 187.174 134.39 134.336 134.39 69.1578C134.39 3.97953 81.6651 -48.8579 16.6262 -48.8579C-48.4127 -48.8579 -101.137 3.97953 -101.137 69.1578C-101.137 134.336 -48.4127 187.174 16.6262 187.174Z" fill="url(#paint0_linear)"/>
<path d="M288.954 187.174C288.954 252.351 236.231 305.189 171.191 305.189C106.152 305.189 53.4277 252.351 53.4277 187.174C53.4277 121.995 47.8839 55.6353 112.923 55.6353C177.962 55.6353 288.954 121.995 288.954 187.174Z" fill="url(#paint1_linear)"/>
<path d="M344.155 0.315037C344.155 65.4933 290.18 157.93 226.392 118.331C157.083 75.3042 108.628 65.4933 108.628 0.315037C108.628 -64.8632 161.353 -117.701 226.392 -117.701C291.43 -117.701 344.155 -64.8632 344.155 0.315037Z" fill="url(#paint2_linear)"/>
<path d="M490.133 102.35C490.133 167.528 437.408 220.366 372.37 220.366C307.332 220.366 231.299 162.587 254.607 102.35C282.908 29.205 307.332 -15.6655 372.37 -15.6655C437.408 -15.6655 426.958 30.4344 490.133 102.35Z" fill="url(#paint3_linear)"/>
<path d="M388.341 115.993C453.38 115.993 649.604 31.0724 649.604 -34.1058C649.604 -99.2841 596.88 -152.122 531.841 -152.122C466.802 -152.122 414.077 -99.2841 414.077 -34.1058C429.679 -4.32582 332.903 25.2091 316.113 52.2293C294.407 87.1595 351.67 115.993 388.341 115.993Z" fill="url(#paint4_linear)"/>
</g>
</g>
<defs>
<filter id="filter0_i" x="0.679199" y="0.314941" width="480.64" height="138.685" filterUnits="userSpaceOnUse" color-interpolation-filters="sRGB">
<feFlood flood-opacity="0" result="BackgroundImageFix"/>
<feBlend mode="normal" in="SourceGraphic" in2="BackgroundImageFix" result="shape"/>
<feColorMatrix in="SourceAlpha" type="matrix" values="0 0 0 0 0 0 0 0 0 0 0 0 0 0 0 0 0 0 127 0" result="hardAlpha"/>
<feOffset dx="6" dy="6"/>
<feGaussianBlur stdDeviation="0.5"/>
<feComposite in2="hardAlpha" operator="arithmetic" k2="-1" k3="1"/>
<feColorMatrix type="matrix" values="0 0 0 0 0 0 0 0 0 0 0 0 0 0 0 0 0 0 0.28 0"/>
<feBlend mode="normal" in2="shape" result="effect1_innerShadow"/>
</filter>
<linearGradient id="paint0_linear" x1="16.6262" y1="-48.8579" x2="16.6262" y2="187.174" gradientUnits="userSpaceOnUse">
<stop stop-color="#506BB1"/>
<stop offset="1" stop-color="#4CEBF5"/>
</linearGradient>
<linearGradient id="paint1_linear" x1="171.132" y1="55.6353" x2="151.907" y2="153.8" gradientUnits="userSpaceOnUse">
<stop stop-color="#FC3434"/>
<stop offset="1" stop-color="#9A4AFF"/>
</linearGradient>
<linearGradient id="paint2_linear" x1="172.22" y1="-10.9708" x2="280.563" y2="56.7431" gradientUnits="userSpaceOnUse">
<stop stop-color="#FFC555"/>
<stop offset="1" stop-color="#FF30A0"/>
</linearGradient>
<linearGradient id="paint3_linear" x1="370.22" y1="-15.6655" x2="363.513" y2="156.058" gradientUnits="userSpaceOnUse">
<stop stop-color="#A172D3"/>
<stop offset="1" stop-color="#4F3EBB"/>
</linearGradient>
<linearGradient id="paint4_linear" x1="480.32" y1="-7.58472" x2="362.949" y2="112.608" gradientUnits="userSpaceOnUse">
<stop stop-color="#00FFF0"/>
<stop offset="1" stop-color="#47AAA8"/>
</linearGradient>
</defs>
</svg>
