<svg width="155" height="36" viewBox="0 0 155 36" fill="none" xmlns="http://www.w3.org/2000/svg">
<path fill-rule="evenodd" clip-rule="evenodd" d="M0 18.4615C0 8.26551 8.26551 0 18.4615 0H136.538C146.734 0 155 8.26551 155 18.4615C155 28.1478 147.148 36 137.462 36H17.5385C7.85225 36 0 28.1478 0 18.4615ZM129.434 18.0365C129.527 17.69 129.736 17.3922 129.944 17.0955C130.011 16.9991 130.079 16.9027 130.142 16.8049C131.173 15.2148 133.914 10.8855 134.243 9.311C134.378 8.61644 134.081 8 133.377 8L129.833 8C129.161 8 128.842 8.40401 128.614 8.84265C128.548 8.96784 128.49 9.09563 128.432 9.22369L128.432 9.22451L128.431 9.22631C128.405 9.28162 128.38 9.33697 128.354 9.39218C127.891 10.3826 126.212 13.8234 124.234 16.0655C124.114 16.2023 124.009 16.3252 123.914 16.4352L123.914 16.4356L123.914 16.4357C123.419 17.0122 123.229 17.234 122.882 17.234C122.58 17.234 122.58 17.0462 122.583 16.4355C122.583 16.3733 122.584 16.3067 122.584 16.2354V9.48411C122.584 8.53833 122.098 8 121.34 8H115.66C115.227 8 115.025 8.38844 115.025 8.741C115.025 9.07729 115.224 9.33368 115.471 9.65266C115.879 10.1777 116.418 10.8724 116.418 12.3721V17.3448C116.418 18.3455 116.296 18.7339 115.837 18.7339C114.62 18.7339 111.691 14.2974 110.068 9.40706C109.742 8.4085 109.357 8 108.437 8H104.893C104.379 8 104 8.49189 104 9.01967C104 9.99183 105.109 14.5582 109.465 20.5875C112.386 24.644 116.362 26.8712 119.824 26.8712C121.934 26.8712 122.583 26.5429 122.583 25.6257V22.5139C122.583 21.7359 122.745 21.4024 123.178 21.4024C123.665 21.4024 124.456 21.6114 126.465 23.6454C127.341 24.5038 127.908 25.1846 128.338 25.7023C129.079 26.5921 129.419 27 130.239 27H134.216C134.622 27 135 26.7572 135 26.0627C135 25.1454 133.837 23.4829 132.051 21.5375C131.613 20.9376 131.009 20.3032 130.514 19.7835L130.514 19.7832C130.184 19.4371 129.904 19.1419 129.752 18.9419C129.427 18.5906 129.356 18.3253 129.434 18.0365ZM21.248 16.6436C20.8789 17.3877 20.6943 18.2256 20.6943 19.1572V19.2627C20.6943 20.751 21.0957 21.9434 21.8984 22.8398C22.707 23.7305 23.7822 24.1758 25.124 24.1758C26.0029 24.1758 26.7764 23.9736 27.4443 23.5693C28.1182 23.165 28.6338 22.5938 28.9912 21.8555C29.3545 21.1172 29.5361 20.2793 29.5361 19.3418L29.5273 18.8408C29.4629 17.4756 29.0293 16.3799 28.2266 15.5537C27.4297 14.7275 26.3896 14.3145 25.1064 14.3145C24.2393 14.3145 23.4717 14.5166 22.8037 14.9209C22.1357 15.3193 21.6172 15.8936 21.248 16.6436ZM23.4365 21.6445C23.0322 21.0879 22.8301 20.3203 22.8301 19.3418C22.8301 18.2402 23.0352 17.4141 23.4453 16.8633C23.8555 16.3066 24.4092 16.0283 25.1064 16.0283C25.8154 16.0283 26.375 16.3096 26.7852 16.8721C27.2012 17.4346 27.4092 18.1963 27.4092 19.1572C27.4092 20.2412 27.207 21.0645 26.8027 21.627C26.4043 22.1895 25.8447 22.4707 25.124 22.4707C24.4033 22.4707 23.8408 22.1953 23.4365 21.6445ZM34.3075 16.1865H37.3925V14.4902H29.122V16.1865H32.1718V24H34.3075V16.1865ZM39.9491 20.2383H41.0301L43.6668 24H46.4431V27.6562H48.5789V23.1475C49.2058 23.833 50.0408 24.1758 51.0837 24.1758C52.2087 24.1758 53.1052 23.7393 53.7732 22.8662C54.4412 21.9873 54.7752 20.8125 54.7752 19.3418V19.21C54.7752 17.6748 54.4441 16.4766 53.782 15.6152C53.1257 14.748 52.2175 14.3145 51.0574 14.3145C49.9793 14.3145 49.1267 14.6953 48.4998 15.457L48.4119 14.4902H46.4431V23.9986L42.7176 19.043L46.1541 14.4902H43.5174L40.8895 18.2871H39.9491V14.4902H37.8133V24H39.9491V20.2383ZM52.0769 16.8984C52.4578 17.4551 52.6482 18.208 52.6482 19.1572C52.6482 20.2705 52.4548 21.1025 52.0681 21.6533C51.6873 22.1982 51.157 22.4707 50.4773 22.4707C49.5984 22.4707 48.9656 22.1016 48.5789 21.3633V17.1445C48.9597 16.4238 49.5867 16.0635 50.4597 16.0635C51.1628 16.0635 51.7019 16.3418 52.0769 16.8984ZM59.8102 17.5137H57.7184V14.4902H55.5827V24H59.8278C60.9762 23.9941 61.8962 23.6953 62.5876 23.1035C63.279 22.5117 63.6247 21.7266 63.6247 20.748C63.6247 20.1035 63.4723 19.5381 63.1677 19.0518C62.8688 18.5654 62.4294 18.1875 61.8493 17.918C61.2692 17.6484 60.5895 17.5137 59.8102 17.5137ZM65.2067 24H67.3425V14.4902H65.2067V24ZM57.7184 22.2949V19.2275H59.8454C60.3493 19.2334 60.7477 19.377 61.0407 19.6582C61.3395 19.9336 61.4889 20.3115 61.4889 20.792C61.4889 21.2725 61.3366 21.6445 61.0319 21.9082C60.7331 22.166 60.3229 22.2949 59.8014 22.2949H57.7184ZM73.1334 16.1865H76.2184V14.4902H67.9479V16.1865H70.9977V24H73.1334V16.1865ZM80.8667 17.5137H78.7749V14.4902H76.6392V24H80.8843C82.0327 23.9941 82.9527 23.6953 83.6441 23.1035C84.3355 22.5117 84.6812 21.7266 84.6812 20.748C84.6812 20.1035 84.5288 19.5381 84.2241 19.0518C83.9253 18.5654 83.4859 18.1875 82.9058 17.918C82.3257 17.6484 81.646 17.5137 80.8667 17.5137ZM78.7749 22.2949V19.2275H80.9019C81.4058 19.2334 81.8042 19.377 82.0972 19.6582C82.396 19.9336 82.5454 20.3115 82.5454 20.792C82.5454 21.2725 82.3931 21.6445 82.0884 21.9082C81.7896 22.166 81.3794 22.2949 80.8579 22.2949H78.7749ZM88.6957 14.4902V24H93.1517C94.3763 24 95.3138 23.7686 95.9642 23.3057C96.6205 22.8428 96.9486 22.1689 96.9486 21.2842C96.9486 20.751 96.767 20.2881 96.4037 19.8955C96.0404 19.5029 95.5482 19.2422 94.9271 19.1133C95.4603 18.9258 95.8617 18.6592 96.1312 18.3135C96.4066 17.9619 96.5443 17.5664 96.5443 17.127C96.5443 16.2773 96.2045 15.627 95.5248 15.1758C94.8451 14.7188 93.8548 14.4902 92.5541 14.4902H88.6957ZM90.8314 22.3125V19.9482H93.1429C94.2562 19.9482 94.8129 20.3438 94.8129 21.1348C94.8129 21.9199 94.265 22.3125 93.1693 22.3125H90.8314ZM92.5892 18.4189H90.8314V16.1865H92.6859C93.8343 16.21 94.4086 16.5967 94.4086 17.3467C94.4086 18.0615 93.8021 18.4189 92.5892 18.4189Z" fill="white"/>
</svg>
