<svg width="155" height="36" viewBox="0 0 155 36" fill="none" xmlns="http://www.w3.org/2000/svg">
<path fill-rule="evenodd" clip-rule="evenodd" d="M0 18.4615C0 8.26551 8.26551 0 18.4615 0H136.538C146.734 0 155 8.26551 155 18.4615C155 28.1478 147.148 36 137.462 36H17.5385C7.85225 36 0 28.1478 0 18.4615ZM121.434 19.0365C121.527 18.6899 121.736 18.3922 121.944 18.0955L121.944 18.0951C122.011 17.9988 122.079 17.9026 122.142 17.8049C123.173 16.2148 125.914 11.8855 126.243 10.311C126.378 9.61644 126.081 9 125.377 9H121.834C121.161 9 120.842 9.40401 120.614 9.84265C120.548 9.96811 120.49 10.0962 120.432 10.2245L120.431 10.2246C120.406 10.2805 120.381 10.3364 120.354 10.3922C119.891 11.3826 118.212 14.8234 116.234 17.0655C116.114 17.2024 116.009 17.3255 115.914 17.4356C115.419 18.0122 115.229 18.234 114.882 18.234C114.58 18.234 114.58 18.0462 114.583 17.4355C114.583 17.3733 114.584 17.3067 114.584 17.2354V10.4841C114.584 9.53833 114.098 9 113.34 9H107.66C107.227 9 107.025 9.38844 107.025 9.741C107.025 10.0773 107.224 10.3337 107.471 10.6527C107.879 11.1777 108.418 11.8724 108.418 13.3721V18.3448C108.418 19.3455 108.296 19.7339 107.837 19.7339C106.62 19.7339 103.691 15.2974 102.068 10.4071C101.742 9.4085 101.357 9 100.437 9H96.8931C96.3792 9 96 9.49189 96 10.0197C96 10.9918 97.1089 15.5582 101.465 21.5875C104.386 25.644 108.362 27.8712 111.824 27.8712C113.934 27.8712 114.583 27.5429 114.583 26.6257V23.5139C114.583 22.7359 114.745 22.4024 115.178 22.4024C115.665 22.4024 116.456 22.6114 118.465 24.6454C119.341 25.5038 119.907 26.1846 120.338 26.7022L120.338 26.7023C121.079 27.5921 121.419 28 122.239 28H126.216C126.622 28 127 27.7572 127 27.0627C127 26.1454 125.837 24.4829 124.051 22.5375C123.613 21.9376 123.009 21.3032 122.514 20.7836L122.514 20.7835C122.185 20.4372 121.904 20.142 121.752 19.9419C121.427 19.5906 121.356 19.3253 121.434 19.0365ZM30.125 16.6348C29.7617 17.373 29.5801 18.2139 29.5801 19.1572V19.2715C29.5801 20.7832 29.9873 21.9785 30.8018 22.8574C31.6221 23.7363 32.7178 24.1758 34.0889 24.1758C35.46 24.1758 36.5527 23.7363 37.3672 22.8574C38.1816 21.9727 38.5889 20.8008 38.5889 19.3418L38.5713 18.6914C38.4775 17.3438 38.0234 16.2773 37.209 15.4922C36.4004 14.707 35.3545 14.3145 34.0713 14.3145C33.1689 14.3145 32.375 14.5166 31.6895 14.9209C31.0098 15.3252 30.4883 15.8965 30.125 16.6348ZM32.6299 21.416C32.29 20.9355 32.1201 20.2441 32.1201 19.3418C32.1201 18.3281 32.29 17.5811 32.6299 17.1006C32.9697 16.6143 33.4502 16.3711 34.0713 16.3711C34.6982 16.3711 35.1846 16.6143 35.5303 17.1006C35.876 17.5869 36.0488 18.2725 36.0488 19.1572C36.0488 20.1943 35.876 20.9502 35.5303 21.4248C35.1846 21.8936 34.7041 22.1279 34.0889 22.1279C33.4561 22.1279 32.9697 21.8906 32.6299 21.416ZM47.7119 22.8574C48.3799 21.9727 48.7139 20.7979 48.7139 19.333V19.2012C48.7139 17.6777 48.3887 16.4824 47.7383 15.6152C47.0879 14.748 46.1768 14.3145 45.0049 14.3145C44.0146 14.3145 43.2119 14.6836 42.5967 15.4219L42.5088 14.4902H40.1533V27.6562H42.6934V23.1738C43.2852 23.8418 44.0615 24.1758 45.0225 24.1758C46.1533 24.1758 47.0498 23.7363 47.7119 22.8574ZM45.6992 17.1006C46.0156 17.5811 46.1738 18.2637 46.1738 19.1484C46.1738 21.1348 45.5674 22.1279 44.3545 22.1279C43.5576 22.1279 43.0039 21.8145 42.6934 21.1875V17.2939C42.9922 16.6846 43.54 16.3799 44.3369 16.3799C44.9346 16.3799 45.3887 16.6201 45.6992 17.1006ZM51.2627 22.8926C52.1416 23.748 53.2783 24.1758 54.6729 24.1758C55.4639 24.1758 56.1846 24.0264 56.835 23.7275C57.4854 23.4229 58.001 23.001 58.3818 22.4619L57.1338 21.0645C56.583 21.7734 55.8184 22.1279 54.8398 22.1279C54.207 22.1279 53.6826 21.9404 53.2666 21.5654C52.8564 21.1904 52.6104 20.6924 52.5283 20.0713H58.584V19.0342C58.584 17.5283 58.209 16.3652 57.459 15.5449C56.7148 14.7246 55.6924 14.3145 54.3916 14.3145C53.5244 14.3145 52.751 14.5195 52.0713 14.9297C51.3975 15.334 50.876 15.9141 50.5068 16.6699C50.1377 17.4199 49.9531 18.2725 49.9531 19.2275V19.4736C49.9531 20.8975 50.3896 22.0371 51.2627 22.8926ZM53.1523 16.8809C53.4688 16.541 53.8789 16.3711 54.3828 16.3711C54.9219 16.3711 55.3379 16.5264 55.6309 16.8369C55.9238 17.1416 56.0762 17.5752 56.0879 18.1377V18.3398H52.5547C52.6426 17.707 52.8418 17.2207 53.1523 16.8809ZM62.4512 15.5889L62.3721 14.4902H59.9814V24H62.5215V17.2939C62.8789 16.6846 63.415 16.3799 64.1299 16.3799C64.6748 16.3799 65.0645 16.5029 65.2988 16.749C65.5332 16.9893 65.6504 17.3789 65.6504 17.918V24H68.1904V17.8564C68.1787 16.6787 67.9268 15.7939 67.4346 15.2021C66.9424 14.6104 66.1924 14.3145 65.1846 14.3145C64.042 14.3145 63.1309 14.7393 62.4512 15.5889ZM74.7383 24H77.2871V14.4902H74.7383V24ZM74.9668 11.0889C74.7148 11.335 74.5889 11.6484 74.5889 12.0293C74.5889 12.416 74.7178 12.7324 74.9756 12.9785C75.2393 13.2246 75.585 13.3477 76.0127 13.3477C76.4404 13.3477 76.7832 13.2246 77.041 12.9785C77.3047 12.7324 77.4365 12.416 77.4365 12.0293C77.4365 11.6484 77.3076 11.335 77.0498 11.0889C76.792 10.8428 76.4463 10.7197 76.0127 10.7197C75.5732 10.7197 75.2246 10.8428 74.9668 11.0889ZM81.8047 15.5889L81.7256 14.4902H79.335V24H81.875V17.2939C82.2324 16.6846 82.7686 16.3799 83.4834 16.3799C84.0283 16.3799 84.418 16.5029 84.6523 16.749C84.8867 16.9893 85.0039 17.3789 85.0039 17.918V24H87.5439V17.8564C87.5322 16.6787 87.2803 15.7939 86.7881 15.2021C86.2959 14.6104 85.5459 14.3145 84.5381 14.3145C83.3955 14.3145 82.4844 14.7393 81.8047 15.5889Z" fill="white"/>
</svg>
