<svg width="38" height="151" viewBox="0 0 38 151" fill="none" xmlns="http://www.w3.org/2000/svg">
<path fill-rule="evenodd" clip-rule="evenodd" d="M4.8215 9.643C7.48434 9.643 9.643 7.48434 9.643 4.8215C9.643 2.15866 7.48434 0 4.8215 0C2.15866 0 0 2.15866 0 4.8215C0 7.48434 2.15866 9.643 4.8215 9.643ZM4.8215 65.8938C7.48434 65.8938 9.643 63.7352 9.643 61.0723C9.643 58.4095 7.48434 56.2508 4.8215 56.2508C2.15866 56.2508 0 58.4095 0 61.0723C0 63.7352 2.15866 65.8938 4.8215 65.8938ZM9.643 117.323C9.643 119.986 7.48434 122.145 4.8215 122.145C2.15866 122.145 0 119.986 0 117.323C0 114.66 2.15866 112.502 4.8215 112.502C7.48434 112.502 9.643 114.66 9.643 117.323ZM4.8215 37.7684C7.48434 37.7684 9.643 35.6098 9.643 32.9469C9.643 30.2841 7.48434 28.1254 4.8215 28.1254C2.15866 28.1254 0 30.2841 0 32.9469C0 35.6098 2.15866 37.7684 4.8215 37.7684ZM9.643 89.1977C9.643 91.8606 7.48434 94.0192 4.8215 94.0192C2.15866 94.0192 0 91.8606 0 89.1977C0 86.5349 2.15866 84.3762 4.8215 84.3762C7.48434 84.3762 9.643 86.5349 9.643 89.1977ZM4.8215 150.27C7.48434 150.27 9.643 148.111 9.643 145.449C9.643 142.786 7.48434 140.627 4.8215 140.627C2.15866 140.627 0 142.786 0 145.449C0 148.111 2.15866 150.27 4.8215 150.27ZM37.7684 32.9469C37.7684 35.6098 35.6098 37.7684 32.9469 37.7684C30.2841 37.7684 28.1254 35.6098 28.1254 32.9469C28.1254 30.2841 30.2841 28.1254 32.9469 28.1254C35.6098 28.1254 37.7684 30.2841 37.7684 32.9469ZM32.9469 94.0192C35.6098 94.0192 37.7684 91.8606 37.7684 89.1977C37.7684 86.5349 35.6098 84.3762 32.9469 84.3762C30.2841 84.3762 28.1254 86.5349 28.1254 89.1977C28.1254 91.8606 30.2841 94.0192 32.9469 94.0192ZM37.7684 145.449C37.7684 148.111 35.6098 150.27 32.9469 150.27C30.2841 150.27 28.1254 148.111 28.1254 145.449C28.1254 142.786 30.2841 140.627 32.9469 140.627C35.6098 140.627 37.7684 142.786 37.7684 145.449ZM32.9469 9.643C35.6098 9.643 37.7684 7.48434 37.7684 4.8215C37.7684 2.15866 35.6098 0 32.9469 0C30.2841 0 28.1254 2.15866 28.1254 4.8215C28.1254 7.48434 30.2841 9.643 32.9469 9.643ZM37.7684 61.0723C37.7684 63.7352 35.6098 65.8938 32.9469 65.8938C30.2841 65.8938 28.1254 63.7352 28.1254 61.0723C28.1254 58.4095 30.2841 56.2508 32.9469 56.2508C35.6098 56.2508 37.7684 58.4095 37.7684 61.0723ZM32.9469 122.145C35.6098 122.145 37.7684 119.986 37.7684 117.323C37.7684 114.66 35.6098 112.502 32.9469 112.502C30.2841 112.502 28.1254 114.66 28.1254 117.323C28.1254 119.986 30.2841 122.145 32.9469 122.145Z" fill="#0D153D"/>
</svg>
