<svg width="185" height="219" viewBox="0 0 185 219" fill="none" xmlns="http://www.w3.org/2000/svg">
<mask id="mask0" mask-type="alpha" maskUnits="userSpaceOnUse" x="0" y="0" width="185" height="219">
<rect width="185" height="219" transform="matrix(-1 0 0 1 185 0)" fill="#C4C4C4"/>
</mask>
<g mask="url(#mask0)">
<g filter="url(#filter0_d)">
<mask id="mask1" mask-type="alpha" maskUnits="userSpaceOnUse" x="-85" y="-2" width="598" height="598">
<rect width="424.69" height="424.69" rx="15" transform="matrix(-0.634035 0.773304 0.773304 0.634035 184.585 -2)" fill="#C4C4C4"/>
</mask>
<g mask="url(#mask1)">
<rect width="424.69" height="424.69" rx="15" transform="matrix(-0.634035 0.773304 0.773304 0.634035 184.585 -2)" fill="#E0EBFF"/>
<circle r="117.226" transform="matrix(-0.634035 0.773304 0.773304 0.634035 47.0447 198.355)" fill="url(#paint0_linear)"/>
<circle r="198.39" transform="matrix(-0.634035 0.773304 0.773304 0.634035 226.073 -31.6583)" fill="url(#paint1_linear)"/>
<circle r="161.805" transform="matrix(-0.634035 0.773304 0.773304 0.634035 -84.5569 357.88)" fill="#4C83B6"/>
<path d="M103.448 816.189C216.731 909.07 383.86 892.531 476.742 779.248C568.956 666.778 587.826 477.255 477.231 383.645C475.655 382.311 473.766 381.333 471.779 380.776C296.818 331.757 158.855 330.262 66.5068 442.895C-26.3745 556.178 -9.83553 723.307 103.448 816.189Z" fill="#EC9341"/>
<path d="M78.7544 400.217C98.0978 416.077 139.963 399.834 186.417 389.831C222.61 382.039 277.511 371.807 298.312 347.167C338.371 299.714 344.572 277.71 366.606 250.836C417.606 188.633 330.444 146.065 289.356 165.142C166.441 222.209 110.778 184.019 58.764 247.458C6.75007 310.897 15.3153 348.203 78.7544 400.217Z" fill="url(#paint2_linear)"/>
</g>
</g>
</g>
<defs>
<filter id="filter0_d" x="-184.683" y="-2" width="1097.68" height="1147.68" filterUnits="userSpaceOnUse" color-interpolation-filters="sRGB">
<feFlood flood-opacity="0" result="BackgroundImageFix"/>
<feColorMatrix in="SourceAlpha" type="matrix" values="0 0 0 0 0 0 0 0 0 0 0 0 0 0 0 0 0 0 127 0"/>
<feOffset dx="150" dy="300"/>
<feGaussianBlur stdDeviation="125"/>
<feColorMatrix type="matrix" values="0 0 0 0 0 0 0 0 0 0 0 0 0 0 0 0 0 0 0.05 0"/>
<feBlend mode="normal" in2="BackgroundImageFix" result="effect1_dropShadow"/>
<feBlend mode="normal" in="SourceGraphic" in2="effect1_dropShadow" result="shape"/>
</filter>
<linearGradient id="paint0_linear" x1="117.226" y1="0" x2="117.226" y2="234.452" gradientUnits="userSpaceOnUse">
<stop stop-color="#E3B167"/>
<stop offset="1" stop-color="#FF2525"/>
</linearGradient>
<linearGradient id="paint1_linear" x1="356.373" y1="166.829" x2="325.741" y2="259.391" gradientUnits="userSpaceOnUse">
<stop stop-color="#67C8FF"/>
<stop offset="1" stop-color="#314BD0"/>
</linearGradient>
<linearGradient id="paint2_linear" x1="111.114" y1="180.666" x2="298.418" y2="445.029" gradientUnits="userSpaceOnUse">
<stop stop-color="#EF3F93"/>
<stop offset="1" stop-color="#DA6D33"/>
</linearGradient>
</defs>
</svg>
