<svg width="29" height="176" viewBox="0 0 29 176" fill="none" xmlns="http://www.w3.org/2000/svg">
<g filter="url(#filter0_i)">
<path fill-rule="evenodd" clip-rule="evenodd" d="M24.9781 63.0001L21 63.0001V67L21 84L4 84H0.000490464L0.000490638 87.9367C0.000163947 87.9578 0 87.9789 0 88C0 88.0211 0.000163948 88.0422 0.000490643 88.0633L0.000490816 92H0.000978736L0.000978736 108.911C0.000329818 108.94 3.67176e-06 108.97 3.67176e-06 109C3.67176e-06 109.03 0.000329818 109.06 0.000978736 109.089L0.000978736 113H8.00098L8.00098 92L25 92H29.0005V84H29L29 67L29 63.0001L25.0219 63.0001C25.0146 63 25.0073 63 25 63C24.9927 63 24.9854 63 24.9781 63.0001Z" fill="url(#paint0_linear)"/>
<path fill-rule="evenodd" clip-rule="evenodd" d="M24.9977 126C24.9986 126 24.9996 126 25.0005 126C25.0014 126 25.0023 126 25.0033 126L29.0005 126L29.0005 130L29.0005 134L25.0005 134L4.00049 134L0.000488281 134L0.000487932 130L0.000487582 126L24.9977 126Z" fill="url(#paint1_linear)"/>
<ellipse cx="4" cy="46" rx="4" ry="4" fill="#EB2351"/>
<ellipse cx="4" cy="67" rx="4" ry="4" fill="#EB2351"/>
<path fill-rule="evenodd" clip-rule="evenodd" d="M25 29L29.0005 29L29.0005 8L29.0005 4L29.0005 0L25.0015 3.49606e-07L25 3.49734e-07L24.9985 3.49862e-07L4.00366 4.09264e-06L4 2.18561e-06L3.99633 4.09328e-06L0.000485746 4.44261e-06L0.00048609 3.93686C0.000161843 3.95787 -2.18741e-06 3.97892 -2.18557e-06 4C-2.18373e-06 4.02109 0.00016185 4.04214 0.000486101 4.06315L0.000486445 8L0.000489833 24.9368C0.000163679 24.9578 -3.51538e-07 24.9789 -3.49691e-07 25C-3.47845e-07 25.0211 0.000163686 25.0422 0.000489844 25.0632L0.000490189 29L4 29L8.00049 29L8.00048 8L21.0005 8L21.0005 24.9369C21.0002 24.9579 21 24.9789 21 25C21 25.0211 21.0002 25.0421 21.0005 25.0631L21.0005 29L25 29Z" fill="url(#paint2_linear)"/>
<path fill-rule="evenodd" clip-rule="evenodd" d="M29.0005 176L29.0005 147L25 147H21.0005V150.937C21.0002 150.958 21 150.979 21 151C21 151.021 21.0002 151.042 21.0005 151.063L21.0005 168L4.00362 168L4 168L3.99638 168H0L0 172L0 176L4 176L21.0005 176L25 176C25.0013 176 25.0026 176 25.0039 176H29.0005Z" fill="url(#paint3_linear)"/>
<rect x="8.00049" y="71" width="8" height="29" transform="rotate(180 8.00049 71)" fill="url(#paint4_linear)"/>
<rect x="29.0005" y="50" width="8" height="8" transform="rotate(180 29.0005 50)" fill="#EB2351"/>
<rect x="29.0005" y="50" width="8" height="8" transform="rotate(180 29.0005 50)" fill="url(#paint5_linear)"/>
<rect x="29.0005" y="113" width="8" height="8" transform="rotate(180 29.0005 113)" fill="url(#paint6_linear)"/>
<rect x="8.00049" y="155" width="8" height="8" transform="rotate(180 8.00049 155)" fill="#EB2351"/>
</g>
<defs>
<filter id="filter0_i" x="0" y="0" width="29.0005" height="180" filterUnits="userSpaceOnUse" color-interpolation-filters="sRGB">
<feFlood flood-opacity="0" result="BackgroundImageFix"/>
<feBlend mode="normal" in="SourceGraphic" in2="BackgroundImageFix" result="shape"/>
<feColorMatrix in="SourceAlpha" type="matrix" values="0 0 0 0 0 0 0 0 0 0 0 0 0 0 0 0 0 0 127 0" result="hardAlpha"/>
<feOffset dy="4"/>
<feGaussianBlur stdDeviation="2"/>
<feComposite in2="hardAlpha" operator="arithmetic" k2="-1" k3="1"/>
<feColorMatrix type="matrix" values="0 0 0 0 0 0 0 0 0 0 0 0 0 0 0 0 0 0 0.15 0"/>
<feBlend mode="normal" in2="shape" result="effect1_innerShadow"/>
</filter>
<linearGradient id="paint0_linear" x1="29.0001" y1="55.0455" x2="-1.92472" y2="116.97" gradientUnits="userSpaceOnUse">
<stop stop-color="#00D1FF"/>
<stop offset="1" stop-color="#1B91FF"/>
</linearGradient>
<linearGradient id="paint1_linear" x1="39.5" y1="130" x2="28.6435" y2="112.366" gradientUnits="userSpaceOnUse">
<stop stop-color="#FF9900"/>
<stop offset="1" stop-color="#FFD600"/>
</linearGradient>
<linearGradient id="paint2_linear" x1="-17" y1="14" x2="47.5" y2="29" gradientUnits="userSpaceOnUse">
<stop stop-color="#34EB92"/>
<stop offset="1" stop-color="#237FD0"/>
</linearGradient>
<linearGradient id="paint3_linear" x1="29" y1="150" x2="3.02678e-06" y2="173.5" gradientUnits="userSpaceOnUse">
<stop stop-color="#F52354"/>
<stop offset="1" stop-color="#CC2749"/>
</linearGradient>
<linearGradient id="paint4_linear" x1="20.6901" y1="86" x2="2.01184" y2="84.8017" gradientUnits="userSpaceOnUse">
<stop stop-color="#34EB92"/>
<stop offset="1" stop-color="#237FD0"/>
</linearGradient>
<linearGradient id="paint5_linear" x1="41.6901" y1="54.1379" x2="23.8972" y2="50.0001" gradientUnits="userSpaceOnUse">
<stop stop-color="#34EB92"/>
<stop offset="1" stop-color="#237FD0"/>
</linearGradient>
<linearGradient id="paint6_linear" x1="37.0004" y1="111.727" x2="33.6923" y2="123.148" gradientUnits="userSpaceOnUse">
<stop stop-color="#00D1FF"/>
<stop offset="1" stop-color="#1B91FF"/>
</linearGradient>
</defs>
</svg>
