<svg width="303" height="280" viewBox="0 0 303 280" fill="none" xmlns="http://www.w3.org/2000/svg">
<mask id="mask0" mask-type="alpha" maskUnits="userSpaceOnUse" x="0" y="0" width="303" height="280">
<rect width="303" height="280" fill="#C4C4C4"/>
</mask>
<g mask="url(#mask0)">
<mask id="mask1" mask-type="alpha" maskUnits="userSpaceOnUse" x="-9" y="42" width="547" height="547">
<rect width="424.69" height="424.69" rx="40" transform="matrix(-0.35104 0.936361 0.936361 0.35104 140.083 42)" fill="#C4C4C4"/>
</mask>
<g mask="url(#mask1)">
<rect width="424.69" height="424.69" rx="40" transform="matrix(-0.35104 0.936361 0.936361 0.35104 140.083 42)" fill="#C4C4C4"/>
<circle r="117.226" transform="matrix(-0.35104 0.936361 0.936361 0.35104 74.4376 275.988)" fill="url(#paint0_linear)"/>
<circle r="198.39" transform="matrix(-0.35104 0.936361 0.936361 0.35104 169.801 0.555085)" fill="url(#paint1_linear)"/>
<circle r="161.805" transform="matrix(-0.35104 0.936361 0.936361 0.35104 1.25839 469.409)" fill="url(#paint2_linear)"/>
<circle r="198.39" transform="matrix(-0.35104 0.936361 0.936361 0.35104 513.222 254.32)" fill="url(#paint3_linear)"/>
<path d="M327.27 842.554C464.44 893.979 617.326 824.469 668.75 687.299C719.191 552.755 677.628 370.083 546.575 314.611C541.507 312.466 535.928 311.654 530.433 311.977C351.716 322.488 222.653 366.003 172.015 501.074C120.59 638.244 190.1 791.13 327.27 842.554Z" fill="url(#paint4_linear)"/>
<path d="M155.381 463.618C178.803 472.399 213.202 443.532 253.955 419.095C285.707 400.055 334.383 372.679 346.134 342.651C368.766 284.82 367.546 261.992 379.745 229.452C407.982 154.133 277.261 133.298 244.511 164.597C146.54 258.226 116.033 248.632 87.2345 325.448C58.4364 402.264 78.5658 434.82 155.381 463.618Z" fill="url(#paint5_linear)"/>
</g>
</g>
<defs>
<linearGradient id="paint0_linear" x1="137.049" y1="64.3843" x2="107.981" y2="251.594" gradientUnits="userSpaceOnUse">
<stop stop-color="#39D0FF"/>
<stop offset="1" stop-color="#7996FB"/>
</linearGradient>
<linearGradient id="paint1_linear" x1="213.152" y1="420.934" x2="418.067" y2="146.395" gradientUnits="userSpaceOnUse">
<stop stop-color="#6046FF"/>
<stop offset="1" stop-color="#00C2FF"/>
</linearGradient>
<linearGradient id="paint2_linear" x1="65.8197" y1="114.155" x2="161.805" y2="323.609" gradientUnits="userSpaceOnUse">
<stop stop-color="#4AB2DE"/>
<stop offset="1" stop-color="#004788"/>
</linearGradient>
<linearGradient id="paint3_linear" x1="198.39" y1="0" x2="198.39" y2="396.78" gradientUnits="userSpaceOnUse">
<stop stop-color="#7C00FF"/>
<stop offset="1" stop-color="#00FFF0"/>
</linearGradient>
<linearGradient id="paint4_linear" x1="222.746" y1="396" x2="303.746" y2="562" gradientUnits="userSpaceOnUse">
<stop stop-color="#FF4242"/>
<stop offset="1" stop-color="#FFF500"/>
</linearGradient>
<linearGradient id="paint5_linear" x1="-82" y1="557.5" x2="493" y2="95.9999" gradientUnits="userSpaceOnUse">
<stop stop-color="#39F3FF"/>
<stop offset="1" stop-color="#8836C4"/>
</linearGradient>
</defs>
</svg>
