<svg width="29" height="176" viewBox="0 0 29 176" fill="none" xmlns="http://www.w3.org/2000/svg">
<g filter="url(#filter0_i)">
<path fill-rule="evenodd" clip-rule="evenodd" d="M4.02241 113L8.00049 113L8.00049 109L8.00049 92L25.0005 92L29 92L29 88.0633C29.0003 88.0422 29.0005 88.0211 29.0005 88C29.0005 87.9789 29.0003 87.9578 29 87.9367L29 84L28.9995 84L28.9995 67.0892C29.0002 67.0596 29.0005 67.0298 29.0005 67C29.0005 66.9702 29.0002 66.9404 28.9995 66.9108L28.9995 62.9999L20.9995 62.9999L20.9995 84L4.00049 84L6.27912e-07 84L-7.14705e-08 92L0.00048821 92L0.000488631 109L0.000484467 113L3.97857 113C3.98587 113 3.99318 113 4.00049 113C4.0078 113 4.0151 113 4.02241 113Z" fill="url(#paint0_linear)"/>
<path fill-rule="evenodd" clip-rule="evenodd" d="M4.00279 50C4.00186 50 4.00093 50 4 50C3.99907 50 3.99814 50 3.99721 50H0V46V42H4H25H29V46V50H4.00279Z" fill="url(#paint1_linear)"/>
<ellipse cx="25.0005" cy="130" rx="4" ry="4" transform="rotate(-180 25.0005 130)" fill="#EB2351"/>
<ellipse cx="25.0005" cy="109" rx="4" ry="4" transform="rotate(-180 25.0005 109)" fill="#EB2351"/>
<path fill-rule="evenodd" clip-rule="evenodd" d="M4.00049 147H0V168V172V176H3.99902H4.00049H4.00195L24.9968 176L25.0005 176L25.0042 176H29V172.063C29.0003 172.042 29.0005 172.021 29.0005 172C29.0005 171.979 29.0003 171.958 29 171.937V168L29 151.063C29.0003 151.042 29.0005 151.021 29.0005 151C29.0005 150.979 29.0003 150.958 29 150.937V147H25.0005H21L21 168L8 168V151.063C8.00033 151.042 8.00049 151.021 8.00049 151C8.00049 150.979 8.00033 150.958 8 150.937V147H4.00049Z" fill="url(#paint2_linear)"/>
<path fill-rule="evenodd" clip-rule="evenodd" d="M-1.27944e-06 -2.5353e-06L0 29L4.00049 29L8 29L8 25.0633C8.00033 25.0422 8.00049 25.0211 8.00049 25C8.00049 24.9789 8.00033 24.9578 8 24.9367L8 8L24.9969 8L25.0005 8L25.0041 8L29.0005 8L29.0005 4L29.0005 -3.8147e-06L25.0005 -2.25704e-06L8 -1.83592e-06L4.00049 -4.09292e-06C3.99917 -4.09303e-06 3.99786 -2.1858e-06 3.99654 -2.18591e-06L-1.27944e-06 -2.5353e-06Z" fill="url(#paint3_linear)"/>
<rect x="21" y="105" width="8" height="29" fill="url(#paint4_linear)"/>
<rect y="126" width="8" height="8" fill="#EB2351"/>
<rect y="126" width="8" height="8" fill="url(#paint5_linear)"/>
<rect y="63" width="8" height="8" fill="url(#paint6_linear)"/>
<rect x="21" y="21" width="8" height="8" fill="#EB2351"/>
</g>
<defs>
<filter id="filter0_i" x="0" y="0" width="29.0005" height="180" filterUnits="userSpaceOnUse" color-interpolation-filters="sRGB">
<feFlood flood-opacity="0" result="BackgroundImageFix"/>
<feBlend mode="normal" in="SourceGraphic" in2="BackgroundImageFix" result="shape"/>
<feColorMatrix in="SourceAlpha" type="matrix" values="0 0 0 0 0 0 0 0 0 0 0 0 0 0 0 0 0 0 127 0" result="hardAlpha"/>
<feOffset dy="4"/>
<feGaussianBlur stdDeviation="2"/>
<feComposite in2="hardAlpha" operator="arithmetic" k2="-1" k3="1"/>
<feColorMatrix type="matrix" values="0 0 0 0 0 0 0 0 0 0 0 0 0 0 0 0 0 0 0.15 0"/>
<feBlend mode="normal" in2="shape" result="effect1_innerShadow"/>
</filter>
<linearGradient id="paint0_linear" x1="0.000360464" y1="120.955" x2="30.9252" y2="59.0304" gradientUnits="userSpaceOnUse">
<stop stop-color="#00D1FF"/>
<stop offset="1" stop-color="#1B91FF"/>
</linearGradient>
<linearGradient id="paint1_linear" x1="-10.4995" y1="46" x2="0.357018" y2="63.6343" gradientUnits="userSpaceOnUse">
<stop stop-color="#FF9900"/>
<stop offset="1" stop-color="#FFD600"/>
</linearGradient>
<linearGradient id="paint2_linear" x1="46.0005" y1="162" x2="-18.4995" y2="147" gradientUnits="userSpaceOnUse">
<stop stop-color="#34EB92"/>
<stop offset="1" stop-color="#237FD0"/>
</linearGradient>
<linearGradient id="paint3_linear" x1="0.000487902" y1="26" x2="29.0005" y2="2.5" gradientUnits="userSpaceOnUse">
<stop stop-color="#F52354"/>
<stop offset="1" stop-color="#CC2749"/>
</linearGradient>
<linearGradient id="paint4_linear" x1="22" y1="131.5" x2="29.5" y2="105" gradientUnits="userSpaceOnUse">
<stop stop-color="#34EB92"/>
<stop offset="1" stop-color="#237FD0"/>
</linearGradient>
<linearGradient id="paint5_linear" x1="12.6896" y1="130.138" x2="-5.10326" y2="126" gradientUnits="userSpaceOnUse">
<stop stop-color="#34EB92"/>
<stop offset="1" stop-color="#237FD0"/>
</linearGradient>
<linearGradient id="paint6_linear" x1="7.9999" y1="61.7273" x2="4.69184" y2="73.1479" gradientUnits="userSpaceOnUse">
<stop stop-color="#00D1FF"/>
<stop offset="1" stop-color="#1B91FF"/>
</linearGradient>
</defs>
</svg>
