<svg width="279" height="226" viewBox="0 0 279 226" fill="none" xmlns="http://www.w3.org/2000/svg">
<mask id="mask0" mask-type="alpha" maskUnits="userSpaceOnUse" x="0" y="0" width="279" height="226">
<rect width="279" height="226" transform="matrix(-1 0 0 1 279 0)" fill="#C4C4C4"/>
</mask>
<g mask="url(#mask0)">
<g filter="url(#filter0_d)">
<mask id="mask1" mask-type="alpha" maskUnits="userSpaceOnUse" x="9" y="5" width="598" height="598">
<rect width="424.69" height="424.69" rx="40" transform="matrix(-0.634035 0.773304 0.773304 0.634035 278.585 5)" fill="#C4C4C4"/>
</mask>
<g mask="url(#mask1)">
<rect width="424.69" height="424.69" rx="40" transform="matrix(-0.634035 0.773304 0.773304 0.634035 278.585 5)" fill="#E0EBFF"/>
<circle r="117.226" transform="matrix(-0.634035 0.773304 0.773304 0.634035 141.045 205.355)" fill="url(#paint0_linear)"/>
<circle r="198.39" transform="matrix(-0.634035 0.773304 0.773304 0.634035 320.073 -24.6583)" fill="url(#paint1_linear)"/>
<circle r="161.805" transform="matrix(-0.634035 0.773304 0.773304 0.634035 9.44307 364.88)" fill="#4C83B6"/>
<path d="M197.448 823.189C310.731 916.07 477.86 899.531 570.742 786.248C661.845 675.133 681.361 488.811 575.172 394.07C571.065 390.406 566.046 387.839 560.74 386.375C388.168 338.738 251.967 338.345 160.507 449.895C67.6255 563.178 84.1645 730.307 197.448 823.189Z" fill="#EC9341"/>
<path d="M172.754 407.217C192.098 423.077 233.963 406.834 280.417 396.831C316.61 389.039 371.511 378.807 392.312 354.167C432.371 306.714 438.572 284.71 460.606 257.836C511.606 195.633 424.444 153.065 383.356 172.142C260.441 229.209 204.778 191.019 152.764 254.458C100.75 317.897 109.315 355.203 172.754 407.217Z" fill="url(#paint2_linear)"/>
</g>
</g>
</g>
<defs>
<filter id="filter0_d" x="-90.6831" y="5" width="1097.68" height="1147.68" filterUnits="userSpaceOnUse" color-interpolation-filters="sRGB">
<feFlood flood-opacity="0" result="BackgroundImageFix"/>
<feColorMatrix in="SourceAlpha" type="matrix" values="0 0 0 0 0 0 0 0 0 0 0 0 0 0 0 0 0 0 127 0"/>
<feOffset dx="150" dy="300"/>
<feGaussianBlur stdDeviation="125"/>
<feColorMatrix type="matrix" values="0 0 0 0 0 0 0 0 0 0 0 0 0 0 0 0 0 0 0.05 0"/>
<feBlend mode="normal" in2="BackgroundImageFix" result="effect1_dropShadow"/>
<feBlend mode="normal" in="SourceGraphic" in2="effect1_dropShadow" result="shape"/>
</filter>
<linearGradient id="paint0_linear" x1="117.226" y1="0" x2="117.226" y2="234.452" gradientUnits="userSpaceOnUse">
<stop stop-color="#E3B167"/>
<stop offset="1" stop-color="#FF2525"/>
</linearGradient>
<linearGradient id="paint1_linear" x1="356.373" y1="166.829" x2="325.741" y2="259.391" gradientUnits="userSpaceOnUse">
<stop stop-color="#1DC9FF"/>
<stop offset="1" stop-color="#314BD0"/>
</linearGradient>
<linearGradient id="paint2_linear" x1="205.114" y1="187.666" x2="392.418" y2="452.029" gradientUnits="userSpaceOnUse">
<stop stop-color="#EF3F93"/>
<stop offset="1" stop-color="#DA6D33"/>
</linearGradient>
</defs>
</svg>
