<svg width="303" height="280" viewBox="0 0 303 280" fill="none" xmlns="http://www.w3.org/2000/svg">
<mask id="mask0" mask-type="alpha" maskUnits="userSpaceOnUse" x="0" y="0" width="303" height="280">
<rect width="303" height="280" fill="#C4C4C4"/>
</mask>
<g mask="url(#mask0)">
<mask id="mask1" mask-type="alpha" maskUnits="userSpaceOnUse" x="-9" y="42" width="547" height="547">
<rect width="424.69" height="424.69" rx="40" transform="matrix(-0.35104 0.936361 0.936361 0.35104 140.083 42)" fill="#C4C4C4"/>
</mask>
<g mask="url(#mask1)">
<rect width="424.69" height="424.69" rx="40" transform="matrix(-0.35104 0.936361 0.936361 0.35104 140.083 42)" fill="#C4C4C4"/>
<circle r="117.226" transform="matrix(-0.35104 0.936361 0.936361 0.35104 74.4376 275.988)" fill="url(#paint0_linear)"/>
<path d="M254 286.5C356.595 324.963 317.103 172.793 355.565 70.1978C394.028 -32.397 342.038 -146.747 239.444 -185.209C136.849 -223.672 22.4991 -171.682 -15.9635 -69.0876C-54.4261 33.5072 151.405 248.037 254 286.5Z" fill="url(#paint1_linear)"/>
<circle r="198.39" transform="matrix(-0.35104 0.936361 0.936361 0.35104 513.222 254.32)" fill="url(#paint2_linear)"/>
<path d="M327.27 842.554C464.44 893.979 617.326 824.469 668.75 687.299C719.191 552.755 677.628 370.083 546.575 314.611C541.507 312.466 535.928 311.654 530.433 311.977C351.716 322.488 222.653 366.003 172.015 501.074C120.59 638.244 190.1 791.13 327.27 842.554Z" fill="url(#paint3_linear)"/>
<path d="M115.105 273.266C102.598 294.929 125.426 333.6 142.842 377.812C156.41 412.258 175.424 464.769 203.115 481.29C256.446 513.109 279.165 515.653 309.261 533.029C378.921 573.248 420.934 447.721 395.437 410.277C319.162 298.265 333.634 269.746 262.588 228.727C191.543 187.709 156.123 202.221 115.105 273.266Z" fill="url(#paint4_linear)"/>
<path d="M-23.0347 648.775C72.4914 684.587 212.688 576.026 248.5 480.5C284.313 384.974 209.026 319.813 113.5 284C17.9742 248.188 -95.343 315.439 -131.156 410.965C-166.968 506.491 -118.561 612.962 -23.0347 648.775Z" fill="url(#paint5_linear)"/>
</g>
</g>
<defs>
<linearGradient id="paint0_linear" x1="163.119" y1="56.6201" x2="-77.2256" y2="172.551" gradientUnits="userSpaceOnUse">
<stop offset="0.0375265" stop-color="#2AB18D"/>
<stop offset="1" stop-color="#1C6AAF"/>
</linearGradient>
<linearGradient id="paint1_linear" x1="44.7001" y1="66.1754" x2="404.67" y2="-274.855" gradientUnits="userSpaceOnUse">
<stop offset="0.0375265" stop-color="#2D7392"/>
<stop offset="1" stop-color="#238F9D"/>
</linearGradient>
<linearGradient id="paint2_linear" x1="198.39" y1="0" x2="198.39" y2="396.78" gradientUnits="userSpaceOnUse">
<stop stop-color="#7C00FF"/>
<stop offset="1" stop-color="#00FFF0"/>
</linearGradient>
<linearGradient id="paint3_linear" x1="259.903" y1="631.599" x2="334.328" y2="368.841" gradientUnits="userSpaceOnUse">
<stop offset="0.0375265" stop-color="#009479"/>
<stop offset="1" stop-color="#30B7C9"/>
</linearGradient>
<linearGradient id="paint4_linear" x1="233.54" y1="281.259" x2="392.804" y2="610.82" gradientUnits="userSpaceOnUse">
<stop offset="0.0375265" stop-color="#2D7392"/>
<stop offset="1" stop-color="#238F9D"/>
</linearGradient>
<linearGradient id="paint5_linear" x1="-73" y1="510" x2="231.002" y2="219.502" gradientUnits="userSpaceOnUse">
<stop offset="0.0375265" stop-color="#34EB92"/>
<stop offset="1" stop-color="#237FD0"/>
</linearGradient>
</defs>
</svg>
