<svg width="29" height="176" viewBox="0 0 29 176" fill="none" xmlns="http://www.w3.org/2000/svg">
<g filter="url(#filter0_i)">
<ellipse cx="25.0005" cy="130" rx="4" ry="4" transform="rotate(-180 25.0005 130)" fill="#EB2351"/>
<ellipse cx="25.0005" cy="109" rx="4" ry="4" transform="rotate(-180 25.0005 109)" fill="#EB2351"/>
<path fill-rule="evenodd" clip-rule="evenodd" d="M0 147H4.00049H8V150.937C8.00033 150.958 8.00049 150.979 8.00049 151C8.00049 151.021 8.00033 151.042 8 151.063V168L24.999 168C24.9995 168 25 168 25.0005 168C25.001 168 25.0015 168 25.002 168H29V171.937C29.0003 171.958 29.0005 171.979 29.0005 172C29.0005 172.021 29.0003 172.042 29 172.063V176H25.0042C25.0029 176 25.0017 176 25.0005 176C24.9993 176 24.998 176 24.9968 176L4.00195 176C4.00147 176 4.00098 176 4.00049 176C4 176 3.99951 176 3.99902 176H0V172V168V147Z" fill="url(#paint0_linear)"/>
<path fill-rule="evenodd" clip-rule="evenodd" d="M8 24.9368L8 8L25.0005 8L29.0005 8L29.0005 4L29.0005 0L25.0005 -3.49691e-07L8 -1.83592e-06L4.00049 -2.18557e-06L-1.27944e-06 -2.5353e-06L0 29L4.00049 29L8 29L8 25.0632C8.00032 25.0421 8.00049 25.0211 8.00049 25C8.00049 24.9789 8.00032 24.9579 8 24.9368Z" fill="url(#paint1_linear)"/>
<path fill-rule="evenodd" clip-rule="evenodd" d="M21 126L6.99382e-07 126L0 134L21 134L24 134L29 134L29 105L21 105L21 126Z" fill="url(#paint2_linear)"/>
<path fill-rule="evenodd" clip-rule="evenodd" d="M29 92L21 92L21 63L29 63L29 92ZM4.0028 50L4 50L3.99721 50L-1.42941e-07 50L2.0675e-07 46L5.56442e-07 42L4 42L25 42L29 42L29 46L29 50L4.0028 50ZM8 63L6.27912e-07 63L-7.14703e-08 71L8 71L8 63Z" fill="url(#paint3_linear)"/>
<rect x="6" y="21" width="23" height="8" fill="#EB2351"/>
<g filter="url(#filter1_i)">
<rect x="21" y="147" width="8" height="8" fill="#F37D43"/>
</g>
<g filter="url(#filter2_i)">
<rect y="84" width="8" height="8" fill="url(#paint4_linear)"/>
</g>
<g filter="url(#filter3_i)">
<rect y="105" width="8" height="8" fill="#F37D43"/>
</g>
</g>
<defs>
<filter id="filter0_i" x="0" y="0" width="29.0005" height="180" filterUnits="userSpaceOnUse" color-interpolation-filters="sRGB">
<feFlood flood-opacity="0" result="BackgroundImageFix"/>
<feBlend mode="normal" in="SourceGraphic" in2="BackgroundImageFix" result="shape"/>
<feColorMatrix in="SourceAlpha" type="matrix" values="0 0 0 0 0 0 0 0 0 0 0 0 0 0 0 0 0 0 127 0" result="hardAlpha"/>
<feOffset dy="4"/>
<feGaussianBlur stdDeviation="2"/>
<feComposite in2="hardAlpha" operator="arithmetic" k2="-1" k3="1"/>
<feColorMatrix type="matrix" values="0 0 0 0 0 0 0 0 0 0 0 0 0 0 0 0 0 0 0.15 0"/>
<feBlend mode="normal" in2="shape" result="effect1_innerShadow"/>
</filter>
<filter id="filter1_i" x="21" y="147" width="8" height="10" filterUnits="userSpaceOnUse" color-interpolation-filters="sRGB">
<feFlood flood-opacity="0" result="BackgroundImageFix"/>
<feBlend mode="normal" in="SourceGraphic" in2="BackgroundImageFix" result="shape"/>
<feColorMatrix in="SourceAlpha" type="matrix" values="0 0 0 0 0 0 0 0 0 0 0 0 0 0 0 0 0 0 127 0" result="hardAlpha"/>
<feOffset dy="4"/>
<feGaussianBlur stdDeviation="1"/>
<feComposite in2="hardAlpha" operator="arithmetic" k2="-1" k3="1"/>
<feColorMatrix type="matrix" values="0 0 0 0 0 0 0 0 0 0 0 0 0 0 0 0 0 0 0.15 0"/>
<feBlend mode="normal" in2="shape" result="effect1_innerShadow"/>
</filter>
<filter id="filter2_i" x="0" y="84" width="8" height="12" filterUnits="userSpaceOnUse" color-interpolation-filters="sRGB">
<feFlood flood-opacity="0" result="BackgroundImageFix"/>
<feBlend mode="normal" in="SourceGraphic" in2="BackgroundImageFix" result="shape"/>
<feColorMatrix in="SourceAlpha" type="matrix" values="0 0 0 0 0 0 0 0 0 0 0 0 0 0 0 0 0 0 127 0" result="hardAlpha"/>
<feOffset dy="4"/>
<feGaussianBlur stdDeviation="2"/>
<feComposite in2="hardAlpha" operator="arithmetic" k2="-1" k3="1"/>
<feColorMatrix type="matrix" values="0 0 0 0 0 0 0 0 0 0.0983333 0 0 0 0 0.245833 0 0 0 0.22 0"/>
<feBlend mode="normal" in2="shape" result="effect1_innerShadow"/>
</filter>
<filter id="filter3_i" x="0" y="105" width="8" height="12" filterUnits="userSpaceOnUse" color-interpolation-filters="sRGB">
<feFlood flood-opacity="0" result="BackgroundImageFix"/>
<feBlend mode="normal" in="SourceGraphic" in2="BackgroundImageFix" result="shape"/>
<feColorMatrix in="SourceAlpha" type="matrix" values="0 0 0 0 0 0 0 0 0 0 0 0 0 0 0 0 0 0 127 0" result="hardAlpha"/>
<feOffset dy="4"/>
<feGaussianBlur stdDeviation="2"/>
<feComposite in2="hardAlpha" operator="arithmetic" k2="-1" k3="1"/>
<feColorMatrix type="matrix" values="0 0 0 0 0 0 0 0 0 0.0983333 0 0 0 0 0.245833 0 0 0 0.22 0"/>
<feBlend mode="normal" in2="shape" result="effect1_innerShadow"/>
</filter>
<linearGradient id="paint0_linear" x1="46.0005" y1="162" x2="-18.4995" y2="147" gradientUnits="userSpaceOnUse">
<stop stop-color="#34EB92"/>
<stop offset="1" stop-color="#237FD0"/>
</linearGradient>
<linearGradient id="paint1_linear" x1="0.000344247" y1="24.8765" x2="25.0079" y2="9.89536" gradientUnits="userSpaceOnUse">
<stop stop-color="#F52354"/>
<stop offset="1" stop-color="#CC2749"/>
</linearGradient>
<linearGradient id="paint2_linear" x1="35.5" y1="101" x2="-1.1065" y2="124.598" gradientUnits="userSpaceOnUse">
<stop stop-color="#EB2351"/>
<stop offset="1" stop-color="#FFB13C"/>
</linearGradient>
<linearGradient id="paint3_linear" x1="-7" y1="120.125" x2="60.961" y2="116.705" gradientUnits="userSpaceOnUse">
<stop stop-color="#234FEB"/>
<stop offset="1" stop-color="#23EBEB"/>
</linearGradient>
<linearGradient id="paint4_linear" x1="9.93103" y1="79.5" x2="-8.72386" y2="81.1186" gradientUnits="userSpaceOnUse">
<stop stop-color="#234FEB"/>
<stop offset="1" stop-color="#23EBEB"/>
</linearGradient>
</defs>
</svg>
