<svg width="29" height="176" viewBox="0 0 29 176" fill="none" xmlns="http://www.w3.org/2000/svg">
<g filter="url(#filter0_i)">
<rect x="8" y="71" width="8" height="8" transform="rotate(180 8 71)" fill="#29A6B9"/>
<path fill-rule="evenodd" clip-rule="evenodd" d="M8 8L4 8H0L0 2.38419e-06L4 2.38419e-06L8 2.38419e-06L29 0V5V8L29 29H21L21 8L8 8ZM0 29L0 21H8L8 29H0ZM29 50L8 50H0L0 42H4L29 42L29 50Z" fill="url(#paint0_linear)"/>
<path fill-rule="evenodd" clip-rule="evenodd" d="M21 71L29 71V63H21V71ZM0 113H8L8 105H0L0 113ZM8 92H0L0 84H8L8 92ZM29 113L29 92V90V84H21V90V92L21 113H29Z" fill="#F92156"/>
<rect x="29" y="134" width="21" height="8" transform="rotate(180 29 134)" fill="#2396E9"/>
<rect x="29" y="155" width="8" height="8" transform="rotate(180 29 155)" fill="url(#paint1_linear)"/>
<path fill-rule="evenodd" clip-rule="evenodd" d="M8 134L8 153V155L8 168L29 168L29 176H8L7 176L4.76837e-06 176L2.86102e-06 155L2.75765e-06 153L0 134L0 132L0 126H8L8 132L8 134Z" fill="url(#paint2_linear)"/>
</g>
<defs>
<filter id="filter0_i" x="0" y="0" width="29" height="180" filterUnits="userSpaceOnUse" color-interpolation-filters="sRGB">
<feFlood flood-opacity="0" result="BackgroundImageFix"/>
<feBlend mode="normal" in="SourceGraphic" in2="BackgroundImageFix" result="shape"/>
<feColorMatrix in="SourceAlpha" type="matrix" values="0 0 0 0 0 0 0 0 0 0 0 0 0 0 0 0 0 0 127 0" result="hardAlpha"/>
<feOffset dy="4"/>
<feGaussianBlur stdDeviation="2"/>
<feComposite in2="hardAlpha" operator="arithmetic" k2="-1" k3="1"/>
<feColorMatrix type="matrix" values="0 0 0 0 0 0 0 0 0 0.0983333 0 0 0 0 0.245833 0 0 0 0.15 0"/>
<feBlend mode="normal" in2="shape" result="effect1_innerShadow"/>
</filter>
<linearGradient id="paint0_linear" x1="-8" y1="2" x2="17.7468" y2="60.6913" gradientUnits="userSpaceOnUse">
<stop stop-color="#FF9900"/>
<stop offset="1" stop-color="#FFD600"/>
</linearGradient>
<linearGradient id="paint1_linear" x1="38.931" y1="150.5" x2="20.2761" y2="152.119" gradientUnits="userSpaceOnUse">
<stop stop-color="#234FEB"/>
<stop offset="1" stop-color="#23EBEB"/>
</linearGradient>
<linearGradient id="paint2_linear" x1="36" y1="97.875" x2="-31.961" y2="101.295" gradientUnits="userSpaceOnUse">
<stop stop-color="#234FEB"/>
<stop offset="1" stop-color="#23EBEB"/>
</linearGradient>
</defs>
</svg>
