<svg width="303" height="280" viewBox="0 0 303 280" fill="none" xmlns="http://www.w3.org/2000/svg">
<mask id="mask0" mask-type="alpha" maskUnits="userSpaceOnUse" x="0" y="0" width="303" height="280">
<rect width="303" height="280" transform="matrix(-1 0 0 1 303 0)" fill="#C4C4C4"/>
</mask>
<g mask="url(#mask0)">
<mask id="mask1" mask-type="alpha" maskUnits="userSpaceOnUse" x="-9" y="-238" width="547" height="547">
<rect width="424.69" height="424.69" rx="40" transform="matrix(-0.35104 0.936361 0.936361 0.35104 140.083 -238)" fill="#C4C4C4"/>
</mask>
<g mask="url(#mask1)">
<rect width="424.69" height="424.69" rx="40" transform="matrix(-0.35104 0.936361 0.936361 0.35104 140.083 -238)" fill="#C4C4C4"/>
<circle r="117.226" transform="matrix(-0.35104 0.936361 0.936361 0.35104 74.4376 -4.01187)" fill="url(#paint0_linear)"/>
<path d="M254 6.50001C356.595 44.9626 317.103 -107.207 355.565 -209.802C394.028 -312.397 342.038 -426.747 239.444 -465.209C136.849 -503.672 22.4991 -451.682 -15.9635 -349.088C-54.4261 -246.493 151.405 -31.9626 254 6.50001Z" fill="url(#paint1_linear)"/>
<circle r="198.39" transform="matrix(-0.35104 0.936361 0.936361 0.35104 513.222 -25.6798)" fill="url(#paint2_linear)"/>
<path d="M327.27 562.554C464.44 613.979 617.326 544.469 668.75 407.299C719.191 272.755 677.628 90.0828 546.575 34.6112C541.507 32.4658 535.928 31.6536 530.433 31.9768C351.716 42.4881 222.653 86.0032 172.015 221.074C120.59 358.244 190.1 511.13 327.27 562.554Z" fill="url(#paint3_linear)"/>
<path d="M115.105 -6.73375C102.598 14.9289 125.426 53.5997 142.842 97.8116C156.41 132.258 175.424 184.769 203.115 201.29C256.446 233.109 279.165 235.653 309.261 253.029C378.921 293.248 420.934 167.721 395.437 130.277C319.162 18.2646 333.634 -10.2544 262.588 -51.2726C191.543 -92.2908 156.123 -77.7793 115.105 -6.73375Z" fill="url(#paint4_linear)"/>
<path d="M-23.0347 368.775C72.4914 404.587 212.688 296.026 248.5 200.5C284.313 104.974 209.026 39.8126 113.5 4.00009C17.9742 -31.8125 -95.343 35.4392 -131.156 130.965C-166.968 226.491 -118.561 332.962 -23.0347 368.775Z" fill="url(#paint5_linear)"/>
</g>
<path d="M67.8783 135.686L75.3739 138.773C78.0841 139.889 80.2166 140.124 81.7711 139.476C83.3606 138.744 84.7135 137.023 85.8298 134.312L101.79 95.5639C102.906 92.8536 103.141 90.7212 102.493 89.1666C101.881 87.5273 100.219 86.1495 97.5089 85.0332L90.0133 81.9458C87.303 80.8295 85.1531 80.6374 83.5637 81.3696C82.0091 82.0172 80.6737 83.6961 79.5573 86.4064L63.5971 125.155C62.4807 127.865 62.2289 130.04 62.8415 131.679C63.4891 133.234 65.168 134.569 67.8783 135.686ZM72.1586 153.794L59.4542 148.562C52.7632 145.806 48.3293 141.899 46.1526 136.842C43.9758 131.784 44.2655 125.91 47.0214 119.219L63.6096 78.946C66.3656 72.255 70.2972 67.881 75.4043 65.8238C80.5114 63.7667 86.4105 64.1161 93.1015 66.872L105.806 72.1049C112.412 74.826 116.786 78.7575 118.928 83.8996C121.105 88.9569 120.833 94.7887 118.112 101.395L101.523 141.668C98.8024 148.274 94.8708 152.648 89.7288 154.79C84.6216 156.847 78.7649 156.515 72.1586 153.794Z" fill="white"/>
<path d="M151.666 137.951L145.695 135.492C143.493 134.585 141.432 134.776 139.514 136.067C137.68 137.392 136.128 137.793 134.858 137.269L124.313 132.926C122.534 132.193 121.994 130.98 122.692 129.286L139.28 89.0132C140.013 87.2346 141.268 86.7115 143.047 87.4441L187.258 105.655C189.037 106.387 189.56 107.643 188.827 109.421L184.85 119.077C184.118 120.855 182.862 121.378 181.083 120.646L150.339 107.982L142.646 126.658C145.831 123.016 150.26 122.364 155.935 124.701L161.27 126.899C174.398 132.306 178.259 141.574 172.851 154.702L167.095 168.677C164.374 175.283 160.443 179.657 155.3 181.799C150.193 183.856 144.337 183.524 137.73 180.803L126.55 176.198C119.859 173.442 115.426 169.535 113.249 164.478C111.072 159.421 111.362 153.547 114.118 146.856L115.164 144.315C115.932 142.451 117.205 141.886 118.983 142.619L129.782 147.067C131.561 147.799 132.066 149.097 131.299 150.96L130.305 153.374C129.223 156 128.989 158.132 129.601 159.771C130.334 161.361 132.013 162.696 134.638 163.778L140.609 166.237C143.32 167.354 145.537 167.623 147.261 167.045C149.019 166.383 150.44 164.739 151.521 162.113L156.231 150.679C157.696 147.122 158.097 144.464 157.435 142.705C156.807 140.861 154.884 139.277 151.666 137.951Z" fill="white"/>
</g>
<defs>
<linearGradient id="paint0_linear" x1="163.119" y1="56.6201" x2="-77.2256" y2="172.551" gradientUnits="userSpaceOnUse">
<stop offset="0.0375265" stop-color="#2AB18D"/>
<stop offset="1" stop-color="#1C6AAF"/>
</linearGradient>
<linearGradient id="paint1_linear" x1="44.7001" y1="-213.825" x2="404.67" y2="-554.855" gradientUnits="userSpaceOnUse">
<stop offset="0.0375265" stop-color="#2D7392"/>
<stop offset="1" stop-color="#238F9D"/>
</linearGradient>
<linearGradient id="paint2_linear" x1="198.39" y1="0" x2="198.39" y2="396.78" gradientUnits="userSpaceOnUse">
<stop stop-color="#7C00FF"/>
<stop offset="1" stop-color="#00FFF0"/>
</linearGradient>
<linearGradient id="paint3_linear" x1="259.903" y1="351.599" x2="334.328" y2="88.8415" gradientUnits="userSpaceOnUse">
<stop offset="0.0375265" stop-color="#009479"/>
<stop offset="1" stop-color="#30B7C9"/>
</linearGradient>
<linearGradient id="paint4_linear" x1="233.54" y1="1.25946" x2="392.804" y2="330.82" gradientUnits="userSpaceOnUse">
<stop offset="0.0375265" stop-color="#2D7392"/>
<stop offset="1" stop-color="#238F9D"/>
</linearGradient>
<linearGradient id="paint5_linear" x1="-73" y1="230" x2="231.002" y2="-60.4977" gradientUnits="userSpaceOnUse">
<stop offset="0.0375265" stop-color="#34EB92"/>
<stop offset="1" stop-color="#237FD0"/>
</linearGradient>
</defs>
</svg>
