<svg width="54" height="55" viewBox="0 0 54 55" fill="none" xmlns="http://www.w3.org/2000/svg">
<rect x="0.71875" y="0.54248" width="52.9046" height="53.7863" rx="26.4523" fill="#FFD663"/>
<path fill-rule="evenodd" clip-rule="evenodd" d="M0.812467 24.7466C0.750085 25.4877 0.718262 26.2376 0.718262 26.9949V27.8767C0.718262 42.4859 12.5614 54.329 27.1706 54.329C41.7798 54.329 53.6229 42.4859 53.6229 27.8767V26.9949C53.6229 26.2376 53.591 25.4878 53.5287 24.7466C52.3876 38.3035 41.0225 48.9506 27.1706 48.9506C13.3187 48.9506 1.95352 38.3035 0.812467 24.7466Z" fill="#FFD04C"/>
<circle cx="8.65481" cy="20.8223" r="4.40872" fill="#FF759B" fill-opacity="0.2"/>
<circle cx="45.6875" cy="20.8223" r="4.40872" fill="#FF759B" fill-opacity="0.2"/>
<path d="M18.3534 15.0223C16.515 15.0223 15.0861 16.5573 15.0861 18.3736C15.0861 18.7216 14.8231 18.9412 14.5745 18.9412C14.326 18.9412 14.063 18.7216 14.063 18.3736C14.063 15.8612 16.0179 13.8872 18.3534 13.8872C20.689 13.8872 22.6439 15.8612 22.6439 18.3736C22.6439 18.7216 22.3809 18.9412 22.1323 18.9412C21.8838 18.9412 21.6208 18.7216 21.6208 18.3736C21.6208 16.5573 20.1919 15.0223 18.3534 15.0223Z" fill="#52565F" stroke="#52565F" stroke-width="2" stroke-linecap="round"/>
<path d="M35.9887 15.0223C34.1502 15.0223 32.7214 16.5573 32.7214 18.3736C32.7214 18.7216 32.4584 18.9412 32.2098 18.9412C31.9612 18.9412 31.6982 18.7216 31.6982 18.3736C31.6982 15.8612 33.6531 13.8872 35.9887 13.8872C38.3243 13.8872 40.2792 15.8612 40.2792 18.3736C40.2792 18.7216 40.0162 18.9412 39.7676 18.9412C39.519 18.9412 39.256 18.7216 39.256 18.3736C39.256 16.5573 37.8272 15.0223 35.9887 15.0223Z" fill="#52565F" stroke="#52565F" stroke-width="2" stroke-linecap="round"/>
<path fill-rule="evenodd" clip-rule="evenodd" d="M10.5113 28.0635C11.3824 27.628 12.4417 27.981 12.8772 28.8521C14.2301 31.5577 19.1921 34.931 27.171 34.931C35.1499 34.931 40.1119 31.5577 41.4648 28.8521C41.9003 27.981 42.9596 27.628 43.8307 28.0635C44.7018 28.4991 45.0549 29.5583 44.6193 30.4294C42.4452 34.7775 35.8985 38.4579 27.171 38.4579C18.4435 38.4579 11.8968 34.7775 9.72269 30.4294C9.28714 29.5583 9.64022 28.4991 10.5113 28.0635Z" fill="#52565F"/>
</svg>
