<svg width="57" height="55" viewBox="0 0 57 55" fill="none" xmlns="http://www.w3.org/2000/svg">
<rect x="2.0752" y="0.54248" width="52.9046" height="53.7863" rx="26.4523" fill="#FFD663"/>
<path d="M23.9771 12.833C25.3294 17.9641 20.7232 23 15.9479 27.3944C9.6511 26.0162 3.18527 23.9965 1.83294 18.8654C1.1124 16.1315 1.82135 12.6815 5.84757 11.5847C9.87378 10.4879 12.3979 13.925 12.3979 13.925C12.3979 13.925 12.8934 9.66527 16.9197 8.56847C20.9459 7.47167 23.3453 10.4357 23.9771 12.833Z" fill="url(#paint0_linear)"/>
<path d="M33.3339 12.833C31.9816 17.9641 36.5879 23 41.3632 27.3944C47.6599 26.0162 54.1258 23.9965 55.4781 18.8654C56.1986 16.1315 55.4897 12.6815 51.4635 11.5847C47.4373 10.4879 44.9132 13.925 44.9132 13.925C44.9132 13.925 44.4176 9.66527 40.3914 8.56847C36.3652 7.47167 33.9657 10.4357 33.3339 12.833Z" fill="url(#paint1_linear)"/>
<circle cx="13.5376" cy="34.0489" r="4.40872" fill="#FF759B" fill-opacity="0.2"/>
<circle cx="43.5171" cy="34.0489" r="4.40872" fill="#FF759B" fill-opacity="0.2"/>
<path d="M28.5271 41.7796C32.4229 41.7796 35.581 38.5688 35.581 34.608V27.4365H21.4731V34.608C21.4731 38.5688 24.6313 41.7796 28.5271 41.7796Z" fill="#810024"/>
<path fill-rule="evenodd" clip-rule="evenodd" d="M22.417 38.193C23.6367 36.0495 25.9163 34.6074 28.5271 34.6074C31.138 34.6074 33.4176 36.0495 34.6372 38.193C33.4176 40.3364 31.138 41.7785 28.5271 41.7785C25.9163 41.7785 23.6367 40.3364 22.417 38.193Z" fill="#FF759B"/>
<path d="M23.2358 27.436H33.8168V30.0218C33.8168 30.5741 33.369 31.0218 32.8168 31.0218H24.2358C23.6836 31.0218 23.2358 30.5741 23.2358 30.0218V27.436Z" fill="white"/>
<path fill-rule="evenodd" clip-rule="evenodd" d="M2.1694 24.7466C2.10702 25.4877 2.0752 26.2376 2.0752 26.9949V27.8767C2.0752 42.4859 13.9183 54.329 28.5275 54.329C43.1367 54.329 54.9798 42.4859 54.9798 27.8767V26.9949C54.9798 26.2376 54.948 25.4878 54.8856 24.7466C53.7446 38.3035 42.3794 48.9506 28.5275 48.9506C14.6756 48.9506 3.31045 38.3035 2.1694 24.7466Z" fill="#FFD04C"/>
<defs>
<linearGradient id="paint0_linear" x1="11.3836" y1="10.0766" x2="16.0907" y2="27.3555" gradientUnits="userSpaceOnUse">
<stop stop-color="#FF759B"/>
<stop offset="1" stop-color="#FF487B"/>
</linearGradient>
<linearGradient id="paint1_linear" x1="45.9274" y1="10.0766" x2="41.2204" y2="27.3555" gradientUnits="userSpaceOnUse">
<stop stop-color="#FF759B"/>
<stop offset="1" stop-color="#FF487B"/>
</linearGradient>
</defs>
</svg>
