<svg width="53" height="55" viewBox="0 0 53 55" fill="none" xmlns="http://www.w3.org/2000/svg">
<rect x="0.0322266" y="0.54248" width="52.0229" height="53.7863" rx="26.0114" fill="#FFD663"/>
<path fill-rule="evenodd" clip-rule="evenodd" d="M0.0690273 24.7466C0.0268249 25.3528 0.00537109 25.9647 0.00537109 26.5816V28.29C0.00537109 42.6709 11.6634 54.329 26.0444 54.329C40.4253 54.329 52.0833 42.6709 52.0833 28.29V26.5816C52.0833 25.9647 52.0619 25.3528 52.0197 24.7466C51.0781 38.2713 39.8084 48.9506 26.0444 48.9506C12.2803 48.9506 1.0106 38.2713 0.0690273 24.7466Z" fill="#FFD04C"/>
<circle cx="17.6676" cy="21.7042" r="3.52697" fill="#52565F"/>
<circle cx="34.421" cy="21.7042" r="3.52697" fill="#52565F"/>
<path fill-rule="evenodd" clip-rule="evenodd" d="M15.9038 36.6942C15.9038 35.7202 16.6605 34.9307 17.5938 34.9307H34.4939C35.4273 34.9307 36.1839 35.7202 36.1839 36.6942C36.1839 37.6681 35.4273 38.4576 34.4939 38.4576H17.5938C16.6605 38.4576 15.9038 37.6681 15.9038 36.6942Z" fill="#52565F"/>
</svg>
