<svg width="54" height="55" viewBox="0 0 54 55" fill="none" xmlns="http://www.w3.org/2000/svg">
<rect x="0.76709" y="0.54248" width="52.9046" height="53.7863" rx="26.4523" fill="#FFD663"/>
<path fill-rule="evenodd" clip-rule="evenodd" d="M0.860319 24.7466C0.797937 25.4877 0.766113 26.2376 0.766113 26.9949V27.8767C0.766113 42.4859 12.6092 54.329 27.2184 54.329C41.8276 54.329 53.6707 42.4859 53.6707 27.8767V26.9949C53.6707 26.2376 53.6389 25.4878 53.5765 24.7466C52.4355 38.3035 41.0703 48.9506 27.2184 48.9506C13.3665 48.9506 2.00137 38.3035 0.860319 24.7466Z" fill="#FFD04C"/>
<path fill-rule="evenodd" clip-rule="evenodd" d="M21.3092 36.5811C22.2211 36.923 23.2375 36.461 23.5795 35.5492C24.0155 34.3864 25.2587 33.1666 27.2185 33.1666C29.1783 33.1666 30.4215 34.3864 30.8575 35.5492C31.1995 36.461 32.2159 36.923 33.1278 36.5811C34.0396 36.2391 34.5016 35.2227 34.1597 34.3108C33.2732 31.9469 30.8272 29.6399 27.2185 29.6399C23.6098 29.6399 21.1638 31.9469 20.2773 34.3108C19.9354 35.2227 20.3974 36.2391 21.3092 36.5811Z" fill="#52565F"/>
<path fill-rule="evenodd" clip-rule="evenodd" d="M18.401 52.8241C13.4402 51.0709 9.15851 47.8799 6.05664 43.7518V23.9491H14.8741L18.401 22.0566V52.8241Z" fill="url(#paint0_linear)"/>
<path fill-rule="evenodd" clip-rule="evenodd" d="M35.9998 52.8366C40.9569 51.0926 45.2378 47.9138 48.3442 43.7986V22.8925H39.5268L35.9998 21V52.8366Z" fill="url(#paint1_linear)"/>
<path fill-rule="evenodd" clip-rule="evenodd" d="M19.1893 18.3638C20.0604 18.7993 20.4135 19.8586 19.978 20.7296L19.1893 22.3069C18.2932 24.0991 16.4614 25.2312 14.4575 25.2312H7.82008C6.84616 25.2312 6.05664 24.4417 6.05664 23.4678C6.05664 22.4939 6.84616 21.7044 7.82008 21.7044H14.4575C15.1255 21.7044 15.7361 21.327 16.0348 20.7296L16.8234 19.1524C17.259 18.2813 18.3182 17.9283 19.1893 18.3638Z" fill="#52565F"/>
<path fill-rule="evenodd" clip-rule="evenodd" d="M35.2482 18.3638C34.3771 18.7993 34.024 19.8586 34.4595 20.7296L35.2482 22.3069C36.1443 24.0991 37.9761 25.2312 39.98 25.2312H46.6174C47.5913 25.2312 48.3809 24.4417 48.3809 23.4678C48.3809 22.4939 47.5913 21.7044 46.6174 21.7044H39.98C39.312 21.7044 38.7014 21.327 38.4027 20.7296L37.6141 19.1524C37.1785 18.2813 36.1193 17.9283 35.2482 18.3638Z" fill="#52565F"/>
<defs>
<linearGradient id="paint0_linear" x1="12.2288" y1="22.0566" x2="12.2288" y2="52.8241" gradientUnits="userSpaceOnUse">
<stop stop-color="#9FCBF6"/>
<stop offset="1" stop-color="#51A8FF"/>
</linearGradient>
<linearGradient id="paint1_linear" x1="42.2087" y1="22.0566" x2="42.2087" y2="52.8237" gradientUnits="userSpaceOnUse">
<stop stop-color="#9FCBF6"/>
<stop offset="1" stop-color="#51A8FF"/>
</linearGradient>
</defs>
</svg>
