<svg width="54" height="55" viewBox="0 0 54 55" fill="none" xmlns="http://www.w3.org/2000/svg">
<path d="M0.291016 27.4357C0.291016 12.583 12.1341 0.54248 26.7433 0.54248C41.3525 0.54248 53.1956 12.583 53.1956 27.4357C53.1956 42.2883 41.3525 54.3288 26.7433 54.3288C12.1341 54.3288 0.291016 42.2883 0.291016 27.4357Z" fill="url(#paint0_linear)"/>
<path fill-rule="evenodd" clip-rule="evenodd" d="M0.421613 24.7466C0.335238 25.6311 0.291016 26.5282 0.291016 27.4358C0.291016 42.2885 12.1341 54.329 26.7433 54.329C41.3525 54.329 53.1956 42.2885 53.1956 27.4358C53.1956 26.5282 53.1514 25.6311 53.065 24.7466C51.7379 38.3366 40.4598 48.9506 26.7433 48.9506C13.0268 48.9506 1.74873 38.3366 0.421613 24.7466Z" fill="#F70044"/>
<path fill-rule="evenodd" clip-rule="evenodd" d="M11.2257 15.3554C11.81 14.5762 12.9153 14.4183 13.6944 15.0027L20.7481 20.2929C21.2923 20.7011 21.5532 21.3859 21.4185 22.0527C21.2839 22.7195 20.7777 23.2494 20.1177 23.4144L13.0641 25.1778C12.1192 25.414 11.1618 24.8395 10.9256 23.8947C10.6894 22.9499 11.2639 21.9925 12.2087 21.7563L15.6681 20.8914L11.5783 17.8241C10.7992 17.2398 10.6413 16.1345 11.2257 15.3554Z" fill="black"/>
<path fill-rule="evenodd" clip-rule="evenodd" d="M42.2616 15.3554C41.6773 14.5762 40.572 14.4183 39.7929 15.0027L32.7392 20.2929C32.195 20.7011 31.9341 21.3859 32.0688 22.0527C32.2034 22.7195 32.7096 23.2494 33.3696 23.4144L40.4232 25.1778C41.3681 25.414 42.3255 24.8395 42.5617 23.8947C42.7979 22.9499 42.2234 21.9925 41.2786 21.7563L37.8192 20.8914L41.909 17.8241C42.6881 17.2398 42.846 16.1345 42.2616 15.3554Z" fill="black"/>
<path fill-rule="evenodd" clip-rule="evenodd" d="M17.8 32L22.15 37.6619L26.5 32L30.85 37.6619L35.2 32L40.5753 38.9964C41.1416 39.7335 41.1416 40.9284 40.5753 41.6655C40.009 42.4025 39.091 42.4025 38.5247 41.6655L35.2 37.3381L30.85 43L26.5 37.3381L22.15 43L17.8 37.3381L14.4753 41.6655C13.909 42.4025 12.991 42.4025 12.4247 41.6655C11.8584 40.9284 11.8584 39.7335 12.4247 38.9964L17.8 32Z" fill="black"/>
<path fill-rule="evenodd" clip-rule="evenodd" d="M32.5912 11.2145C33.515 11.5225 34.0143 12.521 33.7063 13.4449L31.9432 18.7348C31.6352 19.6587 30.6367 20.158 29.7129 19.85C28.7891 19.542 28.2899 18.5435 28.5978 17.6196L30.361 12.3297C30.6689 11.4058 31.6674 10.9065 32.5912 11.2145Z" fill="#CA0038"/>
<path fill-rule="evenodd" clip-rule="evenodd" d="M20.8956 11.2145C19.9718 11.5225 19.4725 12.521 19.7805 13.4449L21.5436 18.7348C21.8516 19.6587 22.8501 20.158 23.7739 19.85C24.6977 19.542 25.197 18.5435 24.889 17.6196L23.1259 12.3297C22.8179 11.4058 21.8194 10.9065 20.8956 11.2145Z" fill="#CA0038"/>
<defs>
<linearGradient id="paint0_linear" x1="26.7433" y1="0.54248" x2="26.7433" y2="54.3288" gradientUnits="userSpaceOnUse">
<stop stop-color="#FF2D67"/>
<stop offset="1" stop-color="#FF2D46"/>
</linearGradient>
</defs>
</svg>
