<svg width="53" height="55" viewBox="0 0 53 55" fill="none" xmlns="http://www.w3.org/2000/svg">
<rect x="0.242188" y="0.54248" width="52.0229" height="53.7863" rx="26.0114" fill="#FFD663"/>
<path fill-rule="evenodd" clip-rule="evenodd" d="M0.279476 24.7466C0.237274 25.3528 0.21582 25.9647 0.21582 26.5816V28.29C0.21582 42.6709 11.8739 54.329 26.2548 54.329C40.6357 54.329 52.2938 42.6709 52.2938 28.29V26.5816C52.2938 25.9647 52.2723 25.3528 52.2301 24.7466C51.2886 38.2713 40.0188 48.9506 26.2548 48.9506C12.4908 48.9506 1.22105 38.2713 0.279476 24.7466Z" fill="#FFD04C"/>
<ellipse cx="8.17922" cy="28.3174" rx="4.40872" ry="4.84959" fill="#FF759B" fill-opacity="0.2"/>
<ellipse cx="44.3301" cy="28.3174" rx="4.40872" ry="4.84959" fill="#FF759B" fill-opacity="0.2"/>
<path fill-rule="evenodd" clip-rule="evenodd" d="M19.0239 33.2585C19.9016 32.9505 20.8503 33.4498 21.1429 34.3737C21.817 36.5025 23.6337 38.4581 26.2545 38.4581C28.8753 38.4581 30.692 36.5025 31.3661 34.3737C31.6587 33.4498 32.6074 32.9505 33.4851 33.2585C34.3629 33.5664 34.8372 34.5651 34.5446 35.489C33.5435 38.6504 30.6873 41.9849 26.2545 41.9849C21.8217 41.9849 18.9655 38.6504 17.9644 35.489C17.6718 34.5651 18.1461 33.5664 19.0239 33.2585Z" fill="#52565F"/>
<circle cx="17.878" cy="21.7042" r="3.52697" fill="#52565F"/>
<circle cx="34.6315" cy="21.7042" r="3.52697" fill="#52565F"/>
</svg>
