<svg width="15" height="12" viewBox="0 0 15 12" fill="none" xmlns="http://www.w3.org/2000/svg">
<path fill-rule="evenodd" clip-rule="evenodd" d="M9.94154 0.00195771C8.77857 -0.0131696 7.65576 0.749503 7.25095 1.84443L7.21313 1.84062C7.04468 2.39687 6.97679 2.98588 7.12387 3.55596C5.976 3.53838 4.87221 3.17589 3.83115 2.72158C2.82657 2.1351 1.85721 1.44292 1.1419 0.511631C0.75084 1.19625 0.640213 2.0294 0.861467 2.78702C1.05387 3.33069 1.34044 3.92725 1.85721 4.21798L1.86053 4.22314L1.87182 4.24041C1.9094 4.29805 1.96747 4.38696 1.9994 4.43441C1.55935 4.35888 1.12434 4.24815 0.72445 4.04677C0.696815 5.38081 1.71651 6.72486 3.06931 6.88599C2.64805 7.06089 2.18786 7.03823 1.74156 7.00677C2.12757 8.15088 3.24647 8.97395 4.45218 9.00403C3.24905 9.94414 1.69637 10.3582 0.182617 10.2185C3.41382 12.319 8.13361 11.7992 10.6895 8.86308C11.2716 8.18851 11.7695 7.43844 12.1279 6.62046C12.4812 5.81244 12.71 4.95544 12.8268 4.08205C12.8329 3.94292 12.8378 3.80392 12.8419 3.66504C12.8443 3.58977 12.8465 3.51448 12.8483 3.43927C12.8514 3.32871 12.8539 3.21823 12.8565 3.10781V3.10651L12.8622 2.86508C13.4077 2.43965 13.9232 1.95769 14.2941 1.36868C14.0793 1.46805 13.8523 1.5322 13.6252 1.59636C13.4125 1.65645 13.1999 1.71649 12.998 1.80541C12.9175 1.79786 12.7566 1.78151 12.6761 1.77266C13.2632 1.42534 13.6945 0.856489 13.9183 0.214634C13.3387 0.533013 12.7251 0.79608 12.0725 0.920648C11.5207 0.350566 10.7462 -0.0308014 9.94154 0.00195771ZM10.4634 6.79903L10.458 6.79885C10.4099 6.79768 10.3618 6.79657 10.3138 6.79553C10.3635 6.79657 10.4138 6.79781 10.4634 6.79903Z" fill="white"/>
</svg>
