<svg width="19" height="15" viewBox="0 0 19 15" fill="none" xmlns="http://www.w3.org/2000/svg">
<path fill-rule="evenodd" clip-rule="evenodd" d="M12.9312 0.690412C11.3902 0.671684 9.90235 1.61585 9.36594 2.97136L9.31582 2.96663C9.09261 3.65526 9.00265 4.38444 9.19755 5.09019C7.67652 5.06842 6.21389 4.61967 4.83439 4.05724C3.50323 3.33119 2.21875 2.47429 1.27089 1.32138C0.752703 2.16892 0.606111 3.20034 0.899294 4.13826C1.15424 4.8113 1.53397 5.54983 2.21875 5.90975L2.22314 5.91614L2.23811 5.93751C2.2879 6.00887 2.36485 6.11894 2.40715 6.17768C1.82405 6.08418 1.24762 5.94709 0.717733 5.6978C0.681114 7.3493 2.0323 9.01321 3.82488 9.21269C3.26667 9.4292 2.65689 9.40116 2.06549 9.36221C2.577 10.7786 4.05964 11.7975 5.65731 11.8348C4.06305 12.9986 2.00561 13.5112 -0.000244694 13.3383C4.2814 15.9386 10.5355 15.2951 13.9223 11.6603C14.6937 10.8252 15.3534 9.89661 15.8284 8.88396C16.2965 7.88366 16.5997 6.82271 16.7545 5.74147C16.7625 5.56923 16.769 5.39715 16.7745 5.22522C16.7777 5.13204 16.7805 5.03884 16.783 4.94573C16.787 4.80886 16.7903 4.67208 16.7938 4.53538L16.7938 4.53378L16.8013 4.23489C17.5242 3.70822 18.2073 3.11156 18.6987 2.38238C18.4142 2.5054 18.1133 2.58481 17.8124 2.66424C17.5305 2.73864 17.2488 2.81297 16.9813 2.92304C16.8746 2.91369 16.6614 2.89345 16.5548 2.8825C17.3328 2.45252 17.9042 1.7483 18.2008 0.9537C17.4327 1.34785 16.6197 1.67352 15.7549 1.82773C15.0237 1.12198 13.9975 0.649857 12.9312 0.690412ZM13.6228 9.10503L13.6156 9.10481C13.5518 9.10336 13.4882 9.10199 13.4245 9.10069C13.4903 9.10199 13.557 9.10352 13.6228 9.10503Z" fill="url(#paint0_linear)"/>
<defs>
<linearGradient id="paint0_linear" x1="18.6987" y1="7.80313" x2="-0.000244452" y2="7.80313" gradientUnits="userSpaceOnUse">
<stop stop-color="#0069EF"/>
<stop offset="1" stop-color="#0457C1"/>
</linearGradient>
</defs>
</svg>
