<svg width="149" height="150" viewBox="0 0 149 150" fill="none" xmlns="http://www.w3.org/2000/svg">
<path fill-rule="evenodd" clip-rule="evenodd" d="M5.05182 10.1563C7.84186 10.1563 10.1036 7.8827 10.1036 5.07813C10.1036 2.27356 7.84186 0 5.05182 0C2.26178 0 0 2.27356 0 5.07813C0 7.8827 2.26178 10.1563 5.05182 10.1563ZM5.05182 38.2813C7.84186 38.2813 10.1036 36.0077 10.1036 33.2031C10.1036 30.3986 7.84186 28.125 5.05182 28.125C2.26178 28.125 0 30.3986 0 33.2031C0 36.0077 2.26178 38.2813 5.05182 38.2813ZM10.1036 60.547C10.1036 63.3516 7.84186 65.6251 5.05182 65.6251C2.26178 65.6251 0 63.3516 0 60.547C0 57.7424 2.26178 55.4689 5.05182 55.4689C7.84186 55.4689 10.1036 57.7424 10.1036 60.547ZM5.05182 93.7501C7.84186 93.7501 10.1036 91.4766 10.1036 88.672C10.1036 85.8674 7.84186 83.5939 5.05182 83.5939C2.26178 83.5939 0 85.8674 0 88.672C0 91.4766 2.26178 93.7501 5.05182 93.7501ZM10.1036 116.797C10.1036 119.601 7.84186 121.875 5.05182 121.875C2.26178 121.875 0 119.601 0 116.797C0 113.992 2.26178 111.719 5.05182 111.719C7.84186 111.719 10.1036 113.992 10.1036 116.797ZM5.05182 150C7.84186 150 10.1036 147.726 10.1036 144.922C10.1036 142.117 7.84186 139.844 5.05182 139.844C2.26178 139.844 0 142.117 0 144.922C0 147.726 2.26178 150 5.05182 150ZM38.0833 5.07813C38.0833 7.8827 35.8215 10.1563 33.0315 10.1563C30.2414 10.1563 27.9797 7.8827 27.9797 5.07813C27.9797 2.27356 30.2414 0 33.0315 0C35.8215 0 38.0833 2.27356 38.0833 5.07813ZM33.0315 38.2813C35.8215 38.2813 38.0833 36.0077 38.0833 33.2031C38.0833 30.3986 35.8215 28.125 33.0315 28.125C30.2414 28.125 27.9797 30.3986 27.9797 33.2031C27.9797 36.0077 30.2414 38.2813 33.0315 38.2813ZM38.0833 60.547C38.0833 63.3516 35.8215 65.6251 33.0315 65.6251C30.2414 65.6251 27.9797 63.3516 27.9797 60.547C27.9797 57.7424 30.2414 55.4689 33.0315 55.4689C35.8215 55.4689 38.0833 57.7424 38.0833 60.547ZM33.0315 93.7501C35.8215 93.7501 38.0833 91.4766 38.0833 88.672C38.0833 85.8674 35.8215 83.5939 33.0315 83.5939C30.2414 83.5939 27.9797 85.8674 27.9797 88.672C27.9797 91.4766 30.2414 93.7501 33.0315 93.7501ZM38.0833 116.797C38.0833 119.601 35.8215 121.875 33.0315 121.875C30.2414 121.875 27.9797 119.601 27.9797 116.797C27.9797 113.992 30.2414 111.719 33.0315 111.719C35.8215 111.719 38.0833 113.992 38.0833 116.797ZM33.0315 150C35.8215 150 38.0833 147.726 38.0833 144.922C38.0833 142.117 35.8215 139.844 33.0315 139.844C30.2414 139.844 27.9797 142.117 27.9797 144.922C27.9797 147.726 30.2414 150 33.0315 150ZM66.0622 5.07813C66.0622 7.8827 63.8004 10.1563 61.0104 10.1563C58.2204 10.1563 55.9586 7.8827 55.9586 5.07813C55.9586 2.27356 58.2204 0 61.0104 0C63.8004 0 66.0622 2.27356 66.0622 5.07813ZM61.0104 38.2813C63.8004 38.2813 66.0622 36.0077 66.0622 33.2031C66.0622 30.3986 63.8004 28.125 61.0104 28.125C58.2204 28.125 55.9586 30.3986 55.9586 33.2031C55.9586 36.0077 58.2204 38.2813 61.0104 38.2813ZM66.0622 60.547C66.0622 63.3516 63.8004 65.6251 61.0104 65.6251C58.2204 65.6251 55.9586 63.3516 55.9586 60.547C55.9586 57.7424 58.2204 55.4689 61.0104 55.4689C63.8004 55.4689 66.0622 57.7424 66.0622 60.547ZM61.0104 93.7501C63.8004 93.7501 66.0622 91.4766 66.0622 88.672C66.0622 85.8674 63.8004 83.5939 61.0104 83.5939C58.2204 83.5939 55.9586 85.8674 55.9586 88.672C55.9586 91.4766 58.2204 93.7501 61.0104 93.7501ZM66.0622 116.797C66.0622 119.601 63.8004 121.875 61.0104 121.875C58.2204 121.875 55.9586 119.601 55.9586 116.797C55.9586 113.992 58.2204 111.719 61.0104 111.719C63.8004 111.719 66.0622 113.992 66.0622 116.797ZM61.0104 150C63.8004 150 66.0622 147.726 66.0622 144.922C66.0622 142.117 63.8004 139.844 61.0104 139.844C58.2204 139.844 55.9586 142.117 55.9586 144.922C55.9586 147.726 58.2204 150 61.0104 150ZM121.244 5.07813C121.244 7.8827 118.982 10.1563 116.192 10.1563C113.402 10.1563 111.14 7.8827 111.14 5.07813C111.14 2.27356 113.402 0 116.192 0C118.982 0 121.244 2.27356 121.244 5.07813ZM116.192 38.2813C118.982 38.2813 121.244 36.0077 121.244 33.2031C121.244 30.3986 118.982 28.125 116.192 28.125C113.402 28.125 111.14 30.3986 111.14 33.2031C111.14 36.0077 113.402 38.2813 116.192 38.2813ZM121.244 60.547C121.244 63.3516 118.982 65.6251 116.192 65.6251C113.402 65.6251 111.14 63.3516 111.14 60.547C111.14 57.7424 113.402 55.4689 116.192 55.4689C118.982 55.4689 121.244 57.7424 121.244 60.547ZM116.192 93.7501C118.982 93.7501 121.244 91.4766 121.244 88.672C121.244 85.8674 118.982 83.5939 116.192 83.5939C113.402 83.5939 111.14 85.8674 111.14 88.672C111.14 91.4766 113.402 93.7501 116.192 93.7501ZM121.244 116.797C121.244 119.601 118.982 121.875 116.192 121.875C113.402 121.875 111.14 119.601 111.14 116.797C111.14 113.992 113.402 111.719 116.192 111.719C118.982 111.719 121.244 113.992 121.244 116.797ZM116.192 150C118.982 150 121.244 147.726 121.244 144.922C121.244 142.117 118.982 139.844 116.192 139.844C113.402 139.844 111.14 142.117 111.14 144.922C111.14 147.726 113.402 150 116.192 150ZM93.2643 5.07813C93.2643 7.8827 91.0025 10.1563 88.2125 10.1563C85.4225 10.1563 83.1607 7.8827 83.1607 5.07813C83.1607 2.27356 85.4225 0 88.2125 0C91.0025 0 93.2643 2.27356 93.2643 5.07813ZM88.2125 38.2813C91.0025 38.2813 93.2643 36.0077 93.2643 33.2031C93.2643 30.3986 91.0025 28.125 88.2125 28.125C85.4225 28.125 83.1607 30.3986 83.1607 33.2031C83.1607 36.0077 85.4225 38.2813 88.2125 38.2813ZM93.2643 60.547C93.2643 63.3516 91.0025 65.6251 88.2125 65.6251C85.4225 65.6251 83.1607 63.3516 83.1607 60.547C83.1607 57.7424 85.4225 55.4689 88.2125 55.4689C91.0025 55.4689 93.2643 57.7424 93.2643 60.547ZM88.2125 93.7501C91.0025 93.7501 93.2643 91.4766 93.2643 88.672C93.2643 85.8674 91.0025 83.5939 88.2125 83.5939C85.4225 83.5939 83.1607 85.8674 83.1607 88.672C83.1607 91.4766 85.4225 93.7501 88.2125 93.7501ZM93.2643 116.797C93.2643 119.601 91.0025 121.875 88.2125 121.875C85.4225 121.875 83.1607 119.601 83.1607 116.797C83.1607 113.992 85.4225 111.719 88.2125 111.719C91.0025 111.719 93.2643 113.992 93.2643 116.797ZM88.2125 150C91.0025 150 93.2643 147.726 93.2643 144.922C93.2643 142.117 91.0025 139.844 88.2125 139.844C85.4225 139.844 83.1607 142.117 83.1607 144.922C83.1607 147.726 85.4225 150 88.2125 150ZM148.445 5.07813C148.445 7.8827 146.184 10.1563 143.394 10.1563C140.603 10.1563 138.342 7.8827 138.342 5.07813C138.342 2.27356 140.603 0 143.394 0C146.184 0 148.445 2.27356 148.445 5.07813ZM143.394 38.2813C146.184 38.2813 148.445 36.0077 148.445 33.2031C148.445 30.3986 146.184 28.125 143.394 28.125C140.603 28.125 138.342 30.3986 138.342 33.2031C138.342 36.0077 140.603 38.2813 143.394 38.2813ZM148.445 60.547C148.445 63.3516 146.184 65.6251 143.394 65.6251C140.603 65.6251 138.342 63.3516 138.342 60.547C138.342 57.7424 140.603 55.4689 143.394 55.4689C146.184 55.4689 148.445 57.7424 148.445 60.547ZM143.394 93.7501C146.184 93.7501 148.445 91.4766 148.445 88.672C148.445 85.8674 146.184 83.5939 143.394 83.5939C140.603 83.5939 138.342 85.8674 138.342 88.672C138.342 91.4766 140.603 93.7501 143.394 93.7501ZM148.445 116.797C148.445 119.601 146.184 121.875 143.394 121.875C140.603 121.875 138.342 119.601 138.342 116.797C138.342 113.992 140.603 111.719 143.394 111.719C146.184 111.719 148.445 113.992 148.445 116.797ZM143.394 150C146.184 150 148.445 147.726 148.445 144.922C148.445 142.117 146.184 139.844 143.394 139.844C140.603 139.844 138.342 142.117 138.342 144.922C138.342 147.726 140.603 150 143.394 150Z" fill="#B4C0D5"/>
</svg>
