<svg width="15" height="9" viewBox="0 0 15 9" fill="none" xmlns="http://www.w3.org/2000/svg">
<path d="M11.9524 4.24825C11.9524 4.24825 13.8481 1.4711 14.0365 0.592447C14.0995 0.278574 13.9616 0 13.6349 0C13.6349 0 12.5425 0 11.9901 0C11.6133 0 11.4754 0.266172 11.3624 0.504677C11.3624 0.504677 10.4732 2.45088 9.39138 3.64484C9.04412 4.03074 8.95539 4.17289 8.76363 4.17289C8.60908 4.17289 8.6253 4.06985 8.6253 3.72163V0.670677C8.6253 0.243275 8.39967 0 8.04812 0L5.41168 0C5.21086 0 5.11689 0.17554 5.11689 0.334861C5.11689 0.736981 5.76372 0.886285 5.76372 1.97578L5.76372 4.22297C5.76372 4.67518 5.70695 4.85072 5.49373 4.85072C4.92895 4.85072 3.56947 2.84584 2.81627 0.635855C2.66506 0.184603 2.48618 0 2.05925 0L0.414523 0C0.176017 0 0 0.222287 0 0.460792C0 0.900118 0.514695 2.96367 2.53626 5.68835C3.8924 7.5215 5.73748 8.52799 7.34453 8.52799C8.32383 8.52799 8.62482 8.37964 8.62482 7.96512V6.55889C8.62482 6.20734 8.70019 6.0566 8.90101 6.0566C9.12711 6.0566 9.49441 6.15105 10.4265 7.07025C11.5322 8.12492 11.5761 8.58619 12.1786 8.58619H14.0241C14.2125 8.58619 14.3881 8.47647 14.3881 8.1626C14.3881 7.74808 13.8481 6.99679 13.0195 6.11766C12.6804 5.66593 12.128 5.17079 11.9524 4.94469C11.7015 4.6809 11.7769 4.52444 11.9524 4.24825Z" fill="white"/>
</svg>
