<svg width="24" height="14" viewBox="0 0 24 14" fill="none" xmlns="http://www.w3.org/2000/svg">
<path d="M20.0391 7.15231C20.0391 7.15231 23.1188 2.93701 23.4249 1.60335C23.5272 1.12694 23.3033 0.704102 22.7724 0.704102C22.7724 0.704102 20.9977 0.704102 20.1003 0.704102C19.4881 0.704102 19.2641 1.10811 19.0804 1.47013C19.0804 1.47013 17.6359 4.42417 15.8782 6.23641C15.314 6.82215 15.1699 7.03791 14.8583 7.03791C14.6073 7.03791 14.6336 6.88152 14.6336 6.35298L14.6336 1.72209C14.6336 1.07336 14.267 0.704102 13.6959 0.704102L9.41259 0.704102C9.08632 0.704102 8.93365 0.970545 8.93365 1.21237C8.93365 1.82273 9.98452 2.04935 9.98452 3.70303L9.98452 7.11394C9.98452 7.80032 9.8923 8.06676 9.54589 8.06676C8.62831 8.06676 6.41963 5.02366 5.19594 1.66923C4.95028 0.984302 4.65966 0.704103 3.96606 0.704103L1.29394 0.704103C0.90645 0.704103 0.620483 1.0415 0.620483 1.40351C0.620483 2.07035 1.45668 5.2025 4.74103 9.33815C6.94429 12.1206 9.9419 13.6483 12.5528 13.6483C14.1438 13.6483 14.6328 13.4231 14.6328 12.7939L14.6328 10.6595C14.6328 10.1259 14.7553 9.8971 15.0815 9.8971C15.4489 9.8971 16.0456 10.0405 17.5599 11.4357C19.3563 13.0365 19.4276 13.7366 20.4064 13.7366L23.4048 13.7366C23.7109 13.7366 23.9961 13.5701 23.9961 13.0937C23.9961 12.4645 23.1188 11.3242 21.7727 9.98978C21.2217 9.30412 20.3243 8.55258 20.0391 8.20939C19.6314 7.809 19.7539 7.57152 20.0391 7.15231Z" fill="url(#paint0_linear)"/>
<defs>
<linearGradient id="paint0_linear" x1="23.9961" y1="7.22037" x2="0.620483" y2="7.22037" gradientUnits="userSpaceOnUse">
<stop stop-color="#0069EF"/>
<stop offset="1" stop-color="#0457C1"/>
</linearGradient>
</defs>
</svg>
