<svg width="60" height="60" viewBox="0 0 60 60" fill="none" xmlns="http://www.w3.org/2000/svg">
<circle cx="30" cy="30" r="30" fill="url(#paint0_linear)"/>
<mask id="mask0" mask-type="alpha" maskUnits="userSpaceOnUse" x="4" y="4" width="52" height="52">
<circle cx="30" cy="30" r="25.5" fill="#C4C4C4" stroke="white"/>
</mask>
<g mask="url(#mask0)">
<path fill-rule="evenodd" clip-rule="evenodd" d="M24.8661 44.0019C25.1631 44.3699 25.768 44.4154 26.0963 44.074C26.3028 43.8732 26.4935 43.6561 26.6843 43.4388C26.8167 43.288 26.9492 43.1371 27.0871 42.9915C27.223 42.8398 27.3589 42.6868 27.4948 42.5338C27.6371 42.3748 27.7783 42.215 27.9195 42.0551C28.202 41.7353 28.4844 41.4155 28.7755 41.1036C28.8584 41.0138 28.9402 40.9227 29.022 40.8304C29.4597 40.3233 29.9046 39.8226 30.3555 39.3281C30.394 39.2839 30.4331 39.2403 30.4722 39.1967C30.4945 39.1717 30.5168 39.1468 30.539 39.1218C31.1787 39.1216 31.8183 39.1226 32.4579 39.1263L32.4687 39.2288C32.4715 39.3144 32.4764 39.4018 32.4814 39.4902C32.5085 39.9749 32.5372 40.4877 32.227 40.8803C32.1467 41.0136 32.0661 41.1469 31.9855 41.2802C31.6596 41.8193 31.3335 42.3586 31.0221 42.906C30.8694 43.1577 30.8538 43.4599 30.8417 43.7482C31.0245 44.0138 31.2698 44.3059 31.6138 44.292C32.4542 44.3076 33.2954 44.3046 34.1367 44.3017C34.8626 44.2991 35.5886 44.2965 36.3143 44.3059C36.3531 44.3046 36.393 44.304 36.4335 44.3035C36.7009 44.3 36.9954 44.2962 37.1729 44.0568C37.4747 43.7735 37.4795 43.2728 37.2607 42.9339C37.0641 42.6133 36.8717 42.2899 36.6793 41.9665C36.4869 41.6431 36.2945 41.3197 36.0979 40.9991C35.7242 40.5274 35.7538 39.9164 35.7817 39.3382C35.7852 39.267 35.7886 39.1963 35.7912 39.1263C36.8175 39.1202 37.8441 39.1219 38.8707 39.1236C40.186 39.1257 41.5013 39.1279 42.8162 39.1137C43.5955 39.1251 44.2448 38.2146 43.9105 37.4432C43.6854 37.0363 43.3811 36.6913 43.0767 36.3462C42.8949 36.1401 42.7131 35.934 42.5481 35.7146L42.322 35.4465C41.8999 34.9597 41.4887 34.4627 41.0786 33.9645C40.8593 33.7095 40.6446 33.4502 40.43 33.191C40.1539 32.8575 39.8779 32.5242 39.5923 32.2004C40.2609 32.2232 40.9307 32.2156 41.5993 32.1688C41.8927 31.9665 42.1416 31.6997 42.3292 31.3873C42.3328 31.0978 42.3172 30.8082 42.2907 30.5211C42.2901 30.5116 42.2889 30.4974 42.2877 30.4832C42.2865 30.469 42.2853 30.4547 42.2847 30.4452C42.1464 30.2766 42.0072 30.1087 41.868 29.9408C41.5584 29.5672 41.2487 29.1935 40.9475 28.8115C40.8564 28.6979 40.7652 28.5857 40.6741 28.4734L40.6734 28.4726C40.2814 28.0022 39.8918 27.5292 39.507 27.0512C39.3769 26.8928 39.2458 26.7354 39.1147 26.5779C38.7633 26.1558 38.4118 25.7337 38.0808 25.2935C38.6138 25.2813 39.1468 25.2759 39.6806 25.2705C39.7562 25.2698 39.8318 25.269 39.9074 25.2682C40.2453 25.0709 40.5267 24.7776 40.7022 24.4134C40.6914 24.1605 40.6758 23.9088 40.6469 23.6584L40.594 23.4966C40.3083 23.1415 40.0035 22.8046 39.6986 22.4676C39.4954 22.2429 39.2922 22.0183 39.0945 21.7882L39.0344 21.7212C38.8434 21.5064 38.6514 21.2924 38.4594 21.0784C38.1823 20.7696 37.9052 20.4608 37.6311 20.1493C37.5517 20.0596 37.4735 19.9723 37.3942 19.8838C36.948 19.3856 36.5031 18.8861 36.0582 18.3853C35.8685 18.1752 35.6833 17.9604 35.498 17.7456C35.2641 17.4743 35.0301 17.203 34.7871 16.9412C34.4901 16.5732 33.8853 16.5277 33.557 16.8691C33.3504 17.0699 33.1598 17.287 32.969 17.5043C32.8366 17.6551 32.7041 17.806 32.5661 17.9516C32.4303 18.1033 32.2944 18.2563 32.1585 18.4093C32.0162 18.5682 31.875 18.7281 31.7337 18.888C31.4513 19.2078 31.1688 19.5276 30.8778 19.8395C30.7949 19.9293 30.7131 20.0204 30.6313 20.1127C30.1936 20.6198 29.7487 21.1205 29.2977 21.6149C29.2593 21.6592 29.2202 21.7028 29.1811 21.7465C29.1588 21.7714 29.1365 21.7963 29.1143 21.8213C28.4746 21.8215 27.8349 21.8205 27.1954 21.8168L27.1846 21.7143C27.1818 21.6287 27.1769 21.5413 27.1719 21.4529C27.1448 20.9682 27.116 20.4554 27.4263 20.0629C27.5066 19.9295 27.5872 19.7962 27.6678 19.6629C27.9937 19.1239 28.3198 18.5845 28.6312 18.0371C28.7839 17.7854 28.7995 17.4832 28.8115 17.1949C28.6288 16.9293 28.3834 16.6372 28.0395 16.6511C27.199 16.6355 26.3579 16.6385 25.5165 16.6414C24.7907 16.644 24.0647 16.6466 23.339 16.6372C23.3002 16.6385 23.2603 16.6391 23.2198 16.6396C22.9524 16.6431 22.6579 16.6469 22.4804 16.8863C22.1785 17.1696 22.1737 17.6703 22.3926 18.0092C22.5892 18.3298 22.7816 18.6532 22.974 18.9766C23.1664 19.3 23.3588 19.6234 23.5554 19.944C23.929 20.4157 23.8995 21.0267 23.8715 21.6049C23.8681 21.6761 23.8647 21.7469 23.862 21.8168C22.8357 21.8229 21.8092 21.8212 20.7826 21.8195C19.4673 21.8174 18.152 21.8152 16.8371 21.8294C16.0578 21.818 15.4085 22.7285 15.7428 23.4999C15.9679 23.9068 16.2722 24.2518 16.5766 24.5969C16.7584 24.803 16.9402 25.0091 17.1052 25.2285L17.3313 25.4966C17.7534 25.9834 18.1646 26.4804 18.5747 26.9786C18.794 27.2336 19.0087 27.4929 19.2233 27.7521C19.4994 28.0856 19.7754 28.4189 20.0609 28.7427C19.3924 28.7199 18.7226 28.7275 18.054 28.7743C17.7606 28.9766 17.5117 29.2434 17.3241 29.5558C17.3205 29.8453 17.3361 30.1349 17.3625 30.422C17.3631 30.4315 17.3643 30.4457 17.3655 30.4599C17.3667 30.4741 17.368 30.4884 17.3686 30.4978C17.5069 30.6665 17.6461 30.8344 17.7853 31.0023C18.0949 31.3759 18.4046 31.7495 18.7057 32.1316C18.7971 32.2454 18.8884 32.3578 18.9797 32.4703L18.9799 32.4705C19.3719 32.9409 19.7615 33.4139 20.1463 33.8919C20.2763 34.0503 20.4074 34.2077 20.5385 34.3651C20.89 34.7872 21.2414 35.2094 21.5725 35.6496C21.0395 35.6618 20.5066 35.6672 19.9728 35.6726C19.8972 35.6733 19.8215 35.6741 19.7459 35.6749C19.408 35.8721 19.1266 36.1655 18.951 36.5297C18.9619 36.7826 18.9775 37.0343 19.0064 37.2846L19.0593 37.4465C19.345 37.8016 19.6498 38.1385 19.9547 38.4756C20.1579 38.7002 20.3611 38.9248 20.5588 39.1549L20.6189 39.2219C20.8099 39.4367 21.0019 39.6507 21.1939 39.8646C21.4709 40.1734 21.748 40.4823 22.0222 40.7937C22.1016 40.8835 22.1798 40.9708 22.2591 41.0593C22.7052 41.5575 23.1502 42.057 23.5951 42.5578C23.7848 42.7679 23.97 42.9827 24.1552 43.1974C24.3892 43.4687 24.6232 43.74 24.8661 44.0019ZM29.1143 21.8213C29.0976 21.8401 29.081 21.859 29.0645 21.878C28.8931 22.0828 28.7135 22.2801 28.5341 22.4772C28.2614 22.7768 27.989 23.0761 27.7453 23.4017C27.286 24.0403 27.6672 25.1165 28.4331 25.2454C28.7671 25.291 29.1036 25.2907 29.4404 25.2904C29.6735 25.2901 29.9068 25.2899 30.1395 25.3049C29.8207 25.7404 29.4794 26.1578 29.1382 26.5752C29.0187 26.7214 28.8992 26.8676 28.7807 27.0145C28.6591 27.1633 28.5378 27.3123 28.4166 27.4614C28.1337 27.8091 27.8508 28.1569 27.5637 28.5004C27.4893 28.59 27.4161 28.6796 27.3429 28.7692L27.3425 28.7697C27.1707 28.9949 26.9901 29.2125 26.8095 29.4299C26.5754 29.7119 26.3413 29.9938 26.1268 30.2922C25.7732 30.7791 25.8634 31.5378 26.33 31.9071C26.6502 32.2225 27.1118 32.2182 27.5223 32.2144L27.5301 32.2143C27.8848 32.2105 28.2407 32.2118 28.5967 32.2232C28.292 32.6512 27.9491 33.0472 27.6072 33.4422L27.5722 33.4827C27.4242 33.6572 27.2775 33.8317 27.132 34.0075C26.7412 34.4779 26.3492 34.947 25.95 35.4086C25.8586 35.5148 25.7697 35.6222 25.6807 35.7297L25.6806 35.7298C25.519 35.9408 25.3447 36.1417 25.1705 36.3425C24.8937 36.6616 24.6169 36.9807 24.3903 37.3408C23.9911 38.0869 24.5383 39.096 25.3499 39.12C26.5726 39.1285 27.7956 39.1262 29.0186 39.1239C29.5254 39.1229 30.0322 39.122 30.539 39.1218C30.5557 39.103 30.5723 39.0841 30.5888 39.0651C30.7602 38.8603 30.9397 38.663 31.1192 38.4658C31.3918 38.1663 31.6643 37.8669 31.908 37.5413C32.3673 36.9028 31.9861 35.8266 31.2201 35.6976C30.8862 35.6521 30.5497 35.6524 30.2129 35.6527C29.9798 35.653 29.7465 35.6532 29.5138 35.6382C29.8326 35.2027 30.1739 34.7853 30.5151 34.3679C30.6346 34.2217 30.7541 34.0755 30.8726 33.9285C30.9942 33.7799 31.1154 33.6308 31.2366 33.4818C31.5195 33.134 31.8025 32.7862 32.0895 32.4427C32.164 32.3531 32.2372 32.2634 32.3105 32.1738L32.3108 32.1734C32.4825 31.9482 32.6632 31.7306 32.8437 31.5132C33.0779 31.2312 33.312 30.9493 33.5265 30.6509C33.8801 30.164 33.7899 29.4053 33.3233 29.036C33.0031 28.7206 32.5415 28.7249 32.131 28.7287L32.1232 28.7288C31.7685 28.7325 31.4125 28.7313 31.0566 28.7199C31.3613 28.2919 31.7041 27.8959 32.0461 27.5008L32.0811 27.4604C32.229 27.2859 32.3757 27.1114 32.5212 26.9356C32.912 26.4652 33.3041 25.9961 33.7033 25.5345C33.7946 25.4284 33.8835 25.321 33.9724 25.2137L33.9727 25.2133C34.1343 25.0023 34.3085 24.8014 34.4828 24.6006C34.7596 24.2815 35.0364 23.9624 35.2629 23.6023C35.6622 22.8562 35.115 21.8471 34.3033 21.8231C33.0807 21.8146 31.8577 21.8169 30.6347 21.8192C30.1279 21.8202 29.6211 21.8211 29.1143 21.8213Z" fill="white"/>
</g>
<defs>
<linearGradient id="paint0_linear" x1="0" y1="30" x2="60" y2="30" gradientUnits="userSpaceOnUse">
<stop stop-color="#0575E6"/>
<stop offset="1" stop-color="#021B79"/>
</linearGradient>
</defs>
</svg>
