<svg width="45" height="78" viewBox="0 0 45 78" fill="none" xmlns="http://www.w3.org/2000/svg">
<mask id="mask0" mask-type="alpha" maskUnits="userSpaceOnUse" x="0" y="0" width="45" height="78">
<path d="M17.8333 64.6667L26.1667 64L26.2817 64.6444C26.7562 67.3013 26.7171 70.0245 26.1667 72.6667V72.6667L24.1334 73.3173C22.7458 73.7613 21.2542 73.7613 19.8666 73.3173L17.8333 72.6667V72.6667C17.2837 70.0283 17.2837 67.305 17.8333 64.6667V64.6667Z" fill="#C75D00"/>
<path d="M35.0507 30.6917C33.8835 30.159 33.4897 30.7335 33.8624 32.4258C35.0226 32.9691 35.4163 32.3945 35.0507 30.6917Z" fill="#FFD600"/>
<path d="M4.09174 48.4297C2.92455 47.9282 2.53782 48.5132 2.93158 50.1951C4.09877 50.707 4.48549 50.1115 4.09174 48.4297Z" fill="#FF2E00"/>
<path fill-rule="evenodd" clip-rule="evenodd" d="M21.0723 0H21.6066C22.426 2.41767 23.0544 4.96441 23.6827 7.51079L23.6827 7.51086C24.6128 11.2799 25.5426 15.0483 27.091 18.3962C27.5322 19.691 28.1453 20.8666 28.7574 22.0404C29.7355 23.916 30.7112 25.787 30.9793 28.1322C30.2626 28.6436 28.4265 29.0162 26.9469 29.3164C26.2201 29.4638 25.5794 29.5938 25.1996 29.7143C24.9548 29.7827 24.7567 29.8526 24.5967 29.909L24.5967 29.909C24.3238 30.0053 24.162 30.0624 24.069 30.006C23.9336 29.9239 23.9439 29.6015 23.9692 28.8096L23.9692 28.8095C23.9801 28.4681 23.9938 28.0396 23.9998 27.5054C25.9998 27 27.9998 26.2101 27.9998 26.2101C27.9998 26.2101 22.9998 5.77041 19.9998 12C14.8569 22.6794 13.9998 24.5 13.9998 26.2101C13.9998 27.084 14.9142 27.2622 15.8584 27.4462C17.0826 27.6848 18.3569 27.9331 17.7535 29.7201C16.734 29.8037 15.7145 29.7932 14.6949 29.6888C14.484 29.6261 14.1641 29.5347 13.8441 29.4433C13.5242 29.3519 13.2043 29.2604 12.9934 29.1978C12.4151 28.73 11.8603 28.1925 11.3076 27.6569L11.1512 27.5054C12.3483 24.0875 13.5248 20.6542 14.701 17.2218L14.7011 17.2214L14.7016 17.2201L14.7022 17.2181C15.4668 14.9869 16.2313 12.756 17.0012 10.53C17.3044 9.66414 17.5934 8.78373 17.8825 7.90279L17.8826 7.90268L17.8826 7.90253C18.7935 5.12739 19.706 2.34703 21.0723 0ZM14.4968 32.6262L14.4969 32.6262C15.2203 33.0261 15.9373 33.4225 15.9999 33.5C12.9998 37 11.4998 42.5 11.4998 42.5C11.4998 42.5 15.5032 43.8091 17.5001 45C17.5527 45.3646 17.2778 46.0516 17.0021 46.7406C16.7249 47.4333 16.4469 48.1282 16.4998 48.5C14.3693 47.8314 11.2072 47.197 9.04158 46.8209C7.90955 45.4524 6.31345 43.3527 7.25564 40.9709C8.70408 37.3878 10.3916 33.7106 12.9509 31.7258C13.0114 31.805 13.7574 32.2174 14.4968 32.6262ZM31.6616 34.3791C30.853 32.9584 29.6717 32.3212 28.5045 31.7884C28.9411 34.9161 31.3732 38.0163 33.0712 40.1809C34.1351 41.5372 34.9109 42.5261 34.7272 42.9243C34.0002 44.5 26.7002 46 24.0002 46C23.9756 46.3186 23.8378 46.8764 23.7 47.4341C23.5622 47.9919 23.4245 48.5497 23.3999 48.8683C24.0271 48.8422 24.5603 48.8742 25.0779 48.9052C25.8018 48.9486 26.4951 48.9902 27.3725 48.8683C28.9405 48.534 30.5014 48.0848 32.0553 47.6252C32.211 47.5672 32.376 47.5084 32.5477 47.4473C34.539 46.7385 37.4158 45.7145 36.7944 41.8483C35.9025 40.1446 34.8208 38.7116 33.7383 37.2775C33.0286 36.3373 32.3186 35.3967 31.6616 34.3791ZM39.7667 54.9942C40.1145 55.4501 40.461 55.9043 40.8089 56.348C42.0816 57.8419 41.8777 61.1534 40.5277 62.3965C39.3741 63.2823 38.1012 63.6978 36.8409 64.1091C36.7337 64.1441 36.6267 64.179 36.5198 64.2142C26.3878 67.3899 15.6511 67.0452 5.75811 62.3756C2.93858 60.8087 4.37296 56.0242 5.63858 53.4335C6.00154 53.3053 6.68789 52.7621 7.36612 52.2253C8.0149 51.7118 8.65624 51.2042 9 51.0714V53.4335C8.96519 53.63 8.76155 54.0385 8.55622 54.4503C8.34674 54.8705 8.13551 55.2942 8.1 55.5C8.03074 55.8064 7.93105 56.1354 7.83 56.4689C7.45917 57.6926 7.07012 58.9764 8.1 59.4286C15.9047 62.855 18.9141 63.4625 27 62C30.2766 61.3418 34.5 59.5 35.5 58.5C36.2099 57.79 35.2565 56.6212 34.1488 55.2634C32.4629 53.1967 30.4197 50.6921 33.3417 48.7013C35.8512 49.8614 37.8301 52.4555 39.7667 54.9942Z" fill="url(#paint0_linear)"/>
</mask>
<g mask="url(#mask0)">
<path d="M-12 -3H57V77H-12V-3Z" fill="#C4C4C4"/>
<rect x="10" y="-2" width="22" height="33" fill="url(#paint1_linear)"/>
<rect x="1" y="31" width="41" height="23" fill="url(#paint2_linear)"/>
<rect x="4" y="49" width="40" height="30" fill="url(#paint3_linear)"/>
</g>
<defs>
<linearGradient id="paint0_linear" x1="6.98276" y1="1.56" x2="55.9157" y2="53.3733" gradientUnits="userSpaceOnUse">
<stop stop-color="#FFB800"/>
<stop offset="1" stop-color="#FF5C00"/>
</linearGradient>
<linearGradient id="paint1_linear" x1="26" y1="31" x2="13.965" y2="-19.1136" gradientUnits="userSpaceOnUse">
<stop stop-color="#FF2257"/>
<stop offset="1" stop-color="#C42847"/>
</linearGradient>
<linearGradient id="paint2_linear" x1="35.5" y1="79.4643" x2="14.7978" y2="10.691" gradientUnits="userSpaceOnUse">
<stop stop-color="#EB2351"/>
<stop offset="1" stop-color="#FFB13C"/>
</linearGradient>
<linearGradient id="paint3_linear" x1="-7.03448" y1="50.2" x2="0.697089" y2="90.7162" gradientUnits="userSpaceOnUse">
<stop stop-color="#FF9900"/>
<stop offset="1" stop-color="#FFD600"/>
</linearGradient>
</defs>
</svg>
