<svg width="65" height="65" viewBox="0 0 65 65" fill="none" xmlns="http://www.w3.org/2000/svg">
<g filter="url(#filter0_i)">
<rect x="2" y="2" width="61" height="61" rx="30.5" fill="#E5C8E4" stroke="#DEB8DD" stroke-width="4"/>
<path d="M37.9713 5.46529C38.6462 4.91167 39.5749 4.72284 40.4324 4.84835C40.5037 4.85879 40.5706 4.87758 40.6367 4.90635C40.9807 5.056 40.7535 5.38987 40.4463 5.60523C40.2728 5.72691 40.1106 5.86767 39.9428 5.99376C39.6208 6.22551 39.4705 6.61176 39.4213 6.98836C39.4132 7.81881 39.7505 8.72914 40.5198 9.1584C40.8893 9.30605 41.3062 9.25878 41.6673 9.10526C41.726 9.08032 41.803 9.04825 41.8541 9.08636C42.0197 9.2098 41.8014 9.47639 41.627 9.587C41.0162 9.9745 40.3532 10.3325 39.6074 10.2908C38.8667 10.3145 38.1654 9.93969 37.6913 9.39718C37.1751 8.87837 37.0132 8.13308 36.9819 7.43167C36.9864 6.67497 37.3415 5.91475 37.9713 5.46529ZM37.668 6.4002C37.3442 6.87248 37.3782 7.46767 37.4319 8.00842C37.6188 9.04643 38.5892 9.93573 39.6832 9.94056C39.6934 9.94061 39.7043 9.94149 39.7144 9.94288C39.9337 9.97282 39.9762 9.33506 39.8162 9.18217C39.5587 8.93613 39.3624 8.62413 39.2495 8.29109C38.9597 7.57037 38.8703 6.68375 39.3238 6.00868C39.5902 5.63935 39.4802 5.19426 39.0491 5.3411C38.4863 5.53279 37.9877 5.89271 37.668 6.4002Z" fill="#080304"/>
<path d="M37.7871 6.62065C38.0842 6.10804 38.5438 5.74099 39.0639 5.53938C39.5017 5.3697 39.6228 5.82448 39.3631 6.21565C38.9314 6.91396 39.0166 7.83111 39.2925 8.57664C39.4017 8.92704 39.5932 9.25492 39.8445 9.51139C40.0029 9.67307 39.9617 10.3182 39.7377 10.2857C39.7263 10.284 39.7141 10.283 39.7025 10.2829C38.6623 10.2763 37.7401 9.35706 37.5623 8.28424C37.5112 7.72487 37.4788 7.1092 37.7871 6.62065Z" fill="#F5DCB6"/>
<path d="M47.5484 14.7857C47.5576 14.7312 47.6018 14.6903 47.657 14.6872C47.7239 14.6836 47.7816 14.7363 47.7847 14.8031C47.8004 15.1335 47.8627 15.4603 47.9096 15.7877C47.9778 16.2644 48.3619 16.6992 48.8345 16.7917C49.0389 16.8317 49.2432 16.8741 49.449 16.9054C49.5233 16.9167 49.5788 16.9828 49.5772 17.0579C49.576 17.1179 49.5378 17.1692 49.4806 17.1875C49.2422 17.264 48.997 17.3126 48.7491 17.3379C48.4461 17.3688 48.1983 17.6249 48.2643 17.9222C48.3331 18.2317 48.1292 18.5507 47.8523 18.3964C47.778 18.355 47.7069 18.3052 47.6385 18.2505C47.3545 18.0231 46.9854 18.0041 46.6907 18.2176C46.6214 18.2679 46.5494 18.3124 46.4732 18.3466C46.2676 18.4388 45.97 18.2495 46.0763 18.0508C46.0902 18.0249 46.1103 17.9992 46.1255 17.9739C46.1611 17.9147 46.198 17.8561 46.2357 17.798C46.4615 17.4493 46.3038 17.0861 45.9692 16.8397C45.9184 16.8024 45.8736 16.7596 45.8376 16.7091C45.7348 16.5648 45.8435 16.3743 46.0167 16.3371C46.2197 16.2934 46.4357 16.3105 46.6353 16.3747C46.7403 16.4085 46.7361 16.5412 46.6319 16.5772C46.5197 16.6159 46.5073 16.7607 46.6137 16.8133C46.7041 16.8581 46.7932 16.9051 46.8754 16.9626C46.9395 17.0074 46.9744 17.0847 46.9563 17.1608C46.9533 17.1733 46.95 17.1856 46.9463 17.1979C46.8668 17.4616 46.949 17.4986 47.2237 17.4773C47.2848 17.4726 47.3426 17.5044 47.3854 17.5484C47.4051 17.5687 47.4247 17.5891 47.4442 17.6096C47.6309 17.8061 47.9251 17.6695 47.8848 17.4014C47.8761 17.3436 47.8669 17.2858 47.8573 17.2282C47.849 17.1785 47.879 17.1297 47.9279 17.1181C48.0404 17.0914 48.101 16.8221 48.0119 16.7485C47.9288 16.6797 47.8529 16.6021 47.787 16.5143C47.7795 16.5043 47.7735 16.4933 47.7691 16.4816C47.7475 16.4243 47.7298 16.366 47.7146 16.307C47.6789 16.1693 47.4885 16.1495 47.4113 16.2689C47.4051 16.2785 47.3987 16.2881 47.3921 16.2976C47.3332 16.3834 47.2162 16.3326 47.2111 16.2286C47.2103 16.2125 47.2128 16.2008 47.2181 16.1854C47.374 15.7305 47.4678 15.2597 47.5484 14.7857Z" fill="#13080E"/>
<path d="M47.323 16.1897C47.3974 16.0761 47.5788 16.0952 47.6132 16.2265C47.6278 16.282 47.6447 16.3368 47.6652 16.3907C47.6694 16.4018 47.6752 16.4122 47.6824 16.4217C47.7449 16.504 47.8169 16.5769 47.8958 16.6415C47.9806 16.7109 47.9234 16.9672 47.8168 16.9922C47.7702 17.0032 47.7418 17.0495 47.7497 17.0967C47.759 17.1518 47.7679 17.207 47.7763 17.2623C47.8148 17.5159 47.5367 17.6463 47.359 17.4614C47.3388 17.4403 47.3184 17.4193 47.2979 17.3985C47.2571 17.3571 47.2019 17.3271 47.1439 17.3315C46.8816 17.3513 46.8049 17.3147 46.8796 17.0625C46.8824 17.0528 46.8851 17.043 46.8875 17.0332C46.9049 16.961 46.8715 16.8876 46.8103 16.8453C46.8003 16.8384 46.7902 16.8316 46.7799 16.825C46.6059 16.7123 46.623 16.4768 46.8106 16.3887C46.8886 16.3384 46.9597 16.2787 47.0304 16.2181C47.0715 16.1828 47.1342 16.2103 47.1368 16.2644C47.1394 16.3187 47.2017 16.3444 47.2374 16.3034C47.2687 16.2675 47.297 16.2294 47.323 16.1897Z" fill="#F2DCB7"/>
<path d="M39.7496 16.4337C39.756 16.3718 39.8083 16.3251 39.8706 16.326C39.9337 16.3269 39.9857 16.3759 39.9897 16.4389C39.9921 16.4782 39.9943 16.5175 39.9961 16.5569C39.9996 16.63 40.0549 16.6904 40.1276 16.699C40.1501 16.7016 40.1727 16.7043 40.1953 16.7071C40.2362 16.712 40.2658 16.7484 40.2621 16.7895C40.2615 16.7957 40.2609 16.8019 40.2604 16.8079C40.2581 16.8328 40.2389 16.8526 40.2141 16.8558C40.1988 16.8578 40.182 16.8599 40.1654 16.8621C40.1341 16.8661 40.1141 16.8298 40.1349 16.8061C40.1518 16.7867 40.1429 16.7562 40.1182 16.7493C40.0913 16.7417 40.0645 16.7341 40.0379 16.7265C40.0096 16.7185 39.9874 16.6967 39.9786 16.6687C39.977 16.6636 39.9754 16.6584 39.9738 16.6533C39.9424 16.5529 39.8091 16.5574 39.7814 16.6589C39.7773 16.6736 39.7732 16.6884 39.7691 16.7031C39.767 16.7105 39.7613 16.7163 39.754 16.7186C39.7383 16.7236 39.7226 16.7108 39.7243 16.6944C39.733 16.6074 39.7407 16.5205 39.7496 16.4337Z" fill="#816F82"/>
<path d="M39.9359 16.7609C39.9568 16.751 39.9717 16.7318 39.9759 16.7091C39.9762 16.7073 39.9765 16.7056 39.9769 16.7038C39.9931 16.6159 40.1094 16.6133 40.1275 16.7009C40.133 16.7277 40.1515 16.7502 40.1766 16.761C40.2245 16.7814 40.2447 16.8398 40.2189 16.8849C40.2121 16.8969 40.2054 16.9089 40.1987 16.9209C40.1246 17.0347 40.1602 17.1909 40.1703 17.3343C40.1735 17.3808 40.1301 17.4151 40.084 17.4079C40.0492 17.4024 40.0238 17.3744 40.0211 17.3393C40.0162 17.2742 40.0141 17.209 40.013 17.1437C40.0117 17.0677 39.9627 17.0012 39.8904 16.9778C39.7966 16.9474 39.7572 16.8365 39.8474 16.7965C39.8765 16.7835 39.9069 16.7734 39.9359 16.7609Z" fill="#0C040C"/>
<path d="M41.918 16.595C41.9245 16.4606 42.0188 16.3389 42.153 16.3291C42.168 16.328 42.1829 16.3272 42.1979 16.3265C42.3466 16.3203 42.459 16.4487 42.4588 16.5976C42.4587 16.7476 42.3436 16.8877 42.1949 16.8676C42.1373 16.8599 42.08 16.8434 42.0235 16.8125C41.9458 16.77 41.9137 16.6835 41.918 16.595Z" fill="#1C081C"/>
<path d="M39.6447 18.7508C39.7063 18.8991 39.616 19.0685 39.4554 19.0668C39.152 19.0637 39.0809 18.762 39.3009 18.6047C39.4236 18.5169 39.5867 18.6115 39.6447 18.7508Z" fill="#533B53"/>
<path d="M15.471 20.0493C15.545 20.0191 15.6013 19.9587 15.6282 19.8834C15.6377 19.8571 15.6479 19.831 15.6599 19.8058C15.7182 19.6833 15.8601 19.7488 15.8801 19.883C15.8805 19.886 15.881 19.889 15.8815 19.892C15.8867 19.9267 15.9018 19.9584 15.9292 19.9803C16.0303 20.0612 16.0348 20.2073 15.947 20.3025C15.9085 20.3443 15.8754 20.3892 15.8479 20.4368C15.7825 20.5496 15.6335 20.5945 15.5771 20.477C15.5516 20.4237 15.5035 20.3873 15.4454 20.3765C15.4378 20.3751 15.4302 20.3736 15.4226 20.3721C15.2639 20.3411 15.2304 20.1561 15.3777 20.0893C15.4084 20.0754 15.4396 20.0621 15.471 20.0493Z" fill="#0B050C"/>
<path d="M38.9865 20.1521C38.8063 20.1599 38.5626 20.0709 38.6539 19.9154C38.7232 19.7972 38.9132 19.6879 39.1787 19.6402C39.429 19.5952 39.5566 19.8616 39.377 20.0416C39.3171 20.1016 39.2309 20.1412 39.1461 20.145C39.0928 20.1474 39.0396 20.1498 38.9865 20.1521Z" fill="#120814"/>
<path d="M17.8264 19.7019C17.83 19.6562 17.8739 19.6252 17.9179 19.6379C17.9469 19.6463 17.9678 19.6719 17.9707 19.702C18.0337 20.339 18.1618 20.9042 18.3037 21.4393C18.3183 21.5067 18.3329 21.5748 18.3472 21.643C18.3541 21.6756 18.343 21.7094 18.3183 21.7317C18.3055 21.7433 18.2927 21.7549 18.2799 21.7665C18.2491 21.7946 18.1998 21.7835 18.1852 21.7445C18.162 21.6827 18.0639 21.6988 18.0617 21.7647C18.0569 21.911 18.0487 22.0564 18.0369 22.2004C18.0327 22.2528 17.9636 22.267 17.9346 22.2232C17.9286 22.2142 17.9271 22.2061 17.927 22.1953C17.9209 21.358 17.7606 20.5352 17.8264 19.7019Z" fill="#060304"/>
<path d="M18.4475 21.5718C18.4004 21.488 18.4349 21.3816 18.5189 21.3347C18.8496 21.1502 19.1609 20.8842 19.5136 20.7688C19.7706 20.6847 20.0238 20.9776 19.8569 21.1904C19.674 21.4596 19.5014 21.7375 19.3079 21.9994C19.1849 22.1658 18.9516 22.1103 18.9373 21.9038C18.9367 21.8954 18.9362 21.887 18.9357 21.8786C18.9268 21.7396 18.8082 21.6331 18.6698 21.6485C18.6506 21.6506 18.6315 21.6528 18.6124 21.6551C18.5457 21.6631 18.4805 21.6303 18.4475 21.5718Z" fill="#090408"/>
<path d="M18.104 21.5824C18.1082 21.5008 18.2244 21.4733 18.2636 21.545C18.2851 21.5844 18.3354 21.597 18.3734 21.5731C18.4039 21.554 18.4344 21.5351 18.465 21.5161C18.4796 21.5071 18.4955 21.5004 18.5122 21.4965C18.6084 21.4742 18.6962 21.5493 18.6992 21.648C18.704 21.8071 18.7124 21.9661 18.7405 22.1178C18.7498 22.1746 18.6817 22.2134 18.6364 22.1779C18.6354 22.1771 18.6344 22.1763 18.6334 22.1755C18.5962 22.1463 18.5419 22.1692 18.5354 22.2161C18.5236 22.3021 18.5117 22.3881 18.5 22.4742C18.4946 22.5137 18.509 22.5533 18.5385 22.58C18.5862 22.6232 18.6339 22.6662 18.6817 22.7088C18.739 22.7599 18.6897 22.8584 18.6142 22.8444C18.5888 22.8396 18.5677 22.822 18.5585 22.7979C18.5301 22.7233 18.5012 22.6494 18.4719 22.5762C18.4548 22.5333 18.395 22.5319 18.3764 22.5741C18.3535 22.626 18.2747 22.6108 18.2735 22.5541C18.2721 22.484 18.2702 22.414 18.2679 22.3441C18.2658 22.2806 18.2038 22.2369 18.1449 22.2607C18.1237 22.2692 18.1026 22.2783 18.0816 22.2879C17.9891 22.3302 17.8757 22.2835 17.8515 22.1847C17.8435 22.1523 17.8356 22.12 17.8276 22.0878C17.8176 22.048 17.8362 22.0065 17.8729 21.9881C17.8785 21.9853 17.8841 21.9826 17.8895 21.9798C17.9145 21.9674 17.9419 21.9697 17.9613 21.9898C17.9982 22.0282 18.0656 22.0102 18.072 21.9574C18.0869 21.8334 18.0975 21.7082 18.104 21.5824Z" fill="#F0DBB7"/>
<path d="M17.3029 22.8754C17.2654 22.8268 17.2625 22.758 17.2919 22.7041C17.3507 22.596 17.4827 22.5161 17.6008 22.437C17.6599 22.3975 17.7431 22.4148 17.7761 22.4777C17.8009 22.5249 17.8554 22.5486 17.9069 22.5352C18.0143 22.5073 18.1231 22.4837 18.2334 22.4645C18.2974 22.4534 18.3563 22.5 18.3605 22.5648C18.3618 22.5845 18.3629 22.6041 18.364 22.6238C18.3683 22.7041 18.4676 22.7414 18.5228 22.683C18.5589 22.6449 18.6198 22.6463 18.654 22.6861C18.6997 22.7393 18.7449 22.793 18.7892 22.8473C18.8002 22.8607 18.8161 22.8692 18.8334 22.8706C18.9071 22.8769 18.934 22.7679 18.8658 22.7393C18.8279 22.7234 18.79 22.7075 18.7522 22.6915C18.7145 22.6756 18.6947 22.634 18.7063 22.5948C18.7126 22.5733 18.719 22.5517 18.7254 22.5302C18.7507 22.4446 18.8424 22.3969 18.9261 22.428C18.9825 22.449 19.0386 22.4707 19.0944 22.4936C19.3617 22.6184 19.654 22.7074 19.9117 22.8471C19.9631 22.8749 19.9975 22.9262 20 22.9845C20.0042 23.0822 19.9297 23.1666 19.8326 23.1772C19.6738 23.1946 19.5126 23.2018 19.3542 23.192C18.9716 23.1683 18.5478 23.3094 18.3866 23.6572C18.3508 23.7343 18.3138 23.8109 18.2744 23.8867C18.2399 23.9532 18.1714 23.9944 18.0966 23.9965C17.9941 23.9993 17.9024 23.9282 17.8981 23.8257C17.8934 23.7128 17.9045 23.6002 17.9222 23.4877C17.9765 23.1435 17.7401 23.0295 17.4033 22.9404C17.3636 22.9299 17.3293 22.9096 17.3029 22.8754Z" fill="#070307"/>
<path d="M36.9427 23.5961C37.0269 23.5633 37.1087 23.5159 37.1521 23.4366C37.2641 23.2317 37.2355 22.9325 37.2981 22.6993C37.3784 22.4 37.7187 22.5853 37.8348 22.8726C37.8808 22.9866 37.9374 23.0961 38.0136 23.1961C38.0492 23.2428 38.0584 23.3025 38.0274 23.3523C37.9784 23.4306 37.8635 23.4382 37.8112 23.362C37.7909 23.3324 37.7707 23.3028 37.7507 23.273C37.6487 23.1212 37.4248 23.1668 37.4164 23.3495C37.4133 23.4195 37.4119 23.4897 37.412 23.5599C37.4121 23.6217 37.38 23.6794 37.3269 23.7109C37.2215 23.7732 37.2262 23.9068 37.3284 23.9742C37.4054 24.025 37.4663 24.0878 37.4672 24.1864C37.4696 24.2031 37.4719 24.2198 37.4739 24.2365C37.4889 24.3577 37.6659 24.3881 37.7607 24.3111C37.8167 24.2656 37.8987 24.3098 37.899 24.3819C37.8993 24.4357 37.8987 24.4897 37.8974 24.5436C37.8968 24.5676 37.8921 24.5913 37.8845 24.6141C37.7782 24.9326 37.79 25.2969 37.5712 25.5691C37.5398 25.6081 37.4917 25.6291 37.4418 25.6327C37.3315 25.6406 37.2352 25.5593 37.2295 25.4489C37.214 25.1492 37.2288 24.8488 37.2255 24.549C37.2235 24.3659 37.14 24.1843 36.9639 24.1344C36.8365 24.0983 36.6959 24.0846 36.5641 24.0614C36.4868 24.0478 36.434 23.9788 36.4342 23.9003C36.4344 23.8298 36.4777 23.7667 36.5437 23.7421C36.6763 23.6929 36.8109 23.6475 36.9427 23.5961Z" fill="#12090E"/>
<path d="M37.3983 23.3325C37.4107 23.1262 37.6504 23.0627 37.8055 23.1991C37.8595 23.2465 37.9142 23.2937 37.9698 23.3406C38.0344 23.3949 38.129 23.3918 38.1906 23.3342C38.1925 23.3324 38.1945 23.3305 38.1964 23.3287C38.2522 23.2765 38.3373 23.2709 38.4002 23.3143C38.5103 23.3924 38.5096 23.5522 38.4303 23.6614C38.3679 23.7474 38.3362 23.839 38.3523 23.9354C38.3792 24.0432 38.3112 24.1328 38.1881 24.2044C38.1253 24.2409 38.0524 24.1878 38.0518 24.1152C38.0514 24.0539 37.9938 24.0094 37.9358 24.0293C37.893 24.044 37.8557 24.0611 37.823 24.0801C37.6923 24.1559 37.5074 24.1234 37.4731 23.9763C37.4705 23.9654 37.4694 23.9539 37.4675 23.9429C37.4565 23.88 37.3898 23.8367 37.3039 23.8012C37.1922 23.755 37.1889 23.616 37.3032 23.5765C37.3581 23.5575 37.3943 23.5048 37.3946 23.4467C37.3948 23.4086 37.396 23.3705 37.3983 23.3325Z" fill="#F2DBB8"/>
<path d="M38.181 23.2683C38.136 23.1742 38.1636 23.0599 38.2539 23.0077C38.275 22.9955 38.2963 22.9841 38.3178 22.9736C38.4735 22.8978 38.6095 23.0493 38.5654 23.2168C38.5363 23.3274 38.4992 23.4324 38.4573 23.5321C38.3737 23.7311 38.3668 23.9619 38.4905 24.1387C38.5167 24.1762 38.5434 24.2125 38.5708 24.2475C38.5948 24.2781 38.6095 24.3092 38.6122 24.348C38.6193 24.4492 38.5444 24.5457 38.443 24.5492C38.3691 24.5517 38.2952 24.5483 38.2225 24.5298C38.1718 24.517 38.1241 24.487 38.1084 24.4372C38.0793 24.3447 38.0961 24.2093 38.0794 24.1107C38.0662 23.8712 38.1131 23.6498 38.1871 23.452C38.2094 23.3925 38.2084 23.3257 38.181 23.2683Z" fill="#0D0508"/>
<path d="M33.3068 23.5922C33.3314 23.5106 33.4079 23.4558 33.493 23.4606C33.5738 23.4653 33.6425 23.523 33.6556 23.6029C33.6974 23.8592 33.6938 24.1207 33.729 24.3778C33.9056 25.4678 34.169 26.5467 34.5815 27.5736C34.6762 27.8499 34.8381 28.0964 34.9965 28.3403C35.2417 28.7116 35.3966 29.1393 35.6856 29.4809C35.7025 29.5008 35.7248 29.5203 35.7417 29.5401C35.8976 29.7238 35.5847 29.9509 35.3437 29.9511C35.2887 29.9511 35.2336 29.9509 35.1786 29.9507C34.7159 29.9485 34.4195 30.4136 34.6336 30.8238C34.9328 31.3972 35.2794 31.9471 35.6854 32.4504C35.7646 32.5511 35.8464 32.65 35.9325 32.7455C35.9536 32.7743 35.9761 32.8022 35.9995 32.8293C36.4423 33.3418 36.2657 33.7028 35.6131 33.5217C35.5497 33.4996 35.4853 33.483 35.4203 33.4706C35.007 33.3915 34.7124 33.8403 34.9509 34.1869C35.3126 34.8002 35.7586 35.369 36.2959 35.8415C36.5215 36.0445 36.7127 36.2816 36.9374 36.4846C37.0652 36.6024 37.2179 36.6846 37.3668 36.7723C37.5274 36.8669 37.7069 37.1324 37.5288 37.1873C37.4826 37.2016 37.4265 37.1771 37.3787 37.1695C37.0889 37.1238 36.8013 37.0658 36.5086 37.0492C36.4433 37.0454 36.3793 37.037 36.3164 37.025C35.7285 36.9132 35.3644 37.1848 35.5786 37.7435C35.8744 38.3322 36.2983 38.8437 36.6663 39.3884C36.7653 39.535 36.71 39.7351 36.5339 39.7522C36.2821 39.7767 36.1302 40.0233 36.279 40.2279C36.5387 40.5847 36.8151 40.9288 37.1467 41.225C37.5842 41.6974 38.1407 42.0605 38.7683 42.2256C38.8268 42.241 38.8748 42.2761 38.9021 42.33C38.9459 42.4167 38.9248 42.5267 38.8451 42.5822C38.5367 42.797 38.1914 42.9569 37.8211 43.0334C37.7809 43.0417 37.7411 43.0517 37.7021 43.0643C37.5408 43.116 37.3775 43.1598 37.2127 43.1961C36.7 43.3092 36.3674 43.987 36.6955 44.3969C37.2448 45.0946 37.6461 45.9594 38.4452 46.4251C38.6638 46.5858 38.9256 46.6618 39.175 46.7622C39.238 46.7875 39.2902 46.8357 39.3057 46.9017C39.3339 47.0215 39.2708 47.1479 39.1641 47.2092C38.9116 47.3544 38.6485 47.4843 38.3539 47.5125C38.138 47.5311 37.9216 47.5352 37.705 47.5355C37.2477 47.5359 37.0723 47.9913 37.3482 48.3561C37.6556 48.7578 38 49.1586 38.4719 49.3727C38.9779 49.6666 39.5041 49.9327 40.0695 50.0922C40.1659 50.1194 40.2389 50.1994 40.2508 50.2989C40.2613 50.3871 40.2234 50.4747 40.1509 50.526C39.3564 51.0878 38.4934 51.5815 37.535 51.8009C37.2276 51.8487 36.9193 51.8922 36.6137 51.9493C36.398 51.9738 36.1811 51.9661 35.9654 51.9479C35.8816 51.9409 35.8128 51.8787 35.7952 51.7965C35.7677 51.6689 35.8723 51.5518 36.0027 51.5544C36.4762 51.564 36.9461 51.488 37.4136 51.4103C37.6031 51.3641 37.7888 51.3071 37.9709 51.2411C38.6932 50.9794 38.6273 49.9277 37.9544 49.5569C37.5574 49.3019 37.256 48.9292 36.9779 48.5565C36.6561 48.1601 36.2536 47.8293 35.9712 47.4023C35.9528 47.3744 35.9397 47.343 35.9363 47.3098C35.9199 47.1483 36.0865 47.0297 36.2463 47.0582C36.4734 47.0988 36.7012 47.1358 36.9331 47.1304C37.0183 47.1294 37.1036 47.1295 37.189 47.1301C37.7592 47.1339 37.8471 46.6123 37.4946 46.1641C37.2302 45.834 36.9624 45.5048 36.7265 45.1543C36.3355 44.5223 35.8275 43.9713 35.4314 43.3436C35.3201 43.1748 35.4643 42.9585 35.6661 42.9468C36.1187 42.9205 36.5804 42.9956 37.0218 42.8677C37.0966 42.8466 37.1715 42.8258 37.2464 42.8051C37.6524 42.6932 37.7083 42.1961 37.3774 41.9355C36.6335 41.3009 35.9679 40.5555 35.5244 39.6838C35.4711 39.5925 35.5129 39.505 35.5644 39.4258C35.5963 39.3767 35.6428 39.3379 35.7007 39.3292C35.9131 39.2973 36.0433 39.1295 35.9218 38.9524C35.6627 38.5746 35.3846 38.2085 35.2101 37.7827C35.1271 37.5831 35.0266 37.3857 34.9334 37.1857C34.6582 36.595 35.1249 36.1493 35.7138 36.4283C35.7271 36.4356 35.7405 36.4428 35.7539 36.4499C36.0432 36.6019 36.2503 36.2597 36.0014 36.0479C35.3324 35.4927 34.8941 34.7302 34.4532 33.9984C34.341 33.8248 34.3048 33.6262 34.299 33.4256C34.2946 33.2771 34.406 33.151 34.5537 33.1339C34.9041 33.0934 35.2601 32.4584 35.0571 32.1699C34.9427 32.0074 34.8354 31.84 34.7365 31.6675C34.4598 31.1841 34.1721 30.7016 33.9602 30.1875C33.8423 29.9014 34.0686 29.6106 34.378 29.6155C34.7236 29.621 34.9407 29.2566 34.7822 28.9495C34.5409 28.4824 34.3041 28.0124 34.0795 27.5369C33.9752 27.2628 33.888 26.9837 33.8114 26.7016C33.6487 26.1028 32.8803 26.0571 32.669 26.6405C32.3108 27.4175 32.0206 28.2235 31.7115 29.0201C31.6213 29.2636 31.4848 29.4812 31.3304 29.6869C31.2478 29.797 31.3576 29.9512 31.4858 29.901C31.4928 29.8982 31.4999 29.8961 31.5073 29.8946C31.5702 29.8816 31.6337 29.8696 31.6973 29.8581C31.7643 29.846 31.8238 29.9046 31.8177 29.9724C31.8146 30.0062 31.7957 30.0323 31.7663 30.0492C31.6173 30.1347 31.4582 30.2224 31.2931 30.2932C30.805 30.5024 30.5461 30.0676 30.8908 29.6637C30.906 29.6458 30.9207 29.6278 30.9348 29.6094C31.2749 29.2376 31.4515 28.7591 31.609 28.2909C31.8725 27.6785 32.0844 27.0448 32.3711 26.4426C32.6873 25.4941 33.0176 24.5493 33.3068 23.5922Z" fill="#070403"/>
<path d="M18.4816 24.3177C18.4296 24.1772 18.5461 24.0309 18.6941 24.0543C18.753 24.0636 18.8051 24.0991 18.8322 24.1523C18.8633 24.2135 18.8896 24.2754 18.9008 24.3378C18.9235 24.4638 18.7793 24.5225 18.6569 24.4846C18.6468 24.4814 18.6368 24.4783 18.6269 24.4752C18.5639 24.4556 18.5142 24.407 18.4916 24.345C18.4882 24.3359 18.4849 24.3268 18.4816 24.3177Z" fill="#120818"/>
<path d="M32.7524 26.5796C32.9625 25.993 33.7352 26.0385 33.8968 26.6402C33.9737 26.9264 34.0612 27.2096 34.1658 27.4878C34.3919 27.9717 34.6304 28.4501 34.8733 28.9256C35.0311 29.2343 34.8126 29.5992 34.4659 29.5937C34.155 29.5887 33.9272 29.8804 34.0443 30.1684C34.2568 30.6911 34.5461 31.1814 34.8242 31.6726C34.9249 31.8502 35.0343 32.0225 35.151 32.1897C35.3542 32.4805 34.994 33.1171 34.6416 33.1583C34.4932 33.1756 34.3815 33.3025 34.3857 33.4519C34.3914 33.6558 34.4275 33.8577 34.5403 34.0342C34.9821 34.7756 35.4213 35.5481 36.0918 36.1106C36.3424 36.3263 36.1314 36.6714 35.8398 36.5157C35.8276 36.5093 35.8156 36.5027 35.8036 36.496C35.2137 36.2135 34.7442 36.6599 35.0173 37.2541C35.1119 37.4599 35.2144 37.6629 35.2988 37.8682C35.4742 38.3009 35.7541 38.6728 36.0144 39.0568C36.1354 39.2352 36.0042 39.4029 35.791 39.4349C35.7326 39.4437 35.6858 39.4832 35.6538 39.5329C35.6022 39.6131 35.5604 39.7017 35.6137 39.7943C36.0581 40.6774 36.7251 41.4326 37.4707 42.0755C37.8039 42.3409 37.7472 42.8429 37.3368 42.9573C37.2626 42.978 37.1884 42.9989 37.1143 43.02C36.673 43.1492 36.2117 43.0739 35.7592 43.0999C35.5547 43.1117 35.4086 43.3306 35.5205 43.5022C35.9175 44.1381 36.4266 44.6963 36.8183 45.3366C37.0548 45.6918 37.3231 46.0253 37.588 46.3597C37.9424 46.8152 37.8529 47.3421 37.2758 47.3384C37.1923 47.3378 37.1088 47.3378 37.0254 47.3388C36.7942 47.3441 36.5672 47.3071 36.3408 47.2663C36.1789 47.2371 36.01 47.3572 36.0266 47.5209C36.0299 47.5543 36.043 47.5859 36.0613 47.614C36.3443 48.0467 36.7478 48.3819 37.0703 48.7835C37.349 49.1612 37.651 49.5388 38.0488 49.7971C38.7268 50.1748 38.7944 51.2364 38.0656 51.5034C37.883 51.5702 37.6969 51.628 37.5069 51.6748C37.0963 51.7439 36.6837 51.8116 36.2686 51.8207C36.018 51.8262 35.7875 51.9901 35.768 52.2401C35.7556 52.3993 35.8314 52.5501 35.9572 52.6485C35.9722 52.6602 35.9873 52.6721 36.0022 52.684C36.0477 52.7203 36.0865 52.764 36.1195 52.8119C36.1226 52.8165 36.1257 52.8211 36.1289 52.8256C36.4447 53.2824 36.2751 53.9772 35.7279 54.0717C35.3574 54.1356 34.9824 54.1688 34.6059 54.1548C34.1023 54.1614 33.6728 53.8674 33.2099 53.7114C33.1685 53.6974 33.1256 53.7135 33.1075 53.7533C33.0786 53.8169 32.9895 53.8264 32.9554 53.7654C32.927 53.7145 32.8996 53.663 32.8727 53.6114C32.8513 53.5703 32.8469 53.5226 32.8589 53.4778C32.861 53.4703 32.863 53.4627 32.865 53.4552C32.9036 53.3081 32.7896 53.1689 32.6384 53.1848C32.4051 53.2093 32.174 53.2543 31.9396 53.2622C31.5862 53.2662 31.2327 53.2656 30.8792 53.2646C30.5477 53.2638 30.4346 52.71 30.6392 52.4491C30.9705 52.0412 31.3036 51.6204 31.5021 51.1287C31.5925 50.9266 31.3388 50.7318 31.1343 50.8166C30.9265 50.9028 30.7342 51.0361 30.5279 51.1253C29.9135 51.3854 29.237 51.4018 28.5812 51.407C28.1163 51.392 28.0928 50.8609 28.5216 50.6806C28.7793 50.5724 29.0293 50.4488 29.2603 50.2871C29.6823 49.9648 30.143 49.6857 30.4865 49.2718C30.5583 49.1792 30.6628 49.0948 30.7536 49.0035C30.981 48.7745 30.8834 48.3544 30.5607 48.3601C29.9541 48.3532 29.3475 48.3636 28.7408 48.3593C28.0738 48.3614 27.928 47.5837 28.4581 47.1789C28.5268 47.1264 28.5939 47.0717 28.6589 47.0139C29.1179 46.7019 29.5105 46.3053 29.8488 45.8672C30.1594 45.417 30.3941 44.9193 30.6901 44.4604C30.9449 44.155 30.6857 43.8356 30.2882 43.8517C29.8252 43.8704 29.3608 43.8612 28.8973 43.85C28.8615 43.8491 28.8259 43.8457 28.7907 43.8395C28.2056 43.7374 28.0851 42.9953 28.5479 42.6232C28.6994 42.5015 28.853 42.3827 29.0127 42.2717C29.4726 41.9286 29.8557 41.4966 30.3035 41.1397C30.6478 40.8476 30.9015 40.4692 31.1889 40.1244C31.3138 39.9834 31.1524 39.7729 30.9641 39.7781C30.6548 39.7867 30.3463 39.8372 30.036 39.8185C29.28 39.8197 29.2312 38.9304 29.6967 38.3347C29.7031 38.3264 29.7096 38.3181 29.7159 38.3098C29.9765 37.9019 30.2095 37.4776 30.4416 37.0534C30.5158 36.9307 30.5477 36.7889 30.5495 36.6464C30.5494 36.6429 30.5493 36.639 30.5492 36.6348C30.5479 36.5603 30.5898 36.4917 30.6531 36.4524C30.8008 36.3606 30.7173 36.1822 30.5466 36.2153C30.4269 36.2386 30.308 36.2668 30.1896 36.2977C29.8403 36.3888 29.6632 36.0338 29.9283 35.7887C30.1136 35.6175 30.2879 35.4352 30.4407 35.2318C30.7704 34.8413 31.0007 34.3816 31.2234 33.9244C31.3623 33.7027 31.0185 33.4989 30.7708 33.5834C30.7088 33.6046 30.6468 33.6258 30.5846 33.6459C30.2248 33.7618 30.1347 33.4084 30.4676 33.2291C30.5254 33.198 30.5763 33.1553 30.617 33.1038C31.0068 32.6106 31.434 32.1306 31.6798 31.5438C31.893 31.0781 32.1484 30.6331 32.4288 30.2062C32.5848 29.9885 32.3288 29.6687 32.0623 29.6948C31.8973 29.711 31.7357 29.777 31.5886 29.8713C31.581 29.8762 31.573 29.8804 31.5645 29.8837C31.4363 29.9345 31.3257 29.7807 31.408 29.67C31.5639 29.4604 31.7018 29.2387 31.7929 28.9904C32.1027 28.1834 32.3934 27.3668 32.7524 26.5796Z" fill="#FCFFDF"/>
<path d="M38.6252 25.6812C38.6175 25.3421 39.0395 25.3053 39.1198 25.6348C39.1379 25.7092 39.1506 25.7855 39.1591 25.8622C39.172 25.9787 39.0993 26.0847 38.9888 26.1237C38.8715 26.1651 38.7357 26.123 38.6907 26.0071C38.6497 25.9018 38.6278 25.7915 38.6252 25.6812Z" fill="#1A091A"/>
<path d="M41.7992 26.3014C41.8208 26.2391 41.8798 26.1972 41.9457 26.1962C42.0093 26.1952 42.0681 26.2323 42.0851 26.2936C42.1545 26.543 42.0999 26.8108 42.1086 27.0678C42.0826 28.0114 42.3736 29.0303 43.0746 29.6855C43.1847 29.7883 43.3248 29.854 43.4392 29.952C43.4851 29.9913 43.5232 30.0358 43.5421 30.0821C43.6091 30.2453 43.3505 30.3134 43.1743 30.3195C43.0981 30.3222 43.022 30.3235 42.9458 30.3239C42.4206 30.327 42.0927 30.7512 42.1604 31.2721C42.1842 31.5411 42.3529 31.7631 42.5076 31.9736C42.8092 32.3776 42.593 32.7526 42.0919 32.6971C41.8366 32.6688 41.581 32.6303 41.3253 32.6283C41.2626 32.6278 41.2063 32.5866 41.1904 32.526C41.1692 32.4455 41.2266 32.3667 41.3098 32.3635C41.3982 32.3601 41.4866 32.3597 41.575 32.3612C41.8703 32.3661 42.0307 32.0636 41.898 31.7998C41.8383 31.6812 41.7933 31.5563 41.7754 31.4206C41.732 31.0575 41.6276 30.6982 41.5938 30.334C41.5718 30.0964 41.7774 29.9193 42.0152 29.9396C42.3589 29.9689 42.5291 29.6309 42.3371 29.3444C42.2573 29.2251 42.1846 29.1015 42.1283 28.9677C42.1138 28.933 42.0997 28.8982 42.086 28.8631C41.9511 28.5187 41.1333 28.3453 40.8786 28.6136C40.7466 28.7401 40.8137 28.951 40.9616 29.0586C40.9665 29.0622 40.9713 29.0659 40.9761 29.0697C41.0148 29.1008 41.029 29.1533 41.0126 29.2002C40.9372 29.4157 40.7056 29.5386 40.5405 29.6841C40.0214 30.0976 39.3682 30.2478 38.7446 30.4261C38.5624 30.4747 38.3772 30.5066 38.1906 30.528C37.8464 30.5675 37.6108 30.9471 37.8166 31.2258C37.9257 31.3782 38.1092 31.4181 38.2828 31.4628C38.3529 31.4808 38.3993 31.5447 38.3993 31.617C38.3993 31.6871 38.3558 31.7503 38.2903 31.7751C38.0179 31.8784 37.7425 31.9899 37.448 31.9884C37.1463 31.991 36.8445 31.9901 36.5431 31.9814C36.3919 31.9771 36.2655 32.0968 36.2476 32.247C36.2371 32.3353 36.2229 32.4232 36.207 32.5108C36.1873 32.6195 36.0518 32.6551 35.9828 32.5688C35.945 32.5217 35.947 32.4558 35.9713 32.4005C36.0527 32.2151 35.9825 32.0128 35.9304 31.8076C35.8653 31.5507 36.0943 31.4108 36.3041 31.5727C36.3703 31.6238 36.4513 31.6511 36.5347 31.6575C36.5407 31.6579 36.5468 31.6584 36.5528 31.6588C37.0534 31.6951 37.313 31.1276 37.1048 30.6709C37.0821 30.6211 37.0606 30.5706 37.0407 30.5195C37.0236 30.4756 37.0208 30.4313 37.0327 30.3857C37.055 30.3004 37.1242 30.2293 37.2115 30.2169C37.7145 30.1455 38.2353 30.2418 38.7224 30.0646C39.1174 29.9358 39.5418 29.8448 39.9143 29.6552C40.1125 29.5544 40.0533 29.2908 39.8393 29.2304C39.706 29.1927 39.594 29.0605 39.6049 28.9223C39.6093 28.8675 39.626 28.8192 39.6738 28.7891C39.6976 28.7741 39.7243 28.7642 39.7495 28.7516C40.0186 28.6176 40.3463 28.6028 40.5734 28.3892C40.7404 28.229 40.8918 28.0532 41.0448 27.8807C41.4265 27.4256 41.6071 26.8542 41.7992 26.3014Z" fill="#080307"/>
<path d="M39.8867 27.2027C39.7815 27.1337 39.7091 27.0076 39.7224 26.8825C39.7235 26.873 39.725 26.8636 39.7272 26.8546C39.753 26.747 39.9043 26.7724 39.9837 26.8495C40.0086 26.8738 40.0319 26.8994 40.0537 26.9259C40.1891 27.0905 40.0649 27.3197 39.8867 27.2027Z" fill="#0F040E"/>
<path d="M26.2883 29.8367C26.8097 28.8998 27.1552 27.8829 27.5678 26.8981C27.6035 26.8128 27.7058 26.7758 27.7901 26.8138C27.8468 26.8393 27.8817 26.8926 27.8837 26.9547C27.8993 27.4273 27.8385 27.9023 27.8952 28.3728C28.0177 28.9855 28.309 29.5641 28.7246 30.0366C28.9092 30.2923 29.123 30.5686 29.1427 30.8864C29.1494 30.9931 29.0552 31.0738 28.9489 31.0625C28.754 31.0419 28.5736 31.2225 28.6564 31.4002C28.8748 31.8689 29.1792 32.3071 29.6523 32.5464C29.8605 32.6629 30.0616 32.7944 30.2824 32.8891C30.3842 32.94 30.4924 32.8803 30.5612 32.8058C31.1082 32.3079 31.4058 31.6242 31.7364 30.9833C31.8461 30.7207 31.9074 30.4311 32.097 30.2078C32.1101 30.1922 32.1254 30.1786 32.1421 30.167C32.1632 30.1522 32.1845 30.1379 32.2062 30.124C32.3727 30.0173 32.6539 30.1856 32.5372 30.3452C32.2468 30.7782 31.9822 31.2297 31.7615 31.7022C31.5066 32.2979 31.0637 32.7851 30.6598 33.2858C30.6182 33.3374 30.5664 33.38 30.5078 33.4109C30.1662 33.591 30.2567 33.9513 30.625 33.8353C30.6929 33.8139 30.7607 33.791 30.8286 33.7684C31.0811 33.6841 31.4321 33.893 31.2887 34.1172C31.0581 34.581 30.8195 35.0473 30.4781 35.4436C30.3219 35.6471 30.144 35.8299 29.955 36.0016C29.6811 36.2504 29.8602 36.6162 30.2187 36.5247C30.3422 36.4932 30.4661 36.4644 30.591 36.4407C30.7653 36.4076 30.849 36.59 30.6974 36.6822C30.6753 36.6956 30.653 36.7086 30.6304 36.7211C30.6051 36.7352 30.5893 36.7598 30.5896 36.7887C30.59 36.835 30.5494 36.8737 30.5034 36.8685C30.4688 36.8645 30.4342 36.8608 30.3997 36.857C30.3825 36.8551 30.3652 36.8606 30.3523 36.8722C30.3324 36.89 30.3126 36.9079 30.2929 36.9258C30.2651 36.9512 30.221 36.9221 30.2299 36.8855C30.2366 36.858 30.2112 36.8364 30.1837 36.8431C29.7467 36.9496 29.3136 37.0929 28.8662 37.1436C28.7148 37.1607 28.5284 37.1275 28.5067 36.9768C28.4951 36.8958 28.5203 36.8084 28.5798 36.7445C28.7809 36.4981 29.0365 36.3026 29.2885 36.1098C29.671 35.8009 30.0301 35.4532 30.3286 35.0629C30.6144 34.6891 30.2761 34.364 29.8266 34.2251C29.6638 34.184 29.5057 34.1299 29.3488 34.0737C29.2642 34.0434 29.2091 33.9619 29.2118 33.8722C29.214 33.8019 29.2514 33.7376 29.3117 33.7014C29.3555 33.675 29.3995 33.6487 29.4434 33.6224C29.7428 33.4428 29.7242 33.0389 29.4231 32.862C29.2741 32.7745 29.1289 32.6816 28.9936 32.5744C28.4994 32.1002 28.2581 31.4506 27.9953 30.8387C27.9501 30.7381 27.9437 30.6306 27.9464 30.5226C27.949 30.4202 28.0498 30.3473 28.1464 30.3812C28.2979 30.4344 28.4353 30.2744 28.3399 30.1452C28.1362 29.8691 27.9337 29.5925 27.8121 29.2704C27.6563 28.9096 27.161 28.8545 27.0034 29.2146C26.8703 29.5188 26.7263 29.8177 26.5475 30.0997C25.9469 30.9518 25.3258 31.8153 24.4767 32.449C24.2781 32.5867 24.3668 32.9499 24.5978 33.0207C24.7214 33.0587 24.8431 33.1042 24.963 33.1559C24.9976 33.1708 25.0063 33.2171 24.982 33.2459C24.9702 33.2598 24.9539 33.265 24.9358 33.2632C24.7828 33.2484 24.6298 33.233 24.4776 33.2099C24.1682 33.1418 23.8518 33.1625 23.5375 33.1558C23.4338 33.1536 23.3458 33.0804 23.3217 32.9795C23.3003 32.8901 23.3331 32.7969 23.407 32.7423C23.6723 32.5461 23.9599 32.3823 24.2354 32.2018C25.0675 31.5496 25.6913 30.6914 26.2883 29.8367Z" fill="#0B0607"/>
<path d="M41.0639 28.5386C41.3319 28.2592 42.1854 28.4414 42.3283 28.8013C42.3421 28.836 42.3562 28.8705 42.3707 28.9048C42.4285 29.0408 42.5029 29.1665 42.5846 29.2879C42.7861 29.5868 42.6095 29.9403 42.2502 29.91C42.0027 29.8891 41.7886 30.0734 41.812 30.3207C41.8476 30.6965 41.9563 31.0673 42.0016 31.4422C42.02 31.5804 42.066 31.7078 42.127 31.8289C42.2657 32.104 42.0996 32.4202 41.7915 32.4151C41.7355 32.4142 41.6796 32.414 41.6237 32.4147C41.4796 32.4167 41.3802 32.5542 41.4192 32.6929C41.4465 32.8059 41.4631 32.9211 41.4643 33.0374C41.4667 33.2782 41.4582 33.5204 41.5095 33.7575C41.5998 34.1451 41.5568 34.5464 41.6343 34.9357C41.6867 35.2601 41.808 35.57 41.8476 35.897C41.8599 35.997 41.88 36.0948 41.9056 36.1911C42.0442 36.7138 41.7224 37.2397 41.1817 37.2271C40.6494 37.2215 40.1403 37.3784 40.3253 37.8776C40.3764 38.0154 40.4361 38.1505 40.4892 38.2815C40.6836 38.7733 41.0157 39.1916 41.2549 39.6603C41.6255 40.3841 41.207 41.3341 40.5004 40.9315C40.2571 40.7962 40.0816 40.5799 39.9083 40.3681C39.8721 40.3237 39.817 40.2986 39.7598 40.2994C39.6506 40.3009 39.5663 40.3948 39.5788 40.5032C39.6985 41.5373 40.0399 42.5694 40.6741 43.4065C40.8344 43.6221 41.0239 43.8099 41.2272 43.9834C41.4928 44.2101 41.3613 44.6899 41.032 44.5736C40.5005 44.4142 40.1132 44.7563 40.3006 45.2786C40.3631 45.453 40.4353 45.6255 40.4961 45.7998C40.525 45.8827 40.5561 45.965 40.594 46.0442C41.0274 46.9529 41.5084 47.8644 42.1586 48.637C42.4546 48.9888 42.2719 49.4893 41.8186 49.4126C41.5354 49.3647 41.2212 49.5723 41.3079 49.8462C41.3146 49.8675 41.3227 49.8886 41.3323 49.9095C41.5241 50.3808 41.6136 50.8904 41.87 51.3352C42.0894 51.7169 42.2287 52.148 42.5229 52.4844C42.7805 52.7783 42.4745 53.5351 42.0855 53.5727C41.9943 53.5816 41.9033 53.5913 41.8123 53.6019C41.5585 53.6574 41.3899 53.3953 41.1525 53.3706C40.8548 53.3441 40.546 53.3782 40.2621 53.2698C39.782 53.0948 39.2856 52.9292 38.8796 52.6099C38.4876 52.3317 37.9882 52.3945 37.6533 52.7393C37.6273 52.7662 37.6006 52.7924 37.5733 52.8179C37.3302 53.0453 36.954 52.9961 36.7426 52.739C36.6726 52.6538 36.6056 52.5662 36.541 52.4769C36.5331 52.466 36.5261 52.4543 36.5201 52.4422C36.445 52.2908 36.5421 52.1112 36.7086 52.0821C36.7408 52.0765 36.7731 52.0708 36.8054 52.0652C37.1108 52.008 37.4188 51.9645 37.7259 51.9166C38.6834 51.697 39.5456 51.2029 40.3393 50.6405C40.4118 50.5891 40.4497 50.5015 40.4392 50.4132C40.4273 50.3136 40.3543 50.2334 40.2577 50.2061C39.693 50.0465 39.1674 49.7801 38.6619 49.486C38.1905 49.2717 37.8463 48.8705 37.5392 48.4684C37.2634 48.1031 37.4392 47.6474 37.8969 47.6469C38.1128 47.6467 38.3287 47.6425 38.544 47.624C38.8383 47.5957 39.1011 47.4658 39.3533 47.3205C39.46 47.259 39.5232 47.1326 39.495 47.0126C39.4795 46.9465 39.4272 46.8982 39.3642 46.8728C39.115 46.7723 38.8536 46.6963 38.6352 46.5355C37.8369 46.0694 37.436 45.2037 36.8871 44.5053C36.5591 44.0946 36.8922 43.4165 37.4054 43.3029C37.5695 43.2666 37.732 43.223 37.8926 43.1713C37.9318 43.1588 37.9716 43.1487 38.0119 43.1404C38.3818 43.0638 38.7267 42.9038 39.0348 42.6888C39.1144 42.6332 39.1355 42.5232 39.0918 42.4365C39.0645 42.3824 39.0164 42.3472 38.9578 42.3318C38.3308 42.1664 37.775 41.803 37.3379 41.3302C37.0064 41.0336 36.7302 40.689 36.4707 40.3316C36.322 40.1269 36.4741 39.8805 36.7258 39.8559C36.9018 39.8388 36.9571 39.6389 36.8582 39.4922C36.4905 38.9468 36.0668 38.4347 35.7713 37.8452C35.5573 37.2862 35.9219 37.0149 36.5101 37.1264C36.5724 37.1382 36.6357 37.1464 36.7004 37.1503C36.9928 37.1668 37.28 37.2249 37.5695 37.2707C37.6174 37.2782 37.6735 37.3029 37.7198 37.2885C37.8978 37.2332 37.7183 36.9678 37.5578 36.8731C37.409 36.7853 37.2565 36.703 37.1288 36.5851C36.9043 36.3819 36.7133 36.1446 36.4879 35.9414C35.9511 35.4684 35.5054 34.899 35.1441 34.2851C34.9057 33.938 35.2008 33.4887 35.6143 33.5683C35.6789 33.5807 35.7427 33.5973 35.8057 33.6192C35.9044 33.6467 36.0027 33.685 36.1012 33.7239C36.5663 33.9078 36.7834 33.486 36.4141 33.1488C36.3721 33.1103 36.3305 33.0715 36.2904 33.0316C36.1769 32.9184 36.1444 32.753 36.1739 32.5954C36.2331 32.2792 36.5074 32.0241 36.8291 32.0285C37.0448 32.0315 37.2606 32.0313 37.4764 32.0295C37.7848 32.031 38.073 31.9154 38.3583 31.8084C38.4261 31.783 38.4711 31.7177 38.4711 31.6453C38.4711 31.5705 38.4231 31.5045 38.3506 31.4861C38.1687 31.4398 37.9761 31.3986 37.8618 31.2407C37.6474 30.9534 37.8904 30.5595 38.2466 30.5195C38.4439 30.4974 38.6397 30.4642 38.8322 30.4134C39.4843 30.229 40.1674 30.0736 40.7103 29.6459C40.8827 29.4955 41.1247 29.3685 41.2037 29.1459C41.2211 29.0972 41.2061 29.0424 41.1656 29.0102C41.1602 29.0059 41.1547 29.0018 41.1492 28.9979C40.9952 28.8881 40.9265 28.6687 41.0639 28.5386Z" fill="#FFF2DF"/>
<path d="M20.9333 27.9308C20.9368 27.8856 20.9862 27.8588 21.028 27.8766C21.0495 27.8858 21.0622 27.9044 21.0655 27.9275C21.0809 28.0336 21.0948 28.1402 21.1082 28.2471C21.1239 28.3726 21.2313 28.4633 21.3573 28.4747C21.5099 28.4886 21.5693 28.6567 21.4393 28.7378C21.419 28.7504 21.3983 28.7624 21.3773 28.7741C21.2841 28.826 21.2256 28.9217 21.2229 29.0284C21.2198 29.1477 21.2155 29.2669 21.2078 29.3859C21.2042 29.4411 21.1581 29.4836 21.1028 29.4839C21.0471 29.4843 21.0008 29.4414 20.9966 29.3859C20.9885 29.2783 20.9801 29.1707 20.9702 29.0632C20.9605 28.9581 20.8748 28.885 20.7699 28.8732C20.6405 28.8587 20.6496 28.7097 20.7599 28.6403C20.7734 28.6319 20.7868 28.6232 20.8001 28.6144C20.8556 28.5775 20.8892 28.5165 20.8956 28.4502C20.9124 28.2774 20.9197 28.1036 20.9333 27.9308Z" fill="#0D060D"/>
<path d="M26.7095 29.8277C26.8856 29.5493 27.0275 29.2544 27.1586 28.9542C27.3138 28.5992 27.8021 28.6534 27.9555 29.0092C28.0754 29.3273 28.2751 29.6004 28.476 29.873C28.5698 30.0004 28.4343 30.158 28.285 30.1055C28.1898 30.0721 28.0905 30.1439 28.0879 30.2448C28.0852 30.3515 28.0915 30.4577 28.1361 30.557C28.395 31.1609 28.6327 31.802 29.1197 32.2701C29.253 32.3759 29.3961 32.4676 29.543 32.554C29.8398 32.7287 29.8583 33.1269 29.563 33.3043C29.5197 33.3303 29.4764 33.3562 29.4332 33.3823C29.3738 33.418 29.3368 33.4816 29.3347 33.5509C29.332 33.6394 29.3865 33.7199 29.4699 33.7499C29.6244 33.8053 29.7801 33.8586 29.9405 33.8992C30.3835 34.0363 30.7171 34.3564 30.4358 34.7251C30.1416 35.1107 29.7875 35.4542 29.4103 35.7593C29.162 35.9497 28.9101 36.1426 28.712 36.3857C28.6533 36.4488 28.6285 36.535 28.64 36.6149C28.6613 36.7637 28.8452 36.7966 28.9945 36.7796C29.3991 36.7336 29.7918 36.6108 30.1866 36.5095C30.2618 36.4903 30.3288 36.5619 30.3109 36.6375C30.3082 36.6488 30.3045 36.6564 30.2982 36.6662C29.9887 37.1543 29.7523 37.7092 29.3676 38.1424C29.1201 38.421 28.8247 38.6588 28.512 38.8615C28.4285 38.9156 28.3422 38.9657 28.2538 39.012C27.921 39.1864 27.6081 39.6049 27.9802 39.5531C28.4936 39.5497 28.9066 39.8897 29.3971 39.9831C29.4541 39.9985 29.5114 40.012 29.569 40.0239C30.0549 40.1246 30.3152 40.6391 29.9123 40.9288C29.5539 41.2705 29.1849 41.6019 28.7868 41.8986C28.2164 42.2742 27.7491 42.8032 27.1183 43.0844C27.0206 43.1279 26.9519 43.221 26.9526 43.3279C26.9532 43.4113 26.9949 43.4897 27.0657 43.5336C27.6527 43.8977 28.3408 44.0545 29.022 44.1464C29.6726 44.1751 30.0906 44.8421 29.7204 45.3778C29.4813 45.7238 29.207 46.0432 28.867 46.305C28.4945 46.5758 28.1563 46.8942 27.7512 47.12C27.3158 47.3514 26.9838 47.7347 26.5385 47.9491C26.4673 47.9834 26.4188 48.0531 26.4204 48.1321C26.4225 48.2279 26.497 48.3066 26.5922 48.317C27.3481 48.3994 28.0865 48.6094 28.8485 48.6505C29.5603 48.6657 29.848 49.362 29.2625 49.7671C29.1678 49.8327 29.0729 49.8979 28.9788 49.9638C28.3994 50.2969 27.7477 50.4778 27.133 50.7347C26.8904 50.8517 26.6208 50.8301 26.3575 50.8303C26.266 50.8304 26.1891 50.8962 26.1779 50.9869C26.1671 51.0744 26.2206 51.1568 26.3044 51.1843C26.8355 51.3584 27.3971 51.4186 27.9323 51.5828C27.9954 51.6022 28.0321 51.6695 28.0203 51.7345C28.0139 51.7704 27.9938 51.7992 27.9635 51.8196C27.3816 52.2125 26.8177 52.6414 26.167 52.921C25.8553 53.0854 25.4933 53.0543 25.1534 53.0577C24.9388 53.0686 24.7263 53.053 24.5147 53.0273C24.0907 52.9759 23.8796 52.1946 24.1284 51.8473C24.3697 51.567 24.4551 51.2011 24.6338 50.8853C24.7607 50.6975 24.6752 50.4656 24.6796 50.2571C24.6733 50.1253 24.5798 50.0127 24.4492 49.9945C24.296 49.9732 24.1415 49.9636 23.9863 49.9604C23.183 49.9436 23.0536 49.1089 23.5279 48.4603C23.6464 48.2983 23.7518 48.127 23.8422 47.948C24.1099 47.4185 24.3591 46.8812 24.596 46.3379C24.8358 45.7599 24.4858 45.4569 23.899 45.6743C23.8316 45.6993 23.7627 45.7205 23.6916 45.7357C23.4485 45.7974 23.1985 45.8325 22.9471 45.8423C22.4794 45.8605 22.4326 45.3425 22.87 45.1759C23.2381 45.0453 23.4741 44.7235 23.7268 44.4492C24.3397 43.8081 24.6673 42.9628 24.9112 42.1314C24.9563 42.0018 25.0099 41.875 25.0618 41.7476C25.1758 41.4678 24.9414 41.1745 24.6779 41.3224C24.2816 41.5335 23.8193 41.5024 23.3851 41.4834C22.8765 41.4496 22.8519 40.7593 23.22 40.4067C23.3861 40.2477 23.5365 40.0742 23.659 39.8776C23.8985 39.5082 24.1891 39.169 24.3811 38.771C24.4175 38.691 24.4641 38.6147 24.5135 38.5394C24.7997 38.1026 24.5921 37.6567 24.0931 37.8107C23.6654 38.0026 23.3977 37.3673 23.7019 37.0106C24.227 36.3949 24.6871 35.7296 24.9016 34.9452C24.9152 34.8574 24.9496 34.7813 24.9955 34.7117C25.2814 34.2782 25.1171 34.1944 24.6145 34.3249C24.3304 34.4073 24.1475 34.0398 24.3637 33.8378C24.6527 33.5677 24.923 33.2796 25.1499 32.9527C25.184 32.9139 25.1693 32.8528 25.1218 32.8327C25.0123 32.7864 24.9013 32.7453 24.7887 32.7107C24.5608 32.6406 24.4732 32.2823 24.6691 32.1463C25.5057 31.5208 26.1177 30.6686 26.7095 29.8277Z" fill="#FFF2DF"/>
<path d="M19.4261 29.5827C19.4445 29.5251 19.5017 29.4893 19.5618 29.496C19.6189 29.5023 19.6645 29.5456 19.6742 29.6022C19.6799 29.6359 19.6857 29.6696 19.6915 29.7034C19.7041 29.7771 19.7632 29.8342 19.8374 29.8442C19.8665 29.8481 19.8964 29.8521 19.9239 29.8558C19.9671 29.8616 19.9973 29.9024 19.9925 29.9457C19.9895 29.9725 19.9737 29.9943 19.9498 30.0069C19.9208 30.0223 19.8917 30.0376 19.8626 30.053C19.7582 30.1083 19.718 30.2257 19.7268 30.3435C19.7279 30.3583 19.7282 30.3731 19.7276 30.3877C19.7218 30.5208 19.5456 30.5495 19.4616 30.4461C19.4177 30.392 19.3897 30.332 19.3729 30.27C19.3572 30.212 19.313 30.1632 19.2535 30.1545C19.1334 30.1368 19.1017 29.9834 19.2077 29.9242C19.2338 29.9096 19.26 29.8951 19.2864 29.8808C19.3273 29.8585 19.3571 29.8203 19.3693 29.7753C19.3867 29.7107 19.4058 29.6465 19.4261 29.5827Z" fill="#0F070F"/>
<path d="M31.815 29.6967C31.7416 29.7135 31.7019 29.6287 31.7687 29.5941C31.949 29.5006 32.1394 29.4598 32.3285 29.4999C32.4667 29.5292 32.4681 29.7018 32.3524 29.7828C32.2659 29.8433 32.1812 29.9073 32.1001 29.9786C32.0633 30.0109 32.0118 30.0212 31.9666 30.0023C31.9182 29.9821 31.8886 29.933 31.8923 29.8807C31.8948 29.8447 31.8976 29.8054 31.9 29.769C31.9031 29.7224 31.8606 29.6862 31.815 29.6967Z" fill="#948A83"/>
<path d="M18.3757 30.971C18.38 30.9311 18.4006 30.8992 18.4332 30.8758C18.4592 30.8572 18.4852 30.8386 18.5114 30.8203C18.6998 30.6886 18.9419 30.8319 18.7685 30.9827C18.6969 31.0449 18.6052 31.089 18.5123 31.1118C18.4311 31.1317 18.3666 31.054 18.3757 30.971Z" fill="#4A364A"/>
<path d="M17.2681 31.9043C17.2749 31.8771 17.2938 31.8546 17.3157 31.8372C17.3967 31.7728 17.4924 31.728 17.5959 31.7024C17.6928 31.6784 17.7809 31.7523 17.794 31.8513C17.8043 31.9294 17.7659 32.0062 17.6967 32.0438C17.6743 32.056 17.6518 32.0681 17.6292 32.08C17.4836 32.1568 17.2283 32.064 17.2681 31.9043Z" fill="#07020B"/>
<path d="M45.509 32.9306C45.5143 32.7887 45.6399 32.7841 45.6692 32.923C45.6809 32.9784 45.695 33.0324 45.7127 33.0843C45.7309 33.1377 45.724 33.1968 45.6998 33.2478C45.6269 33.4017 45.6162 33.6049 45.6154 33.8005C45.6143 33.8332 45.5796 33.8534 45.5506 33.8383C45.5488 33.8373 45.547 33.8364 45.5452 33.8354C45.5297 33.8273 45.5197 33.8115 45.5191 33.794C45.515 33.6706 45.5113 33.5468 45.5071 33.4236C45.5046 33.3518 45.4506 33.2951 45.3795 33.2853C45.2858 33.2725 45.259 33.1644 45.3353 33.1084C45.37 33.0829 45.4057 33.0606 45.4418 33.0398C45.4813 33.0171 45.5073 32.9761 45.509 32.9306Z" fill="#1A0C1A"/>
<path d="M14.3051 33.7572C14.3275 33.6155 14.3187 33.4693 14.3175 33.3247C14.3149 32.9884 14.603 32.9344 14.6674 33.2645C14.7279 33.633 14.8735 33.9833 15.0164 34.3322C15.0474 34.408 15.0114 34.4943 14.9364 34.5271C14.8625 34.5595 14.7754 34.5281 14.7402 34.4555C14.6822 34.3356 14.5082 34.3406 14.4573 34.4637C14.4002 34.6018 14.3399 34.7388 14.273 34.8736C14.2457 34.9287 14.1825 34.9555 14.1231 34.9395C14.0461 34.9187 14.0028 34.8359 14.0323 34.7618C14.1627 34.4354 14.295 34.1065 14.3051 33.7572Z" fill="#0F080B"/>
<path d="M16.0019 33.2942C15.8454 33.4289 15.7463 32.989 15.9091 32.8621C15.911 32.8606 15.9129 32.8592 15.9148 32.8577C16.0348 32.7668 16.1849 32.8903 16.1584 33.0385C16.1483 33.0951 16.1282 33.1479 16.0911 33.1926C16.0646 33.2245 16.0332 33.2672 16.0019 33.2942Z" fill="#180719"/>
<path d="M41.1211 32.874C41.1199 32.8274 41.154 32.7874 41.2004 32.783C41.2499 32.7784 41.2938 32.8157 41.2983 32.8652C41.3251 33.1631 41.3946 33.4554 41.476 33.7427C41.5657 34.0479 41.5213 34.3704 41.5794 34.6816C41.6357 35.0836 41.8006 35.4632 41.8237 35.8712C41.9057 36.3122 42.1047 36.7228 42.3114 37.1171C42.3955 37.2931 42.1884 37.4837 41.9951 37.5096C41.8621 37.5274 41.7282 37.5393 41.5939 37.5458C40.958 37.5768 40.4892 38.1388 40.8167 38.6848C40.9639 38.9303 41.1144 39.1743 41.2445 39.428C41.4529 39.8369 41.7374 40.1983 41.9945 40.5761C42.0373 40.6425 42.0939 40.7027 42.1525 40.7618C42.4531 41.0647 42.2022 41.5123 41.7767 41.5427C41.0716 41.5547 40.2037 42.5135 40.6129 43.0878C40.8145 43.3707 41.052 43.6254 41.3302 43.8371C41.3955 43.8868 41.4569 43.9415 41.5176 43.9966C41.8553 44.3032 42.3125 44.4306 42.7539 44.5012C43.0242 44.5365 42.7614 44.963 42.4893 44.9784C42.4521 44.9805 42.4147 44.9814 42.3772 44.981C41.9689 44.9802 41.5811 45.1453 41.1727 45.141C41.101 45.1448 41.0294 45.144 40.9582 45.1391C40.6959 45.1212 40.4528 45.3684 40.5261 45.6208C40.6636 46.1179 40.9805 46.5338 41.1873 47.0015C41.4589 47.5911 41.8613 48.1021 42.2585 48.6087C42.5796 49.0062 43.0201 49.2636 43.4542 49.5194C43.6506 49.6351 43.919 49.9529 43.7012 50.0201C43.664 50.0315 43.6126 50.0272 43.5737 50.0297C42.9661 50.0675 42.354 50.002 41.7471 50.059C41.6442 50.0686 41.5537 50.132 41.5061 50.2238C41.4771 50.2796 41.4698 50.3442 41.4849 50.4053C41.6176 50.9417 41.9656 51.3873 42.1748 51.8931C42.2756 52.1447 42.4464 52.3557 42.6275 52.5528C42.8744 52.8208 43.0606 53.1632 43.3946 53.3352C43.7254 53.5418 44.105 53.6288 44.4841 53.6969C44.5797 53.7141 44.6492 53.7973 44.6483 53.8944C44.6474 53.9962 44.5693 54.0814 44.4677 54.0864C43.8545 54.1164 43.2384 54.041 42.6258 54.0977C42.1739 54.1842 41.7083 54.1557 41.2607 54.0588C41.1531 54.0334 41.0447 54.0176 40.9357 54.0075C40.4488 53.9623 40.0774 54.4301 39.8991 54.8853C39.6625 55.4603 39.6548 56.094 39.6138 56.7061C39.6265 56.8904 39.6045 57.1004 39.6206 57.2977C39.6493 57.648 39.9228 57.5878 40.2442 57.4455C40.2692 57.4344 40.296 57.428 40.3252 57.4279C40.3802 57.4276 40.4317 57.4564 40.4696 57.4964C40.4996 57.5281 40.5236 57.564 40.5433 57.6027C40.6628 57.837 40.9103 57.9797 41.1135 58.1467C41.1302 58.1605 41.1464 58.1754 41.1618 58.1913C41.2532 58.2851 41.3629 58.3677 41.4933 58.3796C41.5491 58.3848 41.605 58.3902 41.6609 58.3961C41.7425 58.4047 41.806 58.4695 41.814 58.5511C41.824 58.6539 41.7433 58.7449 41.6403 58.7517C41.4231 58.7659 41.2022 58.7853 41.0062 58.6781C40.8771 58.6028 40.728 58.646 40.5877 58.6327C40.5308 58.6272 40.4771 58.5993 40.4418 58.5542C40.2766 58.3435 40.0755 58.2514 39.8078 58.2449C39.777 58.2441 39.7461 58.24 39.7151 58.2318C39.6935 58.226 39.6735 58.215 39.6559 58.2013C39.5401 58.1108 39.3767 58.1276 39.2923 58.248C39.1449 58.4587 38.9681 58.6527 38.7137 58.6924C38.6573 58.7012 38.6007 58.6788 38.5572 58.6418C38.4631 58.5618 38.3236 58.5656 38.2312 58.6476C38.2287 58.6499 38.2261 58.6522 38.2235 58.6545C38.1483 58.7211 38.0316 58.7398 37.9698 58.6605C37.9034 58.5754 37.884 58.4669 37.8808 58.3516C37.8757 58.1677 37.7245 58.1247 37.556 58.1984C37.5227 58.213 37.4853 58.2126 37.4503 58.203C37.3344 58.1711 37.2247 58.1229 37.1239 58.0605C36.8703 57.9037 36.5515 57.8857 36.3048 58.0533C36.0991 58.193 35.9055 57.9458 36.0606 57.7514C36.185 57.5954 36.3582 57.4699 36.5129 57.3554C36.6001 57.2838 37.0989 56.9468 37.0943 56.8341C37.083 56.5618 37.0679 56.2899 37.0255 56.0196C36.9959 55.8615 36.9783 55.7027 36.9682 55.5433C36.9238 54.8472 36.3266 54.3711 35.6415 54.5021C35.01 54.6229 34.4547 55.1463 34.4467 55.7892C34.4416 56.1946 34.4425 56.5999 34.4739 57.0047C34.4796 57.0788 34.492 57.1522 34.5094 57.2244C34.5639 57.4513 34.6178 57.6787 34.6702 57.9064C34.6943 58.0112 34.7705 58.0958 34.8736 58.1264C34.9777 58.1573 35.0592 58.2405 35.0868 58.3455C35.0935 58.371 35.1002 58.3966 35.1067 58.4222C35.1374 58.5427 35.1122 58.6741 35.0182 58.7556C34.9129 58.847 34.7859 58.9117 34.6486 58.929C34.5885 58.9366 34.5323 58.9037 34.4984 58.8534C34.4962 58.8501 34.494 58.8469 34.4919 58.8437C34.4193 58.7359 34.2604 58.7326 34.1835 58.8373C34.1473 58.8866 34.0887 58.9141 34.0277 58.911C33.9945 58.9093 33.9613 58.9076 33.9282 58.906C33.8605 58.9025 33.8008 58.8593 33.7751 58.7964C33.7262 58.6768 33.5676 58.652 33.4839 58.7505C33.4767 58.7589 33.4696 58.7673 33.4624 58.7757C33.427 58.8175 33.3757 58.8433 33.3209 58.8424C33.2538 58.8413 33.1875 58.8359 33.1216 58.8265C33.081 58.8208 33.0434 58.8009 33.0176 58.769C32.9826 58.7258 32.9524 58.6795 32.9255 58.6313C32.8628 58.519 32.6936 58.5249 32.6591 58.6487C32.6454 58.6979 32.6059 58.7368 32.5553 58.744C32.5383 58.7464 32.5214 58.7483 32.5045 58.7497C32.3164 58.7656 31.9821 58.8199 31.8816 58.9798C31.8764 58.9881 31.8711 58.9963 31.8657 59.0045C31.8339 59.0531 31.7821 59.0854 31.7242 59.0897C31.7099 59.0907 31.6956 59.0915 31.6813 59.092C31.525 59.0974 31.392 58.9795 31.3537 58.8278C31.3487 58.8078 31.3435 58.7878 31.3383 58.7678C31.2783 58.5369 31.0393 58.4458 30.89 58.632C30.8691 58.658 30.8483 58.6841 30.827 58.7095C30.6568 58.9125 30.3982 58.7296 30.5188 58.4936C30.6052 58.3245 30.7449 58.1769 30.8835 58.0505C30.986 57.9502 31.1313 57.9562 31.2637 57.9649C31.6405 57.9565 31.8776 58.2102 32.0046 57.8553C32.0571 57.7085 32.0842 57.5538 32.0726 57.3995C32.059 56.356 32.135 55.3012 31.9351 54.2715C31.8746 53.9233 31.6023 53.6486 31.2488 53.6479C30.9926 53.6473 30.7364 53.6464 30.4803 53.6456C29.6189 53.6432 28.8127 54.3695 28.8377 55.2305C28.8382 55.2464 28.8388 55.2623 28.8394 55.2782C28.8432 55.3655 28.8434 55.453 28.84 55.5403C28.8156 56.1764 28.9877 56.7949 29.0744 57.4219C29.0801 57.4635 29.0774 57.5056 29.0624 57.5449C28.9777 57.7678 29.1594 57.8884 29.3771 57.7912C29.4656 57.7517 29.556 57.7167 29.6475 57.6856C29.7594 57.6545 29.8482 57.7297 29.8952 57.8266C29.9094 57.852 29.9238 57.8779 29.9381 57.9043C30.1209 58.2415 29.8391 58.362 29.4584 58.3151C29.4122 58.3094 29.363 58.3141 29.3227 58.3376C29.1726 58.4248 29.1122 58.676 28.9238 58.6818C28.8949 58.6827 28.8655 58.6806 28.8367 58.6774C28.7805 58.671 28.7382 58.6483 28.7056 58.6146C28.5257 58.4288 28.3607 58.4042 28.103 58.3825C27.9123 58.3858 27.7334 58.4582 27.5469 58.4855C27.4422 58.5008 27.3441 58.4438 27.2847 58.3562C27.2755 58.3427 27.2663 58.3292 27.2572 58.3156C27.1887 58.214 27.062 58.1678 26.9446 58.2028C26.9244 58.2089 26.9043 58.2149 26.8842 58.2209C26.844 58.2328 26.8003 58.2261 26.7655 58.2029C26.6672 58.1373 26.523 58.2138 26.4992 58.3295C26.4814 58.4159 26.4554 58.5007 26.4249 58.5841C26.3885 58.6838 26.2918 58.7488 26.1859 58.7545C26.0949 58.7593 26.0036 58.7615 25.9155 58.7426C25.8676 58.7324 25.8247 58.7068 25.7875 58.6749C25.7 58.5996 25.6176 58.5182 25.5334 58.4392C25.4333 58.3452 25.2774 58.3908 25.237 58.522C25.19 58.6745 24.9943 58.7108 24.935 58.5626C24.9229 58.5324 24.9125 58.5014 24.904 58.4698C24.897 58.4442 24.8956 58.4174 24.8993 58.3911C24.9266 58.1983 25.0074 58.0184 25.0832 57.8387C25.1217 57.7475 25.2097 57.6857 25.3088 57.6866C25.3796 57.6873 25.4467 57.7198 25.489 57.7766C25.5292 57.8307 25.5687 57.8865 25.6092 57.9415C25.8084 58.2119 26.0706 58.036 26.1437 57.7083C26.1449 57.7032 26.146 57.6981 26.1473 57.6931C26.1622 57.6308 26.195 57.5717 26.254 57.5469C26.442 57.4678 26.5954 57.3503 26.5975 57.1464C26.6038 56.5504 26.6187 55.9534 26.5806 55.359C26.5755 55.2796 26.5627 55.2012 26.5432 55.1242C26.3298 54.2839 25.4632 53.5749 24.5963 53.5838C24.5681 53.5841 24.54 53.5845 24.5118 53.5851C24.0804 53.6015 23.6695 53.4294 23.239 53.4476C22.835 53.4692 22.4412 53.3516 22.0371 53.3689C21.9615 53.3718 21.8872 53.3641 21.8139 53.3505C21.7139 53.332 21.647 53.2383 21.6509 53.1367C21.6546 53.0366 21.7263 52.9536 21.8244 52.9341C22.1077 52.8777 22.3946 52.8173 22.6308 52.6375C23.1322 52.2692 23.7054 51.9061 23.9327 51.2897C24.0131 51.096 24.0851 50.8329 24.2423 50.6905C24.3886 50.558 24.5591 50.7469 24.5338 50.9427C24.528 50.9873 24.5132 51.0305 24.4928 51.0707C24.3402 51.3718 24.2536 51.7094 24.0343 51.9718C23.7909 52.3218 24.0055 53.1018 24.4287 53.1534C24.6275 53.1776 24.8271 53.1918 25.0286 53.1813C25.3584 53.1779 25.7095 53.209 26.0118 53.0447C26.6427 52.7654 27.1894 52.3372 27.7536 51.9448C27.7836 51.9239 27.8034 51.8949 27.8097 51.8589C27.8211 51.7938 27.7846 51.7265 27.7215 51.7066C27.204 51.5434 26.6611 51.4831 26.1475 51.31C26.0646 51.2821 26.0119 51.2001 26.0223 51.1132C26.0332 51.0219 26.1103 50.9554 26.2023 50.9555C26.4559 50.9556 26.7153 50.9761 26.9489 50.86C27.5452 50.6032 28.1773 50.4225 28.7394 50.0897C28.8364 50.0197 28.9343 49.9504 29.0319 49.8808C29.6001 49.4755 29.3107 48.7927 28.613 48.7773C27.8757 48.7363 27.1612 48.5274 26.4299 48.4446C26.3344 48.4338 26.2596 48.3547 26.2577 48.2585C26.2561 48.1799 26.304 48.1103 26.3744 48.0753C26.8053 47.8609 27.127 47.4787 27.5486 47.2479C27.9416 47.0222 28.2696 46.7041 28.6309 46.4335C28.9689 46.1655 29.2399 45.837 29.4759 45.4813C29.8276 44.9512 29.4168 44.3053 28.7813 44.2764C28.1212 44.1847 27.4544 44.0282 26.8855 43.6653C26.8154 43.6206 26.7745 43.5422 26.7739 43.4591C26.7733 43.3518 26.8417 43.2581 26.9392 43.2131C27.5487 42.9316 28.0012 42.4046 28.5532 42.0303C28.9393 41.7338 29.2972 41.4026 29.6449 41.0611C30.0409 40.7678 29.7768 40.2589 29.2954 40.1533C29.2451 40.1423 29.195 40.13 29.1452 40.1162C28.6694 40.0228 28.2687 39.6831 27.7707 39.6865C27.4055 39.7388 27.7154 39.3195 28.0398 39.1438C28.126 39.0971 28.2099 39.0468 28.2912 38.9922C28.592 38.7906 28.8753 38.5552 29.1123 38.2816C29.4817 37.8553 29.7101 37.3099 30.0041 36.8264C30.0202 36.8 30.0394 36.7757 30.0616 36.7542C30.0881 36.7284 30.115 36.7029 30.1422 36.6776C30.1751 36.6469 30.2196 36.6323 30.2643 36.6374C30.3429 36.6463 30.4035 36.7139 30.391 36.7921C30.3759 36.8866 30.3454 36.9781 30.2958 37.0609C30.066 37.4854 29.8354 37.9099 29.5774 38.3179C29.5699 38.3279 29.5623 38.3378 29.5547 38.3477C29.0928 38.9418 29.1418 39.8287 29.8943 39.8274C30.2004 39.8461 30.5048 39.796 30.8099 39.7871C30.9983 39.7817 31.1599 39.9918 31.0356 40.1335C30.7511 40.4784 30.5 40.8571 30.1591 41.1493C29.7158 41.5064 29.3365 41.9387 28.8812 42.2819C28.7216 42.394 28.5681 42.5141 28.4168 42.6372C27.9581 43.0101 28.0782 43.7477 28.6604 43.8504C28.696 43.8567 28.7319 43.8602 28.7681 43.861C29.2246 43.8722 29.6819 43.8813 30.1379 43.863C30.5345 43.847 30.7945 44.1657 30.5418 44.4718C30.2488 44.9309 30.0165 45.4289 29.709 45.8793C29.3741 46.3176 28.9854 46.7145 28.531 47.0266C28.4653 47.0856 28.3975 47.1415 28.328 47.1949C27.802 47.5998 27.9484 48.3748 28.6121 48.3727C29.2127 48.377 29.8132 48.3666 30.4137 48.3735C30.7343 48.3678 30.8307 48.7866 30.6063 49.0155C30.5161 49.1076 30.4118 49.1925 30.3402 49.2856C30.0003 49.6998 29.5441 49.979 29.1264 50.3015C28.8974 50.4635 28.6494 50.5873 28.394 50.6957C27.9671 50.877 27.9906 51.4069 28.4541 51.4219C29.1033 51.4168 29.773 51.4003 30.3812 51.1401C30.5843 51.0514 30.7737 50.9191 30.978 50.8328C31.182 50.7467 31.4354 50.9411 31.3457 51.1436C31.1492 51.6355 30.8195 52.0565 30.4914 52.4646C30.288 52.7267 30.4018 53.2797 30.7336 53.2806C31.082 53.2815 31.4305 53.2821 31.7788 53.2781C32.0248 53.2697 32.267 53.2197 32.5122 53.1965C32.6406 53.1843 32.7373 53.3023 32.706 53.4275C32.6856 53.5095 32.6142 53.5682 32.5302 53.5781C32.5161 53.5797 32.5019 53.5815 32.4878 53.5832C32.3175 53.6043 32.2134 53.7819 32.2548 53.9484C32.3827 54.4625 32.3826 55.0035 32.4391 55.5286C32.5178 56.1418 32.5093 56.7618 32.4862 57.3796C32.4818 57.4967 32.5934 57.5834 32.706 57.5507C32.7751 57.5306 32.8498 57.557 32.8884 57.6177C32.952 57.7179 33.0089 57.8221 33.0607 57.929C33.1378 58.0879 33.369 58.1039 33.4578 57.9511C33.4957 57.8858 33.5667 57.8472 33.6422 57.851C33.6791 57.8529 33.7159 57.855 33.7529 57.8575C33.8184 57.8618 33.8751 57.9035 33.8997 57.9644C33.9561 58.1036 34.159 58.1167 34.2288 57.9837C34.2532 57.9372 34.2765 57.8901 34.2979 57.8421C34.3066 57.8227 34.3124 57.802 34.3146 57.7809C34.3401 57.5357 34.2587 57.3041 34.1695 57.0771C34.0944 56.8858 34.0463 56.685 34.0356 56.4797C34.0155 56.0907 34.0263 55.7006 34.039 55.3106C34.0534 54.8666 33.758 54.5026 33.3605 54.3042C33.2022 54.2252 33.055 54.1275 32.931 53.9965C32.8895 53.9526 32.8809 53.8898 32.9057 53.8346C32.9387 53.7614 33.022 53.7215 33.0974 53.7492C33.5326 53.9093 33.942 54.1775 34.4183 54.1712C34.7541 54.1838 35.0886 54.1581 35.4198 54.1062C36.0149 54.0128 36.2009 53.2571 35.868 52.7551C35.787 52.5992 35.9207 52.4166 36.072 52.5059C36.1279 52.5389 36.1789 52.5816 36.2225 52.6366C36.2899 52.7326 36.3602 52.8266 36.4337 52.9179C36.6429 53.1775 37.0205 53.227 37.2614 52.9965C37.2887 52.9704 37.3154 52.9436 37.3414 52.9162C37.6707 52.5692 38.1687 52.5074 38.5562 52.7879C38.9594 53.1113 39.4523 53.279 39.929 53.4562C40.2109 53.566 40.5176 53.5315 40.8131 53.5583C41.0489 53.5833 41.2163 53.8487 41.4683 53.7925C41.5538 53.7824 41.6394 53.773 41.725 53.7644C42.1199 53.725 42.4325 52.9618 42.1739 52.6609C41.8818 52.3202 41.7434 51.8836 41.5255 51.4972C41.271 51.0467 41.1821 50.5306 40.9916 50.0534C40.9819 50.0316 40.9737 50.0096 40.9669 49.9875C40.882 49.7108 41.1973 49.5024 41.4824 49.5516C41.934 49.6294 42.1171 49.1324 41.8244 48.7797C41.1443 47.96 40.6501 46.9842 40.2023 46.0185C40.1343 45.7935 40.04 45.5729 39.962 45.3491C39.7804 44.8277 40.1655 44.4884 40.6935 44.6499C41.0234 44.7688 41.1573 44.2867 40.8925 44.0568C40.6886 43.8798 40.4986 43.6882 40.3382 43.4681C39.7074 42.6191 39.3684 41.572 39.25 40.5231C39.2379 40.4159 39.3214 40.3232 39.4293 40.3216C39.4867 40.3208 39.5418 40.3463 39.5776 40.391C39.7497 40.6056 39.924 40.8247 40.1656 40.9617C40.8675 41.3695 41.298 40.4207 40.9271 39.6987C40.923 39.6906 40.9188 39.6825 40.9148 39.6744C40.6773 39.1998 40.3476 38.7761 40.1545 38.2782C40.0999 38.1408 40.0382 37.9988 39.9864 37.8541C39.8083 37.3574 40.3146 37.2048 40.8422 37.2104C41.3804 37.2232 41.7049 36.7 41.5658 36.1798C41.5381 36.0763 41.5163 35.9711 41.5033 35.8635C41.464 35.5323 41.3436 35.2185 41.2915 34.89C41.2146 34.4957 41.2573 34.0894 41.1676 33.6969C41.1102 33.426 41.1282 33.1486 41.1211 32.874ZM28.9336 51.8045C28.6353 51.8194 28.4035 52.0783 28.5076 52.3582C28.5235 52.4011 28.5404 52.4436 28.558 52.4858C28.6773 52.7711 29.0092 52.9034 29.2974 52.7914C29.5122 52.708 29.7219 52.6119 29.9157 52.4862C30.2074 52.2387 29.8222 51.7138 29.4426 51.7611C29.2737 51.7822 29.1037 51.796 28.9336 51.8045ZM27.1613 52.9152C26.7966 53.1647 26.6127 53.623 26.7129 54.0534C26.7559 54.2383 26.7982 54.4235 26.8473 54.607C27.0062 54.9934 26.9207 55.4222 27.0327 55.8208C27.1404 56.271 27.1235 56.7353 27.06 57.191C27.0333 57.3818 27.1507 57.5661 27.2875 57.7018C27.3347 57.7487 27.3778 57.8006 27.4187 57.8546C27.5037 57.9667 27.6668 57.9781 27.7632 57.8756C27.8165 57.819 27.8958 57.7956 27.9714 57.8142C27.989 57.8185 28.0066 57.8229 28.0243 57.8273C28.1274 57.8531 28.235 57.8239 28.3204 57.7605C28.3426 57.744 28.3652 57.7282 28.3882 57.7131C28.5495 57.6077 28.6943 57.4532 28.6814 57.261C28.6494 56.7846 28.4646 56.3253 28.5045 55.8415C28.513 55.4672 28.5002 55.092 28.5156 54.7176C28.5241 54.4845 28.5927 54.2486 28.5488 54.0176C28.54 53.971 28.5466 53.9219 28.5735 53.8828C28.6433 53.7814 28.5749 53.6441 28.4517 53.6444C28.2013 53.6451 27.9508 53.6558 27.7013 53.6396C27.6195 53.6343 27.5552 53.5687 27.5466 53.4871C27.538 53.404 27.589 53.3265 27.6693 53.3033C27.7676 53.2748 27.8665 53.2483 27.9654 53.2218C28.181 53.164 28.309 52.9436 28.2254 52.7365C28.1305 52.5013 27.8383 52.4352 27.6322 52.5831C27.4761 52.6951 27.3198 52.8068 27.1613 52.9152ZM37.6982 53.1885C37.638 53.2367 37.6686 53.2961 37.7401 53.2672C37.752 53.2624 37.7652 53.2612 37.7775 53.2651C37.9033 53.3051 37.9044 53.444 37.8842 53.5695C37.8701 53.6568 37.8343 53.7425 37.763 53.7948C37.509 53.9813 37.4029 54.2171 37.4482 54.5289C37.4604 54.6128 37.4565 54.6986 37.4252 54.7868C37.3316 55.1626 37.3633 55.5481 37.4237 55.926C37.4329 55.9838 37.438 56.0421 37.4396 56.1006C37.449 56.4454 37.4971 56.7875 37.5185 57.1313C37.5289 57.3 37.6776 57.381 37.8465 57.3752C37.8903 57.3737 37.9308 57.3949 37.9633 57.4243C38.1096 57.5567 38.2424 57.7128 38.4271 57.7796C38.5084 57.809 38.5851 57.8579 38.6216 57.9363C38.6932 58.0903 38.8963 58.1228 38.9877 57.9796C39.0731 57.8457 39.1419 57.7005 39.1936 57.5516C39.2096 57.5054 39.2177 57.4569 39.2195 57.408C39.244 56.7157 39.1921 56.007 39.3421 55.3284C39.3609 55.2436 39.3989 55.1639 39.4377 55.0862C39.7057 54.5503 39.3285 53.739 38.8017 53.4536C38.6667 53.3805 38.5373 53.297 38.417 53.1969C38.2804 53.1094 38.1641 52.97 38.007 52.9278C37.9699 52.9178 37.933 52.9375 37.9106 52.9687C37.8491 53.0541 37.7769 53.1253 37.6982 53.1885Z" fill="#060303"/>
<path d="M24.506 33.4082C24.5559 33.3551 24.6282 33.3288 24.7006 33.3373C24.8725 33.3577 24.9583 33.5541 24.8416 33.682C24.6699 33.8699 24.4832 34.0453 24.2879 34.2133C24.06 34.4095 24.2351 34.7904 24.5258 34.7134C25.0612 34.5865 25.2 34.662 24.907 35.1277C24.8708 35.1853 24.844 35.2478 24.8321 35.3178C24.6088 36.0637 24.1357 36.6991 23.5923 37.2869C23.2663 37.6395 23.5252 38.2918 23.9695 38.1097C24.4975 37.9608 24.7024 38.4098 24.3893 38.8603C24.3474 38.9205 24.3085 38.9818 24.2768 39.0454C24.0719 39.4331 23.7619 39.7636 23.5063 40.1235C23.3803 40.3081 23.2267 40.4718 23.0572 40.6221C22.6722 40.9634 22.7005 41.6569 23.2141 41.688C23.6773 41.7066 24.1706 41.7369 24.5934 41.5313C24.8769 41.3859 25.115 41.696 24.9846 41.9867C24.9351 42.097 24.8852 42.2071 24.8424 42.3194C24.5821 43.1295 24.2326 43.9531 23.5786 44.5777C23.309 44.8449 23.0571 45.1585 22.6644 45.2858C22.2248 45.4387 22.2683 45.9506 22.7335 45.9355C23.0062 45.9266 23.2775 45.8923 23.541 45.8312C23.6429 45.8113 23.7405 45.7809 23.8359 45.7451C24.4161 45.5276 24.7624 45.8537 24.506 46.4179C24.2533 46.9473 23.9874 47.4707 23.7017 47.9866C23.6234 48.1284 23.5344 48.2651 23.436 48.3961C22.9418 49.0537 23.0751 49.9272 23.8975 49.9483C24.094 49.9533 24.2894 49.9677 24.4824 50.0002C24.5424 50.0103 24.5862 50.0608 24.5893 50.1215C24.5927 50.1873 24.5478 50.2467 24.4829 50.2578C23.8222 50.371 23.1385 50.282 22.4699 50.3124C21.9089 50.3638 21.3752 50.1412 20.9252 49.8631C20.7165 49.7621 21.0279 49.4729 21.2564 49.4337C21.9517 49.3146 22.5218 48.8207 22.9651 48.3407C23.0174 48.2694 23.0676 48.197 23.116 48.1237C23.5801 47.4209 22.7351 46.4201 21.9042 46.2822C21.4678 46.1701 21.0206 46.0498 20.6368 45.8273C20.588 45.799 20.5588 45.7512 20.5567 45.6949C20.553 45.5997 20.6281 45.5161 20.7229 45.5067C21.3278 45.4472 21.859 45.1428 22.4248 44.9587C22.7461 44.8584 22.9453 44.5979 23.1755 44.3897C23.555 44.0517 23.8308 43.6322 24.0276 43.1886C24.0442 43.151 24.064 43.1136 24.0849 43.0783C24.362 42.6075 23.8786 42.1254 23.3335 42.0883C23.2127 42.08 23.0922 42.0654 22.9726 42.0429C22.3863 41.9907 21.954 41.549 21.3564 41.5254C21.1279 41.5334 21.3456 41.1721 21.559 41.0898C21.8351 40.9834 22.108 40.8684 22.3252 40.6782C22.6343 40.4194 22.9801 40.1817 23.1906 39.8445C23.4067 39.5149 23.7139 39.2376 23.8878 38.886C23.9563 38.7518 23.8205 38.5598 23.6707 38.5767C23.152 38.6351 22.6121 38.5621 22.088 38.5798C22.019 38.5822 21.9552 38.5503 21.9203 38.4907C21.8725 38.4088 21.8944 38.3017 21.9705 38.2451C22.5691 37.7993 23.0623 37.2551 23.5223 36.6927C23.6317 36.5764 23.731 36.4538 23.8222 36.3264C24.1721 35.8375 23.7061 35.3317 23.1062 35.3715C22.9644 35.3809 22.8222 35.3773 22.6796 35.3544C22.578 35.3381 22.511 35.2436 22.5176 35.1408C22.5217 35.0769 22.5539 35.0185 22.6053 34.9804C23.2697 34.4877 23.9485 34.0018 24.506 33.4082Z" fill="#070304"/>
<path d="M13.7497 35.1056C13.8703 35.1332 13.9962 35.0815 14.0502 34.9702C14.0847 34.8991 14.1174 34.8274 14.1489 34.7553C14.2053 34.6265 14.3875 34.6201 14.4512 34.7455C14.4747 34.7917 14.5192 34.8238 14.5704 34.832C14.6007 34.8368 14.631 34.8418 14.6612 34.8468C14.8236 34.8738 14.873 35.0773 14.7414 35.1762C14.6675 35.2317 14.6444 35.3311 14.6739 35.4188C14.7149 35.5409 14.7318 35.6648 14.706 35.7877C14.6854 35.8859 14.5717 35.9175 14.4836 35.8696C14.4568 35.8553 14.415 35.8326 14.376 35.8114C14.3336 35.7883 14.281 35.7956 14.2471 35.83C14.2309 35.8464 14.2147 35.8628 14.1987 35.8794C14.1416 35.9383 14.0387 35.8937 14.044 35.8118C14.0447 35.7996 14.0455 35.7874 14.0462 35.7753C14.0487 35.7363 14.0129 35.7061 13.9748 35.7147C13.944 35.7217 13.9104 35.7293 13.8788 35.7365C13.8513 35.7427 13.834 35.7084 13.8533 35.688C13.8582 35.6828 13.8635 35.6811 13.8705 35.6805C13.8979 35.6781 13.925 35.6748 13.952 35.6707C14.135 35.6432 14.154 35.4453 13.9714 35.4148C13.8843 35.4002 13.7953 35.3894 13.7104 35.3706C13.6983 35.3679 13.6864 35.3639 13.6755 35.3581C13.6579 35.3489 13.6416 35.3384 13.6262 35.3271C13.5273 35.2541 13.5889 35.0941 13.7116 35.0993C13.72 35.0997 13.7283 35.1008 13.7365 35.1027C13.7409 35.1036 13.7453 35.1046 13.7497 35.1056Z" fill="#F2DBB7"/>
<path d="M15.3224 34.5697C15.4554 34.5292 15.5922 34.4909 15.7334 34.463C15.9715 34.416 16.1344 34.6233 15.9516 34.7829C15.8868 34.8396 15.8139 34.8938 15.7425 34.948C15.6448 35.0222 15.6433 35.1621 15.7391 35.2388C15.859 35.3348 15.8302 35.5082 15.6768 35.5143C15.6482 35.5154 15.6193 35.5158 15.5904 35.5156C15.4412 35.5149 15.3286 35.3038 15.2829 35.1618C15.2782 35.1474 15.2729 35.1331 15.2669 35.1187C15.2365 35.0454 15.2569 34.9571 15.3262 34.9184C15.373 34.8922 15.4196 34.8659 15.466 34.8394C15.5318 34.8019 15.5127 34.7039 15.4376 34.6938C15.4026 34.6891 15.3675 34.6845 15.3325 34.68C15.2715 34.6722 15.2635 34.5874 15.3224 34.5697Z" fill="#10060E"/>
<path d="M46.9273 34.6789C46.8682 34.6128 46.8435 34.5082 46.9189 34.4617C47.0211 34.3986 47.1954 34.406 47.2822 34.481C47.303 34.4989 47.3248 34.5219 47.3422 34.543C47.4717 34.6997 47.1463 34.8889 46.9974 34.7505C46.9728 34.7276 46.9494 34.7036 46.9273 34.6789Z" fill="#1A081C"/>
<path d="M13.4417 35.2042C13.4337 35.1081 13.4937 35.0188 13.5881 34.999C13.6096 34.9946 13.6312 34.9905 13.6528 34.9868C13.749 34.9705 13.8404 35.0165 13.898 35.0952C13.9214 35.1271 13.9465 35.1571 13.9761 35.1815C13.9986 35.2 14.026 35.2112 14.0543 35.2182C14.107 35.2313 14.1613 35.2404 14.2149 35.2514C14.3834 35.2859 14.3618 35.4811 14.192 35.5091C14.1588 35.5146 14.125 35.5106 14.0927 35.5013C13.9253 35.4537 13.7542 35.4239 13.5861 35.3803C13.5052 35.3593 13.4486 35.2875 13.4417 35.2042Z" fill="#160E0F"/>
<path d="M47.391 35.1907C47.3997 35.0584 47.5236 34.9724 47.6558 34.9829C47.6611 34.9833 47.6663 34.9837 47.6716 34.9841C47.799 34.9945 47.8984 35.0966 47.9096 35.224C47.9234 35.38 47.8005 35.5149 47.6439 35.5138C47.6409 35.5137 47.6379 35.5137 47.635 35.5137C47.5066 35.5128 47.3924 35.4222 47.3891 35.2939C47.3882 35.2595 47.3888 35.2251 47.391 35.1907Z" fill="#140315"/>
<path d="M14.1999 35.6934C14.2157 35.6276 14.2658 35.5742 14.332 35.5603C14.3587 35.5547 14.3865 35.5489 14.4137 35.5432C14.4791 35.5295 14.5398 35.5814 14.5352 35.6481C14.5287 35.7426 14.6453 35.7968 14.7138 35.7313C14.7388 35.7073 14.7641 35.6835 14.7895 35.6597C14.8279 35.6239 14.8808 35.6143 14.9277 35.6379C14.9998 35.6742 15.025 35.7704 14.9805 35.8379C14.8495 36.0368 14.7297 36.2749 14.5418 36.4341C14.2796 36.6562 13.993 36.3439 14.1015 36.0178C14.1374 35.9102 14.1738 35.8025 14.1999 35.6934Z" fill="#0D0610"/>
<path d="M48.3148 36.429C48.4441 36.4648 48.5839 36.4221 48.6686 36.3181C48.8212 36.1308 48.9349 35.8892 49.0989 35.7189C49.2569 35.5548 49.531 35.7434 49.4177 35.941C49.388 35.9995 49.3629 36.0594 49.3414 36.1204C49.1572 36.6447 49.5207 37.1831 49.9942 37.4741C50.1842 37.5959 49.9097 37.7651 49.6979 37.6869C49.6286 37.6614 49.5583 37.6392 49.4869 37.6206C49.2225 37.5515 48.993 37.7726 48.9924 38.046C48.9922 38.1499 48.9918 38.2539 48.9903 38.3578C48.9868 38.6057 48.7664 38.9014 48.5851 38.7325C48.4359 38.5573 48.3756 38.3394 48.3324 38.1177C48.2911 37.9059 48.1625 37.7196 47.963 37.8018C47.9473 37.8082 47.9318 37.8143 47.9165 37.8196C47.8889 37.8292 47.8603 37.8384 47.8324 37.8471C47.5909 37.9226 47.3824 37.6551 47.5249 37.4459C47.5766 37.37 47.6369 37.2978 47.6944 37.2248C47.7749 37.1228 47.8012 36.9909 47.7709 36.8645C47.6885 36.5205 47.9739 36.3347 48.3148 36.429ZM48.3899 36.6235C48.1869 36.6569 48.0334 36.8634 48.1997 36.9844C48.2202 36.9994 48.2415 37.0135 48.2635 37.0267C48.287 37.0408 48.3037 37.0601 48.3095 37.0868C48.3216 37.1421 48.2834 37.1985 48.2285 37.2116C48.189 37.2211 48.151 37.2334 48.1147 37.2484C47.9522 37.3156 48.0488 37.4724 48.2242 37.4599C48.2388 37.4589 48.2534 37.4582 48.2681 37.4578C48.319 37.4564 48.3683 37.4774 48.4007 37.5167C48.4067 37.524 48.4126 37.5315 48.4183 37.5391C48.5969 37.7779 48.7214 37.7819 48.7379 37.484C48.739 37.4628 48.7404 37.4416 48.742 37.4203C48.7432 37.4047 48.7467 37.3891 48.7543 37.3754C48.7751 37.3375 48.8027 37.3128 48.8347 37.2968C48.9289 37.2496 48.9677 37.1493 48.8776 37.0948C48.8272 37.0642 48.8113 36.9992 48.8389 36.9471C48.8621 36.9034 48.8837 36.8589 48.903 36.8135C48.9775 36.6383 48.792 36.5146 48.61 36.5709C48.5376 36.5933 48.4641 36.6113 48.3899 36.6235Z" fill="#150B0F"/>
<path d="M16.7152 35.7913C16.7155 35.6399 16.8394 35.5178 16.9908 35.5204C17.1362 35.5229 17.2541 35.6398 17.2573 35.7852C17.2574 35.7915 17.2576 35.7977 17.2577 35.804C17.2606 35.9346 17.1757 36.0567 17.0452 36.0631C17.0009 36.0652 16.9567 36.0639 16.9125 36.059C16.7912 36.0457 16.7148 35.9317 16.7151 35.8097C16.7151 35.8036 16.7151 35.7974 16.7152 35.7913Z" fill="#0D050E"/>
<path d="M18.3616 35.7887C18.3602 35.6405 18.4743 35.5158 18.6225 35.5157C18.6268 35.5157 18.6312 35.5158 18.6355 35.5158C18.7867 35.5162 18.9029 35.645 18.8981 35.7961C18.898 35.7985 18.8979 35.8009 18.8979 35.8033C18.8932 35.948 18.7756 36.0636 18.6309 36.064C18.4827 36.0644 18.3631 35.9445 18.3617 35.7963C18.3617 35.7938 18.3616 35.7912 18.3616 35.7887Z" fill="#10050F"/>
<path d="M20.0055 35.7861C20.0034 35.6445 20.1132 35.5264 20.2547 35.5218C20.4119 35.5167 20.5359 35.6526 20.5207 35.8092C20.5203 35.8136 20.5198 35.8179 20.5194 35.8222C20.507 35.9506 20.4009 36.0498 20.272 36.0542C20.1282 36.0591 20.0079 35.9455 20.0057 35.8016C20.0057 35.7964 20.0056 35.7913 20.0055 35.7861Z" fill="#261825"/>
<path d="M22.3018 36.0004C22.2118 35.9176 22.2055 35.7746 22.2693 35.6702C22.3261 35.5772 22.3899 35.5385 22.4561 35.5238C22.6042 35.4908 22.7406 35.6613 22.7406 35.8131C22.7406 35.9067 22.6908 35.989 22.6051 36.0267C22.5025 36.0718 22.3989 36.0899 22.3018 36.0004Z" fill="#140A16"/>
<path d="M47.8954 37.2158C47.7055 37.0922 47.8616 36.8657 48.0863 36.8362C48.2037 36.8207 48.3195 36.794 48.4332 36.7595C48.6222 36.7021 48.8114 36.8344 48.7297 37.0143C48.7057 37.0671 48.6781 37.1189 48.6484 37.1697C48.6153 37.2263 48.6332 37.2996 48.6907 37.331C48.7899 37.385 48.7531 37.4989 48.6486 37.5417C48.608 37.5584 48.5729 37.5849 48.5467 37.6271C48.5372 37.6424 48.5327 37.6603 48.5313 37.6782C48.5299 37.6951 48.5286 37.712 48.5275 37.7289C48.505 38.0707 48.3689 38.0634 48.1492 37.8005C48.142 37.7919 48.1345 37.7834 48.1267 37.775C48.0898 37.7352 48.0369 37.7147 47.9826 37.7155C47.9578 37.7159 47.933 37.7171 47.9084 37.7189C47.7127 37.7334 47.6155 37.5583 47.7999 37.4914C47.844 37.4754 47.89 37.4625 47.9379 37.4527C47.9963 37.4407 48.0363 37.3804 48.0223 37.3224C48.0155 37.2944 47.9971 37.2746 47.9717 37.2609C47.9454 37.2468 47.9199 37.2317 47.8954 37.2158Z" fill="#F2DBB8"/>
<path d="M41.9128 39.1169C41.9134 39.0043 41.9881 38.9053 42.0968 38.8757C42.2437 38.8358 42.3886 38.9388 42.4026 39.0904C42.4183 39.2615 42.4318 39.434 42.4429 39.6074C42.453 39.7661 42.3228 39.8976 42.1641 39.8888C42.0221 39.8808 41.912 39.7631 41.9117 39.6209C41.9114 39.4527 41.9119 39.2845 41.9128 39.1169Z" fill="#443548"/>
<path d="M28.8658 52.3684C28.7879 52.1104 29.0002 51.8798 29.2693 51.8642C29.3857 51.8574 29.5022 51.8474 29.6181 51.8333C29.9915 51.7878 30.4102 52.3006 30.141 52.5632C29.9929 52.6737 29.8344 52.7618 29.6715 52.8386C29.3788 52.9766 29.0251 52.8311 28.9174 52.5259C28.8991 52.4739 28.8818 52.4214 28.8658 52.3684Z" fill="#FEF1E0"/>
<path d="M35.8941 52.2361C35.8892 52.2285 35.8868 52.2198 35.8869 52.2108C35.8885 52.0918 35.8917 51.9726 35.8971 51.8539C35.8997 51.7985 35.9695 51.7976 35.9752 51.8528C35.9773 51.8728 35.9921 51.8893 36.0119 51.8932C36.1523 51.9208 36.2938 51.9367 36.4345 51.9038C36.2934 51.9543 36.2121 52.1019 36.2452 52.2481C36.2547 52.2902 36.2645 52.3321 36.2748 52.3739C36.2146 52.2206 36.1302 52.1491 36.0402 52.1159C36.0068 52.1035 35.9766 52.1351 35.9847 52.1698C35.9866 52.1783 35.9886 52.1869 35.9906 52.1954C36.0028 52.2474 35.923 52.281 35.8941 52.2361Z" fill="#9C9891"/>
<path d="M26.7766 54.2187C26.672 53.7862 26.8604 53.3223 27.2318 53.0772C27.3866 52.9751 27.5394 52.87 27.6921 52.7647C27.8889 52.6289 28.1633 52.6917 28.2567 52.9118C28.3422 53.1131 28.2163 53.3289 28.0045 53.3834C27.9053 53.409 27.8061 53.4345 27.7075 53.462C27.6306 53.4834 27.5816 53.5573 27.5902 53.6366C27.5985 53.7136 27.6594 53.7751 27.7366 53.7801C27.988 53.7963 28.2406 53.7855 28.493 53.785C28.6098 53.7848 28.6738 53.916 28.6058 54.0109C28.579 54.0483 28.5724 54.096 28.5813 54.1411C28.6241 54.3602 28.5565 54.5838 28.5481 54.8047C28.5329 55.1604 28.5456 55.5169 28.5371 55.8726C28.4981 56.3272 28.6765 56.7592 28.711 57.2065C28.7257 57.3977 28.5803 57.5507 28.4183 57.6532C28.3974 57.6665 28.3769 57.6803 28.3568 57.6946C28.2711 57.7556 28.1648 57.7839 28.0625 57.7593C28.0444 57.755 28.0263 57.7507 28.0082 57.7464C27.9343 57.7289 27.857 57.7512 27.8038 57.8056C27.7073 57.9041 27.5485 57.8927 27.4631 57.7846C27.4245 57.7358 27.3841 57.6888 27.3401 57.6461C27.202 57.5121 27.0843 57.3278 27.1113 57.1373C27.1721 56.7099 27.187 56.2749 27.0818 55.8528C26.9712 55.4742 27.0557 55.0667 26.8986 54.6996C26.8542 54.5402 26.8154 54.3794 26.7766 54.2187Z" fill="#CB9C82"/>
<path d="M37.5924 53.383C37.5192 53.4054 37.4927 53.3393 37.5572 53.2981C37.6472 53.2406 37.7295 53.1758 37.7996 53.0985C37.8202 53.0758 37.8499 53.0621 37.8802 53.067C38.0822 53.0992 38.2272 53.2359 38.3986 53.3203C38.6028 53.4508 38.8286 53.5509 39.0645 53.6365C39.5577 53.8153 39.9104 54.6382 39.6205 55.0755C39.5771 55.1409 39.5344 55.2106 39.5126 55.286C39.3349 55.8995 39.3904 56.5396 39.3657 57.1663C39.3627 57.2422 39.3469 57.3174 39.3138 57.3858C39.2492 57.5194 39.1651 57.6491 39.062 57.7683C38.9472 57.9009 38.743 57.8636 38.6522 57.7136C38.603 57.6324 38.517 57.584 38.425 57.5602C38.1948 57.5005 38.0317 57.352 37.8514 57.2268C37.813 57.2002 37.7676 57.1819 37.7209 57.1824C37.5123 57.1843 37.3299 57.07 37.3095 56.8624C37.2822 56.5854 37.2364 56.3093 37.2242 56.0314C37.2211 55.9594 37.2131 55.8878 37.1988 55.8172C37.1296 55.4762 37.0961 55.1288 37.2059 54.7899C37.2268 54.7447 37.2375 54.7001 37.2404 54.6561C37.263 54.3128 37.3182 54.0421 37.6165 53.8706C37.7008 53.8221 37.7452 53.7385 37.7621 53.6427C37.7818 53.5308 37.7709 53.4137 37.6212 53.3815C37.6117 53.3794 37.6017 53.3801 37.5924 53.383Z" fill="#F5DCB5"/>
<path d="M32.1512 53.4522C32.1096 53.2833 32.2151 53.1038 32.3877 53.0819C32.499 53.0678 32.6052 53.1279 32.6574 53.2272C32.6937 53.2963 32.7315 53.3646 32.7719 53.4317C33.2885 54.0871 33.9509 54.6592 33.945 55.4938C33.9436 55.6873 33.9462 55.8807 33.9561 56.0739C33.9669 56.2837 34.0151 56.4892 34.0907 56.6853C34.1815 56.9205 34.2645 57.1606 34.2383 57.4148C34.2361 57.4359 34.2304 57.4564 34.222 57.4758C34.2004 57.5252 34.1769 57.5735 34.1523 57.6213C34.0822 57.7577 33.8745 57.7445 33.8179 57.602C33.7932 57.5398 33.7357 57.4971 33.669 57.4927C33.6322 57.4902 33.5954 57.488 33.5586 57.4861C33.4817 57.4821 33.4094 57.5217 33.3713 57.5886C33.2822 57.7448 33.046 57.7288 32.9688 57.5664C32.9162 57.4559 32.8585 57.3483 32.794 57.2448C32.7553 57.1826 32.6791 57.1556 32.6089 57.1763C32.4955 57.2099 32.3826 57.1228 32.3869 57.0046C32.4105 56.3654 32.4193 55.7239 32.3394 55.0893C32.282 54.5453 32.2823 53.9846 32.1512 53.4522Z" fill="#CB9C82"/>
</g>
<defs>
<filter id="filter0_i" x="0" y="0" width="71" height="71" filterUnits="userSpaceOnUse" color-interpolation-filters="sRGB">
<feFlood flood-opacity="0" result="BackgroundImageFix"/>
<feBlend mode="normal" in="SourceGraphic" in2="BackgroundImageFix" result="shape"/>
<feColorMatrix in="SourceAlpha" type="matrix" values="0 0 0 0 0 0 0 0 0 0 0 0 0 0 0 0 0 0 127 0" result="hardAlpha"/>
<feOffset dx="6" dy="6"/>
<feGaussianBlur stdDeviation="21"/>
<feComposite in2="hardAlpha" operator="arithmetic" k2="-1" k3="1"/>
<feColorMatrix type="matrix" values="0 0 0 0 0.691667 0 0 0 0 0.268021 0 0 0 0 0.677058 0 0 0 0.3 0"/>
<feBlend mode="normal" in2="shape" result="effect1_innerShadow"/>
</filter>
</defs>
</svg>
