<svg width="67" height="67" viewBox="0 0 67 67" fill="none" xmlns="http://www.w3.org/2000/svg">
<path d="M23.3333 44.3333L27 44V44.3057C27 45.6552 26.8885 47.0023 26.6667 48.3333C25.5968 48.7613 24.4032 48.7613 23.3333 48.3333C23.1126 47.0091 23.1126 45.6575 23.3333 44.3333Z" fill="url(#paint0_linear)"/>
<path d="M41.3333 40.3333L45 40V40.3057C45 41.6552 44.8885 43.0023 44.6667 44.3333C43.5968 44.7613 42.4032 44.7613 41.3333 44.3333C41.1126 43.0091 41.1126 41.6575 41.3333 40.3333Z" fill="#624D46"/>
<g filter="url(#filter0_i)">
<circle cx="33.5" cy="33.5" r="28.5" stroke="url(#paint1_linear)" stroke-width="10"/>
</g>
<path d="M18.5274 32.4766C19.1758 32.2774 19.3946 32.4922 19.1876 33.1251C18.543 33.3282 18.3243 33.1133 18.5274 32.4766Z" fill="#444B54"/>
<path d="M35.7268 39.1094C36.3753 38.9219 36.5901 39.1407 36.3713 39.7696C35.7229 39.961 35.5081 39.7383 35.7268 39.1094Z" fill="#444B54"/>
<path fill-rule="evenodd" clip-rule="evenodd" d="M26.2932 21H25.9963C25.5411 21.904 25.192 22.8564 24.8429 23.8085L24.8429 23.8085C24.3262 25.2179 23.8097 26.627 22.9494 27.8789C22.7043 28.3631 22.3637 28.8027 22.0237 29.2416L22.0237 29.2416L22.0237 29.2416C21.4803 29.943 20.9382 30.6426 20.7893 31.5195C21.383 31.8047 22.0315 31.9492 22.6721 32.0859C23.5236 32.2461 24.4846 32.3672 24.465 31.1992C23.8361 31.0703 23.2111 30.9375 22.5861 30.8008C24.1604 28.5781 25.4611 26.1758 26.3713 23.6055C26.8561 24.4636 27.2985 25.3443 27.741 26.2252L27.741 26.2252L27.741 26.2252C28.0579 26.8559 28.3747 27.4867 28.7072 28.1094C28.9885 28.5977 29.258 29.0938 29.5041 29.6055C29.6682 29.9688 29.8322 30.3359 29.9963 30.707C29.8274 30.7873 29.5771 30.8408 29.311 30.8976C28.5673 31.0564 27.6997 31.2417 28.1369 32.1133C28.7033 32.1445 29.2697 32.1406 29.8361 32.1016C29.9533 32.0781 30.131 32.044 30.3087 32.0098L30.3088 32.0098C30.4865 31.9756 30.6643 31.9414 30.7815 31.918C31.1027 31.7431 31.411 31.542 31.7181 31.3418L31.8049 31.2852C31.1398 30.007 30.4862 28.7232 29.8327 27.4397L29.8325 27.4391C29.4076 26.6046 28.9827 25.7701 28.5549 24.9375C28.3864 24.6137 28.2259 24.2845 28.0652 23.955L28.0652 23.955L28.0652 23.955C27.5592 22.9173 27.0522 21.8776 26.2932 21ZM30.5278 33.0975L30.5276 33.0976C30.9312 34.2247 31.662 35.1596 32.389 36.0897L32.3891 36.0898C32.612 36.3749 32.8345 36.6596 33.0471 36.9492C32.5733 37.117 32.0918 37.2627 31.6103 37.4083L31.6102 37.4084C30.9485 37.6085 30.2869 37.8087 29.6448 38.0664C29.6203 38.1806 29.5849 38.3432 29.5478 38.514C29.496 38.7522 29.4406 39.0064 29.4065 39.168C29.558 39.136 29.7095 39.1036 29.861 39.0713L29.861 39.0713C30.8934 38.8511 31.9277 38.6304 32.9768 38.5078C33.6057 37.9961 34.4925 37.2109 33.969 36.3203C33.1643 34.9805 32.2268 33.6055 30.805 32.8633C30.7387 32.9218 30.5984 33.0386 30.528 33.0973L30.5278 33.0975L30.5278 33.0975ZM20.4103 33.8555C20.8595 33.3242 21.5158 33.0859 22.1642 32.8867C21.8714 34.2987 20.8081 35.2071 19.7603 36.1023C19.3965 36.4132 19.0344 36.7225 18.7072 37.0508C19.9594 37.5997 21.2955 37.8046 22.6301 38.0092H22.6302L22.6302 38.0092C23.4896 38.141 24.3484 38.2727 25.1838 38.4961C25.1974 38.6152 25.2199 38.7939 25.2423 38.9726L25.2424 38.9728C25.2648 39.1515 25.2873 39.3301 25.3009 39.4492C24.465 39.4258 23.6291 39.3516 22.7931 39.2734C21.922 39.1484 21.0549 38.9805 20.1916 38.8086C20.1052 38.7869 20.0137 38.765 19.9185 38.7422L19.918 38.7421C18.8118 38.477 17.2135 38.0941 17.5588 36.6484C18.0543 36.0114 18.6552 35.4755 19.2566 34.9392L19.2566 34.9392C19.6509 34.5877 20.0453 34.236 20.4103 33.8555ZM15.9074 41.5641C15.7141 41.7345 15.5217 41.9044 15.3284 42.0703C14.6214 42.6289 14.7346 43.8672 15.4846 44.332C16.1255 44.6632 16.8327 44.8186 17.5329 44.9724C17.5924 44.9855 17.6518 44.9985 17.7112 45.0117C23.3401 46.1992 29.305 46.0703 34.801 44.3242C36.3675 43.7383 35.5706 41.9492 34.8675 40.9805C34.4729 40.8867 34.0823 40.7891 33.6917 40.6875L33.8089 41.0039C33.8313 41.0893 33.8654 41.2264 33.8978 41.3564C33.9217 41.4525 33.9446 41.5447 33.9612 41.6094C34.1209 42.0849 34.3113 42.5511 34.5025 43.019C34.5265 43.0778 34.5505 43.1365 34.5745 43.1953C30.2385 44.4765 25.6565 44.9297 21.1643 44.3828C20.9903 44.3593 20.8158 44.3364 20.641 44.3134C18.9875 44.0962 17.3103 43.876 15.8089 43.1094C16.1933 42.7402 16.6478 42.4153 17.1046 42.0887C18.1656 41.3302 19.2393 40.5626 19.4768 39.2109C18.0827 39.6447 16.9833 40.6147 15.9074 41.5641Z" fill="url(#paint2_linear)"/>
<path d="M26.3711 23.6055C27.2031 25.0781 27.9102 26.6172 28.707 28.1094C27.8359 27.4961 26.9648 26.8828 26.1367 26.2109C25.9375 26.2852 25.5391 26.4297 25.3398 26.5039C25.9648 27.4688 27.082 28.4609 26.4336 29.7148C25.9219 32.1484 23.8164 33.5469 21.8867 34.8203C22.418 35.0664 22.9844 35.2227 23.5547 35.3281C24.5977 36.7266 25.6055 38.168 26.9297 39.3242C26.3867 39.3789 25.8438 39.418 25.3008 39.4492C25.2734 39.2109 25.2109 38.7344 25.1836 38.4961C23.0508 37.9258 20.7656 37.9531 18.707 37.0508C19.9766 35.7773 21.7695 34.7891 22.1641 32.8867C22.2891 32.6875 22.543 32.2852 22.6719 32.0859C23.5234 32.2461 24.4844 32.3672 24.4648 31.1992C23.8359 31.0703 23.2109 30.9375 22.5859 30.8008C24.1602 28.5781 25.4609 26.1758 26.3711 23.6055Z" fill="#8FE5B5"/>
<path d="M27.875 29.0469C28.418 29.2344 28.9609 29.4219 29.5039 29.6055C29.668 29.9688 29.832 30.3359 29.9961 30.707C29.3555 31.0117 27.543 30.9297 28.1367 32.1133C28.7031 32.1445 29.2695 32.1406 29.8359 32.1016C28.7578 32.2617 27.6719 32.3008 26.5859 32.3555C27.1367 31.3047 27.5039 30.1719 27.875 29.0469Z" fill="#8FE5B5"/>
<path d="M25.582 33.5352C27.2422 33.5508 28.9023 33.4258 30.5273 33.0977C31.0547 34.5703 32.1406 35.7148 33.0469 36.9492C31.9219 37.3477 30.7539 37.6211 29.6445 38.0664C29.5859 38.3398 29.4648 38.8906 29.4063 39.168C29.2813 39.1875 29.0352 39.2305 28.9141 39.2539C27.082 38.1055 25.75 36.3555 24.5156 34.6172C24.875 34.2578 25.2344 33.9023 25.582 33.5352Z" fill="#8FE5B5"/>
<path d="M19.4766 39.2109C19.6562 39.1094 20.0156 38.9102 20.1914 38.8086C21.0547 38.9805 21.9219 39.1484 22.793 39.2734C22.5352 39.3047 22.0195 39.3672 21.7656 39.3945C21.8477 39.625 22.0156 40.0859 22.0977 40.3164C24.1914 40.7461 26.3594 40.6836 28.4688 40.3906C30.0391 41.3477 31.8242 41.9336 33.6602 42.0664L33.9609 41.6094C34.1406 42.1445 34.3594 42.668 34.5742 43.1953C30.2383 44.4766 25.6562 44.9297 21.1641 44.3828C19.3438 44.1367 17.4688 43.957 15.8086 43.1094C17.0859 41.8828 19.1367 41.1445 19.4766 39.2109Z" fill="#8FE5B5"/>
<path d="M25.3398 26.5039C25.5391 26.4297 25.9375 26.2852 26.1367 26.2109C26.9648 26.8828 27.8359 27.4961 28.707 28.1094C28.9883 28.5977 29.2578 29.0937 29.5039 29.6055C28.9609 29.4219 28.418 29.2344 27.875 29.0469C27.5039 30.1719 27.1367 31.3047 26.5859 32.3555C26.2695 32.7617 25.9297 33.1523 25.582 33.5352C25.2344 33.9023 24.875 34.2578 24.5156 34.6172C25.75 36.3555 27.082 38.1055 28.9141 39.2539C29.5703 39.6289 30.2539 39.957 30.9375 40.2773C31.6367 40.0859 32.3398 39.918 33.043 39.75C33.2695 40.0547 33.4844 40.3672 33.6914 40.6875L33.8086 41.0039C33.8477 41.1523 33.9219 41.457 33.9609 41.6094L33.6602 42.0664C31.8242 41.9336 30.0391 41.3477 28.4687 40.3906C27.9453 40.0469 27.4258 39.6992 26.9297 39.3242C25.6055 38.168 24.5977 36.7266 23.5547 35.3281C22.9844 35.2227 22.418 35.0664 21.8867 34.8203C23.8164 33.5469 25.9219 32.1484 26.4336 29.7148C27.082 28.4609 25.9648 27.4687 25.3398 26.5039Z" fill="#DEFFED"/>
<path d="M29.8359 32.1016C30.0703 32.0547 30.5469 31.9648 30.7812 31.918C30.7891 32.1523 30.8008 32.6289 30.8047 32.8633C30.7383 32.9219 30.5977 33.0391 30.5273 33.0977C28.9023 33.4258 27.2422 33.5508 25.582 33.5352C25.9297 33.1523 26.2695 32.7617 26.5859 32.3555C27.6719 32.3008 28.7578 32.2617 29.8359 32.1016Z" fill="#06A18C"/>
<path d="M29.4062 39.168C30.5898 38.918 31.7734 38.6484 32.9766 38.5078C33.1406 38.582 33.4687 38.7305 33.6328 38.8047C33.4844 39.0391 33.1914 39.5117 33.043 39.75C32.3398 39.918 31.6367 40.0859 30.9375 40.2773C30.2539 39.957 29.5703 39.6289 28.9141 39.2539C29.0352 39.2305 29.2812 39.1875 29.4062 39.168Z" fill="#06A18C"/>
<path d="M21.7656 39.3945C22.0195 39.3672 22.5352 39.3047 22.793 39.2734C23.6289 39.3516 24.4648 39.4258 25.3008 39.4492C25.8438 39.418 26.3867 39.3789 26.9297 39.3242C27.4258 39.6992 27.9453 40.0469 28.4688 40.3906C26.3594 40.6836 24.1914 40.7461 22.0977 40.3164C22.0156 40.0859 21.8477 39.625 21.7656 39.3945Z" fill="#06A18C"/>
<path d="M34.4219 31.1812C34.9407 31.0219 35.1157 31.1937 34.95 31.7C34.4344 31.8625 34.2594 31.6906 34.4219 31.1812Z" fill="#444B54"/>
<path d="M48.1815 36.4876C48.7002 36.3376 48.8721 36.5126 48.6971 37.0157C48.1783 37.1688 48.0065 36.9907 48.1815 36.4876Z" fill="#2B87FF"/>
<path fill-rule="evenodd" clip-rule="evenodd" d="M40.6345 22H40.397C40.0328 22.7232 39.7535 23.4851 39.4743 24.2468L39.4743 24.2468C39.0609 25.3743 38.6477 26.5016 37.9595 27.5031C37.7634 27.8905 37.4909 28.2421 37.2189 28.5933C36.7842 29.1544 36.3505 29.7141 36.2314 30.4156C36.7064 30.6438 37.2251 30.7594 37.7376 30.8688C38.4189 30.9969 39.1876 31.0938 39.172 30.1594C38.6689 30.0563 38.1689 29.95 37.6689 29.8406C38.9282 28.0625 39.9689 26.1406 40.697 24.0844C41.0849 24.7709 41.4388 25.4755 41.7928 26.1802C42.0462 26.6848 42.2997 27.1894 42.5657 27.6875C42.7907 28.0781 43.0064 28.475 43.2032 28.8844C43.3345 29.175 43.4657 29.4688 43.597 29.7656C43.4619 29.8299 43.2617 29.8726 43.0487 29.9181C42.4538 30.0451 41.7597 30.1933 42.1095 30.8906C42.5626 30.9156 43.0157 30.9125 43.4689 30.8813C43.5626 30.8625 43.7047 30.8352 43.8469 30.8078L43.847 30.8078L43.8471 30.8078C43.9892 30.7805 44.1314 30.7531 44.2251 30.7344C44.4821 30.5944 44.7287 30.4336 44.9744 30.2734L45.0439 30.2281C44.5118 29.2057 43.989 28.1787 43.4663 27.152L43.4661 27.1517L43.466 27.1515L43.4659 27.1514C43.126 26.4837 42.7861 25.8161 42.4439 25.15C42.3091 24.891 42.1806 24.6276 42.0521 24.364C41.6473 23.5338 41.2417 22.7021 40.6345 22ZM44.0221 31.6781L44.022 31.6781C44.3449 32.5798 44.9295 33.3277 45.5112 34.0717L45.5112 34.0717C45.6895 34.2999 45.8675 34.5276 46.0377 34.7594C45.6586 34.8936 45.2734 35.0102 44.8881 35.1267L44.8881 35.1267C44.3588 35.2868 43.8294 35.4469 43.3158 35.6531C43.2962 35.7445 43.2679 35.8746 43.2382 36.0112L43.2381 36.0116C43.1967 36.202 43.1524 36.4052 43.1252 36.5344C43.2464 36.5088 43.3675 36.4829 43.4888 36.4571C44.3147 36.2809 45.1421 36.1043 45.9814 36.0062C46.4845 35.5969 47.1939 34.9687 46.7752 34.2562C46.1314 33.1844 45.3814 32.0844 44.2439 31.4906C44.1909 31.5374 44.0787 31.6309 44.0223 31.6779L44.0223 31.6779L44.0221 31.6781ZM35.9282 32.2844C36.2876 31.8594 36.8126 31.6687 37.3314 31.5094C37.0971 32.639 36.2465 33.3657 35.4083 34.0819C35.1172 34.3306 34.8275 34.578 34.5657 34.8406C35.5675 35.2797 36.6364 35.4436 37.7041 35.6074L37.7041 35.6074C38.3916 35.7128 39.0787 35.8182 39.747 35.9969C39.7579 36.0922 39.7759 36.2351 39.7939 36.3781L39.7939 36.3781C39.8118 36.5211 39.8298 36.6641 39.8407 36.7594C39.172 36.7406 38.5032 36.6812 37.8345 36.6187C37.1376 36.5187 36.4439 36.3844 35.7532 36.2469C35.6841 36.2295 35.6108 36.212 35.5345 36.1937L35.5344 36.1937C34.6494 35.9816 33.3708 35.6753 33.647 34.5187C34.0434 34.0091 34.5242 33.5804 35.0053 33.1514L35.0053 33.1514C35.3207 32.8701 35.6362 32.5888 35.9282 32.2844ZM32.3259 38.4513C32.1713 38.5876 32.0173 38.7235 31.8627 38.8562C31.2971 39.3031 31.3877 40.2937 31.9877 40.6656C32.5004 40.9306 33.0661 41.0549 33.6263 41.1779C33.6739 41.1884 33.7215 41.1988 33.769 41.2094C38.2721 42.1594 43.044 42.0562 47.4408 40.6594C48.694 40.1906 48.0565 38.7594 47.494 37.9844C47.1783 37.9094 46.8658 37.8312 46.5533 37.75L46.6471 38.0031C46.6651 38.0714 46.6924 38.1811 46.7182 38.2852C46.7373 38.362 46.7557 38.4357 46.769 38.4875C46.8967 38.8679 47.0491 39.2409 47.202 39.6152C47.2212 39.6622 47.2404 39.7092 47.2596 39.7562C43.7908 40.7812 40.1252 41.1437 36.5315 40.7062C36.3922 40.6874 36.2526 40.6691 36.1128 40.6507C34.79 40.477 33.4482 40.3008 32.2471 39.6875C32.5546 39.3922 32.9182 39.1322 33.2837 38.871C34.1325 38.2641 34.9914 37.6501 35.1815 36.5687C34.0661 36.9158 33.1866 37.6918 32.3259 38.4513Z" fill="url(#paint3_linear)"/>
<path d="M40.6972 24.0844C41.3628 25.2625 41.9284 26.4937 42.5659 27.6875C41.869 27.1969 41.1722 26.7062 40.5097 26.1687C40.3503 26.2281 40.0315 26.3437 39.8722 26.4031C40.3722 27.175 41.2659 27.9687 40.7472 28.9719C40.3378 30.9187 38.6534 32.0375 37.1097 33.0562C37.5347 33.2531 37.9878 33.3781 38.444 33.4625C39.2784 34.5812 40.0847 35.7344 41.144 36.6594C40.7097 36.7031 40.2753 36.7344 39.8409 36.7594C39.819 36.5687 39.769 36.1875 39.7472 35.9969C38.0409 35.5406 36.2128 35.5625 34.5659 34.8406C35.5815 33.8219 37.0159 33.0312 37.3315 31.5094C37.4315 31.35 37.6347 31.0281 37.7378 30.8687C38.419 30.9969 39.1878 31.0937 39.1722 30.1594C38.669 30.0562 38.169 29.95 37.669 29.8406C38.9284 28.0625 39.969 26.1406 40.6972 24.0844Z" fill="#8FE5B5"/>
<path d="M41.8999 28.4375C42.3343 28.5875 42.7687 28.7375 43.203 28.8844C43.3343 29.175 43.4655 29.4688 43.5968 29.7656C43.0843 30.0094 41.6343 29.9438 42.1093 30.8906C42.5624 30.9156 43.0155 30.9125 43.4686 30.8813C42.6062 31.0094 41.7374 31.0406 40.8687 31.0844C41.3093 30.2438 41.603 29.3375 41.8999 28.4375Z" fill="#8FE5B5"/>
<path d="M40.0655 32.0281C41.3937 32.0406 42.7218 31.9406 44.0218 31.6781C44.4437 32.8562 45.3124 33.7719 46.0374 34.7594C45.1374 35.0781 44.203 35.2969 43.3155 35.6531C43.2687 35.8719 43.1718 36.3125 43.1249 36.5344C43.0249 36.55 42.828 36.5844 42.7312 36.6031C41.2655 35.6844 40.1999 34.2844 39.2124 32.8937C39.4999 32.6062 39.7874 32.3219 40.0655 32.0281Z" fill="#8FE5B5"/>
<path d="M35.1814 36.5687C35.3252 36.4875 35.6127 36.3281 35.7533 36.2468C36.4439 36.3843 37.1377 36.5187 37.8346 36.6187C37.6283 36.6437 37.2158 36.6937 37.0127 36.7156C37.0783 36.9 37.2127 37.2687 37.2783 37.4531C38.9533 37.7968 40.6877 37.7468 42.3752 37.5125C43.6314 38.2781 45.0596 38.7468 46.5283 38.8531L46.7689 38.4874C46.9127 38.9156 47.0877 39.3343 47.2596 39.7562C43.7908 40.7812 40.1252 41.1437 36.5314 40.7062C35.0752 40.5093 33.5752 40.3656 32.2471 39.6874C33.2689 38.7062 34.9096 38.1156 35.1814 36.5687Z" fill="#8FE5B5"/>
<path d="M39.8719 26.4031C40.0312 26.3437 40.35 26.2281 40.5094 26.1687C41.1719 26.7062 41.8687 27.1968 42.5656 27.6875C42.7906 28.0781 43.0062 28.475 43.2031 28.8843C42.7687 28.7375 42.3344 28.5875 41.9 28.4375C41.6031 29.3375 41.3094 30.2437 40.8687 31.0843C40.6156 31.4093 40.3437 31.7218 40.0656 32.0281C39.7875 32.3218 39.5 32.6062 39.2125 32.8937C40.2 34.2843 41.2656 35.6843 42.7312 36.6031C43.2562 36.9031 43.8031 37.1656 44.35 37.4218C44.9094 37.2687 45.4719 37.1343 46.0344 36.9999C46.2156 37.2437 46.3875 37.4937 46.5531 37.7499L46.6469 38.0031C46.6781 38.1218 46.7375 38.3656 46.7687 38.4874L46.5281 38.8531C45.0594 38.7468 43.6312 38.2781 42.375 37.5124C41.9562 37.2374 41.5406 36.9593 41.1437 36.6593C40.0844 35.7343 39.2781 34.5812 38.4438 33.4624C37.9875 33.3781 37.5344 33.2531 37.1094 33.0562C38.6531 32.0374 40.3375 30.9187 40.7469 28.9718C41.2656 27.9687 40.3719 27.175 39.8719 26.4031Z" fill="#99EDBE"/>
<path d="M43.469 30.8812C43.6565 30.8437 44.0378 30.7719 44.2253 30.7344C44.2315 30.9219 44.2409 31.3031 44.244 31.4906C44.1909 31.5375 44.0784 31.6312 44.0222 31.6781C42.7222 31.9406 41.394 32.0406 40.0659 32.0281C40.344 31.7219 40.6159 31.4094 40.869 31.0844C41.7378 31.0406 42.6065 31.0094 43.469 30.8812Z" fill="#06A18C"/>
<path d="M43.1252 36.5343C44.0721 36.3343 45.0189 36.1187 45.9814 36.0062C46.1127 36.0656 46.3752 36.1844 46.5064 36.2437C46.3877 36.4312 46.1533 36.8093 46.0346 37C45.4721 37.1343 44.9096 37.2687 44.3502 37.4218C43.8033 37.1656 43.2564 36.9031 42.7314 36.6031C42.8283 36.5843 43.0252 36.55 43.1252 36.5343Z" fill="#06A18C"/>
<path d="M37.0127 36.7156C37.2158 36.6938 37.6283 36.6438 37.8346 36.6188C38.5033 36.6813 39.1721 36.7406 39.8408 36.7594C40.2752 36.7344 40.7096 36.7031 41.1439 36.6594C41.5408 36.9594 41.9564 37.2375 42.3752 37.5125C40.6877 37.7469 38.9533 37.7969 37.2783 37.4531C37.2127 37.2688 37.0783 36.9 37.0127 36.7156Z" fill="#06A18C"/>
<path d="M33 45.5L38.5 45V45.4586C38.5 47.4827 38.3328 49.5034 38 51.5C36.3951 52.1419 34.6049 52.1419 33 51.5C32.6689 49.5137 32.6689 47.4863 33 45.5Z" fill="url(#paint4_linear)"/>
<path d="M42.4726 29.5263C41.8242 29.2394 41.6054 29.5488 41.8124 30.46C42.457 30.7525 42.6757 30.4432 42.4726 29.5263Z" fill="#444B54"/>
<path d="M25.2732 39.0775C24.6247 38.8075 24.4099 39.1225 24.6287 40.0281C25.2771 40.3038 25.4919 39.9831 25.2732 39.0775Z" fill="#444B54"/>
<path fill-rule="evenodd" clip-rule="evenodd" d="M34.7068 13H35.0037C35.4589 14.3018 35.808 15.6731 36.1571 17.0443L36.1571 17.0443L36.1571 17.0443C36.6738 19.0738 37.1903 21.1029 38.0506 22.9056C38.2957 23.6028 38.6363 24.2359 38.9763 24.8679C39.5197 25.8779 40.0618 26.8853 40.2107 28.1481C39.617 28.5588 38.9685 28.7669 38.3279 28.9638C37.4764 29.1944 36.5154 29.3688 36.535 27.6869C37.1639 27.5013 37.7889 27.31 38.4139 27.1131C36.8396 23.9125 35.5389 20.4531 34.6287 16.7519C34.1439 17.9876 33.7015 19.2558 33.259 20.5242L33.259 20.5243L33.259 20.5243C32.9421 21.4326 32.6253 22.3409 32.2928 23.2375C32.0115 23.9406 31.742 24.655 31.4959 25.3919C31.3318 25.915 31.1678 26.4438 31.0037 26.9781C31.1726 27.0938 31.4229 27.1707 31.689 27.2526C32.4327 27.4812 33.3003 27.748 32.8631 29.0031C32.2967 29.0481 31.7303 29.0425 31.1639 28.9863C31.0467 28.9525 30.869 28.9033 30.6913 28.8541L30.6912 28.8541C30.5135 28.8048 30.3357 28.7556 30.2185 28.7219C29.8973 28.47 29.589 28.1805 29.2819 27.8921L29.1951 27.8106C29.8602 25.9702 30.5138 24.1215 31.1672 22.2733L31.1673 22.2732L31.1673 22.2731L31.1673 22.273L31.1673 22.273C31.5923 21.071 32.0172 19.8692 32.4451 18.67C32.6136 18.2037 32.7741 17.7296 32.9348 17.2553L32.9348 17.2552C33.4408 15.7609 33.9478 14.2638 34.7068 13ZM30.4722 30.4204L30.4724 30.4206C30.0688 32.0436 29.338 33.3898 28.611 34.7291L28.611 34.7291L28.611 34.7292L28.611 34.7292C28.3881 35.1398 28.1655 35.5498 27.9529 35.9669C28.4267 36.2086 28.9082 36.4183 29.3897 36.628L29.3898 36.6281L29.3898 36.6281C30.0515 36.9163 30.7131 37.2045 31.3552 37.5756C31.3796 37.7394 31.4147 37.9721 31.4517 38.217L31.4521 38.2196L31.4522 38.2202C31.5041 38.5632 31.5594 38.9293 31.5935 39.1619C31.442 39.1158 31.2905 39.0693 31.139 39.0227C30.1066 38.7056 29.0723 38.3878 28.0232 38.2113C27.3943 37.4744 26.5075 36.3438 27.031 35.0613C27.8357 33.1319 28.7732 31.1519 30.195 30.0831C30.2614 30.1674 30.4018 30.336 30.4722 30.4204ZM40.5897 31.5118C40.1405 30.7468 39.4842 30.4037 38.8358 30.1168C39.1286 32.1501 40.1919 33.4582 41.2397 34.7473C41.6035 35.195 41.9656 35.6404 42.2928 36.1131C41.0406 36.9035 39.7045 37.1985 38.3698 37.4932C37.5105 37.683 36.6517 37.8727 35.8162 38.1943C35.8026 38.3659 35.7801 38.6232 35.7577 38.8805L35.7576 38.8806C35.7352 39.1379 35.7127 39.3953 35.6991 39.5668C36.535 39.5331 37.3709 39.4262 38.2069 39.3137C39.078 39.1337 39.9451 38.8918 40.8084 38.6443C40.8949 38.6131 40.9866 38.5815 41.082 38.5486C42.1882 38.1669 43.7865 37.6155 43.4412 35.5337C42.9457 34.6163 42.3448 33.8447 41.7434 33.0725C41.3491 32.5662 40.9547 32.0598 40.5897 31.5118ZM45.0926 42.6123C45.2859 42.8578 45.4783 43.1023 45.6716 43.3413C46.3786 44.1456 46.2654 45.9288 45.5154 46.5981C44.8745 47.0751 44.1673 47.2988 43.4671 47.5203C43.4076 47.5391 43.3482 47.5579 43.2888 47.5769C37.6599 49.2869 31.695 49.1012 26.199 46.5869C24.6325 45.7431 25.4294 43.1669 26.1325 41.7719C26.5271 41.6369 26.9177 41.4963 27.3083 41.35L27.1911 41.8056C27.1687 41.9286 27.1346 42.126 27.1022 42.3133C27.0783 42.4516 27.0554 42.5843 27.0388 42.6775C26.8791 43.3622 26.6886 44.0336 26.4975 44.7075C26.4735 44.792 26.4495 44.8766 26.4255 44.9613C30.7615 46.8063 35.3435 47.4588 39.8357 46.6713C40.0097 46.6374 40.1842 46.6044 40.359 46.5713C42.0125 46.2586 43.6897 45.9414 45.1911 44.8375C44.8067 44.3059 44.3522 43.8381 43.8954 43.3678C42.8344 42.2754 41.7607 41.1702 41.5232 39.2238C42.9173 39.8484 44.0167 41.2453 45.0926 42.6123Z" fill="url(#paint5_linear)"/>
<path d="M34.6289 16.7518C33.7969 18.8725 33.0898 21.0887 32.293 23.2375C33.1641 22.3543 34.0352 21.4712 34.8633 20.5037C35.0625 20.6106 35.4609 20.8187 35.6602 20.9256C35.0352 22.315 33.918 23.7437 34.5664 25.5493C35.0781 29.0537 37.1836 31.0675 39.1133 32.9012C38.582 33.2556 38.0156 33.4806 37.4453 33.6325C36.4023 35.6462 35.3945 37.7218 34.0703 39.3868C34.6133 39.4656 35.1562 39.5218 35.6992 39.5668C35.7266 39.2237 35.7891 38.5375 35.8164 38.1943C37.9492 37.3731 40.2344 37.4125 42.293 36.1131C41.0234 34.2793 39.2305 32.8562 38.8359 30.1168C38.7109 29.83 38.457 29.2506 38.3281 28.9637C37.4766 29.1943 36.5156 29.3687 36.5352 27.6868C37.1641 27.5012 37.7891 27.31 38.4141 27.1131C36.8398 23.9125 35.5391 20.4531 34.6289 16.7518Z" fill="#8FE5B5"/>
<path d="M33.125 24.5875C32.582 24.8575 32.0391 25.1275 31.4961 25.3919C31.332 25.915 31.168 26.4438 31.0039 26.9782C31.6445 27.4169 33.457 27.2988 32.8633 29.0032C32.2969 29.0482 31.7305 29.0425 31.1641 28.9863C32.2422 29.2169 33.3281 29.2732 34.4141 29.3519C33.8633 27.8388 33.4961 26.2075 33.125 24.5875Z" fill="#8FE5B5"/>
<path d="M35.418 31.0505C33.7578 31.073 32.0977 30.893 30.4727 30.4205C29.9453 32.5412 28.8594 34.1893 27.9531 35.9668C29.0781 36.5405 30.2461 36.9343 31.3555 37.5755C31.4141 37.9693 31.5352 38.7624 31.5937 39.1618C31.7187 39.1899 31.9648 39.2518 32.0859 39.2855C33.918 37.6318 35.25 35.1118 36.4844 32.6087C36.125 32.0912 35.7656 31.5793 35.418 31.0505Z" fill="#8FE5B5"/>
<path d="M41.5234 39.2237C41.3438 39.0774 40.9844 38.7905 40.8086 38.6443C39.9453 38.8918 39.0781 39.1337 38.207 39.3137C38.4648 39.3587 38.9805 39.4487 39.2344 39.488C39.1523 39.8199 38.9844 40.4837 38.9023 40.8155C36.8086 41.4343 34.6406 41.3443 32.5312 40.9224C30.9609 42.3005 29.1758 43.1443 27.3398 43.3355L27.0391 42.6774C26.8594 43.448 26.6406 44.2018 26.4258 44.9612C30.7617 46.8062 35.3438 47.4587 39.8359 46.6712C41.6562 46.3168 43.5312 46.058 45.1914 44.8374C43.9141 43.0712 41.8633 42.008 41.5234 39.2237Z" fill="#8FE5B5"/>
<path d="M35.6602 20.9255C35.4609 20.8187 35.0625 20.6105 34.8633 20.5037C34.0352 21.4712 33.1641 22.3543 32.293 23.2374C32.0117 23.9405 31.7422 24.6549 31.4961 25.3918C32.0391 25.1274 32.582 24.8574 33.125 24.5874C33.4961 26.2074 33.8633 27.8387 34.4141 29.3518C34.7305 29.9368 35.0703 30.4993 35.418 31.0505C35.7656 31.5793 36.125 32.0912 36.4844 32.6087C35.25 35.1118 33.918 37.6318 32.0859 39.2855C31.4297 39.8255 30.7461 40.298 30.0625 40.7593C29.3633 40.4837 28.6602 40.2418 27.957 39.9999C27.7305 40.4387 27.5156 40.8887 27.3086 41.3499L27.1914 41.8055C27.1523 42.0193 27.0781 42.458 27.0391 42.6774L27.3398 43.3355C29.1758 43.1443 30.9609 42.3005 32.5313 40.9224C33.0547 40.4274 33.5742 39.9268 34.0703 39.3868C35.3945 37.7218 36.4023 35.6462 37.4453 33.6324C38.0156 33.4805 38.582 33.2555 39.1133 32.9012C37.1836 31.0674 35.0781 29.0537 34.5664 25.5493C33.918 23.7437 35.0352 22.3149 35.6602 20.9255Z" fill="white"/>
<path d="M31.1641 28.9863C30.9297 28.9188 30.4531 28.7894 30.2188 28.7219C30.2109 29.0594 30.1992 29.7457 30.1953 30.0832C30.2617 30.1675 30.4023 30.3363 30.4727 30.4207C32.0977 30.8932 33.7578 31.0732 35.418 31.0507C35.0703 30.4994 34.7305 29.9369 34.4141 29.3519C33.3281 29.2732 32.2422 29.2169 31.1641 28.9863Z" fill="#06A18C"/>
<path d="M31.5938 39.1619C30.4102 38.8019 29.2266 38.4138 28.0234 38.2113C27.8594 38.3182 27.5313 38.5319 27.3672 38.6388C27.5156 38.9763 27.8086 39.6569 27.957 40C28.6602 40.2419 29.3633 40.4838 30.0625 40.7594C30.7461 40.2982 31.4297 39.8257 32.0859 39.2857C31.9648 39.2519 31.7188 39.1901 31.5938 39.1619Z" fill="#06A18C"/>
<path d="M39.2344 39.4882C38.9805 39.4488 38.4648 39.3588 38.207 39.3138C37.3711 39.4263 36.5352 39.5332 35.6992 39.567C35.1562 39.522 34.6133 39.4657 34.0703 39.387C33.5742 39.927 33.0547 40.4276 32.5312 40.9226C34.6406 41.3445 36.8086 41.4345 38.9023 40.8157C38.9844 40.4838 39.1523 39.8201 39.2344 39.4882Z" fill="#06A18C"/>
<defs>
<filter id="filter0_i" x="0" y="0" width="67" height="71" filterUnits="userSpaceOnUse" color-interpolation-filters="sRGB">
<feFlood flood-opacity="0" result="BackgroundImageFix"/>
<feBlend mode="normal" in="SourceGraphic" in2="BackgroundImageFix" result="shape"/>
<feColorMatrix in="SourceAlpha" type="matrix" values="0 0 0 0 0 0 0 0 0 0 0 0 0 0 0 0 0 0 127 0" result="hardAlpha"/>
<feOffset dy="4"/>
<feGaussianBlur stdDeviation="2.5"/>
<feComposite in2="hardAlpha" operator="arithmetic" k2="-1" k3="1"/>
<feColorMatrix type="matrix" values="0 0 0 0 0 0 0 0 0 0.32 0 0 0 0 0.5 0 0 0 0.27 0"/>
<feBlend mode="normal" in2="shape" result="effect1_innerShadow"/>
</filter>
<linearGradient id="paint0_linear" x1="29" y1="46.5" x2="23" y2="47.6667" gradientUnits="userSpaceOnUse">
<stop stop-color="#76615A"/>
<stop offset="1" stop-color="#483B37"/>
</linearGradient>
<linearGradient id="paint1_linear" x1="-10.3395" y1="1.24074" x2="67" y2="60.5895" gradientUnits="userSpaceOnUse">
<stop stop-color="#00C2FF"/>
<stop offset="1" stop-color="#0085FF"/>
</linearGradient>
<linearGradient id="paint2_linear" x1="37.5539" y1="19.8095" x2="17.911" y2="47.9345" gradientUnits="userSpaceOnUse">
<stop stop-color="#0085FF"/>
<stop offset="1" stop-color="#53C595"/>
</linearGradient>
<linearGradient id="paint3_linear" x1="49.6431" y1="21.0476" x2="33.9288" y2="43.5476" gradientUnits="userSpaceOnUse">
<stop stop-color="#0085FF"/>
<stop offset="1" stop-color="#53C595"/>
</linearGradient>
<linearGradient id="paint4_linear" x1="33.5" y1="53" x2="35" y2="47.5" gradientUnits="userSpaceOnUse">
<stop stop-color="#76615A"/>
<stop offset="1" stop-color="#483B37"/>
</linearGradient>
<linearGradient id="paint5_linear" x1="23.4461" y1="11.2857" x2="53.5732" y2="41.2416" gradientUnits="userSpaceOnUse">
<stop stop-color="#00C2FF"/>
<stop offset="1" stop-color="#53C595"/>
</linearGradient>
</defs>
</svg>
