<svg width="185" height="40" viewBox="0 0 185 40" fill="none" xmlns="http://www.w3.org/2000/svg">
<rect width="185" height="40" rx="20" fill="white"/>
<ellipse cx="163.5" cy="20" rx="11.8125" ry="12.25" fill="#FF8C00"/>
<path d="M168.519 23.5879C168.5 23.4148 168.404 23.018 168.155 22.9161H168.155C168.031 22.8652 167.925 22.9057 167.878 22.9975C167.801 23.1402 167.858 23.4148 168.002 23.6595C168.146 23.9037 168.28 24.0259 168.376 24.0259C168.472 24.0259 168.558 23.9037 168.519 23.5879Z" fill="white"/>
<path d="M167.178 24.2803C167.024 24.1379 166.852 24.0667 166.698 24.0667C166.564 24.0667 166.459 24.1173 166.392 24.2091C166.219 24.4328 166.296 24.8404 166.564 25.0847C166.679 25.1967 166.852 25.2578 167.015 25.2578C167.178 25.2578 167.321 25.1866 167.408 25.0746C167.561 24.8505 167.475 24.5452 167.178 24.2803Z" fill="white"/>
<path d="M156.75 20.0043C156.75 23.873 159.702 27.0089 163.344 27.0089H163.344C164.312 27.0089 165.27 26.8156 166.679 26.8051C167.935 26.8051 169.315 27.2735 170.829 28.699C170.983 28.8414 171.184 28.6582 171.05 28.4851C169.564 26.4795 168.184 26.103 166.804 25.777C165.117 25.3799 164.255 24.3822 163.651 23.2725C163.536 23.0484 163.478 23.0892 163.468 23.3743C163.458 23.7939 163.486 24.2135 163.555 24.6268H163.354C160.948 24.6268 158.993 22.5497 158.993 19.9942C158.993 17.4386 160.948 15.3616 163.353 15.3616C165.759 15.3616 167.715 17.4386 167.715 19.9942C167.715 20.1774 167.705 20.3606 167.686 20.5337C167.36 20.4726 166.737 20.4625 166.296 20.5033C166.133 20.5236 166.152 20.6049 166.277 20.6255C167.715 20.9103 168.702 21.8574 168.932 23.5778C168.941 23.6186 168.989 23.6288 169.009 23.5984C169.593 22.5497 169.938 21.3175 169.938 20.0043C169.938 16.1359 166.986 13 163.344 13C159.702 13 156.75 16.1356 156.75 20.0043Z" fill="white"/>
<ellipse cx="81.5" cy="20" rx="12.6875" ry="12.25" fill="#EE2A23"/>
<path d="M75.1562 25.9332C75.1562 25.8452 75.2432 25.773 75.3521 25.773H87.6457C87.7568 25.773 87.8438 25.8452 87.8438 25.9332V27.7159C87.8438 27.8039 87.7568 27.875 87.6457 27.875H75.3521C75.2432 27.875 75.1562 27.8039 75.1562 27.7159V25.9332Z" fill="white"/>
<path fill-rule="evenodd" clip-rule="evenodd" d="M81.5015 12.125C82.8465 12.125 83.2691 12.8938 83.6237 13.6613L87.3728 21.8436C87.4007 21.9074 87.3818 22.0123 87.2586 22.0502C87.1346 22.0876 85.3186 22.6503 85.2181 22.6804C85.1175 22.7112 85.0049 22.6666 84.9686 22.5864C84.9308 22.5075 84.1771 20.8447 84.0924 20.6591H78.9121C78.8305 20.8447 78.0677 22.5111 78.0337 22.5864C77.9989 22.663 77.8908 22.7148 77.7834 22.6804C77.6761 22.6467 75.8533 22.084 75.7444 22.0502C75.6401 22.0177 75.5925 21.9231 75.6288 21.8436C75.7573 21.558 79.1994 14.0529 79.3748 13.6613C79.7166 12.9052 80.1535 12.125 81.5015 12.125ZM79.7385 18.8059L81.5121 14.6156L83.2691 18.8059H79.7385Z" fill="white"/>
<ellipse cx="136.5" cy="20" rx="11.8125" ry="12.25" fill="#299D37"/>
<path d="M142.349 13.8873L141.624 13.2078L133.197 18.1549L129.18 15.7981L128.766 16.6474L133.197 19.2802L142.349 13.8873Z" fill="white"/>
<path d="M140.755 12.6346L139.782 12.125L133.197 16.0105L130.278 14.2907L129.677 15.0338L133.197 17.0933L140.755 12.6346Z" fill="white"/>
<path d="M143.529 15.331L142.991 14.5879L133.197 20.363L128.435 17.5604L128.207 18.4946L133.197 21.4246L143.529 15.331Z" fill="white"/>
<path d="M144.938 20.0869C144.938 19.1243 144.786 18.2045 144.482 17.3268L144.026 16.1378L133.197 22.5074L128.062 19.5137V20.0869C128.062 21.2475 128.283 22.3728 128.725 23.4632C129.139 24.4964 129.74 25.4166 130.526 26.2234C131.327 27.0158 132.217 27.6247 133.197 28.0493C134.246 28.516 135.344 28.75 136.49 28.75C137.622 28.75 138.719 28.5164 139.782 28.0493C140.79 27.6247 141.687 27.0158 142.474 26.2234C143.247 25.4166 143.847 24.4964 144.275 23.4632L144.482 22.8896C144.786 21.9838 144.938 21.0496 144.938 20.0869Z" fill="white"/>
<ellipse cx="104.438" cy="20" rx="7.59375" ry="7.875" fill="#E80B26"/>
<ellipse cx="114.562" cy="20" rx="7.59375" ry="7.875" fill="#F59D31"/>
<path d="M109.5 25.8698C111.054 24.4279 112.031 22.3324 112.031 20.0001C112.031 17.6678 111.054 15.5723 109.5 14.1304C107.946 15.5723 106.969 17.6678 106.969 20.0001C106.969 22.3324 107.946 24.4279 109.5 25.8698Z" fill="#FC6020"/>
<path d="M33.9659 14.4151C34.2289 12.637 33.9659 11.4517 33.0455 10.3575C32.0375 9.1265 30.1967 8.625 27.83 8.625H21.0366C20.5545 8.625 20.16 8.98973 20.0724 9.49123L17.2235 28.1836C17.1797 28.5483 17.4427 28.8675 17.7933 28.8675H22.0008L21.694 30.7823C21.6502 31.1015 21.8693 31.375 22.2199 31.375H25.77C26.2083 31.375 26.5589 31.0559 26.6028 30.6455L27.3478 25.8129C27.3917 25.4026 27.7861 25.0834 28.1806 25.0834H28.7065C32.1251 25.0834 34.8425 23.6245 35.6314 19.4301C35.9382 17.6976 35.8067 16.1931 34.9301 15.1901C34.6672 14.871 34.3604 14.643 33.9659 14.4151Z" fill="#009CDE"/>
<path d="M33.9659 14.4151C34.2289 12.637 33.9659 11.4517 33.0455 10.3575C32.0375 9.1265 30.1967 8.625 27.83 8.625H21.0366C20.5545 8.625 20.16 8.98973 20.0724 9.49123L17.2235 28.1836C17.1797 28.5483 17.4427 28.8675 17.7933 28.8675H22.0008L23.0089 22.12C23.0965 21.6185 23.491 21.2538 23.9731 21.2538H25.9892C29.9337 21.2538 33.0017 19.6125 33.8783 14.7798C33.9221 14.6886 33.9221 14.5519 33.9659 14.4151Z" fill="#012169"/>
<path d="M24.1922 14.4607C24.236 14.1415 24.6305 13.7312 25.0249 13.7312H30.372C30.9856 13.7312 31.5992 13.7768 32.1251 13.868C32.6072 13.9592 33.4838 14.1871 33.9221 14.4607C34.185 12.6826 33.9221 11.4972 33.0017 10.4031C32.0375 9.1265 30.1967 8.625 27.83 8.625H21.0366C20.5545 8.625 20.16 8.98973 20.0724 9.49123L17.2235 28.1836C17.1797 28.5483 17.4427 28.8675 17.7933 28.8675H22.0008L24.1922 14.4607Z" fill="#003087"/>
<path d="M41.6875 20C41.6875 13.2345 46.9761 7.75 53.5 7.75C60.0239 7.75 65.3125 13.2345 65.3125 20C65.3125 26.7655 60.0239 32.25 53.5 32.25C46.9761 32.25 41.6875 26.7655 41.6875 20Z" fill="#172A73"/>
<path d="M44.7036 14.5264V15.0476L46.5412 15.3477C47.8433 15.5603 48.8928 16.5752 49.1961 17.9154L51.3473 27.4176C51.4005 27.6528 51.6015 27.8189 51.8328 27.8189H54.8514C55.0506 27.8189 55.2306 27.6952 55.3095 27.5041L60.5167 14.8902C60.5877 14.7182 60.467 14.5264 60.2877 14.5264H57.5064C57.3056 14.5264 57.1243 14.6522 57.0465 14.8457L53.5583 23.5184L52.1667 15.8007C52.0335 15.0616 51.4157 14.5264 50.6961 14.5264H44.7036Z" fill="white"/>
</svg>
